/* XPM */
static char *result[] = {
/* columns rows colors chars-per-pixel */
"60 60 237 2 ",
"   c #353819",
".  c #1D2B26",
"X  c #1D342C",
"o  c #143B2C",
"O  c #153527",
"+  c #1B3D32",
"@  c #0B3D2A",
"#  c #232323",
"$  c #2B2D2D",
"%  c #262A27",
"&  c #24382A",
"*  c #293A36",
"=  c #323435",
"-  c #363638",
";  c #383A3A",
":  c #342F2F",
">  c #371F2E",
",  c #513F17",
"<  c #493434",
"1  c #662438",
"2  c #00492C",
"3  c #09442C",
"4  c #064D32",
"5  c #184537",
"6  c #025335",
"7  c #045B3B",
"8  c #04563B",
"9  c #17533B",
"0  c #11422C",
"q  c #2C443D",
"w  c #26473B",
"e  c #335135",
"r  c #06613F",
"t  c #336132",
"y  c #2B411B",
"u  c #52460C",
"i  c #54480F",
"p  c #4B4719",
"a  c #594B16",
"s  c #45531E",
"d  c #55532E",
"f  c #665527",
"g  c #6A4F37",
"h  c #716439",
"j  c #5B6536",
"k  c #5B1C42",
"l  c #70184C",
"z  c #512F48",
"x  c #6D3054",
"c  c #733B62",
"v  c #1E4E43",
"b  c #1B5345",
"n  c #175946",
"m  c #085D45",
"M  c #2A4B41",
"N  c #224B42",
"B  c #394945",
"V  c #295244",
"C  c #2A5A4A",
"Z  c #245A48",
"A  c #38564A",
"S  c #335F55",
"D  c #066847",
"F  c #17684B",
"G  c #0A724D",
"H  c #0B6A53",
"J  c #0A6951",
"K  c #1D6D52",
"L  c #116350",
"P  c #077658",
"I  c #197D5B",
"U  c #187757",
"Y  c #1F7547",
"T  c #25644C",
"R  c #276B53",
"E  c #376652",
"W  c #237457",
"Q  c #347557",
"!  c #367147",
"~  c #367863",
"^  c #434446",
"/  c #494A4C",
"(  c #42554C",
")  c #545556",
"_  c #525C59",
"`  c #565759",
"'  c #505455",
"]  c #6E4E50",
"[  c #4E6A5D",
"{  c #48675B",
"}  c #50635A",
"|  c #5E6B57",
" . c #48745D",
".. c #556848",
"X. c #7B6747",
"o. c #627257",
"O. c #4B7A63",
"+. c #527266",
"@. c #686969",
"#. c #65756A",
"$. c #76796C",
"%. c #757173",
"&. c #5F4A63",
"*. c #9B2E38",
"=. c #8C262E",
"-. c #87175A",
";. c #8B1157",
":. c #A73844",
">. c #941963",
",. c #902C6A",
"<. c #AA2578",
"1. c #9E3641",
"2. c #C53B4C",
"3. c #99454D",
"4. c #905255",
"5. c #B04E56",
"6. c #897658",
"7. c #896E54",
"8. c #BE5C65",
"9. c #907865",
"0. c #AB6668",
"q. c #AE7472",
"w. c #905071",
"e. c #CB4456",
"r. c #DB4358",
"t. c #CC5A65",
"y. c #DA5C69",
"u. c #FE506B",
"i. c #F14B63",
"p. c #CC6973",
"a. c #CC6470",
"s. c #E76876",
"d. c #0E825A",
"f. c #10895F",
"g. c #38825C",
"h. c #24855E",
"j. c #148C62",
"k. c #1C8763",
"l. c #169667",
"z. c #0E8761",
"x. c #278764",
"c. c #378663",
"v. c #269769",
"b. c #389769",
"n. c #2E9D75",
"m. c #26A56E",
"M. c #3AAD72",
"N. c #3ABB77",
"B. c #39B876",
"V. c #32A96F",
"C. c #478967",
"Z. c #468866",
"A. c #44936A",
"S. c #429A6C",
"D. c #579373",
"F. c #7C8275",
"G. c #688976",
"H. c #41A06E",
"J. c #4BAA78",
"K. c #39C27A",
"L. c #41C27E",
"P. c #878477",
"I. c #928471",
"U. c #A4857B",
"Y. c #A48C74",
"T. c #7F7E80",
"R. c #B93489",
"E. c #B53487",
"W. c #C63792",
"Q. c #9B7E82",
"!. c #837C95",
"~. c #B17B81",
"^. c #C4489C",
"/. c #DB49AA",
"(. c #D050A7",
"). c #F054BD",
"_. c #EA54B9",
"`. c #D37A82",
"'. c #F75DC7",
"]. c #FE64CF",
"[. c #4C9582",
"{. c #7A8883",
"}. c #769A91",
"|. c #73B291",
" X c #7FBFA3",
".X c #48C683",
"XX c #888A8B",
"oX c #918E91",
"OX c #A88B83",
"+X c #AD9389",
"@X c #A9988C",
"#X c #B2968A",
"$X c #BA9B96",
"%X c #B1908F",
"&X c #94A892",
"*X c #BEA299",
"=X c #BDAA9E",
"-X c #AEA896",
";X c #A89BBB",
":X c #AC9CA8",
">X c #99BBAE",
",X c #ADABAE",
"<X c #B4AAB0",
"1X c #8981A6",
"2X c #C58588",
"3X c #CD8A94",
"4X c #D19895",
"5X c #D49B99",
"6X c #CD8E90",
"7X c #C2A59C",
"8X c #C4A99F",
"9X c #D19BA7",
"0X c #F69CAB",
"qX c #E598A2",
"wX c #C6ADA4",
"eX c #CAAEA5",
"rX c #CAA6AC",
"tX c #CDB2A9",
"yX c #D3B5AD",
"uX c #CBB7B6",
"iX c #F08190",
"pX c #87C9A6",
"aX c #A3D6BB",
"sX c #D0C5BB",
"dX c #A499C1",
"fX c #BBB0D3",
"gX c #D3B5D1",
"hX c #C9CACA",
"jX c #D9CFCB",
"kX c #D7CDEC",
"lX c #E3DAF3",
"zX c #EFE9EB",
"xX c #E9E5EA",
"cX c #FBF9FB",
"vX c #F3EDF9",
"bX c #E8D6D6",
"nX c None",
/* pixels */
"nXnXnXnXnXnXnXnXnXnXnXnXnXnXnXnXnXnXnXnX2 3 O # # # O 3 @ . . @ 3 O # # # O 3 2 nXnXnXnXnXnXnXnXnXnXnXnXnXnXnXnXnXnXnXnX",
"nXnXnXnXnXnXnXnXnXnXnXnXnXnXnXnXnXnXnXnX3 0 o X X X + 0 @ . . o 3 o X X X + 0 3 nXnXnXnXnXnXnXnXnXnXnXnXnXnXnXnXnXnXnXnX",
"nXnXnXnXnXnXnXnXnXnXnXnXnXnXnXnX2 2 2 3 5 5 n F F F b 5 * $ $ X w 9 F F F b w o 3 2 2 2 nXnXnXnXnXnXnXnXnXnXnXnXnXnXnXnX",
"nXnXnXnXnXnXnXnXnXnXnXnXnXnXnX4 4 4 2 0 * e W l.l.j.T * = = = - q K j.l.l.U q w 0 2 4 2 6 nXnXnXnXnXnXnXnXnXnXnXnXnXnXnX",
"nXnXnXnXnXnXnXnXnXnXnXnXnXnX2 r G 7 5 5 Z W l.m.h.T V = - B ^ E Q W T h.m.v.W T 5 5 m G r 2 nXnXnXnXnXnXnXnXnXnXnXnXnXnX",
"nXnXnXnXnXnXnXnXnXnXnXnXnX2 2 D j.W q M U l.V.N.Q = = : ; ' [ H.V.! - Q N.V.l.W M M K f.G 2 2 nXnXnXnXnXnXnXnXnXnXnXnXnX",
"nXnXnXnXnXnXnXnXnXnXnXnXnXD D F F C B E x.m.b.C.{ q A E E _  .H.N.b.! g.b.b.m.x.E B C R F D r nXnXnXnXnXnXnXnXnXnXnXnXnX",
"nXnXnXnXnXnXnXnXnXnXnX2 6 G j.F q B / [ M.M.Z._ ) )  .M.A.[ [ H.K.B.M.C.[ Z.B.b.[ / B q F f.G 4 2 nXnXnXnXnXnXnXnXnXnXnX",
"nXnXnXnXnXnXnXnXnXnXnX7 D F U A ; ( [ Z.A.A.+.) [  .A.N.H.+.} C.H.B.K.C._ +.A.A.Z.[ / q C U G D 7 nXnXnXnXnXnXnXnXnXnXnX",
"nXnXnXnXnXnXnXnXnX2 7 G U F M B /  .S.S.O.[ _ ) C.H.B.K.H.[ _ } O.H.N.A._ _ } Z.S.S. ./ B q Z U G 7 2 nXnXnXnXnXnXnXnXnX",
"nXnXnXnXnXnXnXnXnX2 7 P k.n = ( [ Z.S.A.[ ' ) _ A.K.K.K.H.[ ) ) } S.K.b. .} ` [ A.H.Z.[ ( = Z j.P 7 2 nXnXnXnXnXnXnXnXnX",
"nXnXnXnXnXnXnXnXnX2 r U k.C = E S.A.Z.[ } ' ) _ A.K.K.K.H.[ ) ) } S.K.J.H.Z.} _  .O.A.A.E = Z k.P 7 2 nXnXnXnXnXnXnXnXnX",
"nXnXnXnXnXnXnXnXnX6 7 U I C ; Q J.D.%.#.@.@.@.@.|..X.X.XJ.+.) ) } Z.B.N.K.S.} ) ) [ S.B.Q ; C I Y r 6 nXnXnXnXnXnXnXnXnX",
"nXnXnXnXnXnXnX2 7 G G F C B ^ G.pXpX,X,X,X,X,X,XaXaXaXaX&X#.) ) _ [ Z.H.N.S.[ ) ) | S.B.g./ A C F G G 7 2 nXnXnXnXnXnXnX",
"nXnXnXnXnXnXnX2 r d.I V - / ` oXhXkXxXzXzXzXzXzXzXzXvXzXuX%.` ` ) ) ` C.N.S.[ ) ) [ S.N.C.` ^ - V I d.r 2 nXnXnXnXnXnXnX",
"nXnXnXnXnXnXnX2 r d.I V ; @.oXOXq.`.4XqX0X0X0X0X0X0X0X0X9X:XoX@.) ) _ Z.N.S.} ) ) [ S.N.C.` ^ - V I d.r 2 nXnXnXnXnXnXnX",
"nXnXnXnXnXnXnX2 D z.I Z z XXhXOX1.:.2.r.i.u.u.u.u.u.u.u.`.bXuX!.) ) ` C.K.S.| ) ) } S.N.C._ ^ - V I d.r 2 nXnXnXnXnXnXnX",
"nXnXnXnXnXnXnX2 m P x.O.%.q.%X0.3.3.t.y.y.s.s.s.s.y.s.s.iX0X9XOX%.@.) C.N.S.[ ) ) } S.N.C.) ^ - V k.d.r 2 nXnXnXnXnXnXnX",
"nXnXnXnXnXnXnX2 D I M.&X,Xq.3.3.7.q.4X#Xq.q.3X5X2Xq.#X5XiXa.p.$X,X!.` C.N.S.[ ) ) [ S.N.Z.` ^ - V I d.r 2 nXnXnXnXnXnXnX",
"nXnXnXnXnXnXnX2 m x.[.oX%X0.*.0.q.+X*X*X#X+X$X7X$XOX$XeX4Xp.a.3XrXoX%.D.N.S.[ ) ) [ S.N.Z.` ^ - V I d.r 2 nXnXnXnXnXnXnX",
"nXnXnXnXnXnXnX2 T G.{.w.5.0.q.OX*X$X+X#X$X7X#X+X#X8XeXyXeX4X2Xp.p.%X,X|..XS.} ) ) [ S.N.Z.` ^ - V d.d.r 2 nXnXnXnXnXnXnX",
"nXnXnXnXnXnXnX2 E {.U.3.*.0.#X=XtX*XU.OX7XeX#XOX*XyXyXyXyXyX4Xy.e.3XhXpXL.S.[ ` ) } b.M.Z.) ^ - V U P r 2 nXnXnXnXnXnXnX",
"nXnXnXnXnXnXnX2 E {.XX3.*.0.*XwXyX*XU.OX7XtX7X7XeXyXyXyXyXyX4Xt.e.3XhXpX.Xb.[ ) ) { c.m.~ ) ^ - N P P r 2 nXnXnXnXnXnXnX",
"nXnXnXnXnXnXnX2 E {.Q.3.*.q.8XeXyX*XOX+XwXyXyXyXtXwXwXwXtXyX4Xt.e.3XhXpX.XS.} ` ) _ W l.~ ' ^ - N J G 7 2 nXnXnXnXnXnXnX",
"nXnXnXnXnXnXnX2 E {.Q.3.*.q.8XeXyXwX*X7XeXsXyXtX@XF.F.F.oX8X4Xt.e.3XhXpX.XS.[ / z A W j.R ^ ; - N H J 8 2 nXnXnXnXnXnXnX",
"nXnXnXnXnXnXnX2 E {.Q.3.*.0.8XtXyXyXtXyXyXyXyXeXP.e e e o.-X4Xt.e.3XhXpX.XS.[ / B M W j.Z = = = N H P 8 2 nXnXnXnXnXnXnX",
"nXnXnXnXnXnXnX2  .XXOX3.*.4.P.@XtXyXyXyXyXwX@XP.F.$.$.$.P.8X4Xy.e.3XfX XB.c.A ^ - M K j.R = q v n D D 8 2 nXnXnXnXnXnXnX",
"nXnXnXnXnXnXnXnXnXoXQ.3.=.z ..P.eXyXyXyXyX*XF.{ P.=X=X=XtXtX4Xt.5.3XkX Xv.U B - = q U z.Z = v H J 8 2 nXnXnXnXnXnXnXnXnX",
"nXnXnXnXnXnXnXnXnXG.%.4.4.] o.oXsXtX@X*XsXsX&X{.@XyXeX8X8X=X2Xt.e.3XhX|.n.K q - M Z U I Z = b P J 6 2 nXnXnXnXnXnXnXnXnX",
"nXnXnXnXnXnXnXnXnXZ E %.Q.U.I.<XbX=X7.I.sXzXbXhXjXyX7XOXU.OXq.5.e.`.hX Xl.K q N K U z.P b : b P J 8 2 nXnXnXnXnXnXnXnXnX",
"nXnXnXnXnXnXnXnXnX2 Z +.{.oX@XfXkX,XX.I.uXxXcXcXbXjX8X+XU.0.0.t.t.%X>X}.I R V C I z.P H n N n J D 7 2 nXnXnXnXnXnXnXnXnX",
"nXnXnXnXnXnXnXnXnXnXnXT { F.@X:XdX;X;X,X,XfXxXcXzXzXjXeXOX8.t.2X:X}.[.~ S L L H P P L b n L D 8 8 nXnXnXnXnXnXnXnXnXnXnX",
"nXnXnXnXnXnXnXnXnXnXnX2 9 +.XX1X1X;XfXfXdXdXkXcXcXcXbXyX6Xt.t.=X>X[.P Z * b H P P H v * m J m 4 2 nXnXnXnXnXnXnXnXnXnXnX",
"nXnXnXnXnXnXnXnXnXnXnXnXnXE { G.oXXX9.oXdXfXlXvXvXvXgX`.p.6X%XXX[.~ b b L H P P L v 5 5 m m m nXnXnXnXnXnXnXnXnXnXnXnXnX",
"nXnXnXnXnXnXnXnXnXnXnXnXnX2 4 O.oXF.f o.fXkXlXlXlXlXqXr.t.rX,Xn.H b - b H P P H N * + @ 3 2 2 nXnXnXnXnXnXnXnXnXnXnXnXnX",
"nXnXnXnXnXnXnXnXnXnXnXnXnXnX2 { oX| e d @.!.!.!.1X}.9.x c %.#.S m 5 + v m v m v + q &.&.z - z nXnXnXnXnXnXnXnXnXnXnXnXnX",
"nXnXnXnXnXnXnXnXnXnXnXnXnXnXnXnXnXnX3 0 X $ = * w 9 o % > $ $ & . o 4 o . # . . @ v w./.E.;.l nXnXnXnXnXnXnXnXnXnXnXnXnX",
"nXnXnXnXnXnXnXnXnXnXnXnXnXnXnXnXnXnX2 * z x x c &.&.&.c x c c x k z - - - $ . % * z ,.W.E.l nXnXnXnXnXnXnXnXnXnXnXnXnXnX",
"nXnXnXnXnXnXnXnXnXnXnXnXnXnXnXnXnXnXnXnX,.E.W._.(.^.^.^.(.(.(.R.,.>.l z z ^ % > k l >.>.>.nXnXnXnXnXnXnXnXnXnXnXnXnXnXnX",
"nXnXnXnXnXnXnXnXnXnXnXnXnXnXnXnXnXnXnXnX<.W./.'.'._._.)._././.<.,.c c &.{ C X > l ;.;.;.nXnXnXnXnXnXnXnXnXnXnXnXnXnXnXnX",
"nXnXnXnXnXnXnXnXnXnXnXnXnXnXnXnXnXnXnXnX>.<.W.'.'.'.'.'./.R.,.x z { D.b.h.K 0 o nXnXnXnXnXnXnXnXnXnXnXnXnXnXnXnXnXnXnXnX",
"nXnXnXnXnXnXnXnXnXnXnXnXnXnXnXnXnXnXnXnXl -.E./.).].'.).W.,.k < w g.M.v.h.G 4 3 nXnXnXnXnXnXnXnXnXnXnXnXnXnXnXnXnXnXnXnX",
"nXnXnXnXnXnXnXnXnXnXnXnXnXnXnXnXnXnXnXnXk k -.E./.]./.W.,.z e ! g.g.O.E C 5 O .   u nXnXnXnXnXnXnXnXnXnXnXnXnXnXnXnXnXnX",
"nXnXnXnXnXnXnXnXnXnXnXnXnXnXnXnXnXnXnXnX# # k -.^.).^.>.z q r V.N.Z._ ^ - $ #   p a nXnXnXnXnXnXnXnXnXnXnXnXnXnXnXnXnXnX",
"nXnXnXnXnXnXnXnXnXnXnXnXnXnXnXnXnXnXnXnXo + B ` w.R.,.1 g $.G.L.B.v.Q V $ . O w d g d nXnXnXnXnXnXnXnXnXnXnXnXnXnXnXnXnX",
"nXnXnXnXnXnXnXnXnXnXnXnXnXnXnXnXnXnXnXnX2 8 P k.' ;.l a X.#X-X|.N.m.j.F # O 3 w ) X.f u nXnXnXnXnXnXnXnXnXnXnXnXnXnXnXnX",
"nXnXnXnXnXnXnXnXnXnXnXnXnXnXnXnXnXnXnXnXnX4 m Z ^ l 1 i h -X=X&XJ.b.G 9 % X O q ] X.f u nXnXnXnXnXnXnXnXnXnXnXnXnXnXnXnX",
"nXnXnXnXnXnXnXnXnXnXnXnXnXnXnXnXnXnXnXnXnXnXX % $ - , u h Y.wX*X-X+.4 5 = % . = ] X.f i nXnXnXnXnXnXnXnXnXnXnXnXnXnXnXnX",
"nXnXnXnXnXnXnXnXnXnXnXnXnXnXnXnXnXnXnXnXnXnX+ + 5 N e t j I.Y.Y.I...D 5 * : # : g ] a i nXnXnXnXnXnXnXnXnXnXnXnXnXnXnXnX",
"nXnXnXnXnXnXnXnXnXnXnXnXnXnXnXnXnXnXnXnX# X n J H H U I ! j f h j ! I b * $ # : p a a nXnXnXnXnXnXnXnXnXnXnXnXnXnXnXnXnX",
"nXnXnXnXnXnXnXnXnXnXnXnXnXnXnXnXnXnXnXnXX + m H H H P d.Y t s p p t x.R e q % % p u nXnXnXnXnXnXnXnXnXnXnXnXnXnXnXnXnXnX",
"nXnXnXnXnXnXnXnXnXnXnXnXnXnXnXnXnXnXi e n m v N 5 + 4 m r Y t t e ^ Q Q W r 0 @ y nXnXnXnXnXnXnXnXnXnXnXnXnXnXnXnXnXnXnX",
"nXnXnXnXnXnXnXnXnXnXnXnXnXnXnXnXnXnXu t R U A ; : # O 3 r G U Z q ( | C.v.W F 9 nXnXnXnXnXnXnXnXnXnXnXnXnXnXnXnXnXnXnXnX",
"nXnXnXnXnXnXnXnXnXnXnXnXnXnXnXnXnXnXu f o.G.$.@.d ,   nX9 9 b T W g.S.G.G.G.#.o.d nXnXnXnXnXnXnXnXnXnXnXnXnXnXnXnXnXnXnX",
"nXnXnXnXnXnXnXnXnXnXnXnXnXnXnXnXnXnXu f I.Y.%XU.X.i u nXnX# + F l.V.L.J.+X#XY.Y.h u nXnXnXnXnXnXnXnXnXnXnXnXnXnXnXnXnXnX",
"nXnXnXnXnXnXnXnXnXnXnXnXnXnXnXnXnXnXnXf 7.7.7.7.h i nXnXnXnXw t t D.G.&X+XY.7.X.f nXnXnXnXnXnXnXnXnXnXnXnXnXnXnXnXnXnXnX",
"nXnXnXnXnXnXnXnXnXnXnXnXnXnXnXnXnXnXnXnXa a a a a nXnXnXnXnXnXi f I.Y.@XY.I.f a nXnXnXnXnXnXnXnXnXnXnXnXnXnXnXnXnXnXnXnX",
"nXnXnXnXnXnXnXnXnXnXnXnXnXnXnXnXnXnXnXnXnXi u u nXnXnXnXnXnXnXnXf h 6.I.I.h f nXnXnXnXnXnXnXnXnXnXnXnXnXnXnXnXnXnXnXnXnX",
"nXnXnXnXnXnXnXnXnXnXnXnXnXnXnXnXnXnXnXnXnXnXnXnXnXnXnXnXnXnXnXnXnXa a f f f nXnXnXnXnXnXnXnXnXnXnXnXnXnXnXnXnXnXnXnXnXnX",
"nXnXnXnXnXnXnXnXnXnXnXnXnXnXnXnXnXnXnXnXnXnXnXnXnXnXnXnXnXnXnXnXnXu u u i i nXnXnXnXnXnXnXnXnXnXnXnXnXnXnXnXnXnXnXnXnXnX"
};
