/* XPM */
static char *result[] = {
/* columns rows colors chars-per-pixel */
"60 60 240 2 ",
"   c #1C2C26",
".  c #1D352D",
"X  c #133B2C",
"o  c #143327",
"O  c #1B3D32",
"+  c #0B3D2A",
"@  c #222323",
"#  c #292B29",
"$  c #283A35",
"%  c #333435",
"&  c #353639",
"*  c #373B3B",
"=  c #2E2F2F",
"-  c #3A2B22",
";  c #4A1A37",
":  c #433A37",
">  c #423A1B",
",  c #0A432D",
"<  c #01492C",
"1  c #06452B",
"2  c #034E31",
"3  c #184636",
"4  c #025335",
"5  c #035B3B",
"6  c #05563A",
"7  c #135238",
"8  c #2C443D",
"9  c #24453B",
"0  c #34553D",
"q  c #304B30",
"w  c #06613F",
"e  c #08613F",
"r  c #34613A",
"t  c #26481C",
"y  c #52460C",
"u  c #484613",
"i  c #584B18",
"p  c #4E470F",
"a  c #57542E",
"s  c #655527",
"d  c #6A5B36",
"f  c #685132",
"g  c #706239",
"h  c #515925",
"j  c #5B1C42",
"k  c #73164D",
"l  c #4F2F48",
"z  c #6D3356",
"x  c #753961",
"c  c #1E4E43",
"v  c #185745",
"b  c #075940",
"n  c #2A4A41",
"m  c #224B42",
"M  c #3A4945",
"N  c #285244",
"B  c #275A49",
"V  c #37594B",
"C  c #335F55",
"Z  c #066847",
"A  c #18674C",
"S  c #0A724C",
"D  c #0C6A53",
"F  c #1E6D52",
"G  c #116350",
"H  c #077658",
"J  c #1A7D5B",
"K  c #177757",
"L  c #187B4C",
"P  c #25624C",
"I  c #266952",
"U  c #386653",
"Y  c #267558",
"T  c #337756",
"R  c #33634C",
"E  c #367663",
"W  c #2A7B60",
"Q  c #444446",
"!  c #494A4C",
"~  c #42564C",
"^  c #4B5A55",
"/  c #545556",
"(  c #525C59",
")  c #555759",
"_  c #574C53",
"`  c #725B42",
"'  c #6F4D51",
"]  c #4E6A5D",
"[  c #47695B",
"{  c #50625A",
"}  c #5E6B57",
"|  c #48745C",
" . c #476B4A",
".. c #76714E",
"X. c #6E4A68",
"o. c #4A7963",
"O. c #537366",
"+. c #68686A",
"@. c #657469",
"#. c #77796C",
"$. c #787679",
"%. c #746D70",
"&. c #564E61",
"*. c #9B2E38",
"=. c #8C262E",
"-. c #87175A",
";. c #880D55",
":. c #A73844",
">. c #941963",
",. c #942A6D",
"<. c #AA2578",
"1. c #9E3641",
"2. c #C53B4C",
"3. c #99454D",
"4. c #905255",
"5. c #B04E56",
"6. c #8C7759",
"7. c #886B52",
"8. c #90487B",
"9. c #BE5C65",
"0. c #8D6E65",
"q. c #AB6668",
"w. c #AE7472",
"e. c #A0605F",
"r. c #CB4456",
"t. c #DB4358",
"y. c #CC5A65",
"u. c #DA5C69",
"i. c #FE506B",
"p. c #F14B63",
"a. c #CC6973",
"s. c #CC6470",
"d. c #E76876",
"f. c #0E825A",
"g. c #15865B",
"h. c #2E855C",
"j. c #148C62",
"k. c #1E8563",
"l. c #179768",
"z. c #0E8761",
"x. c #278864",
"c. c #398764",
"v. c #259467",
"b. c #369968",
"n. c #2E9D75",
"m. c #26A56E",
"M. c #38A26C",
"N. c #3AAC71",
"B. c #2BB173",
"V. c #3ABB77",
"C. c #39B776",
"Z. c #2CAD70",
"A. c #498465",
"S. c #468967",
"D. c #468A68",
"F. c #44936A",
"G. c #429A6C",
"H. c #419167",
"J. c #599175",
"K. c #7C8275",
"L. c #668F79",
"P. c #41A06E",
"I. c #4AA978",
"U. c #6BA57F",
"Y. c #38C279",
"T. c #41C27E",
"R. c #878477",
"E. c #948571",
"W. c #A38577",
"Q. c #7F7E80",
"!. c #B93489",
"~. c #B83489",
"^. c #C63492",
"/. c #9B7E82",
"(. c #837C95",
"). c #B17B81",
"_. c #A6508A",
"`. c #C5479C",
"'. c #DA4AA9",
"]. c #D052A8",
"[. c #F054BD",
"{. c #EA54B9",
"}. c #D37A82",
"|. c #F75DC7",
" X c #FE64CF",
".X c #4C9582",
"XX c #7A8883",
"oX c #769A91",
"OX c #72AE90",
"+X c #7FBFA3",
"@X c #48C683",
"#X c #888A8B",
"$X c #918E91",
"%X c #A88B83",
"&X c #AA9489",
"*X c #B2978B",
"=X c #BA9B96",
"-X c #B1908F",
";X c #BEA299",
":X c #BCA99E",
">X c #AEA393",
",X c #A89BBB",
"<X c #AC9CA8",
"1X c #99BBAE",
"2X c #ADABAE",
"3X c #B3A9B2",
"4X c #8F9C9E",
"5X c #C58588",
"6X c #CD8A94",
"7X c #D19895",
"8X c #D49B99",
"9X c #CD8E90",
"0X c #C2A59C",
"qX c #C5A89F",
"wX c #D19BA7",
"eX c #F69CAB",
"rX c #E598A2",
"tX c #C6ADA4",
"yX c #CAAEA5",
"uX c #CAA6AC",
"iX c #CDB2A9",
"pX c #D3B5AD",
"aX c #CBB7B6",
"sX c #F08190",
"dX c #87C9A6",
"fX c #A3D6BB",
"gX c #D0C5BB",
"hX c #A499C1",
"jX c #BBB0D3",
"kX c #D3B5D1",
"lX c #C9CACA",
"zX c #D9CFCB",
"xX c #D7CDEC",
"cX c #E3DAF3",
"vX c #EFE9EB",
"bX c #E9E5EA",
"nX c #FBF9FB",
"mX c #F3EDF9",
"MX c #E8D6D6",
"NX c None",
/* pixels */
"NXNXNXNXNXNXNXNXNXNXNXNXNXNXNXNXNXNXNXNX< 1 o @ @ @ o 1 +     + 1 o @ @ @   , < NXNXNXNXNXNXNXNXNXNXNXNXNXNXNXNXNXNXNXNX",
"NXNXNXNXNXNXNXNXNXNXNXNXNXNXNXNXNXNXNXNX1 , o . . . O , X     o , O . . . X , 1 NXNXNXNXNXNXNXNXNXNXNXNXNXNXNXNXNXNXNXNX",
"NXNXNXNXNXNXNXNXNXNXNXNXNXNXNXNX< < < , O 9 v A A A 7 3 $ = = . 3 v A A A v 3 O , < < < NXNXNXNXNXNXNXNXNXNXNXNXNXNXNXNX",
"NXNXNXNXNXNXNXNXNXNXNXNXNXNXNX2 4 2 1 , 9 8 K l.l.j.I * % % % * q F j.j.l.Y 8 9 , 1 2 < 2 NXNXNXNXNXNXNXNXNXNXNXNXNXNXNX",
"NXNXNXNXNXNXNXNXNXNXNXNXNXNX< w S e 3 3 B Y v.m.x.P 0 * * Q M U T I P h.m.v.Y A 3 3 b S e < NXNXNXNXNXNXNXNXNXNXNXNXNXNX",
"NXNXNXNXNXNXNXNXNXNXNXNXNX< < S g.I n n K l.B.C.T $ = % * ! ] P.C.R % h.C.Z.l.Y n n K g.S < < NXNXNXNXNXNXNXNXNXNXNXNXNX",
"NXNXNXNXNXNXNXNXNXNXNXNXNXw Z A F B M R x.m.b.D.[ M V U U { ] P.C.b.R c.H.b.m.x.U M V F A Z w NXNXNXNXNXNXNXNXNXNXNXNXNX",
"NXNXNXNXNXNXNXNXNXNXNX< 4 S g.I 8 M ! ] M.N.S.{ / ! | M.F.] ] P.Y.C.C.S.] S.N.M.] ! M 8 A g.S 4 < NXNXNXNXNXNXNXNXNXNXNX",
"NXNXNXNXNXNXNXNXNXNXNX5 Z A K B * ~ ] A.F.F.| / ] o.G.V.P.] ] A.P.I.Y.F.( ] F.F.A.] ~ 8 V K A Z 5 NXNXNXNXNXNXNXNXNXNXNX",
"NXNXNXNXNXNXNXNXNX< 5 S K A 8 M ! | G.G.o.] ( ) A.P.V.Y.P.] ) ] o.P.Y.F.{ { ] o.G.G.] ! M 8 A J S 5 < NXNXNXNXNXNXNXNXNX",
"NXNXNXNXNXNXNXNXNX< 5 H j.B % M ] A.M.F.O./ / ) F.Y.Y.Y.P.] / / { F.Y.G.| { ) ] F.P.A.] M % B j.H 5 < NXNXNXNXNXNXNXNXNX",
"NXNXNXNXNXNXNXNXNX< 6 f.j.B % U G.F.A.] ( / / ^ D.Y.Y.Y.P.] / / { F.Y.C.P.A.{ { ] A.H.G.U & B g.H 5 < NXNXNXNXNXNXNXNXNX",
"NXNXNXNXNXNXNXNXNX4 w S g.B & | @XI.@.+.+.+.+.+.OX@X@X@XI.O.) ) { S.V.V.Y.G.] / / ] G.V.T * B g.L e 2 NXNXNXNXNXNXNXNXNX",
"NXNXNXNXNXNXNX< 5 S A A B M ! L.1X1X2X2X3X3X2X2XfXfXfXfX4X@./ / ( ] A.P.V.G.] / / ] G.V.S.Q M B A A S 5 < NXNXNXNXNXNXNX",
"NXNXNXNXNXNXNX< e f.J N * Q ) #XlXzXbXbXvXvXvXvXvXvXvXvX3X$.) ) / / ) S.V.G.{ / / ] G.V.S.) Q & N J f.w < NXNXNXNXNXNXNX",
"NXNXNXNXNXNXNX< w f.J N l @.$X%X).5X9XrXeXeXeXeXeXeXeXeXpX;X#X%./ ) ) A.V.G.] / / { G.V.S.) Q & N g.f.e < NXNXNXNXNXNXNX",
"NXNXNXNXNXNXNX< b J J N l (.gX%X1.*.2.t.p.i.i.i.i.i.i.i.}.MXaX/./ / / S.Y.G.{ / / ] G.V.S.) Q & N J f.w < NXNXNXNXNXNXNX",
"NXNXNXNXNXNXNX< Z z.v.A.#./.-Xq.3.5.y.u.u.d.d.d.d.u.d.d.}.eXwX-X(.+./ S.V.G.] / / ] G.V.S.) Q & N g.f.w < NXNXNXNXNXNXNX",
"NXNXNXNXNXNXNX< w f.n.4X<Xw.3.3.0.w.9X9Xw.w.9X8X5Xw.-X8X6Xs.a.=X2X$.) F.V.G.} / / { G.V.D.) Q & N J g.w < NXNXNXNXNXNXNX",
"NXNXNXNXNXNXNX< v x.J.4X=Xq.1.e.w.&X;X>X*X*X=X0X*X&X0XyX7Xa.s.6XwX$X$.J.V.G.] / / ] G.V.D.) Q & N J H Z < NXNXNXNXNXNXNX",
"NXNXNXNXNXNXNX< P J.XXe.5.q.w.*X;X=X*X*X=X0X*X%X*X0XyXpXwX8X9Xa.a.-X2XOX@XG.] / / ] G.V.D.) Q & N J f.w < NXNXNXNXNXNXNX",
"NXNXNXNXNXNXNX< R XX/.3.*.q.*XqXiX;XW.%X0XyX=XW.0XpXpXpXpXpX7Xu.r.6XlXdX@XG.{ / / { b.C.D.) Q & n J f.w < NXNXNXNXNXNXNX",
"NXNXNXNXNXNXNX< C XX/.3.*.q.=XtXiX;XW.%X0XiXqX0XqXpXpXpXpXpX7Xy.r.6XlXdXY.G.] / / { x.v.E / Q & m D H 5 < NXNXNXNXNXNXNX",
"NXNXNXNXNXNXNX< V XX$X3.*.q.tXiXpX;X%X&XtXpXpXpXiXyXyXyXyXpX7Xy.r.6XlXdX@XG.] ) / ^ T l.T / Q & m D H 5 < NXNXNXNXNXNXNX",
"NXNXNXNXNXNXNX< R XX/.3.*.w.tXyXpXqX;X:XiXpXpXiX&XK.K.#.%X:X7Xy.r.6XlXdX@Xb.] ! ! M W j.I Q & & m D H 5 < NXNXNXNXNXNXNX",
"NXNXNXNXNXNXNX< U XX/.3.*.w.:XiXpXpXpXpXpXpXpXiXR.0 0 0 @.>X7Xy.r.6XlXdX@XG.] ! Q 8 F j.P % & & c D D 5 < NXNXNXNXNXNXNX",
"NXNXNXNXNXNXNX< [ #X%X3.=.4.0.&XiXpXpXpXpXtX*XR.K.#.#.#.E.qX7Xy.r.6XjX+XC.c.V l & 8 F j.P % 8 c v Z Z 6 < NXNXNXNXNXNXNX",
"NXNXNXNXNXNXNXNXNX4X/.3.=.f ^ #XyXpXpXpXpX:XK. .R.:X:X:XiXiX7Xy.r.=XxX+Xn.K n & % 8 F j.G % c D Z 5 2 NXNXNXNXNXNXNXNXNX",
"NXNXNXNXNXNXNXNXNXL.%.4.4.' } %XgXtX*X>XgXgX4XL.>XpXyXqX:X:X5Xy.r.6XlXOXn.F 8 & m B H z.B % c H Z 4 < NXNXNXNXNXNXNXNXNX",
"NXNXNXNXNXNXNXNXNXB U %.%XE.E.3XxXtX7.E.gXbXMXzXgXpX0X%X%XW.w.5.r.}.lX+Xl.F 8 n I K J H v & c H D 4 < NXNXNXNXNXNXNXNXNX",
"NXNXNXNXNXNXNXNXNX< v @.XX$X-XjXxX2X6.E.aXbXnXnXMXzXtX%XW.w.q.y.s.-X1XoXW G m B J j.H D v m v Z Z 4 < NXNXNXNXNXNXNXNXNX",
"NXNXNXNXNXNXNXNXNXNXNXI U $.$X<X,X,X2X2X3XjXbXnXmXvXzXtX%X9.y.5X<XoX.XE B P G H H H G c v D Z b 5 NXNXNXNXNXNXNXNXNXNXNX",
"NXNXNXNXNXNXNXNXNXNXNX< 7 O.$X$X(.hXjXjXhXhXxXnXnXnXMXpX9Xy.y.=X1X.XH v $ c H H H D c $ v D Z 2 < NXNXNXNXNXNXNXNXNXNXNX",
"NXNXNXNXNXNXNXNXNXNXNXNXNXR E Q.$X$X(.$XhXjXcXmXmXmXkX}.a.5X-X4X.XE c v G D H H G c 3 X b b b NXNXNXNXNXNXNXNXNXNXNXNXNX",
"NXNXNXNXNXNXNXNXNXNXNXNXNX2 < [ 4X6.a ..,XxXcXcXcXcXrXt.s.uX1X.XH c & v D H H D m $ O b , < < NXNXNXNXNXNXNXNXNXNXNXNXNX",
"NXNXNXNXNXNXNXNXNXNXNXNXNXNX4 [ $X} q a %.(.(.$X4XoX0.z x %.+.C c 3 O c b c b c O $ &.x &.& l NXNXNXNXNXNXNXNXNXNXNXNXNX",
"NXNXNXNXNXNXNXNXNXNXNXNXNXNXNXNXNXNX, , $ % % % $ b O # # # = @   + 2 X   @     , N 8.].~.k k NXNXNXNXNXNXNXNXNXNXNXNXNX",
"NXNXNXNXNXNXNXNXNXNXNXNXNXNXNXNXNXNX2 $ l j z x x &.&.z z x x z j l & $ & = @   % l ,.^.<.;.NXNXNXNXNXNXNXNXNXNXNXNXNXNX",
"NXNXNXNXNXNXNXNXNXNXNXNXNXNXNXNXNXNXNXNX,.~.`.{.].`.`.`.'.'.].!.,.k k z l Q # ; j k -.>.>.NXNXNXNXNXNXNXNXNXNXNXNXNXNXNX",
"NXNXNXNXNXNXNXNXNXNXNXNXNXNXNXNXNXNXNXNX<.!.'.|.|.{.|.{.{.'.]._._.x x &.o.C m % j k ;.;.NXNXNXNXNXNXNXNXNXNXNXNXNXNXNXNX",
"NXNXNXNXNXNXNXNXNXNXNXNXNXNXNXNXNXNXNXNX>.<.^.|.|.|.|.|.'.~.,.Q.J.o.E c.P.v.J B $ ; j NXNXNXNXNXNXNXNXNXNXNXNXNXNXNXNXNX",
"NXNXNXNXNXNXNXNXNXNXNXNXNXNXNXNXNXNXNXNXk -.<.'.|. X|.[.`.,.x o.Z.v.g.v.N.n.v.I O @ NXNXNXNXNXNXNXNXNXNXNXNXNXNXNXNXNXNX",
"NXNXNXNXNXNXNXNXNXNXNXNXNXNXNXNXNXNXNXNX; j >.~.'.|.{.!.<.x _ ^ R B 9 R | o.T V $ @ NXNXNXNXNXNXNXNXNXNXNXNXNXNXNXNXNXNX",
"NXNXNXNXNXNXNXNXNXNXNXNXNXNXNXNXNXNXNXNX@ # j -.~.|.^.,.z ) ~ a $ # # 8 ^ ( ( ! =   NXNXNXNXNXNXNXNXNXNXNXNXNXNXNXNXNXNX",
"NXNXNXNXNXNXNXNXNXNXNXNXNXNXNXNXNXNXNXNXo O V &.8.!._.+.O.A.S.c.T 7 . R h.c.T I 3 o NXNXNXNXNXNXNXNXNXNXNXNXNXNXNXNXNXNX",
"NXNXNXNXNXNXNXNXNXNXNXNXNXNXNXNXNXNXNXNX< 4 H k.&.k +.I.Y.Y.Y.Y.B.L < g.Y.B.l.f.5 < NXNXNXNXNXNXNXNXNXNXNXNXNXNXNXNXNXNX",
"NXNXNXNXNXNXNXNXNXNXNXNXNXNXNXNXNXNXNXNXNX4 v v l j _ D.G.F.G.c.h.r t A.U.OXOXS.r t NXNXNXNXNXNXNXNXNXNXNXNXNXNXNXNXNXNX",
"NXNXNXNXNXNXNXNXNXNXNXNXNXNXNXNXNXNXNXNXNXNX. . % & Q ^ { { ^ M q u y ..>X>X>XE.d u NXNXNXNXNXNXNXNXNXNXNXNXNXNXNXNXNXNX",
"NXNXNXNXNXNXNXNXNXNXNXNXNXNXNXNXNXNXNXNXNXNXo   O m C U [ o.| U V r r g E.E.W.E.g s i NXNXNXNXNXNXNXNXNXNXNXNXNXNXNXNXNX",
"NXNXNXNXNXNXNXNXNXNXNXNXNXNXNXNXNXNXNXNXNXNX, , b D K J v.M.M.M.M.h.h. .s g s s ` ` s y NXNXNXNXNXNXNXNXNXNXNXNXNXNXNXNX",
"NXNXNXNXNXNXNXNXNXNXNXNXNXNXNXNXNXNXNXNXNXNX+ < 7 D S f.k.b.M.M.M.v.k.r u p i s d ` s y NXNXNXNXNXNXNXNXNXNXNXNXNXNXNXNX",
"NXNXNXNXNXNXNXNXNXNXNXNXNXNXNXNXNXNXNXNXNXNXo o 3 9 v e G 7 0 P R R [ q - i d g f s i NXNXNXNXNXNXNXNXNXNXNXNXNXNXNXNXNX",
"NXNXNXNXNXNXNXNXNXNXNXNXNXNXNXNXNXNXNXNXNXNX# # % : 9 1 , . . 9 M M ^ M   * ` ` s y NXNXNXNXNXNXNXNXNXNXNXNXNXNXNXNXNXNX",
"NXNXNXNXNXNXNXNXNXNXNXNXNXNXNXNXNXNXNXNXNXNX> > f %.~ 7 7 e P h.h.c.Y B X q a s i NXNXNXNXNXNXNXNXNXNXNXNXNXNXNXNXNXNXNX",
"NXNXNXNXNXNXNXNXNXNXNXNXNXNXNXNXNXNXNXNXNXNXy y 7.&X@.7 w f.m.B.V.m.l.S < t > y NXNXNXNXNXNXNXNXNXNXNXNXNXNXNXNXNXNXNXNX",
"NXNXNXNXNXNXNXNXNXNXNXNXNXNXNXNXNXNXNXNXNXNXNXi g ..d u r A.J.U.OXU.J. .t t u NXNXNXNXNXNXNXNXNXNXNXNXNXNXNXNXNXNXNXNXNX",
"NXNXNXNXNXNXNXNXNXNXNXNXNXNXNXNXNXNXNXNXNXNXNXNXi i y p g E.&X&X&X&X%X..i p NXNXNXNXNXNXNXNXNXNXNXNXNXNXNXNXNXNXNXNXNXNX",
"NXNXNXNXNXNXNXNXNXNXNXNXNXNXNXNXNXNXNXNXNXNXNXNXNXy y y s 7.6.6.6.6.6.g i NXNXNXNXNXNXNXNXNXNXNXNXNXNXNXNXNXNXNXNXNXNXNX",
"NXNXNXNXNXNXNXNXNXNXNXNXNXNXNXNXNXNXNXNXNXNXNXNXNXNXNXNXNXs s s s s s i NXNXNXNXNXNXNXNXNXNXNXNXNXNXNXNXNXNXNXNXNXNXNXNX",
"NXNXNXNXNXNXNXNXNXNXNXNXNXNXNXNXNXNXNXNXNXNXNXNXNXNXNXNXNXy y y y y y y NXNXNXNXNXNXNXNXNXNXNXNXNXNXNXNXNXNXNXNXNXNXNXNX"
};
