/* XPM */
static char *result[] = {
/* columns rows colors chars-per-pixel */
"60 60 237 2 ",
"   c #1D2B26",
".  c #1E352D",
"X  c #143B2C",
"o  c #153428",
"O  c #1B3D31",
"+  c #0B3D2A",
"@  c #262727",
"#  c #293936",
"$  c #323435",
"%  c #363639",
"&  c #373A3B",
"*  c #302D2F",
"=  c #3A3418",
"-  c #47273E",
";  c #32481B",
":  c #01492C",
">  c #08442C",
",  c #024E31",
"<  c #154332",
"1  c #1A4738",
"2  c #025335",
"3  c #035B3C",
"4  c #025539",
"5  c #18553A",
"6  c #154A2A",
"7  c #2C443D",
"8  c #274839",
"9  c #2E4F37",
"0  c #06613F",
"q  c #296A3D",
"w  c #52460C",
"e  c #55480F",
"r  c #5A4C18",
"t  c #504915",
"y  c #61531F",
"u  c #5A5529",
"i  c #464F29",
"p  c #645427",
"a  c #6B5237",
"s  c #74663D",
"d  c #41643F",
"f  c #5B1D42",
"g  c #671E4B",
"h  c #7E1352",
"j  c #502F48",
"k  c #71365C",
"l  c #6D2F53",
"z  c #753961",
"x  c #1E4E43",
"c  c #1C5B49",
"v  c #185645",
"b  c #055B41",
"n  c #2A4A41",
"m  c #224B42",
"M  c #3A4945",
"N  c #295344",
"B  c #275A48",
"V  c #385949",
"C  c #355F56",
"Z  c #076846",
"A  c #17674C",
"S  c #0A734C",
"D  c #0B6B53",
"F  c #1E6D52",
"G  c #116350",
"H  c #067658",
"J  c #197D5B",
"K  c #177657",
"L  c #14704D",
"P  c #24624D",
"I  c #276B54",
"U  c #386553",
"Y  c #257458",
"T  c #347657",
"R  c #37614B",
"E  c #387763",
"W  c #2A7B60",
"Q  c #444446",
"!  c #494A4C",
"~  c #43574B",
"^  c #4A5B55",
"/  c #545556",
"(  c #525C59",
")  c #565759",
"_  c #564F55",
"`  c #6D514F",
"'  c #4E6A5D",
"]  c #47685A",
"[  c #50625A",
"{  c #5A6A5A",
"}  c #48735E",
"|  c #4D624F",
" . c #72684D",
".. c #6E4A68",
"X. c #4A7C63",
"o. c #497662",
"O. c #537566",
"+. c #68686A",
"@. c #767A6C",
"#. c #797878",
"$. c #6C716F",
"%. c #564E61",
"&. c #9B2E38",
"*. c #8C262E",
"=. c #871659",
"-. c #A73844",
";. c #921B63",
":. c #922B6B",
">. c #A72677",
",. c #9E3641",
"<. c #C53B4C",
"1. c #99454D",
"2. c #905255",
"3. c #B04E56",
"4. c #8A7657",
"5. c #8A7054",
"6. c #90487B",
"7. c #BE5C65",
"8. c #8D6E65",
"9. c #AB6668",
"0. c #AE7472",
"q. c #A0605F",
"w. c #CB4456",
"e. c #DB4358",
"r. c #CC5A65",
"t. c #DA5C69",
"y. c #FE506B",
"u. c #F14B63",
"i. c #CC6973",
"p. c #CC6470",
"a. c #E76876",
"s. c #0E835A",
"d. c #14865D",
"f. c #2F845C",
"g. c #148C62",
"h. c #1E8363",
"j. c #179767",
"k. c #0E8761",
"l. c #288A65",
"z. c #398764",
"x. c #269569",
"c. c #37996A",
"v. c #2E9D75",
"b. c #25A56E",
"n. c #3AA26C",
"m. c #3BAC71",
"M. c #3ABB77",
"N. c #38B776",
"B. c #2BB373",
"V. c #1EA26C",
"C. c #488465",
"Z. c #468967",
"A. c #458F69",
"S. c #468467",
"D. c #44936A",
"F. c #429A6C",
"G. c #579174",
"H. c #7C8275",
"J. c #698B76",
"K. c #41A06E",
"L. c #4AA978",
"P. c #59835C",
"I. c #39C279",
"U. c #41C27E",
"Y. c #868477",
"T. c #968471",
"R. c #A5887B",
"E. c #7F7E80",
"W. c #B93489",
"Q. c #B83489",
"!. c #C63492",
"~. c #9B7E82",
"^. c #837C95",
"/. c #B17B81",
"(. c #A6508A",
"). c #C5479C",
"_. c #DA4AA9",
"`. c #D052A8",
"'. c #F054BD",
"]. c #EA54B9",
"[. c #D37A82",
"{. c #F75DC7",
"}. c #FE64CF",
"|. c #4C9582",
" X c #7A8883",
".X c #779B8F",
"XX c #74AE94",
"oX c #6DBF94",
"OX c #48C683",
"+X c #888A8B",
"@X c #918F91",
"#X c #A88B83",
"$X c #AA968A",
"%X c #B2978B",
"&X c #BA9B95",
"*X c #B1908F",
"=X c #95AF97",
"-X c #BEA299",
";X c #BDA69A",
":X c #AEA695",
">X c #A99BB4",
",X c #99BBAE",
"<X c #ADABAE",
"1X c #B3A9B2",
"2X c #8981A6",
"3X c #C58588",
"4X c #CD8A94",
"5X c #D29996",
"6X c #CD8E90",
"7X c #C2A59C",
"8X c #C5A89F",
"9X c #D19BA7",
"0X c #F69CAB",
"qX c #E598A2",
"wX c #C6ADA4",
"eX c #CAAEA5",
"rX c #CAA6AC",
"tX c #CDB2A9",
"yX c #D3B5AD",
"uX c #CBB7B6",
"iX c #F08190",
"pX c #87C9A6",
"aX c #A3D6BB",
"sX c #D0C5BB",
"dX c #A499C1",
"fX c #BBB0D3",
"gX c #D3B5D1",
"hX c #C9CACA",
"jX c #D9CFCB",
"kX c #D7CDEC",
"lX c #E3DAF3",
"zX c #EFE9EB",
"xX c #E9E5EA",
"cX c #FBF9FB",
"vX c #F3EDF9",
"bX c #E8D6D6",
"nX c None",
/* pixels */
"nXnXnXnXnXnXnXnXnXnXnXnXnXnXnXnXnXnXnXnX: > o @ @ @ o > +     + > o @ @ @ o > : nXnXnXnXnXnXnXnXnXnXnXnXnXnXnXnXnXnXnXnX",
"nXnXnXnXnXnXnXnXnXnXnXnXnXnXnXnXnXnXnXnX> < X . o   X > o     + > X   . . o > > nXnXnXnXnXnXnXnXnXnXnXnXnXnXnXnXnXnXnXnX",
"nXnXnXnXnXnXnXnXnXnXnXnXnXnXnXnX: : : > O 1 5 A A A v 8 . * @ . 8 5 A L A v 1 O > : : : nXnXnXnXnXnXnXnXnXnXnXnXnXnXnXnX",
"nXnXnXnXnXnXnXnXnXnXnXnXnXnXnX, 2 : : < # n K j.g.g.P 7 $ $ % & 9 F d.g.j.K 7 # < : , : , nXnXnXnXnXnXnXnXnXnXnXnXnXnXnX",
"nXnXnXnXnXnXnXnXnXnXnXnXnXnX: Z S 5 1 1 c I x.b.l.P 9 & & - ~ T f.R P f.b.x.Y c 1 1 b S 0 > nXnXnXnXnXnXnXnXnXnXnXnXnXnX",
"nXnXnXnXnXnXnXnXnXnXnXnXnX: : Z k.F 7 9 J j.B.N.T $ # # 7 _ ' K.B.R 8 T M.B.j.Y 8 7 F k.S : : nXnXnXnXnXnXnXnXnXnXnXnXnX",
"nXnXnXnXnXnXnXnXnXnXnXnXnX0 Z L F B M C l.b.c.A.U i V R ] ^ ' K.M.c.R z.D.c.b.l.U M B I L Z 0 nXnXnXnXnXnXnXnXnXnXnXnXnX",
"nXnXnXnXnXnXnXnXnXnXnX: 2 S d.I 7 M ! } n.m.Z.[ ^ %.} n.D.' ' K.I.M.N.Z.] C.m.n.' ! M n A d.S 2 : nXnXnXnXnXnXnXnXnXnXnX",
"nXnXnXnXnXnXnXnXnXnXnX3 Z L F B & ~ ' C.D.D.' / [ o.F.M.K.' { Z.K.N.I.A.( ' A.D.C.' ~ 7 V K A Z 3 nXnXnXnXnXnXnXnXnXnXnX",
"nXnXnXnXnXnXnXnXnX: 3 S K A 7 M ! } F.F.C.' ( ( X.m.N.I.K.' ( [ X.K.I.A.( [ ' C.F.F.' ! M 7 A K S 3 : nXnXnXnXnXnXnXnXnX",
"nXnXnXnXnXnXnXnXnX: 3 H g.B $ ! ' S.K.D.' / / ( D.I.I.I.K.' ) / [ D.I.n.o.[ ) ' D.K.Z.' M % B g.S 3 : nXnXnXnXnXnXnXnXnX",
"nXnXnXnXnXnXnXnXnX: 2 s.d.B $ U F.D.C.' ( / / ( A.I.I.I.K.' / / [ D.I.L.K.C.[ ( ' C.D.F.U $ B d.H 3 : nXnXnXnXnXnXnXnXnX",
"nXnXnXnXnXnXnXnXnX2 0 S d.N % E OX|.$.$.+.+.+.+.XXOXOXOXL.O./ / [ Z.N.I.I.F.[ / / ' F.N.T % B d.K 0 2 nXnXnXnXnXnXnXnXnX",
"nXnXnXnXnXnXnX: 3 S L P B M Q J.=XpX<X<X<X<X<X<XaXaXaXaX=X$./ / ( ' C.K.I.F.' / / ' F.M.S.! M B A L Z 3 : nXnXnXnXnXnXnX",
"nXnXnXnXnXnXnX: 0 s.J N & Q ) @XhXjXxXzXzXzXzXzXxXzXzXzXuX#./ / / / / Z.M.F.' / / ' F.M.Z.) Q % N J s.0 : nXnXnXnXnXnXnX",
"nXnXnXnXnXnXnX: 0 s.J N Q +.@X#X/.3X5XqX0X0X0X0X0X0X0X0X9X>X@X+./ / ) Z.M.F.[ / / { F.M.Z.) Q % N d.s.0 : nXnXnXnXnXnXnX",
"nXnXnXnXnXnXnX: Z J J B Q ^.sX#X,.&.<.e.u.y.y.y.y.y.y.y.iXjXsX^./ / ) Z.M.F.' / / [ F.M.Z.( Q % N d.s.0 : nXnXnXnXnXnXnX",
"nXnXnXnXnXnXnX: b k.l.O.@.~.*X9.1.3.r.t.t.a.a.a.a.t.a.a.iXqX9X#XE.+.) Z.M.F.[ / / ' F.M.C.( Q % N d.s.0 : nXnXnXnXnXnXnX",
"nXnXnXnXnXnXnX: Z H |.XX-X0.1.1.8.0.6X6X0.0.6X5X3X0.3X5X4Xp.i.&X<XH.) D.M.F.' ) / ' F.M.Z./ Q % N J s.0 : nXnXnXnXnXnXnX",
"nXnXnXnXnXnXnX: A l.|.@X*X9.,.q.0.$X-X:X%X$X&X7X%X#X;XtX5Xi.p.4X9X@X#.G.M.F.[ ) / ' F.M.Z.( Q % N J s.0 : nXnXnXnXnXnXnX",
"nXnXnXnXnXnXnX: P G.^.q.3.9.0.*X&X&X$X%X&X7X%X*X%X7XeXyX9X5X6Xi.i.*X<XXXOXF.[ / / ' D.M.Z./ Q % N J d.0 : nXnXnXnXnXnXnX",
"nXnXnXnXnXnXnX: R  XT.1.&.9.%X8XtX-XR.#X7XeX%XR.7XyXyXyXyXyX5Xt.w.4XhXpXOXc.' ) ) [ c.N.Z./ Q % n J s.3 : nXnXnXnXnXnXnX",
"nXnXnXnXnXnXnX: U  X~.1.&.9.&XwXyX-XR.#X7XyX7X7XeXyXyXyXyXyX5Xr.w.4XhXpXU.F.' ) / [ l.v.E / Q % m D H 3 : nXnXnXnXnXnXnX",
"nXnXnXnXnXnXnX: I  X~.1.&.9.wXeXyX-X#X#XwXyXyXyXeXeXeXeXeXyX5Xr.w.4XhXpXU.F.[ / / ^ W g.T / Q % m D H 3 : nXnXnXnXnXnXnX",
"nXnXnXnXnXnXnX: U  X+X1.&.0.wXeXyXeX;X;XeXyXsXtX$XH.H.Y.R.7X5Xr.w.4XhXpXOXn.' _ ! V Y g.Y j & % m D D 4 : nXnXnXnXnXnXnX",
"nXnXnXnXnXnXnX: U  X0.1.&.0.wXtXyXtXyXyXyXyXyXwXY.9 9 9 O.:X5Xr.w.4XhXpXOXc.[ ! & n F g.P $ $ $ m D H 3 : nXnXnXnXnXnXnX",
"nXnXnXnXnXnXnX: ' +X@X1.&.2.8.$XtXyXyXyXyXwX$XY.Y.H.@.H.R.7X5Xr.w.4XkXpXN.z.C & % 7 K g.P $ 7 x v Z Z 4 : nXnXnXnXnXnXnX",
"nXnXnXnXnXnXnXnXnX@X~.1.*.a C Y.eXyXyXyXyX;XH.| Y.;X:X;X;XtX5Xr.w.4XhXXXv.K M $ % 7 F k.P $ m D Z 3 , nXnXnXnXnXnXnXnXnX",
"nXnXnXnXnXnXnXnXnXJ.$.2.2.` { #XsXtX%X:XsXsX=X X:XyXeX8X;X;X*Xr.w.4XhXXXv.F 7 & n B K k.c $ x H Z 2 : nXnXnXnXnXnXnXnXnX",
"nXnXnXnXnXnXnXnXnXB ^ $.#XT.T.1XkX;X5.T.sXzXbXhXsXyX7X#X$X#X0.w.w.4XhXXXj.F 7 n P J H H v $ v H D 4 : nXnXnXnXnXnXnXnXnX",
"nXnXnXnXnXnXnXnXnX: B O. X@X%XfXkX>X4.T.uXxXcXcXbXjX8X%XT.9.9.7.p.*XdX|.W D n B J k.J D v m v D Z 4 : nXnXnXnXnXnXnXnXnX",
"nXnXnXnXnXnXnXnXnXnXnXI U #.@X>X>X>X<X<X1XfXxXcXzXzXjX8X*X7.r.3X-XXX|.E C c G H H H G x v G Z b 4 nXnXnXnXnXnXnXnXnXnXnX",
"nXnXnXnXnXnXnXnXnXnXnX: 5 O.+X2X2X>XfXfXdXdXkXcXcXcXbXyX4Xr.r.&X,X|.D c 7 v H H H D x # v H b 4 : nXnXnXnXnXnXnXnXnXnXnX",
"nXnXnXnXnXnXnXnXnXnXnXnXnXU U J.2X@XY.@XdXfXlXvXvXvXgX[.[.[.*X.X|.E x c v D H D G x x + b b b nXnXnXnXnXnXnXnXnXnXnXnXnX",
"nXnXnXnXnXnXnXnXnXnXnXnXnX: , O.@XY.p  .>XkXlXlXlXlXqXe.p.9X,X|.D x % c H H H D m # O + : > : nXnXnXnXnXnXnXnXnXnXnXnXnX",
"nXnXnXnXnXnXnXnXnXnXnXnXnXnX, ' @X{ ; d #.^.^.^.2X.X8.l ` +.$.U b 1 O x v 4 v 1 O # %...j % j nXnXnXnXnXnXnXnXnXnXnXnXnX",
"nXnXnXnXnXnXnXnXnXnXnXnXnXnXnXnXnXnX> > . $ $ # 8 5 O @ * * *     X , X       o + m 6._.Q.h h nXnXnXnXnXnXnXnXnXnXnXnXnX",
"nXnXnXnXnXnXnXnXnXnXnXnXnXnXnXnXnXnX: # j g k z ..%.%.k k k k l f - % % - 7 B N < & z !.Q.h nXnXnXnXnXnXnXnXnXnXnXnXnXnX",
"nXnXnXnXnXnXnXnXnXnXnXnXnXnXnXnXnXnXnXnX>.Q.)._.`.).).).).`.).!.Q.h g j j o.c.f.8 * g ;.;.nXnXnXnXnXnXnXnXnXnXnXnXnXnXnX",
"nXnXnXnXnXnXnXnXnXnXnXnXnXnXnXnXnXnXnXnX>.Q._.{.{.].].'.'.]._.(.(.z k %.o.z.c.E 7 * - g nXnXnXnXnXnXnXnXnXnXnXnXnXnXnXnX",
"nXnXnXnXnXnXnXnXnXnXnXnXnXnXnXnXnXnX: & h >.!.{.{.{.{.}.].W.:.E.|.S.T z.K.D.} ^ & * # # nXnXnXnXnXnXnXnXnXnXnXnXnXnXnXnX",
"nXnXnXnXnXnXnXnXnXnXnXnXnXnXnXnXnXnX2 8 j =.Q._.].}.{.'.!.:...O.K.x.d.x.n.z.| ! M n 8 q 9 nXnXnXnXnXnXnXnXnXnXnXnXnXnXnX",
"nXnXnXnXnXnXnXnXnXnXnXnXnXnXnXnX: 3 S A % f ;.Q._.}._.!.>.z %.{ X.U B B P 9 7 ~ T z.P.H. .e nXnXnXnXnXnXnXnXnXnXnXnXnXnX",
"nXnXnXnXnXnXnXnXnXnXnXnXnXnXnXnX> A d.Y O * f =.Q.{.).;.k ) ( ( ( M $ . @ * # R K.oX=X;X4.e w nXnXnXnXnXnXnXnXnXnXnXnXnX",
"nXnXnXnXnXnXnXnXnXnXnXnXnXnXnXnX; d P.X.8 O V %.6.Q.(.+.O.S.A.A.Z.T F 5 6 < B E L.=X:X8X4.w w nXnXnXnXnXnXnXnXnXnXnXnXnX",
"nXnXnXnXnXnXnXnXnXnXnXnXnXnXnXnXw s T.@.V 2 H h.%.=.+.m.I.U.U.I.M.V.g.Z 2 0 s.L.:XyXtXR.4.w w nXnXnXnXnXnXnXnXnXnXnXnXnX",
"nXnXnXnXnXnXnXnXnXnXnXnXnXnXnXnXw s 5. .5 , 3 B j g _ S.D.D.D.D.c.z.W B 6 5 q P.:X8XR.T. .e nXnXnXnXnXnXnXnXnXnXnXnXnXnX",
"nXnXnXnXnXnXnXnXnXnXnXnXnXnXnXnXnXnXr i 6 > X   # $ Q ^ [ [ [ [ ( [ ^ M 9 ; u s R.R.5.y y nXnXnXnXnXnXnXnXnXnXnXnXnXnXnX",
"nXnXnXnXnXnXnXnXnXnXnXnXnXnXnXnXnXnXe ; 6 > o o O x N C ] C ] o.o.o.} U V 9 ; u 4.T.s e nXnXnXnXnXnXnXnXnXnXnXnXnXnXnXnX",
"nXnXnXnXnXnXnXnXnXnXnXnXnXnXnXnXnXnXnXnXnXnX+ > 4 D K D J W l.v.m.L.m.x.d.A 5 ; u p y nXnXnXnXnXnXnXnXnXnXnXnXnXnXnXnXnX",
"nXnXnXnXnXnXnXnXnXnXnXnXnXnXnXnXnXnXnXnXnXnXnX: Z D D K J W x.v.m.N.B.x.d.A 5 9 i y r nXnXnXnXnXnXnXnXnXnXnXnXnXnXnXnXnX",
"nXnXnXnXnXnXnXnXnXnXnXnXnXnXnXnXnXnXnXnXnXnXnXnX4 b c I C E E ] X.x.b.s.0 q | | ` a p e nXnXnXnXnXnXnXnXnXnXnXnXnXnXnXnX",
"nXnXnXnXnXnXnXnXnXnXnXnXnXnXnXnXnXnXnXnXnXnXnXnX6 5 P ^ [ [ | ^ ^ T d.0 , 9  . . .` p w nXnXnXnXnXnXnXnXnXnXnXnXnXnXnXnX",
"nXnXnXnXnXnXnXnXnXnXnXnXnXnXnXnXnXnXnXnXnXnXnXr  .H.P.T z.z.C.| & n 8 O ; i p p a p y nXnXnXnXnXnXnXnXnXnXnXnXnXnXnXnXnX",
"nXnXnXnXnXnXnXnXnXnXnXnXnXnXnXnXnXnXnXnXnXnXw r 4.7X.Xc.b.B.K.R $ @ @ = w w w w w w nXnXnXnXnXnXnXnXnXnXnXnXnXnXnXnXnXnX",
"nXnXnXnXnXnXnXnXnXnXnXnXnXnXnXnXnXnXnXnXnXnXw r 4.:X$X.XL.J.G.R O . @ = w w w w w nXnXnXnXnXnXnXnXnXnXnXnXnXnXnXnXnXnXnX",
"nXnXnXnXnXnXnXnXnXnXnXnXnXnXnXnXnXnXnXnXnXnXw r 5.%X$X$X$X$XY.R : nXnXnXnXnXnXnXnXnXnXnXnXnXnXnXnXnXnXnXnXnXnXnXnXnXnXnX",
"nXnXnXnXnXnXnXnXnXnXnXnXnXnXnXnXnXnXnXnXnXnXnXr s 4.4.4.4.4. .R : nXnXnXnXnXnXnXnXnXnXnXnXnXnXnXnXnXnXnXnXnXnXnXnXnXnXnX",
"nXnXnXnXnXnXnXnXnXnXnXnXnXnXnXnXnXnXnXnXnXnXnXnXy y p p y p p nXnXnXnXnXnXnXnXnXnXnXnXnXnXnXnXnXnXnXnXnXnXnXnXnXnXnXnXnX",
"nXnXnXnXnXnXnXnXnXnXnXnXnXnXnXnXnXnXnXnXnXnXnXnXw w w w w w w nXnXnXnXnXnXnXnXnXnXnXnXnXnXnXnXnXnXnXnXnXnXnXnXnXnXnXnXnX"
};
