/* XPM */
static char *result[] = {
/* columns rows colors chars-per-pixel */
"60 60 240 2 ",
"   c #1C2C26",
".  c #1D352D",
"X  c #133B2C",
"o  c #143327",
"O  c #1B3D32",
"+  c #0B3D2A",
"@  c #222323",
"#  c #292B29",
"$  c #283A35",
"%  c #333435",
"&  c #353639",
"*  c #373B3B",
"=  c #2E2F2F",
"-  c #3A2B22",
";  c #4A1A37",
":  c #433A37",
">  c #423A1B",
",  c #0A432D",
"<  c #01492C",
"1  c #06452B",
"2  c #034E31",
"3  c #184636",
"4  c #025335",
"5  c #035B3B",
"6  c #05563A",
"7  c #135238",
"8  c #2C443D",
"9  c #24453B",
"0  c #34553D",
"q  c #304B30",
"w  c #06613F",
"e  c #08613F",
"r  c #34613A",
"t  c #26481C",
"y  c #52460C",
"u  c #484613",
"i  c #584B18",
"p  c #4E470F",
"a  c #57542E",
"s  c #655527",
"d  c #6A5B36",
"f  c #685132",
"g  c #706239",
"h  c #515925",
"j  c #5B1C42",
"k  c #73164D",
"l  c #4F2F48",
"z  c #6D3356",
"x  c #753961",
"c  c #1E4E43",
"v  c #185745",
"b  c #075940",
"n  c #2A4A41",
"m  c #224B42",
"M  c #3A4945",
"N  c #285244",
"B  c #275A49",
"V  c #37594B",
"C  c #335F55",
"Z  c #066847",
"A  c #18674C",
"S  c #0A724C",
"D  c #0C6A53",
"F  c #1E6D52",
"G  c #116350",
"H  c #077658",
"J  c #1A7D5B",
"K  c #177757",
"L  c #187B4C",
"P  c #25624C",
"I  c #266952",
"U  c #386653",
"Y  c #267558",
"T  c #337756",
"R  c #33634C",
"E  c #367663",
"W  c #2A7B60",
"Q  c #444446",
"!  c #494A4C",
"~  c #42564C",
"^  c #4B5A55",
"/  c #545556",
"(  c #525C59",
")  c #555759",
"_  c #574C53",
"`  c #725B42",
"'  c #6F4D51",
"]  c #4E6A5D",
"[  c #47695B",
"{  c #50625A",
"}  c #5E6B57",
"|  c #48745C",
" . c #476B4A",
".. c #76714E",
"X. c #6E4A68",
"o. c #4A7963",
"O. c #537366",
"+. c #68686A",
"@. c #657469",
"#. c #77796C",
"$. c #787679",
"%. c #746D70",
"&. c #564E61",
"*. c #9B2E38",
"=. c #8C262E",
"-. c #87175A",
";. c #880D55",
":. c #A73844",
">. c #941963",
",. c #942A6D",
"<. c #AA2578",
"1. c #9E3641",
"2. c #C53B4C",
"3. c #99454D",
"4. c #905255",
"5. c #B04E56",
"6. c #8C7759",
"7. c #886B52",
"8. c #90487B",
"9. c #BE5C65",
"0. c #8D6E65",
"q. c #AB6668",
"w. c #AE7472",
"e. c #A0605F",
"r. c #CB4456",
"t. c #DB4358",
"y. c #CC5A65",
"u. c #DA5C69",
"i. c #FE506B",
"p. c #F14B63",
"a. c #CC6973",
"s. c #CC6470",
"d. c #E76876",
"f. c #0E825A",
"g. c #15865B",
"h. c #2E855C",
"j. c #148C62",
"k. c #1E8563",
"l. c #179768",
"z. c #0E8761",
"x. c #278864",
"c. c #398764",
"v. c #259467",
"b. c #369968",
"n. c #2E9D75",
"m. c #26A56E",
"M. c #38A26C",
"N. c #3AAC71",
"B. c #2BB173",
"V. c #3ABB77",
"C. c #39B776",
"Z. c #2CAD70",
"A. c #498465",
"S. c #468967",
"D. c #468A68",
"F. c #44936A",
"G. c #429A6C",
"H. c #419167",
"J. c #599175",
"K. c #7C8275",
"L. c #668F79",
"P. c #41A06E",
"I. c #4AA978",
"U. c #6BA57F",
"Y. c #38C279",
"T. c #41C27E",
"R. c #878477",
"E. c #948571",
"W. c #A38577",
"Q. c #7F7E80",
"!. c #B93489",
"~. c #B83489",
"^. c #C63492",
"/. c #9B7E82",
"(. c #837C95",
"). c #B17B81",
"_. c #A6508A",
"`. c #C5479C",
"'. c #DA4AA9",
"]. c #D052A8",
"[. c #F054BD",
"{. c #EA54B9",
"}. c #D37A82",
"|. c #F75DC7",
" X c #FE64CF",
".X c #4C9582",
"XX c #7A8883",
"oX c #769A91",
"OX c #72AE90",
"+X c #7FBFA3",
"@X c #48C683",
"#X c #888A8B",
"$X c #918E91",
"%X c #A88B83",
"&X c #AA9489",
"*X c #B2978B",
"=X c #BA9B96",
"-X c #B1908F",
";X c #BEA299",
":X c #BCA99E",
">X c #AEA393",
",X c #A89BBB",
"<X c #AC9CA8",
"1X c #99BBAE",
"2X c #ADABAE",
"3X c #B3A9B2",
"4X c #8F9C9E",
"5X c #C58588",
"6X c #CD8A94",
"7X c #D19895",
"8X c #D49B99",
"9X c #CD8E90",
"0X c #C2A59C",
"qX c #C5A89F",
"wX c #D19BA7",
"eX c #F69CAB",
"rX c #E598A2",
"tX c #C6ADA4",
"yX c #CAAEA5",
"uX c #CAA6AC",
"iX c #CDB2A9",
"pX c #D3B5AD",
"aX c #CBB7B6",
"sX c #F08190",
"dX c #87C9A6",
"fX c #A3D6BB",
"gX c #D0C5BB",
"hX c #A499C1",
"jX c #BBB0D3",
"kX c #D3B5D1",
"lX c #C9CACA",
"zX c #D9CFCB",
"xX c #D7CDEC",
"cX c #E3DAF3",
"vX c #EFE9EB",
"bX c #E9E5EA",
"nX c #FBF9FB",
"mX c #F3EDF9",
"MX c #E8D6D6",
"NX c None",
/* pixels */
"NXNXNXNXNXNXNXNXNXNXNXNXNXNXNXNXNXNXNXNX1 1 o @ @ @ o 1 +     + 1 o @ @ @ o 1 1 NXNXNXNXNXNXNXNXNXNXNXNXNXNXNXNXNXNXNXNX",
"NXNXNXNXNXNXNXNXNXNXNXNXNXNXNXNXNXNXNXNX, , X . . . O , X     X , O . . . . , 1 NXNXNXNXNXNXNXNXNXNXNXNXNXNXNXNXNXNXNXNX",
"NXNXNXNXNXNXNXNXNXNXNXNXNXNXNXNX< < < , 3 3 v A A A m 3 . = # . 3 7 A A A 7 9 3 , < < < NXNXNXNXNXNXNXNXNXNXNXNXNXNXNXNX",
"NXNXNXNXNXNXNXNXNXNXNXNXNXNXNX4 2 4 1 , $ 9 Y l.l.j.I 8 * & % % 8 P j.l.l.Y N $ , < 2 < 2 NXNXNXNXNXNXNXNXNXNXNXNXNXNXNX",
"NXNXNXNXNXNXNXNXNXNXNXNXNXNX2 w S e 3 3 B Y v.m.x.P I T U ~ a & % 8 P k.m.v.Y B 9 3 b S Z < NXNXNXNXNXNXNXNXNXNXNXNXNXNX",
"NXNXNXNXNXNXNXNXNXNXNXNXNX< < Z g.I n n K l.B.C.T % T N.P.] ! * % % * T C.Z.l.J N 8 F j.Z < < NXNXNXNXNXNXNXNXNXNXNXNXNX",
"NXNXNXNXNXNXNXNXNXNXNXNXNXw Z A F B M V x.m.b.F.c.U b.C.M.] ^ U U V 8 [ S.M.Z.x.V M B I A S 5 NXNXNXNXNXNXNXNXNXNXNXNXNX",
"NXNXNXNXNXNXNXNXNXNXNX< 4 S g.I 8 M ! | M.N.S.] S.B.C.T.P.] ] F.N.| _ ^ ^ S.N.M.| ! M 8 A g.S 4 < NXNXNXNXNXNXNXNXNXNXNX",
"NXNXNXNXNXNXNXNXNXNXNX5 Z A F P 8 ~ [ A.F.F.O.( H.Y.I.N.S.{ ] P.Y.P.| ] ) ] F.F.A.| ! 8 B Y D Z 5 NXNXNXNXNXNXNXNXNXNXNX",
"NXNXNXNXNXNXNXNXNX< 5 S K A 8 M _ | G.G.o.] ( ( F.Y.P.o.] ( ] P.Y.I.N.A.( { ] o.G.P.] ! M 8 A K S 5 < NXNXNXNXNXNXNXNXNX",
"NXNXNXNXNXNXNXNXNX< 5 H j.B % ~ ] A.P.F.] ( { o.G.Y.F.{ / ( ] P.Y.Y.Y.S.( / / ] F.G.A.] ~ % B j.H 5 < NXNXNXNXNXNXNXNXNX",
"NXNXNXNXNXNXNXNXNX< 6 f.g.B % U G.S.A.] ( { A.P.N.Y.F.{ / ) ] P.Y.Y.Y.H.( / / ( ] A.H.F.U % B z.H 5 < NXNXNXNXNXNXNXNXNX",
"NXNXNXNXNXNXNXNXNX4 w S g.B * T C.G.] / / ] G.Y.V.C.D.( / / } I.@X@X@XoX+.+.+.+.+.@.I.@Xo.& B J L e 2 NXNXNXNXNXNXNXNXNX",
"NXNXNXNXNXNXNX< 5 S A A B M Q A.V.G.] / / { G.V.P.D.] ( / / @.4XfXfXfXfX2X2X2X2X2X2X1X1XL.! M B P S S 5 < NXNXNXNXNXNXNX",
"NXNXNXNXNXNXNX< e f.J N * Q ) S.V.G.{ / / ] G.V.S.) / / / ( K.jXvXvXvXvXvXvXvXvXvXvXzXlX#X&.Q & N J f.e < NXNXNXNXNXNXNX",
"NXNXNXNXNXNXNX< w f.J N & Q ) S.V.G.] / / ] G.V.D.) ) ) +.$X:X8XeXeXeXeXeXeXeXeXrX6X-Xw.%X$X+.M N J f.e < NXNXNXNXNXNXNX",
"NXNXNXNXNXNXNX< e f.J N * Q ) S.V.G.] / / ] G.V.S.) ) / #XlXkXsXi.i.i.i.i.i.i.p.t.2.:.*.).lX(.M N g.f.w < NXNXNXNXNXNXNX",
"NXNXNXNXNXNXNX< e f.J N & Q / D.V.G.{ / / ] G.V.S.) +.$.%XwXrXsXd.d.u.d.d.d.u.u.u.y.5.3.q.-Xw.%.O.x.f.w < NXNXNXNXNXNXNX",
"NXNXNXNXNXNXNX< e f.J N & Q / S.V.G.] / / { G.V.S.( XX,X7Xa.s.9X8X5Xw.5X8X9Xw.W.9X9Xw.7.3.:.w.;XOXn.f.w < NXNXNXNXNXNXNX",
"NXNXNXNXNXNXNX< w f.J N * Q / S.V.G.] / / ] G.V.J.$.%X;X6Xa.u.7XiX=X&X*X0X;X&X*X;X=X-XW.e.3.q.-X$XoXx.A < NXNXNXNXNXNXNX",
"NXNXNXNXNXNXNX< w f.g.N & Q / S.V.G.] / / { G.@XOX3X-Xs.a.9X7XyXpXyX0X*X%X*X;X;X&X&X=X0XW.w.q.5.0.#XJ.B < NXNXNXNXNXNXNX",
"NXNXNXNXNXNXNX< w f.K N & Q ) S.C.F.{ / / ] b.@XdXlX6Xr.y.8XpXpXpXpXpX;X%X*XyX0X&XW.=XiX0X=Xq.*.3./.XXC < NXNXNXNXNXNXNX",
"NXNXNXNXNXNXNX< 5 H D N & Q &.E m.c.[ / / ] G.T.dXzX6Xr.y.7XpXpXpXpXpXyX0XqXiXqX%XW.0XpXqX0Xq.*.3./.XXR < NXNXNXNXNXNXNX",
"NXNXNXNXNXNXNX< 5 H D m % Q / E j.Y ^ / / { G.@XdXlX6Xr.y.7XpXiXtXyXtXiXpXpXpXqX&X%X0XpXiXqXw.*.3./.XXR < NXNXNXNXNXNXNX",
"NXNXNXNXNXNXNX< 5 D D c % * M I j.Y V ! &.] b.T.dXlX6Xr.y.7X:X$XK.#.K.&XiXpXpXiX;X;XyXpXiXqXw.*.3./.XXU < NXNXNXNXNXNXNX",
"NXNXNXNXNXNXNX< 5 D D c % % % P j.F * : ! { G.@XdXlX6Xr.y.8X>X@.0 0 0 R.tXpXpXpXpXpXpXpXyXqXq.*.3./.XXU < NXNXNXNXNXNXNX",
"NXNXNXNXNXNXNX< 6 Z b G c 8 % P j.K 8 & l C x.C.+XlX6Xr.y.7XqXE.#.#.#.R.R.&XtXpXpXpXpXiX*XR.4.*.3./.#X[ < NXNXNXNXNXNXNX",
"NXNXNXNXNXNXNXNXNX2 b Z D c % P j.F 8 % & n W l.+XlX6Xr.y.7XiXiX:X:X:XR. .K.:XpXpXpXpXtXE.~ l =.3./.4XNXNXNXNXNXNXNXNXNX",
"NXNXNXNXNXNXNXNXNX< 6 D H v & B z.K P n & 8 F n.OXlX6Xr.y.5XqX0XqXyXpX>XL.4XgXaX>XW.gXgX&X} ' 4.4.%.L.NXNXNXNXNXNXNXNXNX",
"NXNXNXNXNXNXNXNXNX< 6 Z H c & B H z.J F n 8 F l.+XlX6Xr.5.w.%XW.%X0XpXgXzXMXvXgXE.7.:XMX3X#XE.%X$.C B NXNXNXNXNXNXNXNXNX",
"NXNXNXNXNXNXNXNXNX< b Z D v m v D H z.K B c F J .X1X-Xs.y.q.w.W.*XqXgXMXnXnXvXgXR.6.2XxX3X-X$XXXO.B < NXNXNXNXNXNXNXNXNX",
"NXNXNXNXNXNXNXNXNXNXNXb b b G v N G H H D G B C E .XoX:Xa.9.y.-XyXzXvXnXnXbXjX,X3X,X,X,X<X>XK.[ P NXNXNXNXNXNXNXNXNXNXNX",
"NXNXNXNXNXNXNXNXNXNXNX< 4 Z H v $ c D H H D c $ G H .XhX=Xs.y.}.uXMXnXnXnXxXhXhXjXjXhX(.$XXXO.v 2 NXNXNXNXNXNXNXNXNXNXNX",
"NXNXNXNXNXNXNXNXNXNXNXNXNX5 b 4 + c c G H H D G c c E .XoX-X}.}.}.kXmXmXmXcXjXhX$X/.$X$XQ.E C NXNXNXNXNXNXNXNXNXNXNXNXNX",
"NXNXNXNXNXNXNXNXNXNXNXNXNX2 < < 1 O $ c D H H D v & G H .X1XuXs.t.wXcXmXcXcXxXhX` s 6.$X] 2 2 NXNXNXNXNXNXNXNXNXNXNXNXNX",
"NXNXNXNXNXNXNXNXNXNXNXNXNX& l l X.&.$ X c b c b 3 O 3 c C +.%.x k %.oX4X$X(.(.+.~ q } 4XO.2 NXNXNXNXNXNXNXNXNXNXNXNXNXNX",
"NXNXNXNXNXNXNXNXNXNXNXNXNX-.k ~.'._.c +       @ + + +     # # # # $ 6 3 % % = . , 2 NXNXNXNXNXNXNXNXNXNXNXNXNXNXNXNXNXNX",
"NXNXNXNXNXNXNXNXNXNXNXNXNXNX;.<.!.,.l # # # = % & & l l z z x x z &.&.z x z z j $ < NXNXNXNXNXNXNXNXNXNXNXNXNXNXNXNXNXNX",
"NXNXNXNXNXNXNXNXNXNXNXNXNXNXNX>.>.>.k j - # * _ l k k >.~.].].`.`.`.`.].].`.~.>.NXNXNXNXNXNXNXNXNXNXNXNXNXNXNXNXNXNXNXNX",
"NXNXNXNXNXNXNXNXNXNXNXNXNXNXNXNX;.k k j % m U ] &.x _._._.'.{.{.|.[.[.|. X'.!.!.NXNXNXNXNXNXNXNXNXNXNXNXNXNXNXNXNXNXNXNX",
"NXNXNXNXNXNXNXNXNXNXNXNXNXNXNXNXNX; ; % B J v.P.c.E D.J.$.8.!.{.|. X|.|.|.^.<.>.NXNXNXNXNXNXNXNXNXNXNXNXNXNXNXNXNXNXNXNX",
"NXNXNXNXNXNXNXNXNXNXNXNXNXNXNXNXNXNX@ 9 F v.n.N.v.g.v.M.O.z ,.`.[.|. X{.'.!.;.k NXNXNXNXNXNXNXNXNXNXNXNXNXNXNXNXNXNXNXNX",
"NXNXNXNXNXNXNXNXNXNXNXNXNXNXNXNXNXNX@ $ V U o.o.R c 0 I ^ _ x ,.!.'. X'.<.>.j ; NXNXNXNXNXNXNXNXNXNXNXNXNXNXNXNXNXNXNXNX",
"NXNXNXNXNXNXNXNXNXNXNXNXNXNXNXNXNXNX@ = M ( ( ( *   = & 8 / ' z ,.`. X!.-.j # @ NXNXNXNXNXNXNXNXNXNXNXNXNXNXNXNXNXNXNXNX",
"NXNXNXNXNXNXNXNXNXNXNXNXNXNXNXNXNXNXX 3 R h.c.c.B o 7 T c.S.A.O.+.8.^.8.&.M O + NXNXNXNXNXNXNXNXNXNXNXNXNXNXNXNXNXNXNXNX",
"NXNXNXNXNXNXNXNXNXNXNXNXNXNXNXNXNXNX< 5 f.l.B.Y.g.1 L C.Y.Y.Y.Y.I.+.;.&.x.S 6 < NXNXNXNXNXNXNXNXNXNXNXNXNXNXNXNXNXNXNXNX",
"NXNXNXNXNXNXNXNXNXNXNXNXNXNXNXNXNXNXt r A.U.OXU.| t r h.c.H.F.F.D./ j Q v A 6 NXNXNXNXNXNXNXNXNXNXNXNXNXNXNXNXNXNXNXNXNX",
"NXNXNXNXNXNXNXNXNXNXNXNXNXNXNXNXNXNXu d E.>X:X>X..u u q M ^ { { ^ l & = # . NXNXNXNXNXNXNXNXNXNXNXNXNXNXNXNXNXNXNXNXNXNX",
"NXNXNXNXNXNXNXNXNXNXNXNXNXNXNXNXNXi s d 6.W.W.E...r r r R | | | U C m $ o   NXNXNXNXNXNXNXNXNXNXNXNXNXNXNXNXNXNXNXNXNXNX",
"NXNXNXNXNXNXNXNXNXNXNXNXNXNXNXNXy s ` ` d d s s  .h.h.b.N.N.M.v.J K G b , 1 NXNXNXNXNXNXNXNXNXNXNXNXNXNXNXNXNXNXNXNXNXNX",
"NXNXNXNXNXNXNXNXNXNXNXNXNXNXNXNXy f ` d a i i u 0 x.v.M.M.b.v.v.H H G b , 1 NXNXNXNXNXNXNXNXNXNXNXNXNXNXNXNXNXNXNXNXNXNX",
"NXNXNXNXNXNXNXNXNXNXNXNXNXNXNXNXNXi s f d ' u > 0 U U R r r 7 e Z v m O o   NXNXNXNXNXNXNXNXNXNXNXNXNXNXNXNXNXNXNXNXNXNX",
"NXNXNXNXNXNXNXNXNXNXNXNXNXNXNXNXNXNXy s ` ' * @ M { ~ M q # o , 1 q : % @ @ NXNXNXNXNXNXNXNXNXNXNXNXNXNXNXNXNXNXNXNXNXNX",
"NXNXNXNXNXNXNXNXNXNXNXNXNXNXNXNXNXNXNXi s a q , 7 T T h.T I e 7 7 ~ %.d > > NXNXNXNXNXNXNXNXNXNXNXNXNXNXNXNXNXNXNXNXNXNX",
"NXNXNXNXNXNXNXNXNXNXNXNXNXNXNXNXNXNXNXNXy u t 1 S l.m.V.B.m.g.e 7 @.%X7.i y NXNXNXNXNXNXNXNXNXNXNXNXNXNXNXNXNXNXNXNXNXNX",
"NXNXNXNXNXNXNXNXNXNXNXNXNXNXNXNXNXNXNXNXNXp t t U J.U.U.OXJ.A.r q a 7.g i NXNXNXNXNXNXNXNXNXNXNXNXNXNXNXNXNXNXNXNXNXNXNX",
"NXNXNXNXNXNXNXNXNXNXNXNXNXNXNXNXNXNXNXNXNXNXp i ..&X&X&X&X&XE.g y y i i NXNXNXNXNXNXNXNXNXNXNXNXNXNXNXNXNXNXNXNXNXNXNXNX",
"NXNXNXNXNXNXNXNXNXNXNXNXNXNXNXNXNXNXNXNXNXNXNXi g 6.6.6.6.6...s y y y NXNXNXNXNXNXNXNXNXNXNXNXNXNXNXNXNXNXNXNXNXNXNXNXNX",
"NXNXNXNXNXNXNXNXNXNXNXNXNXNXNXNXNXNXNXNXNXNXNXNXi s s s s s s NXNXNXNXNXNXNXNXNXNXNXNXNXNXNXNXNXNXNXNXNXNXNXNXNXNXNXNXNX",
"NXNXNXNXNXNXNXNXNXNXNXNXNXNXNXNXNXNXNXNXNXNXNXNXy y y y y y y NXNXNXNXNXNXNXNXNXNXNXNXNXNXNXNXNXNXNXNXNXNXNXNXNXNXNXNXNX"
};
