/* XPM */
static char *result[] = {
/* columns rows colors chars-per-pixel */
"60 60 169 2 ",
"   c #1C1A2B",
".  c #1F1C2B",
"X  c #1B192C",
"o  c #1B1A2C",
"O  c #1C1A2C",
"+  c #1D1B2E",
"@  c #1F1D30",
"#  c #201C2B",
"$  c #231E2B",
"%  c #231F2B",
"&  c #201E32",
"*  c #201F32",
"=  c #2F2127",
"-  c #27212A",
";  c #23202C",
":  c #23212C",
">  c #24212C",
",  c #24212D",
"<  c #24222F",
"1  c #29222A",
"2  c #352325",
"3  c #312728",
"4  c #322828",
"5  c #322929",
"6  c #322A29",
"7  c #332B2A",
"8  c #332C2B",
"9  c #332D2B",
"0  c #342E2C",
"q  c #342F2C",
"w  c #34302F",
"e  c #39332B",
"r  c #3E382C",
"t  c #212032",
"y  c #242230",
"u  c #232134",
"i  c #232234",
"p  c #252337",
"a  c #2A293A",
"s  c #2B293D",
"d  c #2B293E",
"f  c #2C2B3D",
"g  c #363235",
"h  c #363336",
"j  c #363338",
"k  c #373438",
"l  c #3E3A38",
"z  c #412823",
"x  c #4A2B20",
"c  c #4B2D20",
"v  c #433D2D",
"b  c #443E2D",
"n  c #503B23",
"m  c #523C23",
"M  c #403E3C",
"N  c #79551C",
"B  c #49422D",
"V  c #554B2C",
"C  c #554D2D",
"Z  c #665C2D",
"A  c #685E31",
"S  c #2F2D41",
"D  c #333243",
"F  c #323044",
"G  c #333545",
"H  c #373646",
"J  c #363449",
"K  c #3A394D",
"L  c #3D3C51",
"P  c #5C584F",
"I  c #404051",
"U  c #424156",
"Y  c #444359",
"T  c #46455B",
"R  c #4A4A5F",
"E  c #4C4B5F",
"W  c #52505E",
"Q  c #797148",
"!  c #4C4C61",
"~  c #515163",
"^  c #535467",
"/  c #595A69",
"(  c #58596A",
")  c #5D5C69",
"_  c #5E5C6A",
"`  c #58596C",
"'  c #5D5E71",
"]  c #5E606E",
"[  c #5F6071",
"{  c #626471",
"}  c #616673",
"|  c #696B7A",
" . c #6F727E",
".. c #875E1A",
"X. c #A0500C",
"o. c #BB5603",
"O. c #BD5D04",
"+. c #BE5F05",
"@. c #C7870F",
"#. c #CB810C",
"$. c #CE8A0E",
"%. c #CF8B0E",
"&. c #CF8C0E",
"*. c #C88A11",
"=. c #CB9316",
"-. c #CD9919",
";. c #D0A31E",
":. c #C0AB2E",
">. c #D3AD24",
",. c #DCB826",
"<. c #DCB926",
"1. c #D7BC2C",
"2. c #D9C12E",
"3. c #D9C330",
"4. c #DDC83B",
"5. c #E5CF3B",
"6. c #DECA42",
"7. c #E8D54B",
"8. c #E8DA6D",
"9. c #E9DD75",
"0. c #EBE07C",
"q. c #6D6F80",
"w. c #717383",
"e. c #727580",
"r. c #727682",
"t. c #747686",
"y. c #797B8A",
"u. c #7D808F",
"i. c #7F8190",
"p. c #7D8490",
"a. c #888B99",
"s. c #8B8F9C",
"d. c #89919C",
"f. c #8E929C",
"g. c #8F949F",
"h. c #9297A0",
"j. c #9498A4",
"k. c #979CA7",
"l. c #9CA1AC",
"z. c #9DA2AD",
"x. c #A0A5B0",
"c. c #A2A7B1",
"v. c #A5ABB5",
"b. c #A2ACB5",
"n. c #A6ACB5",
"m. c #ABB1B8",
"M. c #ABB1BA",
"N. c #ADB3BA",
"B. c #AEB4BD",
"V. c #B2B8BF",
"C. c #EDE487",
"Z. c #F7ED8B",
"A. c #F7EE90",
"S. c #F8F09E",
"D. c #B5C1C8",
"F. c #C2C9CF",
"G. c #C5CDD2",
"H. c #C7CED4",
"J. c #CBD3D7",
"K. c #CDD6DA",
"L. c #D1D9DD",
"P. c #D0DADE",
"I. c #D3DBDF",
"U. c #D9E2E5",
"Y. c #F6F4E1",
"T. c #FDFBE7",
"R. c #FEFDF5",
"E. c #FFFEFA",
"W. c None",
/* pixels */
"W.W.W.W.W.W.W.W.W.W.W.W.W.W.W.W.W.W.W.W.W.W.W.W.W.W.W.W.W.W.W.W.W.W.W.W.W.W.W.W.W.W.W.W.W.W.W.W.W.W.W.W.W.W.W.W.W.W.W.W.",
"W.W.W.W.W.W.W.W.W.W.W.W.W.W.W.W.W.W.W.W.W.W.W.W.W.W.W.W.W.W.W.W.W.W.W.W.W.W.W.W.W.W.W.W.W.W.W.W.W.W.W.W.W.W.W.W.W.W.W.W.",
"W.W.W.W.W.W.W.W.W.W.W.W.W.W.W.W.W.W.W.W.W.W.W.W.W.W.W.W.W.W.W.W.W.W.W.W.W.W.W.W.W.W.W.W.W.W.W.W.W.W.W.W.W.W.W.W.W.W.W.W.",
"W.W.W.W.W.W.W.W.W.W.W.W.W.W.W.W.W.W.W.W.W.W.W.W.W.W.W.W.W.W.W.W.W.W.W.W.W.W.W.W.W.W.W.W.W.W.W.W.W.W.W.W.W.W.W.W.W.W.W.W.",
"W.W.W.W.W.W.W.W.W.W.W.W.W.W.W.W.W.W.W.W.W.W.W.W.W.W.W.W.W.W.W.W.W.W.W.W.W.W.W.W.W.W.W.W.W.W.W.W.W.W.W.W.W.W.W.W.W.W.W.W.",
"W.W.W.W.W.W.W.W.W.W.W.W.W.W.W.W.W.W.W.W.W.W.W.W.W.W.W.W.W.W.W.W.W.W.W.W.W.W.W.W.W.W.W.W.W.W.W.W.W.W.W.W.W.W.W.W.W.W.W.W.",
"W.W.W.W.W.W.W.W.W.W.W.W.W.W.W.W.W.W.W.W.W.W.W.W.W.W.W.W.W.W.W.W.W.W.W.W.W.W.W.W.W.W.W.W.W.W.W.W.W.W.W.W.W.W.W.W.W.W.W.W.",
"W.W.W.W.W.W.W.W.W.W.W.W.W.W.W.W.W.W.W.W.W.W.W.W.W.W.W.W.W.W.W.W.W.W.W.W.W.W.W.W.W.W.W.W.W.W.W.W.W.W.W.W.W.W.W.W.W.W.W.W.",
"W.W.W.W.W.W.W.W.W.W.W.W.W.W.W.W.W.W.W.W.W.W.W.W.W.W.W.W.W.W.W.W.W.W.W.W.W.W.W.W.W.W.W.W.W.W.W.W.W.W.W.W.W.W.W.W.W.W.W.W.",
"W.W.W.W.W.W.W.W.W.W.W.W.W.W.W.W.W.W.W.W.W.W.W.W.W.W.W.W.W.W.W.W.W.W.W.W.W.W.W.W.W.W.W.W.W.W.W.W.W.W.W.W.W.W.W.W.W.W.W.W.",
"W.W.W.W.W.W.W.W.W.W.W.k H H W.W.W.W.W.W.W.W.W.W.W.W.W.W.W.W.W.W.W.W.W.W.W.W.W.W.W.W.W.W.W.W.W.W.W.W.W.W.W.W.W.W.W.W.W.W.",
"W.W.W.W.W.W.W.W.W.W.l A.R.E.W W.W.W.W.W.W.W.W.W.W.W.W.W.W.W.W.W.W.W.W.W.W.W.W.W.W.W.W.W.W.W.W.W.W.W.W.W.W.W.W.W.W.W.W.W.",
"W.W.W.W.W.W.W.W.W.v 4.Z.A.A.Y.) W.W.W.W.W.W.W.W.W.W.W.W.W.W.W.W.W.W.W.W.W.W.W.W.W.W.W.W.W.W.W.W.W.W.W.W.W.W.W.W.W.W.W.W.",
"W.W.W.W.W.W.W.W.W.b 5.Z.Z.Z.T._ W.W.W.W.W.W.W.W.W.W.W.W.W.W.W.W.W.W.W.W.W.W.W.W.W.W.W.W.W.W.W.W.W.W.W.W.W.W.W.W.W.W.W.W.",
"W.W.W.W.W.W.W.W.W.b 5.Z.Z.Z.S.P W.W.W.W.W.W.W.W.W.W.W.W.W.W.W.W.W.W.W.W.W.W.W.W.W.W.W.W.W.W.W.W.W.W.W.W.W.W.W.W.W.W.W.W.",
"W.W.W.W.W.W.W.W.W.W.A 7.7.7.Q M W.W.W.W.W.W.W.W.W.W.W.W.W.W.W.W.W.W.W.W.W.W.W.W.W.W.W.W.W.W.W.W.W.W.W.W.W.W.W.W.W.W.W.W.",
"W.W.W.W.W.W.W.W.W.W.W.Z Z Z e W.W.W.W.W.W.W.W.W.W.W.W.W.W.W.W.W.W.W.W.W.W.W.W.W.W.W.W.W.W.W.W.W.W.W.W.W.W.W.W.W.W.W.W.W.",
"W.W.W.W.W.W.W.W.W.W.W.. N - X O O O O O O O O O O O W.W.W.W.W.W.W.W.W.W.W.W.W.W.W.W.W.W.W.W.W.W.W.W.W.W.W.W.W.W.W.W.W.W.",
"W.W.W.W.W.W.W.W.W.W.W.% ;.7 s ] e.e.e./ S S S F  .} G W.W.W.W.W.W.W.W.W.W.W.W.W.W.W.W.W.W.W.W.W.W.W.W.W.W.W.W.W.W.W.W.W.",
"W.W.W.W.W.W.W.W.W.W.W.; >.8 L B.U.U.U.c.T T T ! I.D.r.{ I d d p o W.W.W.W.W.W.W.W.W.W.W.W.W.W.W.W.W.W.W.W.W.W.W.W.W.W.W.",
"W.W.W.W.W.W.W.W.W.W.W.% -.6 L B.U.U.U.c.T T T ! I.D.P.U.u.T T J o W.W.W.W.W.W.W.W.W.W.W.W.W.W.W.W.W.W.W.W.W.W.W.W.W.W.W.",
"W.W.W.W.W.W.W.W.W.W.W.> 3.q L B.U.U.U.c.T T T ! I.D.P.U.u.T T J o W.W.W.W.W.W.W.W.W.W.W.W.W.W.W.W.W.W.W.W.W.W.W.W.W.W.W.",
"W.W.W.W.W.W.W.W.W.W.W.> 3.q E n.H.H.H.z.` ` ` ' F.b.K.U.u.T T J o W.W.W.W.W.W.W.W.W.W.W.W.W.W.W.W.W.W.W.W.W.W.W.W.W.W.W.",
"W.W.W.W.W.W.W.W.W.W.W.> 3.q V.w.T T T u.U.U.U.I.! & N.I.i.! ! K o W.W.W.W.W.W.W.W.W.W.W.W.W.W.W.W.W.W.W.W.W.W.W.W.W.W.W.",
"W.W.W.W.W.W.W.W.W.W.W.> 3.q V.w.T T T u.U.U.U.I.! & U ! x.I.I.f.o W.W.W.W.W.W.W.W.W.W.W.W.W.W.W.W.W.W.W.W.W.W.W.W.W.W.W.",
"W.W.W.W.W.W.W.W.W.W.W.> 3.q V.w.T T T u.U.U.U.I.! & L T c.U.U.h.o W.W.W.W.W.W.W.W.W.W.W.W.W.W.W.W.W.W.W.W.W.W.W.W.W.W.W.",
"W.W.W.W.W.W.W.W.W.W.W.< 9.h V.w.T T T u.U.U.U.I.! & L T c.U.U.h.o W.W.W.W.W.W.W.W.W.W.W.W.W.W.W.W.W.W.W.W.W.W.W.W.W.W.W.",
"W.W.W.W.W.W.W.W.W.W.W.y C.j [ l.B.B.B.k.w.w.w.t.M.d.^ T c.U.U.h.o W.W.W.W.W.W.W.W.W.W.W.W.W.W.W.W.W.W.W.W.W.W.W.W.W.W.W.",
"W.W.W.W.W.W.W.W.W.W.W.y C.j L B.U.U.U.c.T T T ! I.D.v.c.s.u.u.( o W.W.W.W.W.W.W.W.W.W.W.W.W.W.W.W.W.W.W.W.W.W.W.W.W.W.W.",
"W.W.W.W.W.W.W.W.W.W.W.y C.j L B.U.U.U.c.T T T ! I.D.P.U.u.T T J o W.W.W.W.W.W.W.W.W.W.W.W.W.W.W.W.W.W.W.W.W.W.W.W.W.W.W.",
"W.W.W.W.W.W.W.W.W.W.W.y C.j L B.U.U.U.c.T T T ! I.D.P.U.u.T T J o W.W.W.W.W.W.W.W.W.W.W.W.W.W.W.W.W.W.W.W.W.W.W.W.W.W.W.",
"W.W.W.W.W.W.W.W.W.W.W.y C.j | k.c.c.c.j.u.u.u.i.x.p.G.U.u.T T J o W.W.W.W.W.W.W.W.W.W.W.W.W.W.W.W.W.W.W.W.W.W.W.W.W.W.W.",
"W.W.W.W.W.W.W.W.W.W.W.< 8.g V.w.T T T u.U.U.U.I.! & g.B.a.w.w.~ o W.W.W.W.W.W.W.W.W.W.W.W.W.W.W.W.W.W.W.W.W.W.W.W.W.W.W.",
"W.W.W.W.W.W.W.W.W.W.W., 6.w V.w.T T T u.U.U.U.I.! & L T c.U.U.h.o W.W.W.W.W.W.W.W.W.W.W.W.W.W.W.W.W.W.W.W.W.W.W.W.W.W.W.",
"W.W.W.W.W.W.W.W.W.W.W.y 0.h V.w.T T T u.U.U.U.I.! & L T c.U.U.h.o W.W.W.W.W.W.W.W.W.W.W.W.W.W.W.W.W.W.W.W.W.W.W.W.W.W.W.",
"W.W.W.W.W.W.W.W.W.W.W.> 3.q m.q.Y Y Y y.L.L.L.J.R & L T c.U.U.h.o W.W.W.W.W.W.W.W.W.W.W.W.W.W.W.W.W.W.W.W.W.W.W.W.W.W.W.",
"W.W.W.W.W.W.W.W.W.W.W.> 3.q t @ + + + @ i i i u + X L T c.U.U.h.o W.W.W.W.W.W.W.W.W.W.W.W.W.W.W.W.W.W.W.W.W.W.W.W.W.W.W.",
"W.W.W.W.W.W.W.W.W.W.W.> 3.q W.W.W.W.W.W.W.W.W.W.W.W.* & f D D a o W.W.W.W.W.W.W.W.W.W.W.W.W.W.W.W.W.W.W.W.W.W.W.W.W.W.W.",
"W.W.W.W.W.W.W.W.W.W.W.> 3.q W.W.W.W.W.W.W.W.W.W.W.W.W.W.W.W.W.W.W.W.W.W.W.W.W.W.W.W.W.W.W.W.W.W.W.W.W.W.W.W.W.W.W.W.W.W.",
"W.W.W.W.W.W.W.W.W.W.W.> 3.q W.W.W.W.W.W.W.W.W.W.W.W.W.W.W.W.W.W.W.W.W.W.W.W.W.W.W.W.W.W.W.W.W.W.W.W.W.W.W.W.W.W.W.W.W.W.",
"W.W.W.W.W.W.W.W.W.W.W.> 3.q W.W.W.W.W.W.W.W.W.W.W.W.W.W.W.W.W.W.W.W.W.W.W.W.W.W.W.W.W.W.W.W.W.W.W.W.W.W.W.W.W.W.W.W.W.W.",
"W.W.W.W.W.W.W.W.W.W.W.> 3.q W.W.W.W.W.W.W.W.W.W.W.W.W.W.W.W.W.W.W.W.W.W.W.W.W.W.W.W.W.W.W.W.W.W.W.W.W.W.W.W.W.W.W.W.W.W.",
"W.W.W.W.W.W.W.W.W.W.W.> 3.q W.W.W.W.W.W.W.W.W.W.W.W.W.W.W.W.W.W.W.W.W.W.W.W.W.W.W.W.W.W.W.W.W.W.W.W.W.W.W.W.W.W.W.W.W.W.",
"W.W.W.W.W.W.W.W.W.W.W.> 3.q W.W.W.W.W.W.W.W.W.W.W.W.W.W.W.W.W.W.W.W.W.W.W.W.W.W.W.W.W.W.W.W.W.W.W.W.W.W.W.W.W.W.W.W.W.W.",
"W.W.W.W.W.W.W.W.W.W.W.> 3.q W.W.W.W.W.W.W.W.W.W.W.W.W.W.W.W.W.W.W.W.W.W.W.W.W.W.W.W.W.W.W.W.W.W.W.W.W.W.W.W.W.W.W.W.W.W.",
"W.W.W.W.W.W.W.W.W.W.W.> 3.q W.W.W.W.W.W.W.W.W.W.W.W.W.W.W.W.W.W.W.W.W.W.W.W.W.W.W.W.W.W.W.W.W.W.W.W.W.W.W.W.W.W.W.W.W.W.",
"W.W.W.W.W.W.W.W.W.W.W.> 3.q W.W.W.W.W.W.W.W.W.W.W.W.W.W.W.W.W.W.W.W.W.W.W.W.W.W.W.W.W.W.W.W.W.W.W.W.W.W.W.W.W.W.W.W.W.W.",
"W.W.W.W.W.W.W.W.W.W.W.: 2.q W.W.W.W.W.W.W.W.W.W.W.W.W.W.W.W.W.W.W.W.W.W.W.W.W.W.W.W.W.W.W.W.W.W.W.W.W.W.W.W.W.W.W.W.W.W.",
"W.W.W.W.W.W.W.W.W.W.W.$ *.4 W.W.W.W.W.W.W.W.W.W.W.W.W.W.W.W.W.W.W.W.W.W.W.W.W.W.W.W.W.W.W.W.W.W.W.W.W.W.W.W.W.W.W.W.W.W.",
"W.W.W.W.W.W.W.W.W.W.W.; 1.0 W.W.W.W.W.W.W.W.W.W.W.W.W.W.W.W.W.W.W.W.W.W.W.W.W.W.W.W.W.W.W.W.W.W.W.W.W.W.W.W.W.W.W.W.W.W.",
"W.W.W.W.W.W.W.W.W.W.W.$ =.5 W.W.W.W.W.W.W.W.W.W.W.W.W.W.W.W.W.W.W.W.W.W.W.W.W.W.W.W.W.W.W.W.W.W.W.W.W.W.W.W.W.W.W.W.W.W.",
"W.W.W.W.W.W.W.W.W.W.W.$ @.3 W.W.W.W.W.W.W.W.W.W.W.W.W.W.W.W.W.W.W.W.W.W.W.W.W.W.W.W.W.W.W.W.W.W.W.W.W.W.W.W.W.W.W.W.W.W.",
"W.W.W.W.W.W.W.W.W.W.W.; >.8 W.W.W.W.W.W.W.W.W.W.W.W.W.W.W.W.W.W.W.W.W.W.W.W.W.W.W.W.W.W.W.W.W.W.W.W.W.W.W.W.W.W.W.W.W.W.",
"W.W.W.W.W.W.W.W.W.W.W.% ;.7 W.W.W.W.W.W.W.W.W.W.W.W.W.W.W.W.W.W.W.W.W.W.W.W.W.W.W.W.W.W.W.W.W.W.W.W.W.W.W.W.W.W.W.W.W.W.",
"W.W.W.W.W.W.W.W.W.W.W.$ @.3 W.W.W.W.W.W.W.W.W.W.W.W.W.W.W.W.W.W.W.W.W.W.W.W.W.W.W.W.W.W.W.W.W.W.W.W.W.W.W.W.W.W.W.W.W.W.",
"W.W.W.W.W.W.W.W.W.W.W.# ..1   W.W.W.W.W.W.W.W.W.W.W.W.W.W.W.W.W.W.W.W.W.W.W.W.W.W.W.W.W.W.W.W.W.W.W.W.W.W.W.W.W.W.W.W.W.",
"W.W.W.W.W.W.W.W.W.W.c n n V C r W.W.W.W.W.W.W.W.W.W.W.W.W.W.W.W.W.W.W.W.W.W.W.W.W.W.W.W.W.W.W.W.W.W.W.W.W.W.W.W.W.W.W.W.",
"W.W.W.W.W.W.W.W.W.2 X.#.%.,.:.B W.W.W.W.W.W.W.W.W.W.W.W.W.W.W.W.W.W.W.W.W.W.W.W.W.W.W.W.W.W.W.W.W.W.W.W.W.W.W.W.W.W.W.W.",
"W.W.W.W.W.W.W.W.W.= z +.$.&.m 9 W.W.W.W.W.W.W.W.W.W.W.W.W.W.W.W.W.W.W.W.W.W.W.W.W.W.W.W.W.W.W.W.W.W.W.W.W.W.W.W.W.W.W.W.",
"W.W.W.W.W.W.W.W.x o.O.&.&.&.&.<.Z W.W.W.W.W.W.W.W.W.W.W.W.W.W.W.W.W.W.W.W.W.W.W.W.W.W.W.W.W.W.W.W.W.W.W.W.W.W.W.W.W.W.W."
};
