/* XPM */
static char *result[] = {
/* columns rows colors chars-per-pixel */
"60 60 179 2 ",
"   c #1B192C",
".  c #1B192D",
"X  c #1C1A2C",
"o  c #1D1B2E",
"O  c #1E1C2F",
"+  c #1F1D30",
"@  c #1F1E31",
"#  c #2B1F28",
"$  c #201F31",
"%  c #201E32",
"&  c #211F33",
"*  c #2F2127",
"=  c #2F2629",
"-  c #352325",
";  c #3C2623",
":  c #322828",
">  c #332C2B",
",  c #312C2C",
"<  c #342F2C",
"1  c #342F2D",
"2  c #222133",
"3  c #232234",
"4  c #242236",
"5  c #2D2930",
"6  c #282639",
"7  c #2A293B",
"8  c #29283C",
"9  c #2B293E",
"0  c #2D2C3E",
"q  c #363338",
"w  c #4A2C20",
"e  c #403126",
"r  c #413327",
"t  c #4F3A23",
"y  c #413528",
"u  c #423729",
"i  c #43392A",
"p  c #423B2D",
"a  c #443C2C",
"s  c #443D2D",
"d  c #443E2D",
"f  c #503B23",
"g  c #453F31",
"h  c #70501E",
"j  c #7D581C",
"k  c #54492B",
"l  c #554D2D",
"z  c #564E2D",
"x  c #5C532E",
"c  c #47433A",
"v  c #46423F",
"b  c #48433C",
"n  c #48443D",
"m  c #604521",
"M  c #655A2D",
"N  c #665C2D",
"B  c #766A2E",
"V  c #2F2D41",
"C  c #2F2E40",
"Z  c #333243",
"A  c #323145",
"S  c #373545",
"D  c #373646",
"F  c #363449",
"G  c #373648",
"H  c #373649",
"J  c #3A394D",
"K  c #494540",
"L  c #404051",
"P  c #414151",
"I  c #414353",
"U  c #424352",
"Y  c #444455",
"T  c #444359",
"R  c #454558",
"E  c #46455B",
"W  c #4B4E5D",
"Q  c #4D4E5E",
"!  c #6E6A59",
"~  c #4C4C61",
"^  c #4E5061",
"/  c #565669",
"(  c #58596C",
")  c #5D616F",
"_  c #5E6070",
"`  c #5D6072",
"'  c #65636F",
"]  c #626471",
"[  c #666975",
"{  c #646578",
"}  c #656A78",
"|  c #68697B",
" . c #696C79",
".. c #6F6E7A",
"X. c #6A6D7C",
"o. c #706F7B",
"O. c #9C4C0B",
"+. c #BB5603",
"@. c #B75A06",
"#. c #BC5803",
"$. c #B87E12",
"%. c #C97E0C",
"&. c #857C49",
"*. c #B98013",
"=. c #BC8918",
"-. c #BD8E1A",
";. c #CD860D",
":. c #CE8A0E",
">. c #CE8B0E",
",. c #CF8C0E",
"<. c #C0971F",
"1. c #C3A024",
"2. c #C4AD2D",
"3. c #C7AE2C",
"4. c #C8B22E",
"5. c #C9B52F",
"6. c #DBB323",
"7. c #DBB423",
"8. c #DBC534",
"9. c #E3CC34",
"0. c #CDBB40",
"q. c #E2CF49",
"w. c #E8D54B",
"e. c #D6CA68",
"r. c #D8CC6F",
"t. c #D9CF75",
"y. c #DBD27F",
"u. c #717383",
"i. c #727580",
"p. c #777A86",
"a. c #777E8A",
"s. c #7E828D",
"d. c #7D808F",
"f. c #7E808F",
"g. c #7F8590",
"h. c #858896",
"j. c #848C97",
"k. c #898D9A",
"l. c #8A8D9B",
"z. c #8B8E9C",
"x. c #8B929F",
"c. c #8E929C",
"v. c #8D919E",
"b. c #8E929F",
"n. c #9095A1",
"m. c #959AA5",
"M. c #969AA6",
"N. c #98A1AC",
"B. c #9DA2AD",
"V. c #A2A7B1",
"C. c #A6ACB5",
"Z. c #A7AFB8",
"A. c #AEB4BD",
"S. c #EEE487",
"D. c #F6EB87",
"F. c #F7ED8B",
"G. c #F7EE8F",
"H. c #F7EE90",
"J. c #F8F09C",
"K. c #B5BDC3",
"L. c #B7BEC5",
"P. c #B9C0C7",
"I. c #BBC1C8",
"U. c #BBC6CC",
"Y. c #BDC8CE",
"T. c #BFC9CF",
"R. c #BFCAD0",
"E. c #C3CCD1",
"W. c #C7CED4",
"Q. c #C6D1D6",
"!. c #CAD4D9",
"~. c #D1D9DD",
"^. c #D3DBDF",
"/. c #F6F3D8",
"(. c #FDFADD",
"). c #D9E2E5",
"_. c #FEFCEC",
"`. c #FFFEFA",
"'. c None",
/* pixels */
"'.'.'.'.'.'.'.'.'.'.'.'.'.'.'.'.'.'.'.'.'.'.'.'.'.'.'.'.'.'.'.'.'.'.'.'.'.'.'.'.'.'.'.'.'.'.'.'.'.'.'.'.'.'.'.'.'.'.'.'.",
"'.'.'.'.'.'.'.'.'.'.'.'.'.'.'.'.'.'.'.'.'.'.'.'.'.'.'.'.'.'.'.'.'.'.'.'.'.'.'.'.'.'.'.'.'.'.'.'.'.'.'.'.'.'.'.'.'.'.'.'.",
"'.'.'.'.'.'.'.'.'.'.'.'.'.'.'.'.'.'.'.'.'.'.'.'.'.'.'.'.'.'.'.'.'.'.'.'.'.'.'.'.'.'.'.'.'.'.'.'.'.'.'.'.'.'.'.'.'.'.'.'.",
"'.'.'.'.'.'.'.'.'.'.'.'.'.'.'.'.'.'.'.'.'.'.'.'.'.'.'.'.'.'.'.'.'.'.'.'.'.'.'.'.'.'.'.'.'.'.'.'.'.'.'.'.'.'.'.'.'.'.'.'.",
"'.'.'.'.'.'.'.'.'.'.'.'.'.'.'.'.'.'.'.'.'.'.'.'.'.'.'.'.'.'.'.'.'.'.'.'.'.'.'.'.'.'.'.'.'.'.'.'.'.'.'.'.'.'.'.'.'.'.'.'.",
"'.'.'.'.'.'.'.'.'.'.'.'.'.'.'.'.'.'.'.'.'.'.'.'.'.'.'.'.'.'.'.'.'.'.'.'.'.'.'.'.'.'.'.'.'.'.'.'.'.'.'.'.'.'.'.'.'.'.'.'.",
"'.'.'.'.'.'.'.'.'.'.'.'.'.'.'.'.'.'.'.'.'.'.'.'.'.'.'.'.'.'.'.'.'.'.'.'.'.'.'.'.'.'.'.'.'.'.'.'.'.'.'.'.'.'.'.'.'.'.'.'.",
"'.'.'.'.'.'.'.'.'.'.'.'.'.'.'.'.'.'.'.'.'.'.'.'.'.'.'.'.'.'.'.'.'.'.'.'.'.'.'.'.'.'.'.'.'.'.'.'.'.'.'.'.'.'.'.'.'.'.'.'.",
"'.'.'.'.'.'.'.'.'.'.'.'.'.'.'.'.'.'.'.'.'.'.'.'.'.'.'.'.'.'.'.'.'.'.'.'.'.'.'.'.'.'.'.'.'.'.'.'.'.'.'.'.'.'.'.'.'.'.'.'.",
"'.'.'.'.'.'.'.'.'.'.'.'.'.'.'.'.'.'.'.'.'.'.'.'.'.'.'.'.'.'.'.'.'.'.'.'.'.'.'.'.'.'.'.'.'.'.'.'.'.'.'.'.'.'.'.'.'.'.'.'.",
"'.'.'.'.'.'.'.'.'.'.'.'.q S D '.'.'.'.'.'.'.'.'.'.'.'.'.'.'.'.'.'.'.'.'.'.'.'.'.'.'.'.'.'.'.'.'.'.'.'.'.'.'.'.'.'.'.'.'.",
"'.'.'.'.'.'.'.'.'.'.'.5 S._.`.' '.'.'.'.'.'.'.'.'.'.'.'.'.'.'.'.'.'.'.'.'.'.'.'.'.'.'.'.'.'.'.'.'.'.'.'.'.'.'.'.'.'.'.'.",
"'.'.'.'.'.'.'.'.'.'.1 8.D.G.H./...'.'.'.'.'.'.'.'.'.'.'.'.'.'.'.'.'.'.'.'.'.'.'.'.'.'.'.'.'.'.'.'.'.'.'.'.'.'.'.'.'.'.'.",
"'.'.'.'.'.'.'.'.'.'.< 9.D.F.F.(.o.'.'.'.'.'.'.'.'.'.'.'.'.'.'.'.'.'.'.'.'.'.'.'.'.'.'.'.'.'.'.'.'.'.'.'.'.'.'.'.'.'.'.'.",
"'.'.'.'.'.'.'.'.'.'.< 9.D.F.F.J.! '.'.'.'.'.'.'.'.'.'.'.'.'.'.'.'.'.'.'.'.'.'.'.'.'.'.'.'.'.'.'.'.'.'.'.'.'.'.'.'.'.'.'.",
"'.'.'.'.'.'.'.'.'.'.'.x q.w.w.&.v '.'.'.'.'.'.'.'.'.'.'.'.'.'.'.'.'.'.'.'.'.'.'.'.'.'.'.'.'.'.'.'.'.'.'.'.'.'.'.'.'.'.'.",
"'.'.'.'.'.'.'.'.'.'.'.'.M N N p '.'.'.'.'.'.'.'.'.'.'.'.'.'.'.'.'.'.'.'.'.'.'.'.'.'.'.'.'.'.'.'.'.'.'.'.'.'.'.'.'.'.'.'.",
"'.'.'.'.'.'.'.'.'.'.'.'.  h =   '.'.'.'.'.'.'.'.'.'.'.'.'.'.X X X X X X X X X '.'.'.'.'.'.'.'.'.'.'.'.'.'.'.'.'.'.'.'.'.",
"'.'.'.'.'.'.'.'.'.'.'.'.  <.u W I '.'.'.'.'.'.'.'.'.'.'.'.8 Q i.i.i. .V V V + '.'.'.'.'.'.'.'.'.'.'.'.'.'.'.'.'.'.'.'.'.",
"'.'.'.'.'.'.'.'.'.'.'.'.  1.i j.g.Y 9 9 9 G ] ] ] ] G 9 & A k.).).).W.E E E 4 '.'.'.'.'.'.'.'.'.'.'.'.'.'.'.'.'.'.'.'.'.",
"'.'.'.'.'.'.'.'.'.'.'.'.  -.y j.!.k.E E E { ).).).).{ E 9 A k.).).).W.E E E 4 '.'.'.'.'.'.'.'.'.'.'.'.'.'.'.'.'.'.'.'.'.",
"'.'.'.'.'.'.'.'.'.'.'.'.  5.d j.!.k.E E E { ).).).).{ E 9 A k.).).).W.E E E 4 '.'.'.'.'.'.'.'.'.'.'.'.'.'.'.'.'.'.'.'.'.",
"'.'.'.'.'.'.'.'.'.'.'.'.  5.d a.E.k.E E E { ).).).).{ E H R z.W.W.W.P.( ( ( 6 '.'.'.'.'.'.'.'.'.'.'.'.'.'.'.'.'.'.'.'.'.",
"'.'.'.'.'.'.'.'.'.'.'.'.  5.d   c.l.~ ~ ~ | ^.^.^.^.| ~ x.Q.M.E E E ( ).).).U '.'.'.'.'.'.'.'.'.'.'.'.'.'.'.'.'.'.'.'.'.",
"'.'.'.'.'.'.'.'.'.'.'.'.  5.d   J m.^.^.^.L.~ ~ ~ ~ L.^.Y.Q.M.E E E ( ).).).U '.'.'.'.'.'.'.'.'.'.'.'.'.'.'.'.'.'.'.'.'.",
"'.'.'.'.'.'.'.'.'.'.'.'.  5.d   F M.).).).I.E E E E I.).R.Q.M.E E E ( ).).).U '.'.'.'.'.'.'.'.'.'.'.'.'.'.'.'.'.'.'.'.'.",
"'.'.'.'.'.'.'.'.'.'.'.'.  r.b   F M.).).).I.E E E E I.).R.Q.M.E E E ( ).).).U '.'.'.'.'.'.'.'.'.'.'.'.'.'.'.'.'.'.'.'.'.",
"'.'.'.'.'.'.'.'.'.'.'.'.  y.K } ` M.).).).I.E E E E I.).s._ v.A.A.A.C.u.u.u.0 '.'.'.'.'.'.'.'.'.'.'.'.'.'.'.'.'.'.'.'.'.",
"'.'.'.'.'.'.'.'.'.'.'.'.  y.K j.Z.b.d.d.d.h.V.V.V.V.h.d.L A k.).).).W.E E E 4 '.'.'.'.'.'.'.'.'.'.'.'.'.'.'.'.'.'.'.'.'.",
"'.'.'.'.'.'.'.'.'.'.'.'.  y.K j.!.k.E E E { ).).).).{ E 9 A k.).).).W.E E E 4 '.'.'.'.'.'.'.'.'.'.'.'.'.'.'.'.'.'.'.'.'.",
"'.'.'.'.'.'.'.'.'.'.'.'.  y.K j.!.k.E E E { ).).).).{ E 9 A k.).).).W.E E E 4 '.'.'.'.'.'.'.'.'.'.'.'.'.'.'.'.'.'.'.'.'.",
"'.'.'.'.'.'.'.'.'.'.'.'.  y.K ) K.k.E E E { ).).).).{ E ^ X.b.V.V.V.B.d.d.d.C '.'.'.'.'.'.'.'.'.'.'.'.'.'.'.'.'.'.'.'.'.",
"'.'.'.'.'.'.'.'.'.'.'.'.  e.c   p.v.u.u.u.f.A.A.A.A.f.u.N.Q.M.E E E ( ).).).U '.'.'.'.'.'.'.'.'.'.'.'.'.'.'.'.'.'.'.'.'.",
"'.'.'.'.'.'.'.'.'.'.'.'.  0.g   F M.).).).I.E E E E I.).R.Q.M.E E E ( ).).).U '.'.'.'.'.'.'.'.'.'.'.'.'.'.'.'.'.'.'.'.'.",
"'.'.'.'.'.'.'.'.'.'.'.'.  t.n   F M.).).).I.E E E E I.).R.Q.M.E E E ( ).).).U '.'.'.'.'.'.'.'.'.'.'.'.'.'.'.'.'.'.'.'.'.",
"'.'.'.'.'.'.'.'.'.'.'.'.  5.d   F M.).).).I.E E E E I.).U.T.n.T T T / ~.~.~.P '.'.'.'.'.'.'.'.'.'.'.'.'.'.'.'.'.'.'.'.'.",
"'.'.'.'.'.'.'.'.'.'.'.'.  5.d   F M.).).).I.E E E E I.).[ 2 $ o o o O 3 3 3 o '.'.'.'.'.'.'.'.'.'.'.'.'.'.'.'.'.'.'.'.'.",
"'.'.'.'.'.'.'.'.'.'.'.'.  5.d '.@ 7 Z Z Z C % % % % C Z '.'.'.'.'.'.'.'.'.'.'.'.'.'.'.'.'.'.'.'.'.'.'.'.'.'.'.'.'.'.'.'.",
"'.'.'.'.'.'.'.'.'.'.'.'.  5.d '.'.'.'.'.'.'.'.'.'.'.'.'.'.'.'.'.'.'.'.'.'.'.'.'.'.'.'.'.'.'.'.'.'.'.'.'.'.'.'.'.'.'.'.'.",
"'.'.'.'.'.'.'.'.'.'.'.'.  5.d '.'.'.'.'.'.'.'.'.'.'.'.'.'.'.'.'.'.'.'.'.'.'.'.'.'.'.'.'.'.'.'.'.'.'.'.'.'.'.'.'.'.'.'.'.",
"'.'.'.'.'.'.'.'.'.'.'.'.  5.d '.'.'.'.'.'.'.'.'.'.'.'.'.'.'.'.'.'.'.'.'.'.'.'.'.'.'.'.'.'.'.'.'.'.'.'.'.'.'.'.'.'.'.'.'.",
"'.'.'.'.'.'.'.'.'.'.'.'.  5.d '.'.'.'.'.'.'.'.'.'.'.'.'.'.'.'.'.'.'.'.'.'.'.'.'.'.'.'.'.'.'.'.'.'.'.'.'.'.'.'.'.'.'.'.'.",
"'.'.'.'.'.'.'.'.'.'.'.'.  5.d '.'.'.'.'.'.'.'.'.'.'.'.'.'.'.'.'.'.'.'.'.'.'.'.'.'.'.'.'.'.'.'.'.'.'.'.'.'.'.'.'.'.'.'.'.",
"'.'.'.'.'.'.'.'.'.'.'.'.  5.d '.'.'.'.'.'.'.'.'.'.'.'.'.'.'.'.'.'.'.'.'.'.'.'.'.'.'.'.'.'.'.'.'.'.'.'.'.'.'.'.'.'.'.'.'.",
"'.'.'.'.'.'.'.'.'.'.'.'.  5.d '.'.'.'.'.'.'.'.'.'.'.'.'.'.'.'.'.'.'.'.'.'.'.'.'.'.'.'.'.'.'.'.'.'.'.'.'.'.'.'.'.'.'.'.'.",
"'.'.'.'.'.'.'.'.'.'.'.'.  5.d '.'.'.'.'.'.'.'.'.'.'.'.'.'.'.'.'.'.'.'.'.'.'.'.'.'.'.'.'.'.'.'.'.'.'.'.'.'.'.'.'.'.'.'.'.",
"'.'.'.'.'.'.'.'.'.'.'.'.  5.d '.'.'.'.'.'.'.'.'.'.'.'.'.'.'.'.'.'.'.'.'.'.'.'.'.'.'.'.'.'.'.'.'.'.'.'.'.'.'.'.'.'.'.'.'.",
"'.'.'.'.'.'.'.'.'.'.'.'.  4.s '.'.'.'.'.'.'.'.'.'.'.'.'.'.'.'.'.'.'.'.'.'.'.'.'.'.'.'.'.'.'.'.'.'.'.'.'.'.'.'.'.'.'.'.'.",
"'.'.'.'.'.'.'.'.'.'.'.'.  *.e '.'.'.'.'.'.'.'.'.'.'.'.'.'.'.'.'.'.'.'.'.'.'.'.'.'.'.'.'.'.'.'.'.'.'.'.'.'.'.'.'.'.'.'.'.",
"'.'.'.'.'.'.'.'.'.'.'.'.  3.a '.'.'.'.'.'.'.'.'.'.'.'.'.'.'.'.'.'.'.'.'.'.'.'.'.'.'.'.'.'.'.'.'.'.'.'.'.'.'.'.'.'.'.'.'.",
"'.'.'.'.'.'.'.'.'.'.'.'.  =.r '.'.'.'.'.'.'.'.'.'.'.'.'.'.'.'.'.'.'.'.'.'.'.'.'.'.'.'.'.'.'.'.'.'.'.'.'.'.'.'.'.'.'.'.'.",
"'.'.'.'.'.'.'.'.'.'.'.'.  $.e '.'.'.'.'.'.'.'.'.'.'.'.'.'.'.'.'.'.'.'.'.'.'.'.'.'.'.'.'.'.'.'.'.'.'.'.'.'.'.'.'.'.'.'.'.",
"'.'.'.'.'.'.'.'.'.'.'.'.  1.i '.'.'.'.'.'.'.'.'.'.'.'.'.'.'.'.'.'.'.'.'.'.'.'.'.'.'.'.'.'.'.'.'.'.'.'.'.'.'.'.'.'.'.'.'.",
"'.'.'.'.'.'.'.'.'.'.'.'.  <.u '.'.'.'.'.'.'.'.'.'.'.'.'.'.'.'.'.'.'.'.'.'.'.'.'.'.'.'.'.'.'.'.'.'.'.'.'.'.'.'.'.'.'.'.'.",
"'.'.'.'.'.'.'.'.'.'.'.'.  $.e '.'.'.'.'.'.'.'.'.'.'.'.'.'.'.'.'.'.'.'.'.'.'.'.'.'.'.'.'.'.'.'.'.'.'.'.'.'.'.'.'.'.'.'.'.",
"'.'.'.'.'.'.'.'.'.'.'.'.  j : . '.'.'.'.'.'.'.'.'.'.'.'.'.'.'.'.'.'.'.'.'.'.'.'.'.'.'.'.'.'.'.'.'.'.'.'.'.'.'.'.'.'.'.'.",
"'.'.'.'.'.'.'.'.'.'.'.w t f k l p '.'.'.'.'.'.'.'.'.'.'.'.'.'.'.'.'.'.'.'.'.'.'.'.'.'.'.'.'.'.'.'.'.'.'.'.'.'.'.'.'.'.'.",
"'.'.'.'.'.'.'.'.'.'.# O.%.>.7.2.z '.'.'.'.'.'.'.'.'.'.'.'.'.'.'.'.'.'.'.'.'.'.'.'.'.'.'.'.'.'.'.'.'.'.'.'.'.'.'.'.'.'.'.",
"'.'.'.'.'.'.'.'.'.'.* - @.;.,.m > , '.'.'.'.'.'.'.'.'.'.'.'.'.'.'.'.'.'.'.'.'.'.'.'.'.'.'.'.'.'.'.'.'.'.'.'.'.'.'.'.'.'.",
"'.'.'.'.'.'.'.'.'.; +.#.:.,.,.,.6.B X '.'.'.'.'.'.'.'.'.'.'.'.'.'.'.'.'.'.'.'.'.'.'.'.'.'.'.'.'.'.'.'.'.'.'.'.'.'.'.'.'."
};
