/* XPM */
static char *result[] = {
/* columns rows colors chars-per-pixel */
"60 60 214 2 ",
"   c #1B2C25",
".  c #0D3B29",
"X  c #143D2D",
"o  c #1A342A",
"O  c #193E30",
"+  c #242726",
"@  c #29322D",
"#  c #2A3432",
"$  c #273B35",
"%  c #333334",
"&  c #363638",
"*  c #353A39",
"=  c #3D2837",
"-  c #522E32",
";  c #63343B",
":  c #7C323D",
">  c #79242D",
",  c #4C1C39",
"<  c #27481D",
"1  c #0A422C",
"2  c #00492C",
"3  c #05432A",
"4  c #12412F",
"5  c #014F31",
"6  c #1A4635",
"7  c #025335",
"8  c #035B3C",
"9  c #04563B",
"0  c #125238",
"q  c #2D453D",
"w  c #254A3B",
"e  c #23573B",
"r  c #314F36",
"t  c #06613F",
"y  c #52460C",
"u  c #5B4F1B",
"i  c #5E501C",
"p  c #57501E",
"a  c #4C460F",
"s  c #625321",
"d  c #6A5D32",
"f  c #7E1955",
"g  c #55304A",
"h  c #6B3559",
"j  c #742B52",
"k  c #1B5343",
"l  c #175944",
"z  c #005E41",
"x  c #264B42",
"c  c #3A4A46",
"v  c #285244",
"b  c #275749",
"n  c #3A5949",
"m  c #056748",
"M  c #18694C",
"N  c #0B734D",
"B  c #0B6B54",
"V  c #1A6951",
"C  c #017254",
"Z  c #0A7755",
"A  c #1A7D5B",
"S  c #157757",
"D  c #1C754A",
"F  c #22624C",
"G  c #246B52",
"H  c #3A6556",
"J  c #277658",
"K  c #377858",
"L  c #34614C",
"P  c #454547",
"I  c #464A4B",
"U  c #52444F",
"Y  c #42554B",
"T  c #485855",
"R  c #555456",
"E  c #525C59",
"W  c #565658",
"Q  c #554856",
"!  c #6D4758",
"~  c #4D6B5D",
"^  c #4E6058",
"/  c #50635A",
"(  c #586C5D",
")  c #49735A",
"_  c #746B4A",
"`  c #5F5F61",
"'  c #70516D",
"]  c #4A7962",
"[  c #5A7268",
"{  c #4A7071",
"}  c #6A776A",
"|  c #767B6B",
" . c #6B6B6D",
".. c #9D2B38",
"X. c #AA2D3B",
"o. c #843C45",
"O. c #9F3747",
"+. c #88356B",
"@. c #A92D7B",
"#. c #A72A57",
"$. c #C13244",
"%. c #CF3D50",
"&. c #8B424C",
"*. c #A7555C",
"=. c #B8555D",
"-. c #A64952",
";. c #887355",
":. c #8B775B",
">. c #947C77",
",. c #B56569",
"<. c #AA7672",
"1. c #B27173",
"2. c #C45D65",
"3. c #D95D6A",
"4. c #FE506B",
"5. c #CE626B",
"6. c #E76776",
"7. c #E6475D",
"8. c #0E835A",
"9. c #10855C",
"0. c #288559",
"q. c #38815F",
"w. c #2F935F",
"e. c #168962",
"r. c #169568",
"t. c #248863",
"y. c #389B6A",
"u. c #2F8D65",
"i. c #28A36E",
"p. c #39AC71",
"a. c #39BB76",
"s. c #37B473",
"d. c #2EA970",
"f. c #478967",
"g. c #44936A",
"h. c #429B6C",
"j. c #5D9779",
"k. c #52846C",
"l. c #7B8374",
"z. c #689179",
"x. c #41A16E",
"c. c #4AA275",
"v. c #39C179",
"b. c #878677",
"n. c #8B8069",
"m. c #A6857D",
"M. c #8D805B",
"N. c #AC3480",
"B. c #CB3E9A",
"V. c #B64692",
"C. c #B87C82",
"Z. c #AA7F84",
"A. c #8E618D",
"S. c #C9459D",
"D. c #C47F88",
"F. c #DD4EAE",
"G. c #CF5AAE",
"H. c #EC55BC",
"J. c #F054BD",
"K. c #F65EC6",
"L. c #FA61CB",
"P. c #7E9395",
"I. c #63B88C",
"U. c #4DC787",
"Y. c #6DC496",
"T. c #8B8796",
"R. c #8C8D89",
"E. c #A78A81",
"W. c #AA8D84",
"Q. c #BE8583",
"!. c #AE948A",
"~. c #A6968A",
"^. c #B3978D",
"/. c #A99A92",
"(. c #B99B98",
"). c #93AA9B",
"_. c #BCA59B",
"`. c #A2A69B",
"'. c #AF8FB5",
"]. c #ADABAD",
"[. c #B1ACB6",
"{. c #93B7A5",
"}. c #C38986",
"|. c #CB9A96",
" X c #D39E9B",
".X c #D0848F",
"XX c #C1A49C",
"oX c #F79CAB",
"OX c #C5ACA2",
"+X c #CBAEA5",
"@X c #CDB2A9",
"#X c #CCB3A9",
"$X c #D3B6AD",
"%X c #D3B8B0",
"&X c #E3909C",
"*X c #94CFB0",
"=X c #ABC4B8",
"-X c #A1DBBD",
";X c #CFC3B7",
":X c #B2A8CD",
">X c #CEB6D1",
",X c #CBBDED",
"<X c #D8CBC7",
"1X c #CFCDD2",
"2X c #E5D9DB",
"3X c #E0E1DD",
"4X c #D9CFF1",
"5X c #E7DDFA",
"6X c #EFE9EC",
"7X c #EBE5E8",
"8X c #FDFBFF",
"9X c #F6F3F5",
"0X c #F0E8F5",
"qX c None",
/* pixels */
"qXqXqXqXqXqXqXqXqXqXqXqXqXqXqXqXqXqXqXqX2 3 o + + + o 3 .     . 3 o + + +   1 2 qXqXqXqXqXqXqXqXqXqXqXqXqXqXqXqXqXqXqXqX",
"qXqXqXqXqXqXqXqXqXqXqXqXqXqXqXqXqXqXqXqX1 . X o @   X . .     . 4 4 o o o X 1 3 qXqXqXqXqXqXqXqXqXqXqXqXqXqXqXqXqXqXqXqX",
"qXqXqXqXqXqXqXqXqXqXqXqXqXqXqXqX2 2 2 1 O 6 l M M M l w $ @ @ @ 6 k M M M l 6 O 1 2 2 2 qXqXqXqXqXqXqXqXqXqXqXqXqXqXqXqX",
"qXqXqXqXqXqXqXqXqXqXqXqXqXqXqX7 2 5 2 4 q w J r.r.e.V q # % & * q V e.r.r.J q $ 4 2 2 5 7 qXqXqXqXqXqXqXqXqXqXqXqXqXqXqX",
"qXqXqXqXqXqXqXqXqXqXqXqXqXqX2 t N l 6 w b V r.i.0.F G K H n Y H K G F 0.d.r.G b 6 6 l N m 2 qXqXqXqXqXqXqXqXqXqXqXqXqXqX",
"qXqXqXqXqXqXqXqXqXqXqXqXqX2 2 m r.V x v A r.d.a.K % K p.x.~ ~ h.p.K % K a.d.r.S x x D 9.m 2 2 qXqXqXqXqXqXqXqXqXqXqXqXqX",
"qXqXqXqXqXqXqXqXqXqXqXqXqXt N M M b c n u.i.y.g.q.K y.a.x.~ ~ x.s.w.K q.g.y.i.u.H c n V M m t qXqXqXqXqXqXqXqXqXqXqXqXqX",
"qXqXqXqXqXqXqXqXqXqXqX2 7 N 9.V q c I ) y.s.f./ f.p.a.v.x.~ ~ x.v.a.p.f.~ f.p.p.~ I c q V 9.N 7 2 qXqXqXqXqXqXqXqXqXqXqX",
"qXqXqXqXqXqXqXqXqXqXqX8 m M D b * Y ~ f.g.g.[ E g.v.c.s.f.~ / f.x.s.v.f.E [ g.g.] ) R q b D M m 8 qXqXqXqXqXqXqXqXqXqXqX",
"qXqXqXqXqXqXqXqXqX2 8 N S F x I I ) h.h.] ~ E E f.v.x.) ( W E / ] x.v.g.E E / f.h.g.) I c q F S N 8 2 qXqXqXqXqXqXqXqXqX",
"qXqXqXqXqXqXqXqXqX2 8 Z 9.F % Y ~ k.x.g.~ W / ) y.v.g./ R R R R / g.a.g.] / W ~ g.y.f./ Y & F e.Z 8 2 qXqXqXqXqXqXqXqXqX",
"qXqXqXqXqXqXqXqXqX2 8 Z 9.b % H y.g.] ) ^ / f.y.s.v.g./ R R R R / h.v.p.y.f.E E ~ k.g.y.H & b 9.Z 8 2 qXqXqXqXqXqXqXqXqX",
"qXqXqXqXqXqXqXqXqX7 t N 9.n * K a.h.~ W ( } c.U.U.U.I.} `  . .` [ I.U.U.U.j.[ ` E ~ h.a.K * b A S t 5 qXqXqXqXqXqXqXqXqX",
"qXqXqXqXqXqXqX2 8 N M F b c I q.a.g./  .A.).{.*X*X*X=X].].].].].].=X-X*X*X{.`.R. ./ h.a.q.I n b F N N t 2 qXqXqXqXqXqXqX",
"qXqXqXqXqXqXqX2 t 8.A v * P W f.a.h.~ | ].1X1X1X3X6X6X6X6X6X6X6X6X6X6X2X1X1X<X].| ^ h.a.f.R P * w J 9.t 2 qXqXqXqXqXqXqX",
"qXqXqXqXqXqXqX2 t 8.9.v & P W f.a.I.R.T.Z.C.D..X&XoXoXoXoXoXoXoXoXoXoX&XD.C.C.Z.R.P.I.a.f.R P % v 9.8.t 2 qXqXqXqXqXqXqX",
"qXqXqXqXqXqXqX2 t 8.A v % P T f.a.Y.=X(.*...$.%.7.4.4.4.4.4.4.4.4.4.4.7.%.X.X.*._.=XY.a.f.R P % v A 9.t 2 qXqXqXqXqXqXqX",
"qXqXqXqXqXqXqX2 t 8.A v & P R z.Y.)./.C.,.=.,.5.3.3.6.6.6.3.3.6.6.6.3.5.5.5.=.2.m.^.).Y.z.R P % v 9.8.t 2 qXqXqXqXqXqXqX",
"qXqXqXqXqXqXqX2 t 8.A v & P W R.[./.*.*.Q.|.|. XQ.<.}. X|.1.1.|. X}.<.}. X X|.m.*.*./.=XP.R P & v A 8.t 2 qXqXqXqXqXqXqX",
"qXqXqXqXqXqXqX2 t 8.A v & P W >._.Q.*.,.|.$X$X@X^.>.^.+XXXW.W.XX@Xm.m.^.@X$X$X|.,.=.C.(.>.R P & v A 9.t 2 qXqXqXqXqXqXqX",
"qXqXqXqXqXqXqX2 t 8.A v & P W ! *.,.C.|.+X$X$X@X^.m.^.+XXXm.W.XX@Xm.m.^.@X$X;X X|.Q.,.-.! W P & v A 8.t 2 qXqXqXqXqXqXqX",
"qXqXqXqXqXqXqX2 t 8.S v & P R o...*.|.$X$X$X$X@X^.m.(.@XXXW.m.XX@X^.m.XX@X$X@X;X$X|.=...! W P & v A 8.t 2 qXqXqXqXqXqXqX",
"qXqXqXqXqXqXqX2 8 C S x & P W o.X.2. X%X$X$X$X$XOXXXXX$XXXW.W._.@XOXXX+X$X$X;X#X$XXX2.X...R P * x N C 8 2 qXqXqXqXqXqXqX",
"qXqXqXqXqXqXqX2 8 C B x & P W &.$.5. X@X@X+XOX+X+X$X$X$XXXW.W.XX$X$X@X+X+X+XOX#X#X X5.$.&.E P * x B C 8 2 qXqXqXqXqXqXqX",
"qXqXqXqXqXqXqX2 9 C B x & P W &.$.5. X_.b.b.l.b./.$X$X$X+X_._.OX$X$X$X/.b.l.b.m._. X5.$.&.Q I & x B C 9 2 qXqXqXqXqXqXqX",
"qXqXqXqXqXqXqX2 z C B x & P W &.$.5. X~.} r r r b.$X$X$X$X$X$X$X$X$X#Xb.n r r ( /. X5.$.&.W P & x B B z 2 qXqXqXqXqXqXqX",
"qXqXqXqXqXqXqX2 9 z m l k c P o.$.5. X_.b.l.l.l.b.b./.+X$X$X$X$X+X/.b.l.l.l.l.b._. X2.$.o.I c k l m z 9 2 qXqXqXqXqXqXqX",
"qXqXqXqXqXqXqXqXqX5 z m B x & j $.5. X#XOXXX_._.l.Y b.OX$X$X$X$XOXl.^ l.^.OX_._.#X X3.$.o.& b B m z 5 qXqXqXqXqXqXqXqXqX",
"qXqXqXqXqXqXqXqXqX2 7 m B k & : $.5.Q._.XX+X@X@X`.l.).<X$Xm.XX;X;X`.l.`.@X@XXX_._.}.5.$.: % x B C 7 2 qXqXqXqXqXqXqXqXqX",
"qXqXqXqXqXqXqXqXqX2 7 C Z k % : $.=.m.m.m.m.XX%X;X1X3X6X;XM.M.;X6X3X1X<X$XXX!.m.W.<.=.$.: % k C m 7 2 qXqXqXqXqXqXqXqXqX",
"qXqXqXqXqXqXqXqXqX2 9 m B l q ; ..-.,.<.m.^.@X<X7X8X9X6X%XM.M.=X6X9X8X6X<X+X^.m.<.*.-.O.g q l B m 9 2 qXqXqXqXqXqXqXqXqX",
"qXqXqXqXqXqXqXqXqXqXqX9 z m B n - ..-.,.}.@X<X6X9X8X3X:X:X'.].].:X3X8X9X6X<X+XQ.,.-.o.; c V z z 9 qXqXqXqXqXqXqXqXqXqXqX",
"qXqXqXqXqXqXqXqXqXqXqX2 7 m C l $ ; X.=.}.$X3X8X8X8X4X'.:X,X,X:X'.1X9X9X8X2X$XQ.=.O.; $ l C m 5 2 qXqXqXqXqXqXqXqXqXqXqX",
"qXqXqXqXqXqXqXqXqXqXqXqXqX8 z 9 4 * ; o.*.1.>X5X0X0X4X,X4X4X4X,X,X4X0X0X5X>X5.*.o.; * 4 0 z z qXqXqXqXqXqXqXqXqXqXqXqXqX",
"qXqXqXqXqXqXqXqXqXqXqXqXqX2 2 2 2 4 @ - > O.D.4X4X5X5X5X5X5X5X5X5X5X5X4X4X'.O.> - # X 2 2 2 2 qXqXqXqXqXqXqXqXqXqXqXqXqX",
"qXqXqXqXqXqXqXqXqXqXqXqXqXqX2 2 2 1 4 @ - ; ' A.P.P.P.R.T.T.T.A.T.P.P.P.A.' - , # X 1 2 2 2 qXqXqXqXqXqXqXqXqXqXqXqXqXqX",
"qXqXqXqXqXqXqXqXqXqXqXqXqXqXqXqXqXqX2 . + + + % x 9 x # % % + % $ 6 l 6 # + +   4 2 qXqXqXqXqXqXqXqXqXqXqXqXqXqXqXqXqXqX",
"qXqXqXqXqXqXqXqXqXqXqXqXqXqXqXqXqX$ w q , , g , g ' Q h h h h h h ' ` h j g , = $ 6 $ qXqXqXqXqXqXqXqXqXqXqXqXqXqXqXqXqX",
"qXqXqXqXqXqXqXqXqXqXqXqXqXqXqXqX  % c g j f @.@.V.G.G.S.B.B.B.B.S.G.G.V.N.@.f f U I % + qXqXqXqXqXqXqXqXqXqXqXqXqXqXqXqX",
"qXqXqXqXqXqXqXqXqXqXqXqXqXqXqX6 w c T h g f ' N.S.G.K.H.K.H.K.H.K.F.F.V.N.h f g U T n w 6 qXqXqXqXqXqXqXqXqXqXqXqXqXqXqX",
"qXqXqXqXqXqXqXqXqXqXqXqXqXqX2 D w.q./ U g P T { ' @.B.K.L.K.K.K.K.B.@.' { T g g U / q.w.D 5 qXqXqXqXqXqXqXqXqXqXqXqXqXqX",
"qXqXqXqXqXqXqXqXqXqXqXqXqXe e 0.s.y.] T * $ F A Q f @.F.K.K.K.K.F.N.f R A M w * T ] y.s.0.l e qXqXqXqXqXqXqXqXqXqXqXqXqX",
"qXqXqXqXqXqXqXqXqXqXqXqXp _ | g.i.i.y.K q @ q b c h +.N.B.K.K.B.@.+.h I v q @ q K y.y.i.f.} _ p qXqXqXqXqXqXqXqXqXqXqXqX",
"qXqXqXqXqXqXqXqXqXqXqXy p ;.^.z.u.i.s.w.w   # * c E Q f @.F.G.N.j h E c * @ + e w.s.i.u.z.~.;.i y qXqXqXqXqXqXqXqXqXqXqX",
"qXqXqXqXqXqXqXqXqXqXqXy u ;.!.R.z.f.0.D 0 X k G K g.{ [ >.N.N.A.[ ] g.K G 0 O 6 D 0.f.z.R.^.;.u y qXqXqXqXqXqXqXqXqXqXqX",
"qXqXqXqXqXqXqXqXqXqXqXy i ;.^.!.~.} e 5 2 7 Z r.i.v.v.v.k.h h k.a.v.v.d.r.Z 9 2 2 e } ~.^.^.;.i y qXqXqXqXqXqXqXqXqXqXqX",
"qXqXqXqXqXqXqXqXqXqXqXqXu _ ;.;.;._ e 3 . X k G q.g.h.g.[ ! ! { g.y.y.K G l 4 . 3 e _ ;.;.;._ i qXqXqXqXqXqXqXqXqXqXqXqX",
"qXqXqXqXqXqXqXqXqXqXqXqXqXu i i i u qXqX  + # q Y / / / E W Q E E / / T q @ +   qXqXu i i i i qXqXqXqXqXqXqXqXqXqXqXqXqX",
"qXqXqXqXqXqXqXqXqXqXqXqXqXqXy y y qXqXqX  o w L H H H H { H H ) H H H H b v $   qXqXqXy y y qXqXqXqXqXqXqXqXqXqXqXqXqXqX",
"qXqXqXqXqXqXqXqXqXqXqXqXqXqXqXqXqXqXqXqX3 0 0.y.t.S A A A e.t.t.A A A t.y.J 7 . qXqXqXqXqXqXqXqXqXqXqXqXqXqXqXqXqXqXqXqX",
"qXqXqXqXqXqXqXqXqXqXqXqXqXqXqXqXqXqXqXqX3 0 0.p.t.B S S A A Z Z A B B e.p.0.0 3 qXqXqXqXqXqXqXqXqXqXqXqXqXqXqXqXqXqXqXqX",
"qXqXqXqXqXqXqXqXqXqXqXqXqXqXqXqXqXqXqXqX  $ n ) H x 6 w k z l 0 x x x H ] n O   qXqXqXqXqXqXqXqXqXqXqXqXqXqXqXqXqXqXqXqX",
"qXqXqXqXqXqXqXqXqXqXqXqXqXqXqXqXqXqXqXqX  @ r E c q # + o 3 . o + # q P T c @   qXqXqXqXqXqXqXqXqXqXqXqXqXqXqXqXqXqXqXqX",
"qXqXqXqXqXqXqXqXqXqXqXqXqXqXqXqXqXqXqXqX. 4 F J G G 0 4 . 3 3 X 1 0 G J J b 4 X qXqXqXqXqXqXqXqXqXqXqXqXqXqXqXqXqXqXqXqX",
"qXqXqXqXqXqXqXqXqXqXqXqXqXqXqXqXqXqXqXqX2 7 S r.r.r.N 9 3 qXqX2 7 N r.r.r.N 9 2 qXqXqXqXqXqXqXqXqXqXqXqXqXqXqXqXqXqXqXqX",
"qXqXqXqXqXqXqXqXqXqXqXqXqXqXqXqXqXqXqXqX< r ) j.j.j.) < < qXqX< < ) j.j.j.) r < qXqXqXqXqXqXqXqXqXqXqXqXqXqXqXqXqXqXqXqX",
"qXqXqXqXqXqXqXqXqXqXqXqXqXqXqXqXqXqXqXqXa s :.~.~.~.;.p y qXqXa i ;.~.~.W.;.p a qXqXqXqXqXqXqXqXqXqXqXqXqXqXqXqXqXqXqXqX",
"qXqXqXqXqXqXqXqXqXqXqXqXqXqXqXqXqXqXqXqXqXs _ :.:.:._ u qXqXqXqXi _ :.:.;.;.s qXqXqXqXqXqXqXqXqXqXqXqXqXqXqXqXqXqXqXqXqX",
"qXqXqXqXqXqXqXqXqXqXqXqXqXqXqXqXqXqXqXqXqXqXs s s s i qXqXqXqXqXqXs s s s s qXqXqXqXqXqXqXqXqXqXqXqXqXqXqXqXqXqXqXqXqXqX",
"qXqXqXqXqXqXqXqXqXqXqXqXqXqXqXqXqXqXqXqXqXqXy y y y y qXqXqXqXqXqXy y y y y qXqXqXqXqXqXqXqXqXqXqXqXqXqXqXqXqXqXqXqXqXqX"
};
