/* XPM */
static char *result[] = {
/* columns rows colors chars-per-pixel */
"60 60 221 2 ",
"   c #3A381A",
".  c #1B2C25",
"X  c #0D3C29",
"o  c #19372B",
"O  c #193E30",
"+  c #252725",
"@  c #29332B",
"#  c #2B3432",
"$  c #263B35",
"%  c #333334",
"&  c #363638",
"*  c #353938",
"=  c #382D33",
"-  c #433C1C",
";  c #4E2D34",
":  c #63343B",
">  c #7C323D",
",  c #79242D",
"<  c #4C1C39",
"1  c #30471A",
"2  c #0B432C",
"3  c #00492C",
"4  c #094529",
"5  c #15422B",
"6  c #014F31",
"7  c #1A4536",
"8  c #015335",
"9  c #035B3C",
"0  c #06573A",
"q  c #125238",
"w  c #29463C",
"e  c #34533A",
"r  c #2D4E35",
"t  c #06613F",
"y  c #306A3B",
"u  c #52460C",
"i  c #54480F",
"p  c #504C15",
"a  c #585025",
"s  c #645523",
"d  c #705E34",
"f  c #5C6131",
"g  c #781A51",
"h  c #592E4C",
"j  c #6B3558",
"k  c #782E54",
"l  c #5F1F45",
"z  c #195744",
"x  c #005E41",
"c  c #264B41",
"v  c #3A4945",
"b  c #285244",
"n  c #265748",
"m  c #3A5C4A",
"M  c #056748",
"N  c #18694C",
"B  c #0B734D",
"V  c #0A6B54",
"C  c #1A6951",
"Z  c #017254",
"A  c #0A7756",
"S  c #1A7D5B",
"D  c #157656",
"F  c #1B734D",
"G  c #256B52",
"H  c #3B6657",
"J  c #287758",
"K  c #347656",
"L  c #2B654B",
"P  c #2F7960",
"I  c #454547",
"U  c #474A4B",
"Y  c #42554B",
"T  c #555456",
"R  c #525C59",
"E  c #565759",
"W  c #4F5158",
"Q  c #6D4758",
"!  c #4D6B5D",
"~  c #426B5A",
"^  c #50635A",
"/  c #586C5D",
"(  c #4A725C",
")  c #536C48",
"_  c #756A45",
"`  c #5F5F61",
"'  c #70516D",
"]  c #4A7B62",
"[  c #4C7460",
"{  c #5A7268",
"}  c #4C6B6E",
"|  c #767B6A",
" . c #696E6C",
".. c #9D2B38",
"X. c #AA2D3B",
"o. c #843C45",
"O. c #9F3747",
"+. c #88366C",
"@. c #A92D7B",
"#. c #A72A57",
"$. c #C13244",
"%. c #CF3D50",
"&. c #8B424C",
"*. c #A7555C",
"=. c #B8555D",
"-. c #A64952",
";. c #867451",
":. c #947C77",
">. c #B56569",
",. c #AA7672",
"<. c #B27173",
"1. c #C45D65",
"2. c #D95D6A",
"3. c #FE506B",
"4. c #CE626B",
"5. c #E76776",
"6. c #E6475D",
"7. c #0E835A",
"8. c #14865D",
"9. c #268459",
"0. c #38815F",
"q. c #2B945E",
"w. c #168962",
"e. c #169668",
"r. c #268A64",
"t. c #3A8663",
"y. c #359A67",
"u. c #279266",
"i. c #3BA36D",
"p. c #3BAD72",
"a. c #39BB76",
"s. c #3AB474",
"d. c #28AA70",
"f. c #468967",
"g. c #54866A",
"h. c #44936A",
"j. c #429B6C",
"k. c #519977",
"l. c #798574",
"z. c #628B76",
"x. c #41A16E",
"c. c #4CA776",
"v. c #5F8058",
"b. c #39C179",
"n. c #8D805B",
"m. c #998467",
"M. c #878677",
"N. c #8B8069",
"B. c #A5857C",
"V. c #AC3480",
"C. c #CB3E9A",
"Z. c #B64692",
"A. c #817C95",
"S. c #B87C82",
"D. c #AA7F84",
"F. c #9A4684",
"G. c #C9459D",
"H. c #C47F88",
"J. c #DD4EAE",
"K. c #CF5AAE",
"L. c #EC55BC",
"P. c #F054BD",
"I. c #F65EC6",
"U. c #FA61CB",
"Y. c #7B9592",
"T. c #74B48E",
"R. c #58B082",
"E. c #4DC787",
"W. c #53C183",
"Q. c #6DC496",
"!. c #8B8796",
"~. c #8B8C8A",
"^. c #A78A81",
"/. c #AA8D84",
"(. c #BE8583",
"). c #AC9689",
"_. c #B3988D",
"`. c #A99A92",
"'. c #B99B98",
"]. c #95AF99",
"[. c #BCA49A",
"{. c #BBA89D",
"}. c #A4A496",
"|. c #AF8FB5",
" X c #ADABAD",
".X c #AEA2B9",
"XX c #B5B6B3",
"oX c #93B7A5",
"OX c #C38986",
"+X c #CB9A96",
"@X c #D39E9B",
"#X c #D0848F",
"$X c #C1A49C",
"%X c #F79CAB",
"&X c #C5ADA2",
"*X c #CBAEA5",
"=X c #CDB2A9",
"-X c #CCB3A9",
";X c #D3B6AD",
":X c #D3B8B0",
">X c #E3909C",
",X c #94CFB0",
"<X c #ABC4B8",
"1X c #A1DBBD",
"2X c #CFC3B7",
"3X c #B2A8CD",
"4X c #CEB6D1",
"5X c #CBBDED",
"6X c #D8CBC7",
"7X c #CFCDD2",
"8X c #E5D9DB",
"9X c #E0E1DD",
"0X c #D9CFF1",
"qX c #E7DDFA",
"wX c #EFE9EC",
"eX c #EBE5E8",
"rX c #EDE4FE",
"tX c #FDFBFF",
"yX c #F6F3F5",
"uX c #F2EBEF",
"iX c None",
/* pixels */
"iXiXiXiXiXiXiXiXiXiXiXiXiXiXiXiXiXiXiXiX3 4 . + + + . 3 X . . X 4 o + + + . 2 6 iXiXiXiXiXiXiXiXiXiXiXiXiXiXiXiXiXiXiXiX",
"iXiXiXiXiXiXiXiXiXiXiXiXiXiXiXiXiXiXiXiX4 X X O o . o 4 X . . X 2 O . o o X 2 2 iXiXiXiXiXiXiXiXiXiXiXiXiXiXiXiXiXiXiXiX",
"iXiXiXiXiXiXiXiXiXiXiXiXiXiXiXiX3 3 3 5 7 w z N C C z w o @ # @ w q N N C z 7 O 2 3 3 3 iXiXiXiXiXiXiXiXiXiXiXiXiXiXiXiX",
"iXiXiXiXiXiXiXiXiXiXiXiXiXiXiX8 6 6 3 2 $ w D e.w.w.G w & & & * c C w.e.e.G c $ 5 3 6 6 6 iXiXiXiXiXiXiXiXiXiXiXiXiXiXiX",
"iXiXiXiXiXiXiXiXiXiXiXiXiXiX3 t B z 7 w z J u.d.9.L J K H v Y H K K L 9.d.u.J n 7 7 z M M 3 iXiXiXiXiXiXiXiXiXiXiXiXiXiX",
"iXiXiXiXiXiXiXiXiXiXiXiXiX3 3 M w.F c b D e.d.a.K % K p.x.! ! x.p.L # K s.d.e.S c c F w.M 3 3 iXiXiXiXiXiXiXiXiXiXiXiXiX",
"iXiXiXiXiXiXiXiXiXiXiXiXiXM M B C n v m r.d.y.h.0.K y.s.x.[ [ j.a.y.K 0.y.y.d.r.m v n G B M t iXiXiXiXiXiXiXiXiXiXiXiXiX",
"iXiXiXiXiXiXiXiXiXiXiX3 6 B 8.G w v U ! x.p.f.^ t.p.a.b.j.! ! x.b.a.p.f.^ f.p.i.! W v w G 8.B 6 3 iXiXiXiXiXiXiXiXiXiXiX",
"iXiXiXiXiXiXiXiXiXiXiX9 M N F n v Y ! f.h.h.[ R h.b.s.x.f.^ ^ f.x.s.b.h.E } h.h.f.~ U v n J N M 9 iXiXiXiXiXiXiXiXiXiXiX",
"iXiXiXiXiXiXiXiXiX3 9 B D N c I U ( j.h.] / R R f.b.x.] / R R ^ ] x.b.h.R R ! ] h.j.( U v c N A B 9 3 iXiXiXiXiXiXiXiXiX",
"iXiXiXiXiXiXiXiXiX3 9 A 8.L % Y ^ f.j.h.! R ^ [ j.b.h.^ T T T T ^ h.b.j.[ ^ E ! h.x.f.^ U % L w.A 9 3 iXiXiXiXiXiXiXiXiX",
"iXiXiXiXiXiXiXiXiX3 0 7.8.n % H y.f.f.! R ^ f.x.s.b.h.^ T T T T ^ h.b.s.x.f.^ R ! f.h.y.H % n w.A 9 3 iXiXiXiXiXiXiXiXiX",
"iXiXiXiXiXiXiXiXiX8 0 D S n * K a.j.! E E { k.E.E.E.R. . .`  . .{ R.E.E.W.R.{ E E ^ h.a.K * n 9.F t 6 iXiXiXiXiXiXiXiXiX",
"iXiXiXiXiXiXiX3 0 B B N n v I t.a.h.^  .A.}.oX,X,X1X<X X X X X X X<X1X,XoXoX}.~. .^ j.a.t.I v n N B B 9 3 iXiXiXiXiXiXiX",
"iXiXiXiXiXiXiX3 t 7.S b * I E f.a.x./ |  X7X7X7X8XwXwXwXwXwXeXwXwXwXwX8X7X7X7X X| ( j.a.f.R I * b 8.7.t 3 iXiXiXiXiXiXiX",
"iXiXiXiXiXiXiX3 t 7.S b * I E f.a.R.~.!.D.S.S.#X>X%X%X%X%X%X%X%X%X%X%X>X#XS.S.(.!.~.R.b.f.T I % b S 7.0 3 iXiXiXiXiXiXiX",
"iXiXiXiXiXiXiX3 t 7.8.b & I T f.a.Q.<X'.*.X.$.%.6.3.3.3.3.3.3.3.3.3.3.6.%.$...*.'.<XQ.c.f.T I * b S 7.t 3 iXiXiXiXiXiXiX",
"iXiXiXiXiXiXiX3 t 7.S b & I W z.Q.].`.S.>.=.>.4.2.2.5.5.5.2.2.5.5.5.2.2.4.1.*.>.S.`.oXQ.z.T I % b 8.7.t 3 iXiXiXiXiXiXiX",
"iXiXiXiXiXiXiX3 t 7.S b & I E ~.<X'.*.*.S.+X+X@X(.,.OX@X+X<.<.@X@XOX,.(.+X@X+X(.*.*.`.<X~.T I & b S 7.t 3 iXiXiXiXiXiXiX",
"iXiXiXiXiXiXiX3 t 7.S b & I W :.'.S.*.>.+X;X;X=X_.:._.*X$X^.^.$X=X_.m._.-X=X:X+X>.*.S.'.A.E I & b S 7.t 3 iXiXiXiXiXiXiX",
"iXiXiXiXiXiXiX3 t 7.S b & I T _ *.>.S.+X*X;X;X=X_.:._.*X$X^.^.$X*X_.:._.;X;X;X*X+X(.>.*.Q T I & b S 7.t 3 iXiXiXiXiXiXiX",
"iXiXiXiXiXiXiX3 t 7.D b % I T k ..*.+X;X;X;X;X=X'.B.'.*X$X/.^.$X=X[.B.+X=X;X;X;X=X+X=...k T I & b S 7.t 3 iXiXiXiXiXiXiX",
"iXiXiXiXiXiXiX3 9 Z D c * I W &.X.1.@X;X;X;X;X;X$X$X&X;X$X^.^.$X;X$X$X$X;X;X2X;X:X@X1.X.o.T a & c D Z 9 3 iXiXiXiXiXiXiX",
"iXiXiXiXiXiXiX3 9 Z V c % I T &.$.4.@X=X=X*X*X&X;X;X;X;X$X/./.$X;X;X;X=X*X&X{.-X=X@X4.$.&.R v & c V Z 9 3 iXiXiXiXiXiXiX",
"iXiXiXiXiXiXiX3 x Z V c % h R &.$.4.@X{.~.l.N.M._.;X;X;X*X$X$X$X;X;X;X`.M.l.M.B.{.@X4.$.&.E h & c Z Z 0 3 iXiXiXiXiXiXiX",
"iXiXiXiXiXiXiX3 x Z V c * v R &.$.4.@X)./ e e e M.-X;X2X;X;X;X;X;X;X=XM.Y e e / `.@X4.$.&.W v & c V Z x 3 iXiXiXiXiXiXiX",
"iXiXiXiXiXiXiX3 0 x M z z v U ..$.4.@X{.M.l.l.| M.M._.-X;X;X;X;X-X`.M.l.| | | M.{.+X4.$.o.U v z z x M 0 3 iXiXiXiXiXiXiX",
"iXiXiXiXiXiXiXiXiX6 x M V c & k $.4.@X;X$X$X$X[.l.Y M.{.;X;X;X;X&Xl.Y | [.{.{.&X-X@X2.$.o.& n V M 0 6 iXiXiXiXiXiXiXiXiX",
"iXiXiXiXiXiXiXiXiX3 0 M Z c = > $.4.OX[.$X*X=X=X].l.}.2X2XB.$X;X2X}.l.}.-X*X$X$X[.OX4.$.> = z A Z 8 3 iXiXiXiXiXiXiXiXiX",
"iXiXiXiXiXiXiXiXiX3 8 Z Z z = o.$.=.B.B.B.B.$X:X6X7X9XwX2Xn.n.2XwX9X9X6X:X$X_.^.^.,.=.$.> % c Z M 8 3 iXiXiXiXiXiXiXiXiX",
"iXiXiXiXiXiXiXiXiX6 8 M V z w h ..-.*.,.B._.=X6XeXtXyXrXXX;.n.2XwXyXtXeX6X-X).B.:.*.-.O.h w z V M 8 3 iXiXiXiXiXiXiXiXiX",
"iXiXiXiXiXiXiXiXiXiXiX8 x V V b a ..-.4.OX=X6XwXyXtX9X3X3X.X X X3X9XtXyXwX6X-X(.>.-...: v C x x 9 iXiXiXiXiXiXiXiXiXiXiX",
"iXiXiXiXiXiXiXiXiXiXiX3 8 M Z z $ : O.=.H.;X8XyXtXtX7X.X3X5X5X3X|.7XtXtXtX8X;XH.=...: $ z Z M 6 3 iXiXiXiXiXiXiXiXiXiXiX",
"iXiXiXiXiXiXiXiXiXiXiXiXiX9 x 8 5 * : o.*.4.4XqXrXrX0X5X5X0X0X5X5X0XrXrXqX:XH.-.o.: * 5 0 x 9 iXiXiXiXiXiXiXiXiXiXiXiXiX",
"iXiXiXiXiXiXiXiXiXiXiXiXiX6 3 3 3 5 # ; , O.|.0X0XrXqXqXqXqXqXqXqXrXqX0X0X|.O., < # 5 3 3 3 3 iXiXiXiXiXiXiXiXiXiXiXiXiX",
"iXiXiXiXiXiXiXiXiXiXiXiXiXiX3 3 3 2 5 @ ; : ' A.Y.Y.!.!.!.!.A.A.!.Y.Y.!.A.' h < @ O 5 3 3 6 iXiXiXiXiXiXiXiXiXiXiXiXiXiX",
"iXiXiXiXiXiXiXiXiXiXiXiXiXiXiXiXiXiX3 X + + + = c z O # # # # = $ 7 z O # # + . X 3 iXiXiXiXiXiXiXiXiXiXiXiXiXiXiXiXiXiX",
"iXiXiXiXiXiXiXiXiXiXiXiXiXiXiXiXiXO w w < < l l j W ' j j j j j j ' ` j l l < < $ O o iXiXiXiXiXiXiXiXiXiXiXiXiXiXiXiXiX",
"iXiXiXiXiXiXiXiXiXiXiXiXiXiXiXiX. * v h l g +.V.Z.K.K.G.C.C.C.C.G.K.K.Z.V.@.g l = # + + iXiXiXiXiXiXiXiXiXiXiXiXiXiXiXiX",
"iXiXiXiXiXiXiXiXiXiXiXiXiXiXiX7 w m } ` j k +.F.G.J.J.I.I.I.I.J.L.J.J.G.F.k g l h # $ 7 5 iXiXiXiXiXiXiXiXiXiXiXiXiXiXiX",
"iXiXiXiXiXiXiXiXiXiXiXiXiXiX3 F q.y.i.h._ T } } ' @.C.I.U.I.U.I.I.C.@.' } W h ; # # n D M 3 iXiXiXiXiXiXiXiXiXiXiXiXiXiX",
"iXiXiXiXiXiXiXiXiXiXiXiXiX3 6 9.W.W.W.c.( ~ P J W g @.J.L.U.U.I.J.V.g W w.C O # $ b J y.N 5 4 iXiXiXiXiXiXiXiXiXiXiXiXiX",
"iXiXiXiXiXiXiXiXiXiXiXiXiX3 6 g.].].].T.f.J G n U j +.V.G.P.L.G.V.+.j U n w @ $ n J g.z.) 1 1 iXiXiXiXiXiXiXiXiXiXiXiXiX",
"iXiXiXiXiXiXiXiXiXiXiXiXiX4 3 | *X;X2X}.k.S n * U W Q k @.J.L.V.g j R v * # + r D t.l.^.;.i i iXiXiXiXiXiXiXiXiXiXiXiXiX",
"iXiXiXiXiXiXiXiXiXiXiXiXiX1 1 l.$X:X:X{.v.y L G K h.g.{ ' Z.Z.' { g.t.P G q 5 5 e y f ;.d iXiXiXiXiXiXiXiXiXiXiXiXiXiXiX",
"iXiXiXiXiXiXiXiXiXiXiXiXiXu i ;.*X:X;XB._ p F e.d.b.b.a.z.j j g.a.b.b.d.e.A 0 5 p i i i iXiXiXiXiXiXiXiXiXiXiXiXiXiXiXiX",
"iXiXiXiXiXiXiXiXiXiXiXiXiXiXi ;.;.m.:.;.a 1 r G P y.h.h.{ j Q } h.h.h.t.G z 2 o 1 u i u iXiXiXiXiXiXiXiXiXiXiXiXiXiXiXiX",
"iXiXiXiXiXiXiXiXiXiXiXiXiXiXiXs s s s a   + # v Y ^ ^ ^ E T W E ^ ^ ^ v w @ + + iXiXiXiXiXiXiXiXiXiXiXiXiXiXiXiXiXiXiXiX",
"iXiXiXiXiXiXiXiXiXiXiXiXiXiXiXiXu u u   @ o r m H H H ~ ~ H ~ H ~ ~ ] H L w o . iXiXiXiXiXiXiXiXiXiXiXiXiXiXiXiXiXiXiXiX",
"iXiXiXiXiXiXiXiXiXiXiXiXiXiXiXiXiXiXiXiX4 q 9.i.r.D D S w.r.S D S u.c.i.i.9.q 4 iXiXiXiXiXiXiXiXiXiXiXiXiXiXiXiXiXiXiXiX",
"iXiXiXiXiXiXiXiXiXiXiXiXiXiXiXiXiXiXiXiX3 t 9.q.8.V C D S D A V D r.p.p.p.9.q 4 iXiXiXiXiXiXiXiXiXiXiXiXiXiXiXiXiXiXiXiX",
"iXiXiXiXiXiXiXiXiXiXiXiXiXiXiXiXiXiXiXiXiXiXq r c c c 7 z x x z c L } ] ( m O . iXiXiXiXiXiXiXiXiXiXiXiXiXiXiXiXiXiXiXiX",
"iXiXiXiXiXiXiXiXiXiXiXiXiXiXiXiXiXiXiXiXiXiX+ + + % @ + . 4 X o . v R ! ^ v @ . iXiXiXiXiXiXiXiXiXiXiXiXiXiXiXiXiXiXiXiX",
"iXiXiXiXiXiXiXiXiXiXiXiXiXiXiXiXiXiXiXiXiXiXiXiX  p - -   o 3 X O L J t.h.K 7 X iXiXiXiXiXiXiXiXiXiXiXiXiXiXiXiXiXiXiXiX",
"iXiXiXiXiXiXiXiXiXiXiXiXiXiXiXiXiXiXiXiXiXiXiXiXu u u u u iXiX3 8 B e.d.b.q.0 4 iXiXiXiXiXiXiXiXiXiXiXiXiXiXiXiXiXiXiXiX",
"iXiXiXiXiXiXiXiXiXiXiXiXiXiXiXiXiXiXiXiXiXiXiXiXiXu u u iXiXiX1 r ( z.T.T.v.y 1 iXiXiXiXiXiXiXiXiXiXiXiXiXiXiXiXiXiXiXiX",
"iXiXiXiXiXiXiXiXiXiXiXiXiXiXiXiXiXiXiXiXiXiXiXiXiXiXiXiXiXiXiXu s n.{.{.{.m.s p iXiXiXiXiXiXiXiXiXiXiXiXiXiXiXiXiXiXiXiX",
"iXiXiXiXiXiXiXiXiXiXiXiXiXiXiXiXiXiXiXiXiXiXiXiXiXiXiXiXiXiXiXiXp ;.m.m.m.;.s iXiXiXiXiXiXiXiXiXiXiXiXiXiXiXiXiXiXiXiXiX",
"iXiXiXiXiXiXiXiXiXiXiXiXiXiXiXiXiXiXiXiXiXiXiXiXiXiXiXiXiXiXiXiXiXs s s s s iXiXiXiXiXiXiXiXiXiXiXiXiXiXiXiXiXiXiXiXiXiX",
"iXiXiXiXiXiXiXiXiXiXiXiXiXiXiXiXiXiXiXiXiXiXiXiXiXiXiXiXiXiXiXiXiXu u u u u iXiXiXiXiXiXiXiXiXiXiXiXiXiXiXiXiXiXiXiXiXiX"
};
