/* XPM */
static char *result[] = {
/* columns rows colors chars-per-pixel */
"60 60 237 2 ",
"   c #1D2B26",
".  c #1E352D",
"X  c #143B2C",
"o  c #153428",
"O  c #1B3D31",
"+  c #0B3D2A",
"@  c #262727",
"#  c #293936",
"$  c #323435",
"%  c #363639",
"&  c #373A3B",
"*  c #302D2F",
"=  c #3A3418",
"-  c #47273E",
";  c #32481B",
":  c #01492C",
">  c #08442C",
",  c #024E31",
"<  c #154332",
"1  c #1A4738",
"2  c #025335",
"3  c #035B3C",
"4  c #025539",
"5  c #18553A",
"6  c #154A2A",
"7  c #2C443D",
"8  c #274839",
"9  c #2E4F37",
"0  c #06613F",
"q  c #296A3D",
"w  c #52460C",
"e  c #55480F",
"r  c #5A4C18",
"t  c #504915",
"y  c #61531F",
"u  c #5A5529",
"i  c #464F29",
"p  c #645427",
"a  c #6B5237",
"s  c #74663D",
"d  c #41643F",
"f  c #5B1D42",
"g  c #671E4B",
"h  c #7E1352",
"j  c #502F48",
"k  c #71365C",
"l  c #6D2F53",
"z  c #753961",
"x  c #1E4E43",
"c  c #1C5B49",
"v  c #185645",
"b  c #055B41",
"n  c #2A4A41",
"m  c #224B42",
"M  c #3A4945",
"N  c #295344",
"B  c #275A48",
"V  c #385949",
"C  c #355F56",
"Z  c #076846",
"A  c #17674C",
"S  c #0A734C",
"D  c #0B6B53",
"F  c #1E6D52",
"G  c #116350",
"H  c #067658",
"J  c #197D5B",
"K  c #177657",
"L  c #14704D",
"P  c #24624D",
"I  c #276B54",
"U  c #386553",
"Y  c #257458",
"T  c #347657",
"R  c #37614B",
"E  c #387763",
"W  c #2A7B60",
"Q  c #444446",
"!  c #494A4C",
"~  c #43574B",
"^  c #4A5B55",
"/  c #545556",
"(  c #525C59",
")  c #565759",
"_  c #564F55",
"`  c #6D514F",
"'  c #4E6A5D",
"]  c #47685A",
"[  c #50625A",
"{  c #5A6A5A",
"}  c #48735E",
"|  c #4D624F",
" . c #72684D",
".. c #6E4A68",
"X. c #4A7C63",
"o. c #497662",
"O. c #537566",
"+. c #68686A",
"@. c #767A6C",
"#. c #797878",
"$. c #6C716F",
"%. c #564E61",
"&. c #9B2E38",
"*. c #8C262E",
"=. c #871659",
"-. c #A73844",
";. c #921B63",
":. c #922B6B",
">. c #A72677",
",. c #9E3641",
"<. c #C53B4C",
"1. c #99454D",
"2. c #905255",
"3. c #B04E56",
"4. c #8A7657",
"5. c #8A7054",
"6. c #90487B",
"7. c #BE5C65",
"8. c #8D6E65",
"9. c #AB6668",
"0. c #AE7472",
"q. c #A0605F",
"w. c #CB4456",
"e. c #DB4358",
"r. c #CC5A65",
"t. c #DA5C69",
"y. c #FE506B",
"u. c #F14B63",
"i. c #CC6973",
"p. c #CC6470",
"a. c #E76876",
"s. c #0E835A",
"d. c #14865D",
"f. c #2F845C",
"g. c #148C62",
"h. c #1E8363",
"j. c #179767",
"k. c #0E8761",
"l. c #288A65",
"z. c #398764",
"x. c #269569",
"c. c #37996A",
"v. c #2E9D75",
"b. c #25A56E",
"n. c #3AA26C",
"m. c #3BAC71",
"M. c #3ABB77",
"N. c #38B776",
"B. c #2BB373",
"V. c #1EA26C",
"C. c #488465",
"Z. c #468967",
"A. c #458F69",
"S. c #468467",
"D. c #44936A",
"F. c #429A6C",
"G. c #579174",
"H. c #7C8275",
"J. c #698B76",
"K. c #41A06E",
"L. c #4AA978",
"P. c #59835C",
"I. c #39C279",
"U. c #41C27E",
"Y. c #868477",
"T. c #968471",
"R. c #A5887B",
"E. c #7F7E80",
"W. c #B93489",
"Q. c #B83489",
"!. c #C63492",
"~. c #9B7E82",
"^. c #837C95",
"/. c #B17B81",
"(. c #A6508A",
"). c #C5479C",
"_. c #DA4AA9",
"`. c #D052A8",
"'. c #F054BD",
"]. c #EA54B9",
"[. c #D37A82",
"{. c #F75DC7",
"}. c #FE64CF",
"|. c #4C9582",
" X c #7A8883",
".X c #779B8F",
"XX c #74AE94",
"oX c #6DBF94",
"OX c #48C683",
"+X c #888A8B",
"@X c #918F91",
"#X c #A88B83",
"$X c #AA968A",
"%X c #B2978B",
"&X c #BA9B95",
"*X c #B1908F",
"=X c #95AF97",
"-X c #BEA299",
";X c #BDA69A",
":X c #AEA695",
">X c #A99BB4",
",X c #99BBAE",
"<X c #ADABAE",
"1X c #B3A9B2",
"2X c #8981A6",
"3X c #C58588",
"4X c #CD8A94",
"5X c #D29996",
"6X c #CD8E90",
"7X c #C2A59C",
"8X c #C5A89F",
"9X c #D19BA7",
"0X c #F69CAB",
"qX c #E598A2",
"wX c #C6ADA4",
"eX c #CAAEA5",
"rX c #CAA6AC",
"tX c #CDB2A9",
"yX c #D3B5AD",
"uX c #CBB7B6",
"iX c #F08190",
"pX c #87C9A6",
"aX c #A3D6BB",
"sX c #D0C5BB",
"dX c #A499C1",
"fX c #BBB0D3",
"gX c #D3B5D1",
"hX c #C9CACA",
"jX c #D9CFCB",
"kX c #D7CDEC",
"lX c #E3DAF3",
"zX c #EFE9EB",
"xX c #E9E5EA",
"cX c #FBF9FB",
"vX c #F3EDF9",
"bX c #E8D6D6",
"nX c None",
/* pixels */
"nXnXnXnXnXnXnXnXnXnXnXnXnXnXnXnXnXnXnXnX: > o @ @ @ o > +     + > o @ @ @   > : nXnXnXnXnXnXnXnXnXnXnXnXnXnXnXnXnXnXnXnX",
"nXnXnXnXnXnXnXnXnXnXnXnXnXnXnXnXnXnXnXnX> > o . .   O > o     + 6 O o .   + > > nXnXnXnXnXnXnXnXnXnXnXnXnXnXnXnXnXnXnXnX",
"nXnXnXnXnXnXnXnXnXnXnXnXnXnXnXnX: : : > < 8 5 L A L v < O * @ # < v A A A v 8 O > : : : nXnXnXnXnXnXnXnXnXnXnXnXnXnXnXnX",
"nXnXnXnXnXnXnXnXnXnXnXnXnXnXnX, 2 : : < # N F j.g.g.I 7 $ $ $ $ # I g.j.j.K 8 # < : , : , nXnXnXnXnXnXnXnXnXnXnXnXnXnXnX",
"nXnXnXnXnXnXnXnXnXnXnXnXnXnX: Z S 5 1 1 B I l.b.f.P I T U ~ M % $ 9 P h.b.x.F B 1 1 b S 0 : nXnXnXnXnXnXnXnXnXnXnXnXnXnX",
"nXnXnXnXnXnXnXnXnXnXnXnXnX: : Z k.F 7 n J j.B.N.T * T m.K.' ~ - $ $ & T M.B.j.J n 8 F g.S : : nXnXnXnXnXnXnXnXnXnXnXnXnX",
"nXnXnXnXnXnXnXnXnXnXnXnXnX0 Z L F B M C l.b.c.D.f.T c.N.K.' ( ] U V 7 ] A.c.b.l.R M C A A Z 0 nXnXnXnXnXnXnXnXnXnXnXnXnX",
"nXnXnXnXnXnXnXnXnXnXnX: 2 S d.I 8 M ! } n.m.Z.' A.m.M.I.K.' ' c.n.} _ ( | Z.m.K.' ! M 7 A d.S 2 : nXnXnXnXnXnXnXnXnXnXnX",
"nXnXnXnXnXnXnXnXnXnXnX3 0 L F B M ~ ' C.D.D.O.( A.I.L.m.Z.[ ' K.M.F.} ' / ' D.F.C.] ~ M B F D Z 3 nXnXnXnXnXnXnXnXnXnXnX",
"nXnXnXnXnXnXnXnXnX: 3 S K A n M ! } c.F.X.' ( ( A.I.K.X.[ ( ' K.I.N.L.C.( [ ' } F.F.] ! M 7 A J S 3 : nXnXnXnXnXnXnXnXnX",
"nXnXnXnXnXnXnXnXnX: 3 H d.P $ ~ [ C.F.D.' ( [ o.F.I.D.| / / } K.I.I.I.A.( / / ' D.K.C.' ~ % B g.S 3 : nXnXnXnXnXnXnXnXnX",
"nXnXnXnXnXnXnXnXnX: 2 s.d.B $ U F.D.C.' ( [ S.K.N.I.D.| / ) ' K.I.I.I.A.( / / ( ' X.A.F.R $ B h.H 3 : nXnXnXnXnXnXnXnXnX",
"nXnXnXnXnXnXnXnXnX2 0 S d.N & T N.F.[ / / [ F.I.M.N.A.( / / { L.OXOXOX.X+.+.+.+.+.O.L.OXT & B J K 0 2 nXnXnXnXnXnXnXnXnX",
"nXnXnXnXnXnXnX: 3 S L P B M Q S.M.F.' / / ' F.M.K.S.' ( / / $.=XaXaXaXaX<X<X<X<X<X<X,X,X#.! V B A L Z 3 : nXnXnXnXnXnXnX",
"nXnXnXnXnXnXnX: 0 s.J N & Q ) Z.M.F.' / / ' F.M.A.) / / ) %.#.1XzXzXzXzXzXzXzXzXzXxXbXsX+X) ! & N J s.0 : nXnXnXnXnXnXnX",
"nXnXnXnXnXnXnX: 0 s.J N & Q ) Z.M.F.[ / / ' F.M.Z.) / ) +.@X-XyX0X0X0X0X0X0X0X0XqX4X*X/.#X@X+.7 N d.s.0 : nXnXnXnXnXnXnX",
"nXnXnXnXnXnXnX: 0 s.J N % Q ) Z.M.F.' / / [ F.M.Z.) _ _ ^.hXsX[.y.y.y.y.y.y.y.u.e.<.-.&./.hX+Xj N d.s.0 : nXnXnXnXnXnXnX",
"nXnXnXnXnXnXnX: 0 s.J N % Q ( C.M.F.' / / ' F.M.Z.) +.#.#X9X0XiXa.a.t.a.a.a.t.t.t.r.3.1.9.3X~.$.O.l.s.0 : nXnXnXnXnXnXnX",
"nXnXnXnXnXnXnX: 0 s.J N % Q ( Z.M.F.' _ / [ c.I.Z.( +X<X5Xi.a.4X5X3X0.3X5X6X0.R.&X6X0.5.1.1.9.<X=Xv.s.3 : nXnXnXnXnXnXnX",
"nXnXnXnXnXnXnX: 0 s.J N % Q ) Z.M.F.' / ) ' K.I.G.#.@X7X4Xp.i.6XtX-X#X%X7X-X$X%X&X-X$X0.q.1.9.*X@X|.l.A : nXnXnXnXnXnXnX",
"nXnXnXnXnXnXnX: 0 s.d.N % Q / Z.M.F.' / / ' F.L.XX<X*Xp.i.4X5XeXyXeX7X&X$X%X;X;X%X$X%X7X#X0.9.3.8.+XJ.P : nXnXnXnXnXnXnX",
"nXnXnXnXnXnXnX: 0 s.J n % Q / S.N.F.[ / / ' F.OXpXjX4Xw.r.5XyXyXyXyXyX&XR.%XeX7X#XR.7XyX7X*X9.&.1.~. XC : nXnXnXnXnXnXnX",
"nXnXnXnXnXnXnX: 3 H K m % Q / E x.z.[ / / ' F.I.pXhX4Xw.r.5XyXyXyXyXyXeX7X8XtX7X#XR.7XtXeX5X9.&.1.~. XR : nXnXnXnXnXnXnX",
"nXnXnXnXnXnXnX: 3 D D m % Q / W j.Y ^ / / ' F.OXpXhX4Xw.r.5XyXtXeXwXeXtXyXyXyX7X$X#X7XtXeX8X0.&.1.~. XU : nXnXnXnXnXnXnX",
"nXnXnXnXnXnXnX: 3 H D x $ % j Y j.Y M ! %.' c.U.pXhX4Xw.r.5XwX@XH.H.Y.$XtXyXyXtX7X&XeXyXeX8X9.&.1.~. XC : nXnXnXnXnXnXnX",
"nXnXnXnXnXnXnX: 4 H D x $ $ $ P g.Y 7 & ! ' F.OXpXhX4Xw.r.5X-X{ 9 9 9 Y.wXyXyXyXtXyXyXyXeXrX0.&.1.~. XC : nXnXnXnXnXnXnX",
"nXnXnXnXnXnXnX: 4 Z b G m 7 $ P g.F 7 % j C l.N.pXhX9Xw.r.5X;XT.H.@.@.H.Y.$XwXyXyXyXyXyX%XY.2.*.1.~..Xo.: nXnXnXnXnXnXnX",
"nXnXnXnXnXnXnXnXnX, 4 Z D m $ c g.F 7 $ % 7 Y v.XXhX4Xw.r.5XyXwX;X;X;XY.' H.;XyXyXyXyXeXY.~ a *.1.~.@XnXnXnXnXnXnXnXnXnX",
"nXnXnXnXnXnXnXnXnX: 4 D H v $ B k.K B m % n F j.XXhX4Xw.r.3X7X7X8XeXyX:XJ.=XsXyX&XR.sXsX#X{ ` 1.2.@.J.nXnXnXnXnXnXnXnXnX",
"nXnXnXnXnXnXnXnXnX: 4 Z H x $ c H k.J I n 7 F x.XXhX4Xw.3.0.#XR.R.7XyXsXjXbXzXsXT.4.;XbX1X+XR.+X$.C B nXnXnXnXnXnXnXnXnX",
"nXnXnXnXnXnXnXnXnX, 4 Z D v m c D H k.J N m F l.|.fX*Xp.r.9.0.R.%XwXsXbXcXcXzXhXT.@.<XkXuX$X@X+XO.B : nXnXnXnXnXnXnXnXnX",
"nXnXnXnXnXnXnXnXnXnXnXb b b G c m G H H D G c P E v..X&X[.7.r.#XeXjXzXcXcXlXfX>X>X>X>X>X>X@XH.U U nXnXnXnXnXnXnXnXnXnXnX",
"nXnXnXnXnXnXnXnXnXnXnX: 2 Z H v # x D H H H x m v H |.dX9Xp.r./.yXbXcXcXcXkXdXdXfXfXdX2X2X+XO.3 , nXnXnXnXnXnXnXnXnXnXnX",
"nXnXnXnXnXnXnXnXnXnXnXnXnX3 b 2 < 1 x G H H D v v x E |..X*X[.[.[.gXvXvXvXlXfXdX@X+X@X@XJ.] U nXnXnXnXnXnXnXnXnXnXnXnXnX",
"nXnXnXnXnXnXnXnXnXnXnXnXnX, : : : O # 7 G H H D v $ c H |.,XrXp.e.9XlXlXlXlXkX>X .p 8.@X} , , nXnXnXnXnXnXnXnXnXnXnXnXnX",
"nXnXnXnXnXnXnXnXnXnXnXnXnX- j j .._ # 1 x b v b 1 O 1 v C +.$.k l $.=X2X2X2X^.+.i 9 { @X' , nXnXnXnXnXnXnXnXnXnXnXnXnXnX",
"nXnXnXnXnXnXnXnXnXnXnXnXnXh =.Q.).6.n > o   @ @ + + + o   @ * @ @ # 5 1 $ * * # < > nXnXnXnXnXnXnXnXnXnXnXnXnXnXnXnXnXnX",
"nXnXnXnXnXnXnXnXnXnXnXnXnXnX=.>.!.:.# < 5 9 7 $ % % - f l k z z k k %.%.z k f j # , nXnXnXnXnXnXnXnXnXnXnXnXnXnXnXnXnXnX",
"nXnXnXnXnXnXnXnXnXnXnXnXnXnXnX;.;.g * 8 f.c.} ! j g ;.Q.Q.`.`.).).).).`.`.).Q.>.nXnXnXnXnXnXnXnXnXnXnXnXnXnXnXnXnXnXnXnX",
"nXnXnXnXnXnXnXnXnXnXnXnXnXnXnXnXf f * 9 z.F.Z.' %.k z (.(._.].].].'.].{.{._.!.>.nXnXnXnXnXnXnXnXnXnXnXnXnXnXnXnXnXnXnXnX",
"nXnXnXnXnXnXnXnXnXnXnXnXnXnXnXnX8 * * 7 | X.D.c.z.W S.G.#.6.!._.{.{.{.{.{.!.>.h & : nXnXnXnXnXnXnXnXnXnXnXnXnXnXnXnXnXnX",
"nXnXnXnXnXnXnXnXnXnXnXnXnXnXnX9 q q 9 M ! ] z.n.x.h.x.N.O.k :.).{.{.{.{._.Q.=.f 8 4 nXnXnXnXnXnXnXnXnXnXnXnXnXnXnXnXnXnX",
"nXnXnXnXnXnXnXnXnXnXnXnXnXnXe  .H.P.c.P.V M 9 B B N U } { ..z >.Q._.}._.Q.=.f % c S b : nXnXnXnXnXnXnXnXnXnXnXnXnXnXnXnX",
"nXnXnXnXnXnXnXnXnXnXnXnXnXw w 4.8XR.U.m.V # *   * # Q ^ ( ^ %.k :.).{.W.=.f * 1 K d.A : nXnXnXnXnXnXnXnXnXnXnXnXnXnXnXnX",
"nXnXnXnXnXnXnXnXnXnXnXnXnXw e 4.R.wXpXJ.} A 1 X 5 A T Z.A.A.S.O.+.6.W.6.( M O N C.P.d ; nXnXnXnXnXnXnXnXnXnXnXnXnXnXnXnX",
"nXnXnXnXnXnXnXnXnXnXnXnXnXw w 4.;X8XtX=XK.d.0 > D g.V.N.I.U.I.I.L.+.=.%.l.L 4 B Y.T.s w nXnXnXnXnXnXnXnXnXnXnXnXnXnXnXnX",
"nXnXnXnXnXnXnXnXnXnXnXnXnXnXe s T.R.;X$XP.q 5 < B W z.c.D.D.D.D.S./ g Q P 3 : 9  . .a w nXnXnXnXnXnXnXnXnXnXnXnXnXnXnXnX",
"nXnXnXnXnXnXnXnXnXnXnXnXnXnXnXy r 4.:XR.s i & # M ^ [ ( [ [ [ ) ^ j $ * @ X : 6 i y nXnXnXnXnXnXnXnXnXnXnXnXnXnXnXnXnXnX",
"nXnXnXnXnXnXnXnXnXnXnXnXnXnXnXnXe s T.4.u ; 9 B U } X.X.} ] C E C B m O o X + 6 ; e nXnXnXnXnXnXnXnXnXnXnXnXnXnXnXnXnXnX",
"nXnXnXnXnXnXnXnXnXnXnXnXnXnXnXnXnXp p u ; 2 A h.c.m.m.m.c.x.h.J K D D b + > nXnXnXnXnXnXnXnXnXnXnXnXnXnXnXnXnXnXnXnXnXnX",
"nXnXnXnXnXnXnXnXnXnXnXnXnXnXnXnXnXr r i 9 5 L d.x.B.N.m.n.x.h.W K D D b , nXnXnXnXnXnXnXnXnXnXnXnXnXnXnXnXnXnXnXnXnXnXnX",
"nXnXnXnXnXnXnXnXnXnXnXnXnXnXnXnXe p a  . .~ q 0 s.b.l.X.o.U U C C G b 4 nXnXnXnXnXnXnXnXnXnXnXnXnXnXnXnXnXnXnXnXnXnXnXnX",
"nXnXnXnXnXnXnXnXnXnXnXnXnXnXnXnXw p `  . .` 9 , Z k.I ^ / [ [ | | 9 5 5 nXnXnXnXnXnXnXnXnXnXnXnXnXnXnXnXnXnXnXnXnXnXnXnX",
"nXnXnXnXnXnXnXnXnXnXnXnXnXnXnXnXnXp p p p p i ; ; 5 n Q ~ C.z.z.E O.J. .r nXnXnXnXnXnXnXnXnXnXnXnXnXnXnXnXnXnXnXnXnXnXnX",
"nXnXnXnXnXnXnXnXnXnXnXnXnXnXnXnXnXnXw w w w w w = @ @ * R n.I.B.v..X7X4.r w nXnXnXnXnXnXnXnXnXnXnXnXnXnXnXnXnXnXnXnXnXnX",
"nXnXnXnXnXnXnXnXnXnXnXnXnXnXnXnXnXnXnXw w w w w = @ . < R G.J.L.J.@X&X4.r w nXnXnXnXnXnXnXnXnXnXnXnXnXnXnXnXnXnXnXnXnXnX",
"nXnXnXnXnXnXnXnXnXnXnXnXnXnXnXnXnXnXnXnXnXnXnXnXnXnXnX> R Y.$XR.$XR.%X4.r e nXnXnXnXnXnXnXnXnXnXnXnXnXnXnXnXnXnXnXnXnXnX",
"nXnXnXnXnXnXnXnXnXnXnXnXnXnXnXnXnXnXnXnXnXnXnXnXnXnXnX: ~  .T.4.T.4.T.s r nXnXnXnXnXnXnXnXnXnXnXnXnXnXnXnXnXnXnXnXnXnXnX",
"nXnXnXnXnXnXnXnXnXnXnXnXnXnXnXnXnXnXnXnXnXnXnXnXnXnXnXnXnXp y p y y e y nXnXnXnXnXnXnXnXnXnXnXnXnXnXnXnXnXnXnXnXnXnXnXnX",
"nXnXnXnXnXnXnXnXnXnXnXnXnXnXnXnXnXnXnXnXnXnXnXnXnXnXnXnXnXw w e w w w w nXnXnXnXnXnXnXnXnXnXnXnXnXnXnXnXnXnXnXnXnXnXnXnX"
};
