/* XPM */
static char *result[] = {
/* columns rows colors chars-per-pixel */
"60 60 239 2 ",
"   c #2F361C",
".  c #1D2B26",
"X  c #1C2924",
"o  c #1E342C",
"O  c #143829",
"+  c #1C3B31",
"@  c #0C3D29",
"#  c #222323",
"$  c #2A2C2C",
"%  c #2A2926",
"&  c #362C34",
"*  c #2D3D3A",
"=  c #263934",
"-  c #333335",
";  c #3C3C3E",
":  c #353739",
">  c #2C352B",
",  c #5A3C1A",
"<  c #481C36",
"1  c #4B362B",
"2  c #78213F",
"3  c #05452C",
"4  c #0A442C",
"5  c #00492C",
"6  c #0D4327",
"7  c #064C31",
"8  c #1B4134",
"9  c #17493A",
"0  c #035B3B",
"q  c #045537",
"w  c #17533B",
"e  c #164229",
"r  c #2C433D",
"t  c #24473B",
"y  c #35463C",
"u  c #315235",
"i  c #06613E",
"p  c #346436",
"a  c #52460C",
"s  c #4A4615",
"d  c #594C18",
"f  c #5F511D",
"g  c #45531E",
"h  c #61521F",
"j  c #535036",
"k  c #675728",
"l  c #6A543A",
"z  c #75643A",
"x  c #606133",
"c  c #58683A",
"v  c #3F3F41",
"b  c #75164F",
"n  c #522D48",
"m  c #6F2E52",
"M  c #733A61",
"N  c #1C4E43",
"B  c #055E44",
"V  c #1C5443",
"C  c #155D4C",
"Z  c #195745",
"A  c #2B4C42",
"S  c #254841",
"D  c #384944",
"F  c #265646",
"G  c #395549",
"H  c #335E53",
"J  c #056542",
"K  c #0A6B46",
"L  c #0A6749",
"P  c #1C634C",
"I  c #186A4D",
"U  c #15684A",
"Y  c #096B53",
"T  c #1F6D53",
"R  c #136951",
"E  c #01795C",
"W  c #0A7756",
"Q  c #1C7456",
"!  c #177B59",
"~  c #14734A",
"^  c #25654D",
"/  c #266A52",
"(  c #3B6957",
")  c #357859",
"_  c #32724D",
"`  c #367563",
"'  c #167F64",
"]  c #4C4C4E",
"[  c #434A49",
"{  c #4A5A55",
"}  c #545456",
"|  c #525B58",
" . c #56585A",
".. c #4D5054",
"X. c #6F564B",
"o. c #4A685B",
"O. c #51625B",
"+. c #5C695B",
"@. c #48725B",
"#. c #55664B",
"$. c #70684E",
"%. c #555061",
"&. c #6C4467",
"*. c #4C7360",
"=. c #4B7A62",
"-. c #477B62",
";. c #547367",
":. c #68686A",
">. c #757B6B",
",. c #687C74",
"<. c #777978",
"1. c #746D69",
"2. c #913239",
"3. c #881157",
"4. c #993842",
"5. c #991865",
"6. c #95276B",
"7. c #8A336B",
"8. c #A92776",
"9. c #BA3646",
"0. c #D13F52",
"q. c #964D50",
"w. c #A94D53",
"e. c #846F4E",
"r. c #897658",
"t. c #B35C65",
"y. c #9A7176",
"u. c #8A706D",
"i. c #AD7270",
"p. c #9D5D62",
"a. c #CB4556",
"s. c #CD5C67",
"d. c #CA5967",
"f. c #D85B69",
"g. c #FE506B",
"h. c #CD6872",
"j. c #E66675",
"k. c #E7485F",
"l. c #0A835E",
"z. c #13865E",
"x. c #38845D",
"c. c #23875F",
"v. c #128E63",
"b. c #198561",
"n. c #159567",
"m. c #0E8B62",
"M. c #248761",
"N. c #338967",
"B. c #2A9668",
"V. c #38996A",
"C. c #24A76F",
"Z. c #3FA670",
"A. c #3DAE73",
"S. c #39B976",
"D. c #30AA70",
"F. c #468866",
"G. c #45926A",
"H. c #439B6E",
"J. c #569375",
"K. c #708876",
"L. c #41A16F",
"P. c #47A874",
"I. c #38C47A",
"U. c #37C37A",
"Y. c #43C07B",
"T. c #88857A",
"R. c #98887C",
"E. c #94836C",
"W. c #A68B78",
"Q. c #B53688",
"!. c #C73B96",
"~. c #D43EA0",
"^. c #837D8E",
"/. c #B67D83",
"(. c #AE4C92",
"). c #C9479E",
"_. c #CF4FA6",
"`. c #E853B8",
"'. c #ED53BB",
"]. c #E37C8A",
"[. c #F65CC6",
"{. c #F960CA",
"}. c #4D9782",
"|. c #75948C",
" X c #6FB38F",
".X c #51BB83",
"XX c #7EC8A1",
"oX c #4FC989",
"OX c #878B89",
"+X c #968A86",
"@X c #8A8A96",
"#X c #989596",
"$X c #A88983",
"%X c #BA8583",
"&X c #AC9589",
"*X c #B2958C",
"=X c #B9948D",
"-X c #B89A94",
";X c #AC9494",
":X c #96A78D",
">X c #BAA59A",
",X c #AEA79D",
"<X c #AA9BAC",
"1X c #95B5AA",
"2X c #ABABAB",
"3X c #AFAFAA",
"4X c #9287B2",
"5X c #CD8E98",
"6X c #CE8992",
"7X c #D19B98",
"8X c #D8999B",
"9X c #CC8C8E",
"0X c #C2A59C",
"qX c #C3AA9F",
"wX c #D09DA5",
"eX c #F79CAB",
"rX c #E898A3",
"tX c #CAADA4",
"yX c #C7AAA3",
"uX c #CCB1A8",
"iX c #D3B6AD",
"pX c #D6B3B4",
"aX c #A2DABC",
"sX c #93C5AB",
"dX c #AA9DC5",
"fX c #B1A5CD",
"gX c #C7BAD2",
"hX c #EABBC3",
"jX c #C5CAC8",
"kX c #D3CECE",
"lX c #E4D2D1",
"zX c #D6CBEF",
"xX c #E6DCFA",
"cX c #EFE9EC",
"vX c #E4E3E6",
"bX c #F2EDFC",
"nX c #FBF9FC",
"mX c #F3EBE9",
"MX c None",
/* pixels */
"MXMXMXMXMXMXMXMXMXMXMXMXMXMXMXMXMXMXMX5 5 O # # # O 3 @ X . @ 3 O # # # @ 5 5 MXMXMXMXMXMXMXMXMXMXMXMXMXMXMXMXMXMXMXMXMX",
"MXMXMXMXMXMXMXMXMXMXMXMXMXMXMXMXMXMXMX3 4 e o = o O 4 O . . @ 4 + o o o O 4 3 MXMXMXMXMXMXMXMXMXMXMXMXMXMXMXMXMXMXMXMXMX",
"MXMXMXMXMXMXMXMXMXMXMXMXMXMXMXMX5 5 3 e = w I I U Z + = $ $ = 8 Z I I U w + e 3 5 5 MXMXMXMXMXMXMXMXMXMXMXMXMXMXMXMXMXMX",
"MXMXMXMXMXMXMXMXMXMXMXMXMXMXMX7 7 7 4 8 r Q n.n.v./ A : : - - r T v.n.n.^ : + 7 5 7 7 MXMXMXMXMXMXMXMXMXMXMXMXMXMXMXMXMX",
"MXMXMXMXMXMXMXMXMXMXMXMXMXMX0 K L w 8 V / M.C.M.^ _ ) ( [ n r * F / M.C.M.^ w 8 w K J q MXMXMXMXMXMXMXMXMXMXMXMXMXMXMXMX",
"MXMXMXMXMXMXMXMXMXMXMXMXMX5 0 W ! F r T n.C.U.) * _ A.H.@.] : - - y x.U.C.n.^ - F b.W 0 5 MXMXMXMXMXMXMXMXMXMXMXMXMXMXMX",
"MXMXMXMXMXMXMXMXMXMXMXMX0 K L U ^ D G ) C.V.H.x._ V.S.H.o.| ( _ G [ @.H.B.C.) [ G ^ U K J q MXMXMXMXMXMXMXMXMXMXMXMXMXMX",
"MXMXMXMXMXMXMXMXMXMXMX3 i l.! F ; [ { V.S.G.O.F.Z.S.I.L.o.o.V.H.@...| O.V.U.N.} D D F ! W i 5 MXMXMXMXMXMXMXMXMXMXMXMXMX",
"MXMXMXMXMXMXMXMXMXMX0 i K Q ^ D [ o.=.G.H.*. .F.S.S.P.F.O.@.P.S.G.*.O. .-.L.G.=.{ D G / Q K i q MXMXMXMXMXMXMXMXMXMXMXMX",
"MXMXMXMXMXMXMXMXMX5 J W I F D [ { G.L.F.@.O.} F.S.Z.@.O.| @.P.S.S.L.*. .| *.G.Z.F.{ D D F ~ W 0 5 MXMXMXMXMXMXMXMXMXMXMX",
"MXMXMXMXMXMXMXMXMX5 K z.Q r y { @.H.L.*. .| @.G.S.H.O.}  .@.Z.U.I.S.=. . .} -.L.G.@.{ y S ! z.i 5 MXMXMXMXMXMXMXMXMXMXMX",
"MXMXMXMXMXMXMXMXMX5 J z.Q r G x.H.F.*.O. .=.H.S.I.G.O.} } @.Z.U.I.P.F.%.} } O.*.F.H.) y A ! z.B 5 MXMXMXMXMXMXMXMXMXMXMX",
"MXMXMXMXMXMXMXMXq q J z./ r G V.P.=.| } | G.I.S.A.G.O.} } ;.P.oXoX.XK.:.:.:.:.:.J..XH.G D Q ! J q MXMXMXMXMXMXMXMXMXMXMX",
"MXMXMXMXMXMXMX5 i K ~ F G D ( Z.A.@.} } } G.I.L.F.@.| } } ,.1XaXaXaXsX3X2X2X2X<X3XsX|.| D A P R K i 5 MXMXMXMXMXMXMXMXMX",
"MXMXMXMXMXMX5 5 K v.Q r v ] *.Z.P.=.} } | G.I.G.|  .}  .} ^.jXmXcXcXcXcXcXcXcXcXvXkX2X1.] v A Q v.J 5 MXMXMXMXMXMXMXMXMX",
"MXMXMXMXMXMX5 5 K n.Q * v ] *.Z.A.=.} } | G.I.G.| }  .:.+X,XrXeXeXeXeXeXeXeXrX8X6X/.$X+X<.] A Q z.K 5 MXMXMXMXMXMXMXMXMX",
"MXMXMXMXMXMX5 5 K v.T * v ] *.Z.A.=.} } | G.U.G.| } ..^.jXhX].g.g.g.g.g.g.g.k.a.9.2.t.0X<X .S / z.J 5 MXMXMXMXMXMXMXMXMX",
"MXMXMXMXMXMX5 5 K v.T * v ] *.P.A.=.} }  .G.I.G.| :.^.#X8XrX].j.j.j.j.j.j.f.f.s.t.q.t.i.+Xu.;.N.z.K 5 MXMXMXMXMXMXMXMXMX",
"MXMXMXMXMXMX5 5 K v.T * v ] *.Z.A.=.} } | G.Y.G.| <.2X-Xh.j.6X8XW.i.9X8X%Xi.%X7X%Xp.q.q.t.;X1XZ.z.J 5 MXMXMXMXMXMXMXMXMX",
"MXMXMXMXMXMX5 5 K v.T * v ] *.Z.A.=.} } | G.I.P.<.+XwX6Xh.h.8XuX=X&X>X0X=X$X=X0X-XW.y.w.p.%X#X|.N.~ 5 MXMXMXMXMXMXMXMXMX",
"MXMXMXMXMXMX5 5 K m.Q S v ] *.Z.A.=.} } | G.U. X2X=Xh.h.9X7XwXuXqX0X=X&X-X0X-X&X*X0X=Xi.i.p.p.y.|./ 3 MXMXMXMXMXMXMXMXMX",
"MXMXMXMXMXMX7 5 K m.T * v ] o.V.Z.=.} } | G.U.XXjX5Xa.s.7XiXiXiXiXuX-XW.0XiX-Xy.*XtXtX-Xi.4.2.y.|.( 5 MXMXMXMXMXMXMXMXMX",
"MXMXMXMXMXMX5 5 J E P * v ] o.B.B.@.} } | G.U.XXjX5Xa.s.7XiXiXiXiXuX0X0XqXiX-XR.*XtXuX0XW.w.4.y.OX( 5 MXMXMXMXMXMXMXMXMX",
"MXMXMXMXMXMX5 5 J E C * v ] ( ` b.( } } | F.U.XXjX5Xa.s.7XiXuXtXtXtXiXiXiXiX-XW.*XuXuXtX9X4.4.y.OXo.5 MXMXMXMXMXMXMXMXMX",
"MXMXMXMXMXMX5 5 J E C * : v H ! z.H n ] %.H.U.XXjX7Xa.s.7X>X+XK.>.T.>XiXiXiXqX-XqXuXuXtX%X4.4.y.OX( 5 MXMXMXMXMXMXMXMXMX",
"MXMXMXMXMXMX5 5 J E C * - : A ! z.F * [ O.N.U.XXjX5Xa.s.7X;X+.u u #.R.iXiXiXiXiXiXiXuXuX%Xq.4.y.OX` 5 MXMXMXMXMXMXMXMXMX",
"MXMXMXMXMXMXMX5 0 J B Z N : S ! ! F : v [ ` C.XXjX5Xa.s.7X>XR.K.K.>.K.R.,XiXiXiXiXiX>XR.p.2.4.y.#X;.7 MXMXMXMXMXMXMXMXMX",
"MXMXMXMXMXMXMXMX7 7 B Y C = A ! z.A : : D / n. XjX5Xa.s.7XuXqX0X>X-XK.#.R.iXiXiXiXiX&X+.j 2 4.y.#XMXMXMXMXMXMXMXMXMXMXMX",
"MXMXMXMXMXMXMXMXMX5 B E C S S ! ! P A r : P n. XjX5Xa.d.9X>XqXqXuXuX:XT.,XlXuX&X>XpX3X>.+.q.q.1.K.MXMXMXMXMXMXMXMXMXMXMX",
"MXMXMXMXMXMXMXMXMX5 0 E Y v S Y l.' Q F : ^ n. XjX5Xa.a.i.W.$X&XqXiXjXkXvXmX>Xz W.kXjX&XR.y.<.o.F MXMXMXMXMXMXMXMXMXMXMX",
"MXMXMXMXMXMXMXMXMX5 0 Y B N F C Y b.b.C S P ' }.1X;Xd.t.i.i.W.*XuXkXcXnXmXvX,X$.+XgXgX-X&XOX,./ 5 MXMXMXMXMXMXMXMXMXMXMX",
"MXMXMXMXMXMXMXMXMXMXq B B C C N Z W l.Y R F F ` }.|.0X/.d.t.%XuXlXmXnXnXkXfXfX<X<XdX<X<XOX*.H V MXMXMXMXMXMXMXMXMXMXMXMX",
"MXMXMXMXMXMXMXMXMXMXMX5 B Y L 9 S C Y E E N v N Y }.1X<Xd.d.9XpXmXnXnXnXgX4XdXgXfX4X^.@X<.H 5 MXMXMXMXMXMXMXMXMXMXMXMXMX",
"MXMXMXMXMXMXMXMXMXMXMXMXq B q 9 9 N C Y E Y C C N ` }.@X;X].h.6XhXbXbXbXzXfX4X^.^.#X|.;.( Z MXMXMXMXMXMXMXMXMXMXMXMXMXMX",
"MXMXMXMXMXMXMXMXMXMXMXMXMX@ 5 3 @ = + C E E E C v N Y }.1XyXd.d.pXxXxXxXxXzX+Xd $.+XK.Z 5 MXMXMXMXMXMXMXMXMXMXMXMXMXMXMX",
"MXMXMXMXMXMXMXMXMXMXMXMXMXv n &.%.v + N N B N 9 @ @ N H ,.u.m m ^.|.@X@X^.^.O.u j T.,.Z MXMXMXMXMXMXMXMXMXMXMXMXMXMXMXMX",
"MXMXMXMXMXMXMXMXMXMXMXMXMXb 6.!.(.D 4 O # . X O 3 @ # # $ & # $ + 9 t & & $ O 3 7 MXMXMXMXMXMXMXMXMXMXMXMXMXMXMXMXMXMXMX",
"MXMXMXMXMXMXMXMXMXMXMXMXMX3.5.Q.Q.m v # # $ & v v n n n M M M M %.&.&.M m n n 4 MXMXMXMXMXMXMXMXMXMXMXMXMXMXMXMXMXMXMXMX",
"MXMXMXMXMXMXMXMXMXMXMXMXMXMXMX5.3.3.n < $ : ] n b b Q.Q._._.).Q.).)._._.Q.8.5.MXMXMXMXMXMXMXMXMXMXMXMXMXMXMXMXMXMXMXMXMX",
"MXMXMXMXMXMXMXMXMXMXMXMXMXMXMX3.3.3.b < o A (  .&.M 6.Q.~.`.[.[.'.'.[.[._.Q.Q.MXMXMXMXMXMXMXMXMXMXMXMXMXMXMXMXMXMXMXMXMX",
"MXMXMXMXMXMXMXMXMXMXMXMXMXMXMXMXMXMXMX+ 4 P ) N.G.o.n m 6.Q.`.[.[.[.[.'.!.5.5.MXMXMXMXMXMXMXMXMXMXMXMXMXMXMXMXMXMXMXMXMX",
"MXMXMXMXMXMXMXMXMXMXMXMXMXMXMXMXMXMXMX6 4 L z.B.Z.x.u & b 6.).[.[.[.`.~.5.b b MXMXMXMXMXMXMXMXMXMXMXMXMXMXMXMXMXMXMXMXMX",
"MXMXMXMXMXMXMXMXMXMXMXMXMXMXMXMXMXMX,   O 8 F ( -.x.x._ S n 6.Q.'.[.).8.b < < MXMXMXMXMXMXMXMXMXMXMXMXMXMXMXMXMXMXMXMXMX",
"MXMXMXMXMXMXMXMXMXMXMXMXMXMXMXMXMXa s   # $ - D ..F.S.B.P A m 5.).`.Q.b < # # MXMXMXMXMXMXMXMXMXMXMXMXMXMXMXMXMXMXMXMXMX",
"MXMXMXMXMXMXMXMXMXMXMXMXMXMXMXMXd k l y O . $ G ) B.S.P.K.$.l 2.8.Q.&.%.S O O MXMXMXMXMXMXMXMXMXMXMXMXMXMXMXMXMXMXMXMXMX",
"MXMXMXMXMXMXMXMXMXMXMXMXMXMXMXd f X.X.u 3 O # w b.C.U. XaXW.z , 2 m O.n.K 5 5 MXMXMXMXMXMXMXMXMXMXMXMXMXMXMXMXMXMXMXMXMX",
"MXMXMXMXMXMXMXMXMXMXMXMXMXMXMXa d X.$.D @ . $ 9 K V. X:XqXW.z a < n D C Z 5 MXMXMXMXMXMXMXMXMXMXMXMXMXMXMXMXMXMXMXMXMXMX",
"MXMXMXMXMXMXMXMXMXMXMXMXMXMXMXa h X.$.1 X % - e q @.:X,XtXW.k a 1 & - o o MXMXMXMXMXMXMXMXMXMXMXMXMXMXMXMXMXMXMXMXMXMXMX",
"MXMXMXMXMXMXMXMXMXMXMXMXMXMXMXMXd l X.1 # $ & 9 0 @.E.E.W.E.c p u S + + + MXMXMXMXMXMXMXMXMXMXMXMXMXMXMXMXMXMXMXMXMXMXMX",
"MXMXMXMXMXMXMXMXMXMXMXMXMXMXMXMXMXd d   # $ - F ! _ x k h x _ z.! Y Y Y N # MXMXMXMXMXMXMXMXMXMXMXMXMXMXMXMXMXMXMXMXMXMX",
"MXMXMXMXMXMXMXMXMXMXMXMXMXMXMXMXMXa s   . + r ^ M._ g s g p p l.Y Y Y Y N + o MXMXMXMXMXMXMXMXMXMXMXMXMXMXMXMXMXMXMXMXMX",
"MXMXMXMXMXMXMXMXMXMXMXMXMXMXMXMXMXMXMXO 3 Z Q ) ( G 1 u p z.i i 9 9 8 S Z L u s MXMXMXMXMXMXMXMXMXMXMXMXMXMXMXMXMXMXMXMX",
"MXMXMXMXMXMXMXMXMXMXMXMXMXMXMXMXMXMXMX9 w ~ B.N.o.] y w ! W i 6 O % : 1 ^ ' p s a MXMXMXMXMXMXMXMXMXMXMXMXMXMXMXMXMXMXMX",
"MXMXMXMXMXMXMXMXMXMXMXMXMXMXMXMXMXMXd $.:.K.K.J.L.x.Q ^ F w 7 e   s X.1.,.K.#.s a MXMXMXMXMXMXMXMXMXMXMXMXMXMXMXMXMXMXMX",
"MXMXMXMXMXMXMXMXMXMXMXMXMXMXMXMXMXa f r.W.=X*X XY.U.n.~ + # MXMXa d r.&X*X&Xe.d a MXMXMXMXMXMXMXMXMXMXMXMXMXMXMXMXMXMXMX",
"MXMXMXMXMXMXMXMXMXMXMXMXMXMXMXMXMXMXf z r.E.=X:XK.J._ p > MXMXMXMXf z e.e.e.z d MXMXMXMXMXMXMXMXMXMXMXMXMXMXMXMXMXMXMXMX",
"MXMXMXMXMXMXMXMXMXMXMXMXMXMXMXMXMXMXMXd h r.*X*X&Xr.f s MXMXMXMXMXMXd d d d d MXMXMXMXMXMXMXMXMXMXMXMXMXMXMXMXMXMXMXMXMX",
"MXMXMXMXMXMXMXMXMXMXMXMXMXMXMXMXMXMXMXMXd z r.r.r.$.f MXMXMXMXMXMXMXMXa a a MXMXMXMXMXMXMXMXMXMXMXMXMXMXMXMXMXMXMXMXMXMX",
"MXMXMXMXMXMXMXMXMXMXMXMXMXMXMXMXMXMXMXMXMXh h k k h MXMXMXMXMXMXMXMXMXMXMXMXMXMXMXMXMXMXMXMXMXMXMXMXMXMXMXMXMXMXMXMXMXMX",
"MXMXMXMXMXMXMXMXMXMXMXMXMXMXMXMXMXMXMXMXMXa a a a a MXMXMXMXMXMXMXMXMXMXMXMXMXMXMXMXMXMXMXMXMXMXMXMXMXMXMXMXMXMXMXMXMXMX"
};
