/* XPM */
static char *result[] = {
/* columns rows colors chars-per-pixel */
"60 60 216 2 ",
"   c #1E2623",
".  c #1B2C25",
"X  c #0C3B29",
"o  c #133327",
"O  c #143B2C",
"+  c #1B352B",
"@  c #183F30",
"#  c #222222",
"$  c #272B2A",
"%  c #21312C",
"&  c #392B35",
"*  c #253632",
"=  c #2D3534",
"-  c #2D3E3A",
";  c #263C35",
":  c #323435",
">  c #363638",
",  c #333939",
"<  c #393A3C",
"1  c #302C2F",
"2  c #531B3C",
"3  c #45293B",
"4  c #304719",
"5  c #05452B",
"6  c #0B442E",
"7  c #00492C",
"8  c #0F4827",
"9  c #15442B",
"0  c #014F31",
"q  c #0A4C34",
"w  c #154334",
"e  c #1B4435",
"r  c #134B3D",
"t  c #194838",
"y  c #025436",
"u  c #025A3C",
"i  c #0C5A37",
"p  c #17583C",
"a  c #0E512F",
"s  c #254B22",
"d  c #25433C",
"f  c #2C433D",
"g  c #26463B",
"h  c #2F5237",
"j  c #06613F",
"k  c #316034",
"l  c #52460C",
"z  c #54480F",
"x  c #444814",
"c  c #554A14",
"v  c #584B14",
"b  c #4C4E14",
"n  c #61531F",
"m  c #5A5523",
"M  c #4C522F",
"N  c #655624",
"B  c #69592B",
"V  c #68562C",
"C  c #675A39",
"Z  c #6E643A",
"A  c #57643E",
"S  c #3F3F41",
"D  c #6C1A4A",
"F  c #721D50",
"G  c #582746",
"H  c #543A4E",
"J  c #732252",
"K  c #7D285B",
"L  c #662751",
"P  c #1D4D41",
"I  c #055E44",
"U  c #165646",
"Y  c #1C5245",
"T  c #1B5949",
"R  c #185A48",
"E  c #234B42",
"W  c #2C4C42",
"Q  c #234740",
"!  c #3D4444",
"~  c #374844",
"^  c #285244",
"/  c #225C4A",
"(  c #295849",
")  c #3E544C",
"_  c #3A5E50",
"`  c #026445",
"'  c #03664A",
"]  c #086849",
"[  c #14614E",
"{  c #1B674C",
"}  c #13694B",
"|  c #146447",
" . c #0A714C",
".. c #0E6752",
"X. c #0B6B54",
"o. c #056C51",
"O. c #106450",
"+. c #1D6E54",
"@. c #166C54",
"#. c #027154",
"$. c #0A7452",
"%. c #04755A",
"&. c #0B7C5C",
"*. c #077958",
"=. c #1D7456",
"-. c #1A7D5B",
";. c #147656",
":. c #1B7D4F",
">. c #23634E",
",. c #296747",
"<. c #346B4B",
"1. c #206B51",
"2. c #2B6C54",
"3. c #3B6352",
"4. c #386D52",
"5. c #237256",
"6. c #26785B",
"7. c #367758",
"8. c #2C7E61",
"9. c #3D7E63",
"0. c #444546",
"q. c #4B4B4D",
"w. c #46494A",
"e. c #42554D",
"r. c #4D4E50",
"t. c #5D4454",
"y. c #455951",
"u. c #545456",
"i. c #525C59",
"p. c #5A5858",
"a. c #53534D",
"s. c #674A52",
"d. c #4F695C",
"f. c #4A655A",
"g. c #50625A",
"h. c #52685E",
"j. c #4A735F",
"k. c #46775E",
"l. c #4A6E48",
"z. c #7B6743",
"x. c #6E6851",
"c. c #6A5565",
"v. c #605960",
"b. c #714F66",
"n. c #4D7360",
"m. c #4B7A62",
"M. c #546960",
"N. c #7F6E67",
"B. c #810F52",
"V. c #8A1459",
"C. c #90115C",
"Z. c #A11F6F",
"A. c #AD1E75",
"S. c #A51E71",
"D. c #8F366E",
"F. c #972269",
"G. c #921D64",
"H. c #8A7359",
"J. c #887257",
"K. c #9B7E74",
"L. c #977A71",
"P. c #8D7968",
"I. c #0E835A",
"U. c #17825C",
"Y. c #25855B",
"T. c #3B855E",
"R. c #25905B",
"E. c #0C8962",
"W. c #148C63",
"Q. c #108761",
"!. c #129467",
"~. c #1A9E6B",
"^. c #179468",
"/. c #2D8B64",
"(. c #358B66",
"). c #388662",
"_. c #2A9466",
"`. c #379767",
"'. c #2AA76F",
"]. c #26A86E",
"[. c #3EA36F",
"{. c #32A86A",
"}. c #3FA670",
"|. c #3DAE73",
" X c #35A275",
".X c #2BB474",
"XX c #39BB76",
"oX c #3ABD78",
"OX c #39B273",
"+X c #498A53",
"@X c #468565",
"#X c #478967",
"$X c #458D69",
"%X c #498165",
"&X c #44946B",
"*X c #429B6C",
"=X c #48906B",
"-X c #51956D",
";X c #6C866C",
":X c #41A06E",
">X c #43AC75",
",X c #38C47A",
"<X c #85805F",
"1X c #9E876C",
"2X c #8B8A71",
"3X c #A1847A",
"4X c #B92984",
"5X c #70B989",
"6X c #72B48B",
"7X c #53BB82",
"8X c #B9A08D",
"9X c #B2AC9A",
"0X c #ACA798",
"qX c #96A590",
"wX c #D3B6AD",
"eX c None",
/* pixels */
"eXeXeXeXeXeXeXeXeXeXeXeXeXeXeXeXeXeXeXeXeXeXeXeXeXeXeXeXeXeXeXeXeXeXeXeXeXeXeXeXeXeXeXeXeXeXeXeXeXeXeXeXeXeXeXeXeXeXeXeX",
"eXeXeXeXeXeXeXeXeXeXeXeXeXeXeXeXeXeXeXeXeXeXeXeXeXeXeXeXeXeXeXeXeXeXeXeXeXeXeXeXeXeXeXeXeXeXeXeXeXeXeXeXeXeXeXeXeXeXeXeX",
"eXeXeXeXeXeXeXeXeXeXeXeXeXeXeXeXeXeXeXeXeX5 o # # # o 5 X . . X 5 o # # # o 5 eXeXeXeXeXeXeXeXeXeXeXeXeXeXeXeXeXeXeXeXeX",
"eXeXeXeXeXeXeXeXeXeXeXeXeXeXeXeXeXeXeXeX6 6 O % % % O 6 O . . O 6 O % % % O X 6 eXeXeXeXeXeXeXeXeXeXeXeXeXeXeXeXeXeXeXeX",
"eXeXeXeXeXeXeXeXeXeXeXeXeXeXeXeX7 7 7 6 @ e U } { { p e % $ $ ; e p { { { p e O 6 7 7 7 eXeXeXeXeXeXeXeXeXeXeXeXeXeXeXeX",
"eXeXeXeXeXeXeXeXeXeXeXeXeXeXeX0 0 0 7 9 ; W =.!.!.^.1.g , , > , h +.W.W.^.5.f g w 7 7 7 0 eXeXeXeXeXeXeXeXeXeXeXeXeXeXeX",
"eXeXeXeXeXeXeXeXeXeXeXeXeXeX7 j  .i t t / 5._.].Y./ 2.7.4.e.e.4.7.2.>.U.]._.5.T t w |  .j 7 eXeXeXeXeXeXeXeXeXeXeXeXeXeX",
"eXeXeXeXeXeXeXeXeXeXeXeXeX7 7  .!.+.f W =.~..XOX7.: 4.OX*Xj.d.:XOX4.: 7.XX.X~.=.W f +.W. .7 7 eXeXeXeXeXeXeXeXeXeXeXeXeX",
"eXeXeXeXeXeXeXeXeXeXeXeXy j ] } 1.( ! 3._.'.`.$XT.7.`.XX:Xj.d.:XXX`.7.T.@X`.]./.3.! ( >.|  .j y eXeXeXeXeXeXeXeXeXeXeXeX",
"eXeXeXeXeXeXeXeXeXeXeX7 y  .W.,.- ! q.j.[.|.%Xg.$XOXoX,X:Xd.d.:X,XoXXX$Xg.@XOX[.j.q.0.f ,.W. .y 7 eXeXeXeXeXeXeXeXeXeXeX",
"eXeXeXeXeXeXeXeXeXeXy j ` { 5.( ! y.k.%X=X#Xj.i.$X,X|.*X%Xd.d.%X*XOX,X=Xi.d.$X=X@Xk.y.! ( 1.} ] j y eXeXeXeXeXeXeXeXeXeX",
"eXeXeXeXeXeXeXeXeX7 u $.U./ f ! r.j.[.*Xm.g.u.i.$X,X*Xj.g.u.u.i.d.*X,X$Xi.i.g.m.*X[.k.r.! f >.U.$.u 7 eXeXeXeXeXeXeXeXeX",
"eXeXeXeXeXeXeXeXeX7 i I.U./ : e.j.#X*X#Xd.i.d.%X*X,X&Xg.u.u.u.u.g.&X,X:X%Xd.i.g.#X*X@Xj.e.: / U.I.i 7 eXeXeXeXeXeXeXeXeX",
"eXeXeXeXeXeXeXeXeX7 y I.U./ > 4.[.&Xm.g.u.g.=X|.XX,X&Xg.u.u.u.u.g.&X,XXX|.$Xg.i.g.m.&X[.4.> / U.$.u 7 eXeXeXeXeXeXeXeXeX",
"eXeXeXeXeXeXeXeXy i ` } =.^ < 7.XX*Xd.u.u.d.*X,X,X,X&Xg.u.u.u.u.g.&X,X,X,X*Xd.u.u.g.*XoX7.f ( 5. .j u y eXeXeXeXeXeXeXeX",
"eXeXeXeXeXeXeX7 j $.;./ ^ ) r.@XXX*Xg.u.u.d.*X,X,X,X&Xi.u.u.u.u.g.&X,X,X,X*Xd.u.u.d.*XXX@Xr.w.W ,.;.$.j 7 eXeXeXeXeXeXeX",
"eXeXeXeXeXeXeX7 ` &.-.^ > 0.u.#XoX*Xg.u.u.g.*X,X,X,X&Xg.u.u.u.u.g.&X,X,X,X*Xg.u.u.d.*XXX#Xu.0.> ^ -.I.j 7 eXeXeXeXeXeXeX",
"eXeXeXeXeXeXeX7 j Q.-.^ > w.u.#XoX*Xd.u.u.d.*X,X,X,X&Xg.u.u.u.u.g.&X,X,X,X*Xd.u.u.d.*XXX=Xu.0.: ^ -.I.j 7 eXeXeXeXeXeXeX",
"eXeXeXeXeXeXeX7 j I.-.^ > 0.u.$XXX*Xd.u.u.d.*X,X,X,X&Xg.u.u.u.u.g.&X,X,X,X*Xd.u.u.d.*XXX#Xu.w.> ^ -.I.j 7 eXeXeXeXeXeXeX",
"eXeXeXeXeXeXeX7 j I.-.^ > 0.u.$XoX*Xd.u.u.g.*X,X,X,X&Xg.u.u.u.u.g.&X,X,X,X*Xd.u.u.d.*XXX#Xu.0.> ^ -.I.j 7 eXeXeXeXeXeXeX",
"eXeXeXeXeXeXeX7 u I.U.^ > 0.u.#XXX*Xg.u.u.d.*X,X,X,X&Xg.u.u.u.u.g.&X,X,X,X*Xd.u.u.d.*XXX=Xu.0.> ^ -.I.j 7 eXeXeXeXeXeXeX",
"eXeXeXeXeXeXeX7 j I.-.^ > 0.u.$XXX*Xd.u.u.d.*X,X,X,X&Xg.u.u.u.u.g.&X,X,X,X*Xg.u.u.g.*XXX#Xu.w.: ^ -.I.j 7 eXeXeXeXeXeXeX",
"eXeXeXeXeXeXeX7 j I.-.^ > 0.u.@XXX*Xd.u.u.d.*X,X,X,X&Xg.u.u.u.u.g.&X,X,X,X*Xd.u.u.d.*XXX#Xu.0.: ^ U.I.j 7 eXeXeXeXeXeXeX",
"eXeXeXeXeXeXeX7 u *.;.E > 0.u.9.'.(.g.u.u.d.*X,X,X,X=Xi.u.u.u.u.g.&X,X,X,X*Xd.u.u.g.(.'.@Xu.0., E ;.*.u 7 eXeXeXeXeXeXeX",
"eXeXeXeXeXeXeX7 u #.X.E : 0.u.9.W./.f.a.u.d.*X,X,X,X&Xg.u.u.u.u.g.=X,X,X,X*Xd.u.u.i.8.^.9.u.0.> E X.#.u 7 eXeXeXeXeXeXeX",
"eXeXeXeXeXeXeX7 u #.X.Q > S w.2.W.=.) w.r.d.*X,X,X,X&Xg.u.u.u.u.g.&X,X,X,X*Xd.r.w.) 8.W.2.0.S : E X.#.u 7 eXeXeXeXeXeXeX",
"eXeXeXeXeXeXeX7 I o.X.E : : > >.W.5.W H q.h.*X,X,X,X&Xg.u.u.u.u.g.=X,X,X,X*Xd.q.S W 5.W./ S > : P ..#.u 7 eXeXeXeXeXeXeX",
"eXeXeXeXeXeXeX7 y ' ' U Q - : >.W.+.f > 0.y.(..X.X.X).y.q.q.w.w.y.)..X.X.X(.y.0.S S +.W.T = - Q U ] ' y 7 eXeXeXeXeXeXeX",
"eXeXeXeXeXeXeXeXeXy u ' ..E , / W.+.Q & > ~ 6.~.~.~.5.~ > < < > ~ 5.~.~.~.6.~ > * S X.E.>.: E ..' u y eXeXeXeXeXeXeXeXeX",
"eXeXeXeXeXeXeXeXeX7 y o.%.Y = / Q.-.( W , f +.!.!.^.1.- : & : : - 1.!.!.!.+.f , S U ;.E./ : Y %.o.y 7 eXeXeXeXeXeXeXeXeX",
"eXeXeXeXeXeXeXeXeX7 y o.%.P : T &.&.;.>.f f 1.!.!.!.+.- : : : : - 1.!.!.!.+.f f >.-.Q.&.T : P %.' y 7 eXeXeXeXeXeXeXeXeX",
"eXeXeXeXeXeXeXeXeX7 y ' X.U d T X.&.E.-./ E +.U.I.!.@.g - : = = E @.!.Q.-.+.E T -.E.%.X.Y Q U #.' y 7 eXeXeXeXeXeXeXeXeX",
"eXeXeXeXeXeXeXeXeXeXeXu u I O.T P O.&.&.X.R U T @.&.%.O.P S * U ..%.&.X.U T [ X.%.&.O.P T O.I I u eXeXeXeXeXeXeXeXeXeXeX",
"eXeXeXeXeXeXeXeXeXeXeX7 y ` #.U = P ..%.&.%.U S T %.%.&.O.d Q ..%.%.%.T S Y %.%.%...P ; U %.I 0 7 eXeXeXeXeXeXeXeXeXeXeX",
"eXeXeXeXeXeXeXeXeXeXeXeXeXu I q w w Y R %.%.X.R T P ..%...Q Q O.%.O.Y T [ ..%.%.[ P r @ q I I eXeXeXeXeXeXeXeXeXeXeXeXeX",
"eXeXeXeXeXeXeXeXeXeXeXeXeX0 7 7 7 w * g ..#.%.%.Y = Y %.I S d O.X.P S Y %.%.%.o.S @ O 5 7 7 7 eXeXeXeXeXeXeXeXeXeXeXeXeX",
"eXeXeXeXeXeXeXeXeXeXeXeXeXeXeXeXeX6 @ w r r r r w @ @ U @ % 1 * r r O r r r P X w @ 6 eXeXeXeXeXeXeXeXeXeXeXeXeXeXeXeXeX",
"eXeXeXeXeXeXeXeXeXeXeXeXeXeXeXeXeXeX7 X o # # # o 7 X   # # # #   o I X # # # o X 7 eXeXeXeXeXeXeXeXeXeXeXeXeXeXeXeXeXeX",
"eXeXeXeXeXeXeXeXeXeXeXeXeXeXeXeXeX+ + * 3 2 D L L t.G G 2 2 2 2 2 G L L L D 2 G f g ; eXeXeXeXeXeXeXeXeXeXeXeXeXeXeXeXeX",
"eXeXeXeXeXeXeXeXeXeXeXeXeXeXeXeX# $ = 3 D V.S.4X4X4XZ.V.F F B.B.F A.4X4X4XS.V.F t.q., # eXeXeXeXeXeXeXeXeXeXeXeXeXeXeXeX",
"eXeXeXeXeXeXeXeXeXeXeXeXeXeXeXr r g , 3 G F G.A.A.A.D.b.c.c.c.c.b.D.A.A.A.F.K s.M.k.4.,.Y eXeXeXeXeXeXeXeXeXeXeXeXeXeXeX",
"eXeXeXeXeXeXeXeXeXeXeXeXeXeX7 ] U.T f : & 3 F C.C.C.b.-X>X>X|.>X-Xc.C.C.V.G.H d.*XOXOX{.:.7 eXeXeXeXeXeXeXeXeXeXeXeXeXeX",
"eXeXeXeXeXeXeXeXeXeXeXeXeXs s ,.).9.( W = & 2 D J J v.=X[.:X[.:X=Xv.J J D G 0.f.`.XX7X5X-Xl.l.eXeXeXeXeXeXeXeXeXeXeXeXeX",
"eXeXeXeXeXeXeXeXeXeXeXeXeX4 x x.qX;X/.{ ; $ & 3 H t.u.h.d.d.d.M.h.p.t.0.G & 1 g -. X6X9X0X0XP.N l eXeXeXeXeXeXeXeXeXeXeX",
"eXeXeXeXeXeXeXeXeXeXeXeXeXeXz z.1X;X:.} e + d ^ 3.n.n.n.n.n.n.n.n.n.n._ ^ d . t } _.qXwXwXwX1Xm l eXeXeXeXeXeXeXeXeXeXeX",
"eXeXeXeXeXeXeXeXeXeXeXeXeXeXeXN B M i y 6 6 | -._. X>X:X}.}.}.}.}.}.:X_.-.| 6 6 i 7.;XwXwXwX1XN l eXeXeXeXeXeXeXeXeXeXeX",
"eXeXeXeXeXeXeXeXeXeXeXeXeXeXeXeXl 4 8 7 5 q } U._.}.|.|.|.|.|. X|.>X|._.U.} q 7 7 h 2X8X8X8XP.n l eXeXeXeXeXeXeXeXeXeXeX",
"eXeXeXeXeXeXeXeXeXeXeXeXeXeXeXeXeXeXeXX o + g ( 3.m.m.m.m.m.m.m.m.m.m.4.^ g + o X eXZ z.z.z.Z eXeXeXeXeXeXeXeXeXeXeXeXeX",
"eXeXeXeXeXeXeXeXeXeXeXeXeXeXeXeXeXeXeXeX. % = h e.d.i.a.p.g.t.v.p.p.q.0.= *     eXeXl l l l eXeXeXeXeXeXeXeXeXeXeXeXeXeX",
"eXeXeXeXeXeXeXeXeXeXeXeXeXeXeXeXeXeXeXeXX e ,.T.T.*Xl.M C x.P.P.N.x.m h T U 6 X eXeXeXeXeXeXeXeXeXeXeXeXeXeXeXeXeXeXeXeX",
"eXeXeXeXeXeXeXeXeXeXeXeXeXeXeXeXeXeXeXeX5 i R.,X,XXX+Xm B H.K.3XL.Z v k $.' 0 7 eXeXeXeXeXeXeXeXeXeXeXeXeXeXeXeXeXeXeXeX",
"eXeXeXeXeXeXeXeXeXeXeXeXeXeXeXeXeXeXeXeXo e <.#X#X@Xl.b B H.L.K.L.H.J.A k h a eXeXeXeXeXeXeXeXeXeXeXeXeXeXeXeXeXeXeXeXeX",
"eXeXeXeXeXeXeXeXeXeXeXeXeXeXeXeXeXeXeXeX# $ 0.u.u.u.M c V J.L.L.K.3X3Xz.c l eXeXeXeXeXeXeXeXeXeXeXeXeXeXeXeXeXeXeXeXeXeX",
"eXeXeXeXeXeXeXeXeXeXeXeXeXeXeXeXeXeXeXeXo t <.@X#X#X3.4 x C Z z.z.Z J.Z v eXeXeXeXeXeXeXeXeXeXeXeXeXeXeXeXeXeXeXeXeXeXeX",
"eXeXeXeXeXeXeXeXeXeXeXeXeXeXeXeXeXeXeXeX6 i R.oXoXoXY.i 9 x v v v v v c eXeXeXeXeXeXeXeXeXeXeXeXeXeXeXeXeXeXeXeXeXeXeXeX",
"eXeXeXeXeXeXeXeXeXeXeXeXeXeXeXeXeXeXeXeXs k #X5X5X5X+Xh 4 x l l l l l eXeXeXeXeXeXeXeXeXeXeXeXeXeXeXeXeXeXeXeXeXeXeXeXeX",
"eXeXeXeXeXeXeXeXeXeXeXeXeXeXeXeXeXeXeXeXx m 2X9X9X9X<Xm x eXeXeXeXeXeXeXeXeXeXeXeXeXeXeXeXeXeXeXeXeXeXeXeXeXeXeXeXeXeXeX",
"eXeXeXeXeXeXeXeXeXeXeXeXeXeXeXeXeXeXeXeXeXN J.1X1X1XJ.n eXeXeXeXeXeXeXeXeXeXeXeXeXeXeXeXeXeXeXeXeXeXeXeXeXeXeXeXeXeXeXeX",
"eXeXeXeXeXeXeXeXeXeXeXeXeXeXeXeXeXeXeXeXeXeXN B B B n eXeXeXeXeXeXeXeXeXeXeXeXeXeXeXeXeXeXeXeXeXeXeXeXeXeXeXeXeXeXeXeXeX",
"eXeXeXeXeXeXeXeXeXeXeXeXeXeXeXeXeXeXeXeXeXeXl l l z z eXeXeXeXeXeXeXeXeXeXeXeXeXeXeXeXeXeXeXeXeXeXeXeXeXeXeXeXeXeXeXeXeX"
};
