/* XPM */
static char *result[] = {
/* columns rows colors chars-per-pixel */
"60 60 217 2 ",
"   c #1D2A26",
".  c #192C25",
"X  c #0C3C29",
"o  c #1D352D",
"O  c #133C2C",
"+  c #173428",
"@  c #193D30",
"#  c #222323",
"$  c #272A2A",
"%  c #3D2937",
"&  c #2A3533",
"*  c #223D32",
"=  c #2C3E3A",
"-  c #253632",
";  c #323435",
":  c #363638",
">  c #343B39",
",  c #3A3D3D",
"<  c #313837",
"1  c #26302D",
"2  c #491C37",
"3  c #422638",
"4  c #2A481C",
"5  c #3F4613",
"6  c #05442B",
"7  c #0B432C",
"8  c #00492C",
"9  c #13422C",
"0  c #014F31",
"q  c #144333",
"w  c #194838",
"e  c #025435",
"r  c #00563A",
"t  c #035B3C",
"y  c #0A5039",
"u  c #115236",
"i  c #3A4A29",
"p  c #26443E",
"a  c #2D443D",
"s  c #274E3B",
"d  c #32423E",
"f  c #205A3E",
"g  c #255538",
"h  c #2D522A",
"j  c #06613F",
"k  c #34693A",
"l  c #4C460E",
"z  c #52460C",
"x  c #51480E",
"c  c #484814",
"v  c #5B4F1C",
"b  c #544A16",
"n  c #5E501C",
"m  c #57501E",
"M  c #5D5527",
"N  c #4A5933",
"B  c #595438",
"V  c #4C5126",
"C  c #625321",
"Z  c #6A592F",
"A  c #6C5A35",
"S  c #705D38",
"D  c #76633E",
"F  c #49763D",
"G  c #5D1E44",
"H  c #76124C",
"J  c #7C1652",
"K  c #7D1A55",
"L  c #562443",
"P  c #5E264A",
"I  c #4B384A",
"U  c #59314C",
"Y  c #492E44",
"T  c #69264E",
"R  c #673955",
"E  c #7A3C63",
"W  c #1E4E43",
"Q  c #005E41",
"!  c #125343",
"~  c #1C5345",
"^  c #1C5944",
"/  c #1B5849",
"(  c #165A48",
")  c #234B42",
"_  c #2B4A40",
"`  c #3B4945",
"'  c #394945",
"]  c #285244",
"[  c #235C4A",
"{  c #2A5A4A",
"}  c #245446",
"|  c #38574A",
" . c #026344",
".. c #046549",
"X. c #096E49",
"o. c #056749",
"O. c #14614E",
"+. c #1D644C",
"@. c #126C4C",
"#. c #18694D",
"$. c #186F46",
"%. c #0B734D",
"&. c #0C6A53",
"*. c #0A6951",
"=. c #106450",
"-. c #1D6D53",
";. c #166C53",
":. c #027255",
">. c #0A7354",
",. c #0D7B53",
"<. c #05755A",
"1. c #027A5D",
"2. c #0B7A5B",
"3. c #097459",
"4. c #1E7255",
"5. c #167C5B",
"6. c #197E5B",
"7. c #127756",
"8. c #1C754A",
"9. c #23614C",
"0. c #366549",
"q. c #216A51",
"w. c #2B6B54",
"e. c #3A6753",
"r. c #237255",
"t. c #267858",
"y. c #367758",
"u. c #337B61",
"i. c #444546",
"p. c #424A49",
"a. c #4A4C4D",
"s. c #474749",
"d. c #52444F",
"f. c #41524C",
"g. c #435A4C",
"h. c #595649",
"j. c #4F4F51",
"k. c #495953",
"l. c #545456",
"z. c #525C59",
"x. c #57585A",
"c. c #5C4453",
"v. c #72405F",
"b. c #6D5F42",
"n. c #4D635A",
"m. c #4E695C",
"M. c #50625A",
"N. c #49735A",
"B. c #457442",
"V. c #65684B",
"C. c #7B6746",
"Z. c #706D5B",
"A. c #6E5266",
"S. c #4B7561",
"D. c #497D63",
"F. c #6D7968",
"G. c #6E6463",
"H. c #991564",
"J. c #981E69",
"K. c #94286C",
"L. c #A52B79",
"P. c #B4217C",
"I. c #887355",
"U. c #8D765C",
"Y. c #857558",
"T. c #856D59",
"R. c #887264",
"E. c #947969",
"W. c #967D73",
"Q. c #0D825A",
"!. c #10895F",
"~. c #288658",
"^. c #27845B",
"/. c #38815F",
"(. c #2F935F",
"). c #0C8762",
"_. c #158C63",
"`. c #158960",
"'. c #139467",
"]. c #169568",
"[. c #179A69",
"{. c #199A69",
"}. c #278A63",
"|. c #378562",
" X c #289367",
".X c #3A996A",
"XX c #26A36E",
"oX c #2BA36E",
"OX c #39A06C",
"+X c #38AD71",
"@X c #28B072",
"#X c #31B473",
"$X c #3CB174",
"%X c #39BB76",
"&X c #37B874",
"*X c #27AB70",
"=X c #458566",
"-X c #488365",
";X c #478967",
":X c #458F69",
">X c #498E6B",
",X c #44946B",
"<X c #429A6C",
"1X c #4B9670",
"2X c #5E9478",
"3X c #57826E",
"4X c #69937A",
"5X c #41A16E",
"6X c #40A470",
"7X c #38C37A",
"8X c #9E8177",
"9X c #A2857C",
"0X c #8D9483",
"qX c #AE948B",
"wX c #A69387",
"eX c #AF9288",
"rX c None",
/* pixels */
"rXrXrXrXrXrXrXrXrXrXrXrXrXrXrXrXrXrXrXrX8 6 + # # # + 6 X . . X 6 + # # # . 7 8 rXrXrXrXrXrXrXrXrXrXrXrXrXrXrXrXrXrXrXrX",
"rXrXrXrXrXrXrXrXrXrXrXrXrXrXrXrXrXrXrXrX6 O O o 1 o @ 7 O   . + 7 @ o o * O 7 7 rXrXrXrXrXrXrXrXrXrXrXrXrXrXrXrXrXrXrXrX",
"rXrXrXrXrXrXrXrXrXrXrXrXrXrXrXrX8 8 8 7 @ w u #.#.#.u w - 1 1 1 p u #.#.#.^ w @ 7 8 8 8 rXrXrXrXrXrXrXrXrXrXrXrXrXrXrXrX",
"rXrXrXrXrXrXrXrXrXrXrXrXrXrXrX0 e 8 8 q p _ t.'.]._.q.' < : < > a 8._.'.].r.a * q 8 8 e 0 rXrXrXrXrXrXrXrXrXrXrXrXrXrXrX",
"rXrXrXrXrXrXrXrXrXrXrXrXrXrX8 j X.t q w [ r. XXX~.9.w.y.e.f.f.e.y.w.9.~.*X Xr.[ w w ! %. .8 rXrXrXrXrXrXrXrXrXrXrXrXrXrX",
"rXrXrXrXrXrXrXrXrXrXrXrXrX8 8 X.'.q.a ] 4.{.@X&Xy.< w.+X5Xm.m.5X$Xe.< y.&X@X{.4.s a -.`.X.8 8 rXrXrXrXrXrXrXrXrXrXrXrXrX",
"rXrXrXrXrXrXrXrXrXrXrXrXrXj o.@.q.{ ` | }.XXOX,X/.y..X$X6Xm.N.5X&X(.y./.,X.XXX}.| ` { q.@.X.t rXrXrXrXrXrXrXrXrXrXrXrXrX",
"rXrXrXrXrXrXrXrXrXrXrX8 e %.`.q.a ` a.m.OX$X=Xm.:X+X%X7X6XN.m.<X7X%X+X|.m.=X$XOXN.a.` _ +.!.%.e 8 rXrXrXrXrXrXrXrXrXrXrX",
"rXrXrXrXrXrXrXrXrXrXrXt j $.r.{ d f.m.-X,X,XS.z.:X7X$X5X;XM.M.;X6X%X7X,Xl.N.,X,X=Xm.f.d { 4.#. .t rXrXrXrXrXrXrXrXrXrXrX",
"rXrXrXrXrXrXrXrXrX8 t %.,.9._ ` a.N.<X<X-Xm.x.z.:X7X5XN.m.z.z.M.S.5X%X>Xz.z.m.-X<X<XN.a.` a 9.7.%.t 8 rXrXrXrXrXrXrXrXrX",
"rXrXrXrXrXrXrXrXrX8 t ,.!.{ ; f.m.-X5X,Xm.x.M.S.<X7X,XM.l.l.l.l.M.,X7X<XS.M.x.m.,X5X-Xm.| ; [ `.,.t 8 rXrXrXrXrXrXrXrXrX",
"rXrXrXrXrXrXrXrXrX8 t ,.!.[ ; e.<X>X-Xm.z.M.-X5X$X7X,XM.l.l.l.l.M.>X7X%X6X-XM.z.m.D.:X,Xe.: [ `.,.t 8 rXrXrXrXrXrXrXrXrX",
"rXrXrXrXrXrXrXrXrXe t 7.Q.| > y.&X<Xm.l.l.m.<X7X7X7X,XM.l.l.l.l.M.,X7X7X7X<Xm.l.l.m.<X%Xy.: { 6.7.t e rXrXrXrXrXrXrXrXrX",
"rXrXrXrXrXrXrX8 t X.%.9.{ ' i.=X&X<Xm.l.l.m.<X7X7X7X,XM.l.l.l.l.M.,X7X7X7X<Xm.l.l.m.<X%X|.p.| { 9.%.X.t 8 rXrXrXrXrXrXrX",
"rXrXrXrXrXrXrX8 j Q.6.] > i.l.;X%X<Xm.l.l.m.<X7X7X7X,XM.l.l.l.l.M.,X7X7X7X<XM.l.l.m.<X%X;Xx.i.: ] 6.Q.j 8 rXrXrXrXrXrXrX",
"rXrXrXrXrXrXrX8 j Q.6.] > i.l.;X%X<Xm.l.l.m.<X7X7X7X>XM.l.l.l.l.M.,X7X7X7X<Xm.l.l.m.<X%X;Xx.i.: ] 6.Q.j 8 rXrXrXrXrXrXrX",
"rXrXrXrXrXrXrX8  .Q.6.] : i.l.;X%X<Xm.l.l.m.<X7X7X7X,XM.x.l.l.l.M.,X7X7X7XOXM.x.l.m.,X%X;Xx.i.: ] ^.Q.j 8 rXrXrXrXrXrXrX",
"rXrXrXrXrXrXrX8 j Q.6.] : ` x.;X%X<Xm.l.l.m.<X7X7X7X,XM.l.l.l.l.M.,X7X7X7X<Xm.l.l.m.<X%X;Xl.i.: ] Q.Q.j 8 rXrXrXrXrXrXrX",
"rXrXrXrXrXrXrX8 j Q.6.] : i.z.=X6X<Xm.l.l.M.<X7X7X7X,XM.l.l.l.l.M.,X7X7X7X<Xm.l.l.m.<X%X;Xl.i.: ] 6.Q.j 8 rXrXrXrXrXrXrX",
"rXrXrXrXrXrXrX8 j Q.6.] : i.x.;X7X<Xm.l.l.m.<X7X7X7X,XM.l.l.l.l.M.1X7X7X7X<Xm.x.l.m.<X%X;Xx.i.: ] 6.Q.j 8 rXrXrXrXrXrXrX",
"rXrXrXrXrXrXrX8 j Q.6.] : i.x.;X7X<Xm.l.l.m.<X7X7X7X,XM.l.l.l.l.M.,X7X7X7X<XM.l.l.m.1X%X=Xx.i.: ] 6.Q.j 8 rXrXrXrXrXrXrX",
"rXrXrXrXrXrXrX8 j Q.6._ : i.l.=X&X<Xm.l.l.m.<X7X7X7X,XM.l.l.l.l.M.,X7X7X7X.Xm.l.l.m..X@X|.x.i.: ) 6.Q.j 8 rXrXrXrXrXrXrX",
"rXrXrXrXrXrXrX8 t :.7.) > i.l.u. X|.m.l.l.m.<X7X7X7X,Xz.l.l.l.l.M.,X7X7X7X<Xm.l.l.n.|.XXu.l.I : ) >.:.t 8 rXrXrXrXrXrXrX",
"rXrXrXrXrXrXrX8 t :.&.) ; I l.u.].t.k.l.l.m.<X7X7X7X,Xz.l.l.l.l.M.,X7X7X7X<Xm.l.l.k.u.'.u.l.i.: ) &.:.t 8 rXrXrXrXrXrXrX",
"rXrXrXrXrXrXrX8 t :.&.) ; , i.w._.t.| s.j.m.<X7X7X7X,XM.x.l.l.l.M.,X7X7X7X<Xm.j.I | r.'.w.i., : ) &.:.r 8 rXrXrXrXrXrXrX",
"rXrXrXrXrXrXrX8 r :.&.W ; ; ; 9._.-.d , a.m.<X7X7X7X>XM.l.l.l.l.M.,X7X7X7X<Xn.a., a 4._.9.; ; ; ) &.:.t 8 rXrXrXrXrXrXrX",
"rXrXrXrXrXrXrX8 r  ...( W = ; [ _.4.= : ` f.|.@X@X@X|.f.i.i.i.i.` |.@X@X@X|.| i., _ -._.9.; = W ( .. .r 8 rXrXrXrXrXrXrX",
"rXrXrXrXrXrXrXrXrX0 r ..&.W ; [ _.-._ ; ; ' r.[.[.[.r._ : : : : ' r.[.].[.t.' < ; = -._.9.; W &...t 0 rXrXrXrXrXrXrXrXrX",
"rXrXrXrXrXrXrXrXrX8 r :.<.~ ; [ ).5.[ _ = = q.'.'.'.-.> ; ; ; ; = q.].'.'.-.a < _ [ 7.5.[ ; W <...r 8 rXrXrXrXrXrXrXrXrX",
"rXrXrXrXrXrXrXrXrX8 e ..<.~ ; / 2.2.5.-._ _ 4.'.'.'.q.= ; ; ; ; = q.'.'.'.-.a _ -.5.2.1./ & W <.:.e 8 rXrXrXrXrXrXrXrXrX",
"rXrXrXrXrXrXrXrXrX0 r Q *.! ) ~ =.2.).5.} ) -.6.)._.;.) = ; ; & ) -._.).5.-.) [ 5.).2.&./ _ ( *...e 8 rXrXrXrXrXrXrXrXrX",
"rXrXrXrXrXrXrXrXrXrXrXQ Q ( =./ ) O.2.2.&.=.} } &.).<.&.~ = = ~ &.2.1.;.} [ O.&.2.2.O.} / =.Q t r rXrXrXrXrXrXrXrXrXrXrX",
"rXrXrXrXrXrXrXrXrXrXrX8 e ..:.( = W *.<.1.<.~ p ! 3.<.1.=.p p =.<.<.<./ p W <.<.<.&.W - ( :.Q y 8 rXrXrXrXrXrXrXrXrXrXrX",
"rXrXrXrXrXrXrXrXrXrXrXrXrXr Q y O w W ( <.<.&.( / ~ =.<.=.p p =.<.=.~ ( ( =.<.<.( W w @ ! Q Q rXrXrXrXrXrXrXrXrXrXrXrXrX",
"rXrXrXrXrXrXrXrXrXrXrXrXrX8 8 8 8 q - p =.1.1.:./ ; ~ <.=.p p =.<.~ ; ~ <.<.<.*.p - @ 0 8 8 8 rXrXrXrXrXrXrXrXrXrXrXrXrX",
"rXrXrXrXrXrXrXrXrXrXrXrXrXrX8 8 8 7 @ q w ! ! ! ! @ @ ! w 1 - @ ! w @ w ! ! ! ! q @ X 0 8 0 rXrXrXrXrXrXrXrXrXrXrXrXrXrX",
"rXrXrXrXrXrXrXrXrXrXrXrXrXrXrXrXrXrX6 7 + #   . + X X   # # # #   X 0 O       . 7 6 rXrXrXrXrXrXrXrXrXrXrXrXrXrXrXrXrXrX",
"rXrXrXrXrXrXrXrXrXrXrXrXrXrXrXrXrX* s = % 2 L T I I Y Y 2 2 2 Y L Y I Y P G L 3 a w p rXrXrXrXrXrXrXrXrXrXrXrXrXrXrXrXrX",
"rXrXrXrXrXrXrXrXrXrXrXrXrXrXrXrX# < ` d.T H.J.L.L.L.K.J H H H H H J.L.L.L.J.J T I p.> # rXrXrXrXrXrXrXrXrXrXrXrXrXrXrXrX",
"rXrXrXrXrXrXrXrXrXrXrXrXrXrXrXw g ' k.d.T H J.P.P.P.K.E R E E R E K.P.P.P.J.J T c.j.' s w rXrXrXrXrXrXrXrXrXrXrXrXrXrXrX",
"rXrXrXrXrXrXrXrXrXrXrXrXrXrX8 8. XN.m.j.Y L K H.H.K.K.3X1X1X1X1X3XA.H.H.H.K 2 U j.M.N. X8.0 rXrXrXrXrXrXrXrXrXrXrXrXrXrX",
"rXrXrXrXrXrXrXrXrXrXrXrXrXg f ~.#X.XS.g.d 3 2 H.K K G.5X6X6X6X$X1XM.H H.H T 3 d g.N..X&X~.f g rXrXrXrXrXrXrXrXrXrXrXrXrX",
"rXrXrXrXrXrXrXrXrXrXrXrXn V.F.>XoXoX5Xy.d $ 3 2 U R x.S.;X-XD.D.S.x.R U 3 3 $ d y..XoXXX>XF.V.m rXrXrXrXrXrXrXrXrXrXrXrX",
"rXrXrXrXrXrXrXrXrXrXrXz n U.qX4X XXX#X(.g $ & > ` z.z.z.z.z.z.z.M.x.z.a.d ; # s (.&XXX X4XqXI.n z rXrXrXrXrXrXrXrXrXrXrX",
"rXrXrXrXrXrXrXrXrXrXrXz n I.qX0X4X>X~.$.w 9 w q.y.:X:X:X:X:X:X:X>X;X:Xy.q.w q u $.~.>X4X0XqXU.n z rXrXrXrXrXrXrXrXrXrXrX",
"rXrXrXrXrXrXrXrXrXrXrXz n I.qXqXqXF.f 8 8 t ,.].@X7X%X7X7X7X%X7X7X7X7X@X].,.t 8 8 f F.qXqXqXI.n x rXrXrXrXrXrXrXrXrXrXrX",
"rXrXrXrXrXrXrXrXrXrXrXrXn D I.I.I.V.g 6 X 9 ^ q.u.,X<X,X,X,X,X,X,X,X:X/.q.^ 9 X 6 g V.I.I.I.D n rXrXrXrXrXrXrXrXrXrXrXrX",
"rXrXrXrXrXrXrXrXrXrXrXrXrXv n n n m rXrX. # - d f.n.z.M.z.n.n.n.M.M.M.f.d - #   rXrXn n n n v rXrXrXrXrXrXrXrXrXrXrXrXrX",
"rXrXrXrXrXrXrXrXrXrXrXrXrXrXz z z rXrXrX. O s | g.B h.G.G.G.G.h.B g.n.e.{ s + . rXrXrXx x z rXrXrXrXrXrXrXrXrXrXrXrXrXrX",
"rXrXrXrXrXrXrXrXrXrXrXrXrXrXrXrXrXrXrXrX7 u t.OXB.m b.R.W.W.R.A V 0.}. XOX~.u 6 rXrXrXrXrXrXrXrXrXrXrXrXrXrXrXrXrXrXrXrX",
"rXrXrXrXrXrXrXrXrXrXrXrXrXrXrXrXrXrXrXrX7 u ~.5XF z D W.9X9XR.Z c k !. XOX~.u 6 rXrXrXrXrXrXrXrXrXrXrXrXrXrXrXrXrXrXrXrX",
"rXrXrXrXrXrXrXrXrXrXrXrXrXrXrXrXrXrXrXrX. * 0.N.N z D 8X9X8XR.Z c i { e.N.| * . rXrXrXrXrXrXrXrXrXrXrXrXrXrXrXrXrXrXrXrX",
"rXrXrXrXrXrXrXrXrXrXrXrXrXrXrXrXrXrXrXrX# 1 d z.N z D E.8XE.I.C c i d p.z.` 1   rXrXrXrXrXrXrXrXrXrXrXrXrXrXrXrXrXrXrXrX",
"rXrXrXrXrXrXrXrXrXrXrXrXrXrXrXrXrXrXrXrXX 9 9.y.N x S E.R.C.M i 4 f +.r.t.9.q O rXrXrXrXrXrXrXrXrXrXrXrXrXrXrXrXrXrXrXrX",
"rXrXrXrXrXrXrXrXrXrXrXrXrXrXrXrXrXrXrXrX7 t ,.`.k b A T.C.C c 9 e >.].].{.,.e 8 rXrXrXrXrXrXrXrXrXrXrXrXrXrXrXrXrXrXrXrX",
"rXrXrXrXrXrXrXrXrXrXrXrXrXrXrXrXrXrXrXrX4 h B.2XF.C.C.C.A v c 4 h N.2X2X2XN.h 4 rXrXrXrXrXrXrXrXrXrXrXrXrXrXrXrXrXrXrXrX",
"rXrXrXrXrXrXrXrXrXrXrXrXrXrXrXrXrXrXrXrXx M Y.wXwXeXI.n v rXrXx m Y.wXwXwXY.M l rXrXrXrXrXrXrXrXrXrXrXrXrXrXrXrXrXrXrXrX",
"rXrXrXrXrXrXrXrXrXrXrXrXrXrXrXrXrXrXrXrXrXC C.U.U.U.D n rXrXrXrXv D U.U.U.C.C rXrXrXrXrXrXrXrXrXrXrXrXrXrXrXrXrXrXrXrXrX",
"rXrXrXrXrXrXrXrXrXrXrXrXrXrXrXrXrXrXrXrXrXrXC C C C C rXrXrXrXrXrXC C C C C rXrXrXrXrXrXrXrXrXrXrXrXrXrXrXrXrXrXrXrXrXrX",
"rXrXrXrXrXrXrXrXrXrXrXrXrXrXrXrXrXrXrXrXrXrXx x x x x rXrXrXrXrXrXz z z z z rXrXrXrXrXrXrXrXrXrXrXrXrXrXrXrXrXrXrXrXrXrX"
};
