/* XPM */
static char *result[] = {
/* columns rows colors chars-per-pixel */
"60 60 221 2 ",
"   c #1D2A26",
".  c #192D25",
"X  c #0C3C29",
"o  c #1C352C",
"O  c #133C2C",
"+  c #163327",
"@  c #193D30",
"#  c #222323",
"$  c #262B29",
"%  c #3B2A36",
"&  c #233530",
"*  c #2B3533",
"=  c #233C34",
"-  c #2C3E3A",
";  c #283A36",
":  c #323435",
">  c #363638",
",  c #343B39",
"<  c #38393B",
"1  c #27312D",
"2  c #491C37",
"3  c #442A3B",
"4  c #364818",
"5  c #2B481B",
"6  c #05442B",
"7  c #0B432C",
"8  c #00492C",
"9  c #0F4A27",
"0  c #12412F",
"q  c #1B4821",
"w  c #014F31",
"e  c #0C4630",
"r  c #154333",
"t  c #1D4235",
"y  c #164738",
"u  c #194639",
"i  c #184B3A",
"p  c #015335",
"a  c #00563A",
"s  c #035B3C",
"d  c #0B583A",
"f  c #115236",
"g  c #26443E",
"h  c #2C443D",
"j  c #284E3C",
"k  c #32423E",
"l  c #31572F",
"z  c #06613F",
"x  c #3D6238",
"c  c #52460C",
"v  c #54480F",
"b  c #534B18",
"n  c #58531C",
"m  c #494712",
"M  c #61531E",
"N  c #5A5524",
"B  c #545438",
"V  c #635523",
"C  c #6A582D",
"Z  c #705D37",
"A  c #695937",
"S  c #74613C",
"D  c #4E633D",
"F  c #5E1F45",
"G  c #76124C",
"H  c #7C1652",
"J  c #7D1A55",
"K  c #611C45",
"L  c #562442",
"P  c #5E264A",
"I  c #59314C",
"U  c #4A354A",
"Y  c #6A3957",
"T  c #69264E",
"R  c #7A3C63",
"E  c #1E4E43",
"W  c #035D42",
"Q  c #125343",
"!  c #1C5345",
"~  c #125B44",
"^  c #1C5944",
"/  c #1A5749",
"(  c #1B5849",
")  c #165D4C",
"_  c #234B42",
"`  c #2B4A40",
"'  c #3C4A45",
"]  c #394944",
"[  c #295244",
"{  c #225C4A",
"}  c #2A5A4A",
"|  c #245746",
" . c #38594C",
".. c #026344",
"X. c #046549",
"o. c #006B4E",
"O. c #096E49",
"+. c #0A6444",
"@. c #14614E",
"#. c #1D644C",
"$. c #126C4C",
"%. c #196A4B",
"&. c #0A734D",
"*. c #0C6A53",
"=. c #0A6951",
"-. c #106450",
";. c #1D6D53",
":. c #146B52",
">. c #027255",
",. c #0A7354",
"<. c #05755A",
"1. c #097459",
"2. c #027A5D",
"3. c #0B7A5B",
"4. c #0C7C54",
"5. c #127353",
"6. c #1E7255",
"7. c #167C5B",
"8. c #197E5B",
"9. c #147957",
"0. c #1C754A",
"q. c #23614D",
"w. c #216A51",
"e. c #2B6B54",
"r. c #3A6951",
"t. c #237255",
"y. c #297859",
"u. c #347152",
"i. c #347859",
"p. c #366C4B",
"a. c #337B61",
"s. c #444546",
"d. c #434A49",
"f. c #4A4C4D",
"g. c #474749",
"h. c #53414E",
"j. c #41524C",
"k. c #40584F",
"l. c #595648",
"z. c #4F4F51",
"x. c #545456",
"c. c #525C59",
"v. c #58595B",
"b. c #465D57",
"n. c #72405F",
"m. c #695E4D",
"M. c #4E695C",
"N. c #496759",
"B. c #50625A",
"V. c #4A705E",
"C. c #536C48",
"Z. c #7D6848",
"A. c #716D56",
"S. c #6E5266",
"D. c #4A7C63",
"F. c #4D7561",
"G. c #6C6361",
"H. c #84245D",
"J. c #991564",
"K. c #971E69",
"L. c #8F2267",
"P. c #982E70",
"I. c #9E216E",
"U. c #A52B79",
"Y. c #B4217C",
"T. c #85724D",
"R. c #876F59",
"E. c #8C7468",
"W. c #957A6A",
"Q. c #9A7D72",
"!. c #8F7972",
"~. c #0D825A",
"^. c #10895F",
"/. c #25875C",
"(. c #38815F",
"). c #2B945E",
"_. c #0C8762",
"`. c #158C63",
"'. c #138660",
"]. c #139467",
"[. c #179A69",
"{. c #179969",
"}. c #2B8D66",
"|. c #378662",
" X c #399969",
".X c #299368",
"XX c #26A46D",
"oX c #3BA36D",
"OX c #3CAC72",
"+X c #36AD72",
"@X c #28B072",
"#X c #3CB174",
"$X c #39BB76",
"%X c #36B775",
"&X c #27AB70",
"*X c #4C8350",
"=X c #458566",
"-X c #488365",
";X c #478967",
":X c #458F69",
">X c #498A69",
",X c #58866B",
"<X c #44946B",
"1X c #429A6C",
"2X c #4B9670",
"3X c #708E76",
"4X c #41A16E",
"5X c #40A470",
"6X c #4BBD7E",
"7X c #38C37A",
"8X c #9B8568",
"9X c #918567",
"0X c #8D8875",
"qX c #A48979",
"wX c #7BB78C",
"eX c #6CB389",
"rX c #90AB91",
"tX c #BBAA9C",
"yX c #879B87",
"uX c #D3B6AD",
"iX c None",
/* pixels */
"iXiXiXiXiXiXiXiXiXiXiXiXiXiXiXiXiXiXiXiX8 6 + # # # + 6 X . . X 6 + # # # + 6 8 iXiXiXiXiXiXiXiXiXiXiXiXiXiXiXiXiXiXiXiX",
"iXiXiXiXiXiXiXiXiXiXiXiXiXiXiXiXiXiXiXiX7 7 @ o o & @ 7 O     O 9 r & o & O 7 e iXiXiXiXiXiXiXiXiXiXiXiXiXiXiXiXiXiXiXiX",
"iXiXiXiXiXiXiXiXiXiXiXiXiXiXiXiX8 8 8 7 @ u ^ %.%.%.! t & 1 $ & t i %.%.%.^ t @ 7 8 8 8 iXiXiXiXiXiXiXiXiXiXiXiXiXiXiXiX",
"iXiXiXiXiXiXiXiXiXiXiXiXiXiXiXw p 8 8 r = ` 6.].].`.w.h , : > , h w.^.].{.6.` = r 8 w 8 w iXiXiXiXiXiXiXiXiXiXiXiXiXiXiX",
"iXiXiXiXiXiXiXiXiXiXiXiXiXiX8 s O.d y u { t.).XX/.q.e.i.r.j. .r.i.u.#./.XX.Xt.{ i u ~ O.z 8 iXiXiXiXiXiXiXiXiXiXiXiXiXiX",
"iXiXiXiXiXiXiXiXiXiXiXiXiX8 8 O.`.t.h [ 6.{.@X%Xi., p.+X1XM.M.1X+Xp.: i.%X@X[.6.j h ;.'.O.8 8 iXiXiXiXiXiXiXiXiXiXiXiXiX",
"iXiXiXiXiXiXiXiXiXiXiXiXiX..O.$.%.} '  .}.XX X<X(.u. X#X4XF.F.4X%X Xu.(.<X XXX}. .' } ;.$.O.s iXiXiXiXiXiXiXiXiXiXiXiXiX",
"iXiXiXiXiXiXiXiXiXiXiX8 p &.'.w.h ' f.M.oX+X;XM.:X+X$X7X4XM.M.4X7X%X+X:XM.=X+XoXV.f.' h %.^.&.p 8 iXiXiXiXiXiXiXiXiXiXiX",
"iXiXiXiXiXiXiXiXiXiXiXs z %.6.} k j.M.-X<X<XF.c.:X7X#X5X;XB.B.;X5X$X$X:Xv.F.<X<X=XV.d.] } 6.%.+.s iXiXiXiXiXiXiXiXiXiXiX",
"iXiXiXiXiXiXiXiXiX8 s &.9.q.j ' f.V.1X1X-XM.c.c.:X7X4XV.M.c.c.B.D.1X7X:Xc.c.M.-X1X1XM.f.' ` #.9.&.d 8 iXiXiXiXiXiXiXiXiX",
"iXiXiXiXiXiXiXiXiX8 s 4.^.} : j.M.-X4X<XM.v.B.F.1X7X<XB.x.x.l.x.B.<X7X1XF.B.x.M.<X4X-XM.' > { `.4.s 8 iXiXiXiXiXiXiXiXiX",
"iXiXiXiXiXiXiXiXiX8 d 4.^.{ : r.1X<X-XM.c.B.-X4X#X7X<XB.x.x.x.x.B.<X7X$X4X-XB.c.V.D.:X Xr.: { `.4.s 8 iXiXiXiXiXiXiXiXiX",
"iXiXiXiXiXiXiXiXiXp s 9.8.} < i.%X1XM.x.x.B.1X7X7X7X<XB.x.x.x.x.B.<X7X7X7X1XB.x.x.M.1X$Xi.< } 7.5.z p iXiXiXiXiXiXiXiXiX",
"iXiXiXiXiXiXiX8 s O.&.#.} ' g.(.%X1XM.x.x.M.1X7X7X7X<XB.x.x.x.x.B.<X7X7X7X1XM.x.x.M.1X$X|.d.' } #.$.O.d 8 iXiXiXiXiXiXiX",
"iXiXiXiXiXiXiX8 z ~.~.[ , s.x.;X6X1XM.x.x.M.1X7X7X7X<XB.x.x.x.x.B.<X7X7X7X1XM.x.x.M.1X$X;Xx.s.> [ 8.~.z 8 iXiXiXiXiXiXiX",
"iXiXiXiXiXiXiX8 z ~.y.[ > s.x.:X$X1XB.x.x.M.1X7X7X7X<XB.x.x.x.x.B.<X7X7X7X1XM.x.x.B.1X$X>Xx.s.> [ ~.~.z 8 iXiXiXiXiXiXiX",
"iXiXiXiXiXiXiX8 +.~.7.[ > s.c.>X$X1XN.x.x.B.1X7X7X7X<XB.x.x.x.x.B.<X7X7X7X1XM.v.z.M. X$X;Xc.s.> [ y.~.z 8 iXiXiXiXiXiXiX",
"iXiXiXiXiXiXiX8 z ~.~.[ > s.x.;X$X1XM.x.x.M.1X7X7X7X<XB.x.x.x.x.B.<X7X7X7X1XB.x.v.M.2X$X>Xx.s.> [ ~.~.z 8 iXiXiXiXiXiXiX",
"iXiXiXiXiXiXiX8 z ~.7.[ > s.x.>X$X1XM.x.x.M.1X7X7X7X1XB.x.x.x.x.B.<X7X7X7X1XM.x.v.M.1X$X=Xx.s.> [ ~.~.z 8 iXiXiXiXiXiXiX",
"iXiXiXiXiXiXiX8 z ~.7.[ < s.x.;X$X1XM.x.x.M.1X7X7X7X<XB.x.x.x.x.B.1X7X7X7X1XM.v.x.M.1X$X=Xv.g.> [ 8.~.z 8 iXiXiXiXiXiXiX",
"iXiXiXiXiXiXiX8 z ~.8.[ > s.x.;X$X1XM.x.x.M.1X7X7X7X<XB.x.x.x.x.B.<X7X7X7X1XB.x.x.B.1X$X>Xv.s.> [ 8.~.z 8 iXiXiXiXiXiXiX",
"iXiXiXiXiXiXiX8 z ~.8.` > s.x.=X%X<XM.x.x.B.1X7X7X7X<XB.x.x.x.x.B.<X7X7X7X1XM.x.x.M. X+X|.x.g.> [ 8.~.s 8 iXiXiXiXiXiXiX",
"iXiXiXiXiXiXiX8 s <.5._ < s.x.a.XX|.N.x.x.M.<X7X7X7X<XB.x.x.x.x.B.<X7X7X7X1XM.x.x.B.|.XXa.x.U > _ ,.<.s 8 iXiXiXiXiXiXiX",
"iXiXiXiXiXiXiX8 s >.*._ < U z.a.`.y.b.x.x.M.1X7X7X7X<Xc.x.x.x.x.B.<X7X7X7X1XM.z.z.b.y.].a.x.g.> _ *.>.s 8 iXiXiXiXiXiXiX",
"iXiXiXiXiXiXiX8 s >.*._ : < ' e.`.y. .g.z.M.oX7X7X7X<XB.x.x.x.x.B.<X7X7X7XoXM.z.f.' t.].e.s.< : _ *.>.s 8 iXiXiXiXiXiXiX",
"iXiXiXiXiXiXiX8 s o.*.E : : : q.`.w.` < f.M.1X7X7X7X<XB.x.x.x.x.B.2X7X7X7X1XM.g.< h 6.`.{ > : : _ *.>.s 8 iXiXiXiXiXiXiX",
"iXiXiXiXiXiXiX8 a X.X.~ _ h : q.`.;.h > U  .|.@X@X@X|.' s.s.g.s.j.a.@X@X@X|. .s.< ` ;.`.q.: h E ~ X...a 8 iXiXiXiXiXiXiX",
"iXiXiXiXiXiXiXiXiXw a X.*.E : { `.;.h : : ] t.{.[.[.t.] > > > > k t.{.{.{.y.] > : - ;.].{ : _ *.X.s w iXiXiXiXiXiXiXiXiX",
"iXiXiXiXiXiXiXiXiX8 a o.<.! : ( _.9.{ ` : h ;.].].].w.- : : : : - w.].].].;.- > ` { 7.3.{ * E <.o.p 8 iXiXiXiXiXiXiXiXiX",
"iXiXiXiXiXiXiXiXiX8 a o.1.E : / 3._.7.w.` ` ;.].].].w.- : : % : - ;.].].].;.` ` ;.7.3.3./ : ! 1.o.a 8 iXiXiXiXiXiXiXiXiX",
"iXiXiXiXiXiXiXiXiX8 p X.=./ ` / *.3._.7.{ _ #.'.'._.;._ - : * ; _ ;._.'.7.;._ { 8._.3.*.! ` / o.X.p 8 iXiXiXiXiXiXiXiXiX",
"iXiXiXiXiXiXiXiXiXiXiXW W W -./ _ ) 3.3.:.-.( | :._.1.*./ - ; / *.<._.:.[ { @.1.3.3.@._ ( -.X.s a iXiXiXiXiXiXiXiXiXiXiX",
"iXiXiXiXiXiXiXiXiXiXiX8 p X.<.~ ; E *.1.2.1./ - / <.<.2.-.g g -.2.<.<./ - / <.<.<.*.E & Q >.W p w iXiXiXiXiXiXiXiXiXiXiX",
"iXiXiXiXiXiXiXiXiXiXiXiXiXa W p r u i ) 1.<.=.) / ! -.<.-.g g -.<.-.E / ) *.<.*.) E E @ Q W W iXiXiXiXiXiXiXiXiXiXiXiXiX",
"iXiXiXiXiXiXiXiXiXiXiXiXiX8 8 8 8 0 & g -.2.2.>./ : ! <.) g g -.<./ : / >.<.2.X.g & O w 8 8 8 iXiXiXiXiXiXiXiXiXiXiXiXiX",
"iXiXiXiXiXiXiXiXiXiXiXiXiXiX8 8 8 7 @ y i Q Q Q y @ @ Q u & & u Q @ O E Q Q Q Q y @ X w 8 8 iXiXiXiXiXiXiXiXiXiXiXiXiXiX",
"iXiXiXiXiXiXiXiXiXiXiXiXiXiXiXiXiXiX8 X + #   $ X 6 X .   #       X w O     # . 7 8 iXiXiXiXiXiXiXiXiXiXiXiXiXiXiXiXiXiX",
"iXiXiXiXiXiXiXiXiXiXiXiXiXiXiXiXiX@ j - % 2 L P I U 3 L 2 2 2 2 2 L U U P F L % & @ + iXiXiXiXiXiXiXiXiXiXiXiXiXiXiXiXiX",
"iXiXiXiXiXiXiXiXiXiXiXiXiXiXiXiX# * j.I T H.L.U.U.U.L.J G G G G H L.U.U.U.K.H K % * $ # iXiXiXiXiXiXiXiXiXiXiXiXiXiXiXiX",
"iXiXiXiXiXiXiXiXiXiXiXiXiXiXiXi j  .V.v.T H.I.Y.Y.Y.P.R R Y n.n.R P.Y.Y.Y.K.H K 3 * ; t r iXiXiXiXiXiXiXiXiXiXiXiXiXiXiX",
"iXiXiXiXiXiXiXiXiXiXiXiXiXiXw 0..XoXoX>Xv.Y H.J.J.J.S.,X2X2X2X2X,Xn.J.J.J.J L 3 % h { 5.~ 8 iXiXiXiXiXiXiXiXiXiXiXiXiXiX",
"iXiXiXiXiXiXiXiXiXiXiXiXiXj p.|.6X6X$XoXV.h.T H H H.S.2X5X5XOX+X4Xv.H.H G F % : - [ y.}.%.9 9 iXiXiXiXiXiXiXiXiXiXiXiXiX",
"iXiXiXiXiXiXiXiXiXiXiXiXn A.0XrXrXeX+X/.[ > 3 L I Y v.F.>XD.D.-XF.S.Y I L 3 $ ; { i.,X3XC.4 4 iXiXiXiXiXiXiXiXiXiXiXiXiX",
"iXiXiXiXiXiXiXiXiXiXiXv V 9XuXuXuXrX X5.t $ 1 < d.c.c.c.c.c.v.v.c.B.c.' , * $ t 5.}.3XqXZ.v v iXiXiXiXiXiXiXiXiXiXiXiXiX",
"iXiXiXiXiXiXiXiXiXiXiXv M 8XuXuXuXrX/.d r 0 ! w.i.:X:X:X:X:X:X:X:X:X:Xi.w.i r 7 s 0.C.Z.Z iXiXiXiXiXiXiXiXiXiXiXiXiXiXiX",
"iXiXiXiXiXiXiXiXiXiXiXv V 8XuXuXuX0X{ 8 8 p &.{.&X7X7X$X7X$X7X7X7X7X$X&X{.&.d 8 8 9 4 v iXiXiXiXiXiXiXiXiXiXiXiXiXiXiXiX",
"iXiXiXiXiXiXiXiXiXiXiXiXM T.8X8X8XA.j 6 X 0 ! w.a.<X<X<X<X<X<X2X<X<X<X|.w.^ 0 X 7 9 4 c iXiXiXiXiXiXiXiXiXiXiXiXiXiXiXiX",
"iXiXiXiXiXiXiXiXiXiXiXiXiXM M M M N iXiX. $ * k  .B.B.B.B.B.B.c.B.B.B.' k & $   iXiXiXiXiXiXiXiXiXiXiXiXiXiXiXiXiXiXiXiX",
"iXiXiXiXiXiXiXiXiXiXiXiXiXiXv v v iXiXiX+ + g j ] B x.A.G.G.m.l.l.N.V.V.p.j @ . iXiXiXiXiXiXiXiXiXiXiXiXiXiXiXiXiXiXiXiX",
"iXiXiXiXiXiXiXiXiXiXiXiXiXiXiXiXiXiXiXiX6 e W =.l N m.E.!.E.G.A n *XOX+XoX0.f 6 iXiXiXiXiXiXiXiXiXiXiXiXiXiXiXiXiXiXiXiX",
"iXiXiXiXiXiXiXiXiXiXiXiXiXiXiXiXiXiXiXiX8 p +.%.x V T.Q.qXQ.R.C b *X+X#XOX/.f 6 iXiXiXiXiXiXiXiXiXiXiXiXiXiXiXiXiXiXiXiX",
"iXiXiXiXiXiXiXiXiXiXiXiXiXiXiXiXiXiXiXiXiXiXl N A R.E.Q.Q.!.R.C m C.V.V.V. .= . iXiXiXiXiXiXiXiXiXiXiXiXiXiXiXiXiXiXiXiX",
"iXiXiXiXiXiXiXiXiXiXiXiXiXiXiXiXiXiXiXiXiXiXc b Z.W.W.W.E.E.Z.C b D B.B.B.x $   iXiXiXiXiXiXiXiXiXiXiXiXiXiXiXiXiXiXiXiX",
"iXiXiXiXiXiXiXiXiXiXiXiXiXiXiXiXiXiXiXiXiXiXiXiXC S S S Z Z B 4 5 p.<X1X<Xu.y + iXiXiXiXiXiXiXiXiXiXiXiXiXiXiXiXiXiXiXiX",
"iXiXiXiXiXiXiXiXiXiXiXiXiXiXiXiXiXiXiXiXiXiXiXiXc c c c c c 4 q s ).7X7X7X).d 8 iXiXiXiXiXiXiXiXiXiXiXiXiXiXiXiXiXiXiXiX",
"iXiXiXiXiXiXiXiXiXiXiXiXiXiXiXiXiXiXiXiXiXiXiXiXiXc c c c c m 5 l *XwXwXwX,Xl 5 iXiXiXiXiXiXiXiXiXiXiXiXiXiXiXiXiXiXiXiX",
"iXiXiXiXiXiXiXiXiXiXiXiXiXiXiXiXiXiXiXiXiXiXiXiXiXiXiXiXiXiXiXc n 9XtXtXtX9XV m iXiXiXiXiXiXiXiXiXiXiXiXiXiXiXiXiXiXiXiX",
"iXiXiXiXiXiXiXiXiXiXiXiXiXiXiXiXiXiXiXiXiXiXiXiXiXiXiXiXiXiXiXiXM T.8X8X8XT.V iXiXiXiXiXiXiXiXiXiXiXiXiXiXiXiXiXiXiXiXiX",
"iXiXiXiXiXiXiXiXiXiXiXiXiXiXiXiXiXiXiXiXiXiXiXiXiXiXiXiXiXiXiXiXiXV V V V V iXiXiXiXiXiXiXiXiXiXiXiXiXiXiXiXiXiXiXiXiXiX",
"iXiXiXiXiXiXiXiXiXiXiXiXiXiXiXiXiXiXiXiXiXiXiXiXiXiXiXiXiXiXiXiXiXc c c c c iXiXiXiXiXiXiXiXiXiXiXiXiXiXiXiXiXiXiXiXiXiX"
};
