/* XPM */
static char *result[] = {
/* columns rows colors chars-per-pixel */
"60 60 13 1 ",
"  c #D5B195",
". c #D5B295",
"X c #D5B296",
"o c #D5B396",
"O c #D6B396",
"+ c #D6B496",
"@ c #D7B999",
"# c #D7BA99",
"$ c #D7BA9A",
"% c #D7BB9A",
"& c #D8BB9A",
"* c #D8BC9A",
"= c #D8BD9B",
/* pixels */
"============================================================",
"============================================================",
"=============================%%=============================",
"============================$  $============================",
"===========================#.  .#===========================",
"==========================#X    X#==========================",
"=========================@o      o@=========================",
"========================@o        o@========================",
"=======================@o          o@=======================",
"======================@o            o@======================",
"=====================@o              o@=====================",
"====================#o                o#====================",
"===================#X                  X#===================",
"==================$.                    .$==================",
"=================%                        %=================",
"================&                          &================",
"===============&                            &===============",
"==============%                              %==============",
"=============$                                $=============",
"============#.                                .#============",
"===========#X                                  X#===========",
"==========@o                                    o@==========",
"=========@o                                      o@=========",
"========@o                                        o@========",
"=======@o                                          o@=======",
"======@o                                            o@======",
"=====#o                                              o#=====",
"====#X                                                X#====",
"===$.                                                  .$===",
"==%                                                      %==",
"=&                           ==                           &=",
"&                          .*==*.                          &",
"                          X&====&X                          ",
"                         o%======%o                         ",
"                        O$========$O                        ",
"                       O$==========$O                       ",
"                      +$============$+                      ",
"                     +#==============#+                     ",
"                    O$================$O                    ",
"                   O$==================$O                   ",
"                  o$====================$o                  ",
"                 X%======================%X                 ",
"                .&========================&.                ",
"                *==========================*                ",
"               ==============================               ",
"              ================================              ",
"            .*================================*.            ",
"           X&==================================&X           ",
"          o%====================================%o          ",
"         O$======================================$O         ",
"        O$========================================$O        ",
"       +$==========================================$+       ",
"      +#============================================#+      ",
"     O$==============================================$O     ",
"    O$================================================$O    ",
"   o$==================================================$o   ",
"  X%====================================================%X  ",
" .&======================================================&. ",
" *========================================================* ",
"============================================================"
};
