/* XPM */
static char *result[] = {
/* columns rows colors chars-per-pixel */
"60 60 206 2 ",
"   c #1B192C",
".  c #1B1A2C",
"X  c #1C2129",
"o  c #1C2329",
"O  c #1D2428",
"+  c #16282A",
"@  c #1D3A21",
"#  c #21232A",
"$  c #23272A",
"%  c #273A23",
"&  c #373A28",
"*  c #393929",
"=  c #3F3F28",
"-  c #4B392E",
";  c #442633",
":  c #402134",
">  c #4F2438",
",  c #5E2F37",
"<  c #65293D",
"1  c #672B3D",
"2  c #692E3B",
"3  c #6B2D3C",
"4  c #623339",
"5  c #673339",
"6  c #6F303C",
"7  c #73333C",
"8  c #77363C",
"9  c #703839",
"0  c #763C3D",
"q  c #79383B",
"w  c #1F5019",
"e  c #205E14",
"r  c #235718",
"t  c #275F1A",
"y  c #285819",
"u  c #1E6314",
"i  c #1C7815",
"p  c #21720D",
"a  c #297E0B",
"s  c #216611",
"d  c #2C6516",
"f  c #276B11",
"g  c #266813",
"h  c #3D6F17",
"j  c #327612",
"k  c #0B4D24",
"l  c #145325",
"z  c #324622",
"x  c #526F1F",
"c  c #53771C",
"v  c #465C22",
"b  c #544734",
"n  c #69433F",
"m  c #824641",
"M  c #864441",
"N  c #9B4B48",
"B  c #9D4C48",
"V  c #8A5447",
"C  c #8C5849",
"Z  c #925B4C",
"A  c #A34743",
"S  c #A34843",
"D  c #A14A47",
"F  c #A44944",
"G  c #A64C45",
"H  c #A95147",
"J  c #A95247",
"K  c #A45249",
"L  c #A65548",
"P  c #A95148",
"I  c #AA5348",
"U  c #AB5448",
"Y  c #AB5748",
"T  c #A8554A",
"R  c #AC5649",
"E  c #AD574A",
"W  c #AC5B49",
"Q  c #AC584A",
"!  c #AE594A",
"~  c #AE5A4B",
"^  c #AE5B4B",
"/  c #AF5B4B",
"(  c #AD5D49",
")  c #AF5C4B",
"_  c #926651",
"`  c #956C54",
"'  c #987358",
"]  c #9A775A",
"[  c #AF604B",
"{  c #AF634B",
"}  c #B0634B",
"|  c #B2604D",
" . c #B2614D",
".. c #B3624E",
"X. c #B1654C",
"o. c #B1664C",
"O. c #B2674C",
"+. c #B2664D",
"@. c #B2674D",
"#. c #B3674E",
"$. c #B4644F",
"%. c #B5654F",
"&. c #B4674F",
"*. c #B3684D",
"=. c #B4684E",
"-. c #B5684F",
";. c #B4694F",
":. c #B56A4F",
">. c #B36450",
",. c #B56650",
"<. c #B56751",
"1. c #B66950",
"2. c #B76951",
"3. c #B66A50",
"4. c #B66B50",
"5. c #B76B50",
"6. c #B76C51",
"7. c #B76D51",
"8. c #B86A51",
"9. c #B86B52",
"0. c #B86C51",
"q. c #B96C52",
"w. c #B96D52",
"e. c #BA6E53",
"r. c #BA6F53",
"t. c #BB6F54",
"y. c #B97055",
"u. c #BB7054",
"i. c #BC7155",
"p. c #BC7255",
"a. c #BC7356",
"s. c #BB7656",
"d. c #BD7858",
"f. c #BE7859",
"g. c #BF7859",
"h. c #BD785B",
"j. c #BE795A",
"k. c #BF7A5A",
"l. c #C07B5A",
"z. c #C07D5B",
"x. c #C07E5B",
"c. c #238706",
"v. c #2B8A08",
"b. c #328C09",
"n. c #3B8F0B",
"m. c #3E900C",
"M. c #3C831C",
"N. c #41910C",
"B. c #45920D",
"V. c #4B940E",
"C. c #4C950F",
"Z. c #4F960F",
"A. c #468D10",
"S. c #428218",
"D. c #499210",
"F. c #559512",
"G. c #569416",
"H. c #5A9015",
"J. c #579911",
"K. c #589911",
"L. c #5B9A12",
"P. c #5D9B12",
"I. c #629C13",
"U. c #679E14",
"Y. c #6A9A17",
"T. c #6B9F15",
"R. c #699D17",
"E. c #6C9F15",
"W. c #639218",
"Q. c #689919",
"!. c #6DA016",
"~. c #6FA116",
"^. c #6BA61D",
"/. c #70A116",
"(. c #72A217",
"). c #73A217",
"_. c #74A318",
"`. c #76A419",
"'. c #77A51A",
"]. c #77A61B",
"[. c #78A61B",
"{. c #7BA81D",
"}. c #6A882C",
"|. c #718E31",
" X c #7B973A",
".X c #7EAB20",
"XX c #7C835F",
"oX c #80AE22",
"OX c #84B125",
"+X c #89B529",
"@X c #8CB72B",
"#X c #92BD31",
"$X c #9BC538",
"%X c #91A458",
"&X c #C3835F",
"*X c #C2845E",
"=X c #C4845F",
"-X c #C48560",
";X c #C58660",
":X c #C78B63",
">X c #C88D64",
",X c #C99066",
"<X c #C99267",
"1X c #CC9669",
"2X c #CE9A6B",
"3X c #A8CC4B",
/* pixels */
"                                                                                                                        ",
"  v }. X X X X X X X X X X X X X X X X X X X X X X X X X X X X X X X X X X X X X X X X X X X X X X X X X X X X X X%XXX  ",
"  h ^.@X@X@X@X@X@X@X@X@X@X@X@X@X@X@X@X@X@X@X@X@X@X@X@X@X@X@X@X@X@X@X@X@X@X@X@X@X@X@X@X@X@X@X@X@X@X@X@X@X@X@X@X@X@X3X%X  ",
"  s V.].oX_.).).).).).).).).).).).).).).)..X{.).).).).).).).).).).).).).).).).).).).).).).).).).).).).).).)._.oX].@X X  ",
"  s V.oX$X[.).).).).).).).).).).).).).).).#X+X).).).).).).).).).).).).).).).).).).).).).).).).).).).).).).).[.$XoX@X X  ",
"  s V._.[.).).).).).).).).).).).).).).).).'.`.).).).).).).).).).).).).).).).).).).).).).).).).).).).).).).).).[._.@X X  ",
"  s V.).).).).).).).).).).).).).).).).).).).).).).).).).).).).).)..X#X'.).).).).).).).).).).).).).).).).).).).).).@X X  ",
"  s V.).).).).).).).).).).).).).).).).).).).).).).).).).).).).).).{.+X`.).).).).).).).{.+X`.).).).).).).).).).).).@X X  ",
"  s V.).).)..X{.).).).).).).).).).).).).).).).).).).).).).).).).).).).).).).).).).).)..X#X'.).).).).).).).).).).).@X X  ",
"  s V.).).).#X+X).(.E./.).).).).).).).).).).).).).).).).).(.E./.).).).).).).).).).).).).).).).).).(.E./.).).).).).@X X  ",
"  s V.).).).'.`.).E.b.P.).).).).).).).).).).).).).).).).).E.b.P.).).).).).).).).).).).).).).).).).E.b.P.).).).).).@X X  ",
"  s V.).).).).).).T.v.L.J.n.N.!.).).).!.N.I.).).).).).).).T.v.L.).).).).C.n.C.!.N.I.).).).).).).).T.v.L.J.n.N.!.).@X X  ",
"  s V.).).).).).).R.i G.V.c.v.T.).).).T.v.L.).).).).).).).R.i G.).).).).n.c.n.T.v.L.).).).).).).).R.i G.V.c.v.T.).@X X  ",
"  s V.).).).).U.I.Q.l S.V.n.N.!.).).E.F.f H.).).).).).U.I.Q.l S.U.).).).C.n.B.F.f H.U.I.).).).).).Q.l S.V.n.N.!.).OX|.  ",
"  u D.).).).).Z.m.W.$ e A.T.T.T.T.T.F.p o c ~.).).).).Z.m.W.$ e A.T.T.T.T.T.F.p o c V.N.).).).)./.W.$ e A.T.T.T.T.Y.x   ",
"  k M.).).).).~.K.a O X r v.v.v.v.v.f o . g Z.).).).).~.K.a O X r v.v.v.v.v.f o . g V.!.).).).).P.a O X r v.v.v.v.y #   ",
"  + t n.n.n.n.n.j % 9 q - @ @ @ @ @ * q q * d n.n.n.n.n.j % 9 q - @ @ @ @ @ * q q * d n.n.n.n.n.j % 9 q - @ @ @ @ b n   ",
"  : & w w w w w z 5 L ! M , , , , , 0 ! ! 0 = w w w w w z 5 L ! M , , , , , 0 ! ! 0 = w w w w w z 5 L ! M , , , , Z _   ",
"  3 2 ; ; ; ; ; 4 U 9.e.| H H H H H ~ e.e.~ 0 ; ; ; ; ; 4 U 9.e.| H H H H H ~ e.e.~ 0 ; ; ; ; ; 4 U 9.e.| H H H H h.]   ",
"  q A F F F F F U e.e.e.e.e.e.e.e.e.e.e.e.e.) F F F F F U e.e.e.e.e.e.e.e.e.e.e.e.e.) F F F F F U e.e.e.e.e.e.e.e.;X]   ",
"  q E 8.8.8.8.8.9.e.e.e.e.e.e.e.e.e.e.e.e.e.q.8.8.8.8.8.9.e.e.e.e.e.e.e.e.e.e.e.e.e.q.8.8.8.8.8.9.e.e.e.e.e.e.e.e.;X]   ",
"  q ! e.e.e.3.=.=.=.=.=.=.3.e.e.e.e.e.e.e.e.e.e.e.e.3.=.=.=.=.=.=.3.e.e.e.e.e.e.e.e.e.e.e.e.3.=.=.=.=.=.=.3.e.e.e.;X]   ",
"  q ! w.:.:.:.:.:.:.:.:.:.:.:.:.w.e.e.e.e.e.e.w.:.:.:.:.:.:.:.:.:.:.:.:.w.e.e.e.e.e.e.w.:.:.:.:.:.:.:.:.:.:.:.:.w.;X]   ",
"  7 T 4.=.=.0.e.e.e.e.e.e.0.=.=.4.6.6.6.6.6.6.4.=.=.0.e.e.e.e.e.e.0.=.=.4.6.6.6.6.6.6.4.=.=.0.e.e.e.e.e.e.0.=.=.4.x.`   ",
"  1 B ;.e.e.e.e.e.e.e.e.e.e.e.e.;.@.@.@.@.@.@.;.e.e.e.e.e.e.e.e.e.e.e.e.;.@.@.@.@.@.@.;.e.e.e.e.e.e.e.e.e.e.e.e.;.7.C   ",
"  8 Q w.e.e.e.e.e.e.e.e.e.e.e.e.w.w.w.w.w.w.w.w.e.e.e.e.e.e.e.e.e.e.e.e.w.w.w.w.w.w.w.w.e.e.e.e.e.e.e.e.e.e.e.e.w.&X'   ",
"  q ! e.e.e.e.e.e.e.e.e.e.e.e.e.e.e.e.e.e.e.e.e.e.e.e.e.e.e.e.e.e.e.e.e.e.e.e.e.e.e.e.e.e.e.e.e.e.e.e.e.e.e.e.e.e.;X]   ",
"  q ! e.e.e.5.:.:.:.:.:.:.5.e.e.e.e.e.e.e.e.e.e.e.e.5.:.:.:.:.:.:.5.e.e.e.e.e.e.e.e.e.e.e.e.5.:.:.:.:.:.:.5.e.e.e.;X]   ",
"  q ! w.6.6.*.o.o.o.o.o.o.*.6.6.w.e.e.e.e.e.e.w.6.6.*.o.o.o.o.o.o.*.6.6.w.e.e.e.e.e.e.w.6.6.*.o.o.o.o.o.o.*.6.6.w.;X]   ",
"  8 Q 5.o.o.O.@.@.@.@.@.@.O.o.o.5.w.w.w.w.w.w.5.o.o.O.@.@.@.@.@.@.O.o.o.5.w.w.w.w.w.w.5.o.o.O.@.@.@.@.@.@.O.o.o.5.&X'   ",
"  1 B O.o.o.5.w.w.w.w.w.w.5.o.o.O.@.@.@.@.@.@.O.o.o.5.w.w.w.w.w.w.5.o.o.O.@.@.@.@.@.@.O.o.o.5.w.w.w.w.w.w.5.o.o.O.7.C   ",
"  < N *.6.6.w.e.e.e.e.e.e.w.6.6.*.o.o.o.o.o.o.*.6.6.w.e.e.e.e.e.e.w.6.6.*.o.o.o.o.o.o.*.6.6.w.e.e.e.e.e.e.w.6.6.*.:.V   ",
"  6 K 5.e.e.e.e.e.e.e.e.e.e.e.e.5.:.:.:.:.:.:.5.e.e.e.e.e.e.e.e.e.e.e.e.5.:.:.:.:.:.:.5.e.e.e.e.e.e.e.e.e.e.e.e.5.d._   ",
"  q ! e.e.e.e.e.e.e.e.e.e.e.e.e.e.e.e.e.e.e.e.e.e.e.e.e.e.e.e.e.e.e.e.e.e.e.e.e.e.e.e.e.e.e.e.e.e.e.e.e.e.e.e.e.e.;X]   ",
"  q ! e.e.e.e.e.e.e.e.e.e.e.e.e.e.e.e.e.e.e.e.e.e.e.e.e.e.e.e.e.e.e.e.e.e.e.e.e.e.e.e.e.e.e.e.e.e.e.e.e.e.e.e.e.e.;X]   ",
"  q ! e.e.e.e.e.e.e.e.e.e.e.e.e.e.e.e.e.e.e.e.e.e.e.e.e.e.e.e.e.e.e.e.e.e.e.e.e.e.e.e.e.e.e.e.e.e.e.e.e.e.e.e.e.e.;X]   ",
"  q ! e.e.e.e.e.e.e.e.e.e.e.e.e.e.e.e.e.e.e.e.e.e.e.e.e.e.e.e.e.e.e.e.e.e.e.e.e.e.e.e.e.e.e.e.e.e.e.e.e.e.e.e.e.e.;X]   ",
"  q ! e.e.e.e.e.e.e.e.e.e.e.e.e.e.e.e.e.e.e.e.e.e.e.e.e.e.e.e.e.e.e.e.e.e.e.e.e.e.e.e.e.e.e.e.e.e.e.e.e.e.e.e.e.e.;X]   ",
"  q ! e.e.e.e.e.e.e.e.e.e.e.e.e.e.e.e.e.e.e.e.e.e.e.e.e.e.e.e.e.e.e.e.e.e.e.e.e.e.e.e.e.e.e.e.e.e.e.e.e.e.e.e.e.e.;X]   ",
"  q ! e.e.e.e.e.e.e.e.e.e.e.e.e.e.e.e.e.e.e.e.e.e.e.e.e.e.e.e.e.e.e.e.e.e.e.e.e.e.e.e.e.e.e.e.e.e.e.e.e.e.e.e.e.e.;X]   ",
"  q ! e.e.e.e.e.e.e.e.e.e.e.e.e.e.e.e.e.e.e.e.e.e.e.e.e.e.e.e.e.e.e.e.e.e.e.e.e.e.e.e.e.e.e.e.e.e.e.e.e.e.e.e.e.e.;X]   ",
"  q ! e.e.e.3.=.=.=.=.=.=.3.e.e.e.e.e.e.e.e.e.e.e.e.3.=.=.=.=.=.=.3.e.e.e.e.e.e.e.e.e.e.e.e.3.=.=.=.=.=.=.3.e.e.e.;X]   ",
"  q ! w.:.:.:.:.:.:.:.:.:.:.:.:.w.e.e.e.e.e.e.w.:.:.:.:.:.:.:.:.:.:.:.:.w.e.e.e.e.e.e.w.-./ Y [ :.:.:.:.:.:.:.:.w.;X]   ",
"  7 T 4.=.=.0.e.e.e.e.e.e.1.( #.4.6.6.6.6.6.6.4.=.=.0.e.e.e.e.e.e.0.=.=.4.6.6.6.6.6.6.&.W J H <.g.e.e.e.e.0.=.=.4.x.`   ",
"  1 B ;.e.e.e.e.e.e.e.e.e.$.P 9.;.@.@.@.@.@.@.;.e.e.e.e.e.e.e.e.e.e.e.e.;.@.@.@.@.@.@.( F 8.e.;X,Xe.e.e.e.e.e.e.;.7.C   ",
"  8 Q w.e.e.e.e.e.e.e.e.e.k.<Xp.w.w.w.w.w.w.w.w.e.e.e.e.e.e.e.e.e.e.e.e.w.w.w.w.w.w.w. .F 8.e.;X,Xe.e.e.e.e.e.e.w.&X'   ",
"  q ! e.e.e.e.e.e.e.e.e.e.p.l.t.e.e.e.e.e.e.e.e.e.e.e.e.e.e.e.e.e.e.e.e.e.e.e.e.e.e.e.8.,.:X,X;Xg.e.e.e.e.e.e.e.e.;X]   ",
"  q ! e.e.e.5.:.:.:.:.:.:.5.e.e.e.e.e.e.e.e.e.e.e.e.5.:.:.:.:.:.:.5.e.e.e.e.e.e.e.e.e.e.u.=X*Xs.:.:.:.:.:.5.e.e.e.;X]   ",
"  q ! w.6.6.*.o.o.o.o.o.o.*.6.6.w.e.e.e.e.e.e.w.6.6.*.o.o.o.o.o.o.*.6.6.w.e.e.e.e.e.e.w.6.6.*.o.o.o.o.o.o.*.6.6.w.;X]   ",
"  8 Q 5.o.o.O.X.{ } +.@.@.O.o.o.5.w.w.w.w.w.w.5.o.o.O.@.@.@.@.@.@.O.o.o.5.w.w.w.w.w.w.5.o.o.O.@.@.@.@.@.@.O.o.o.5.&X'   ",
"  1 B O.o.o.5.^ S G 2.w.w.5.o.o.O.@.@.@.@.@.@.O.o.o.5.w.w.w.w.w.w.5.o.o.O.@.@.@.@.@.@.O.o.o.5.w.w.w.w.w.w.5.o.o.O.7.C   ",
"  < N *.6.6.-Xj...| I %.e.w.6.6.*.o.o.o.o.o.o.*.6.6.w.e.e.e.e.e.e.w.6.6.*.o.o.o.o.o.o.*.6.6.w.e.e.e.e.e.e.w.6.6.*.:.V   ",
"  6 K 5.e.e.,X;Xe.8.F ..e.e.e.e.5.:.:.:.:.:.:.5.e.e.e.e.e.e.e.e.e.e.e.e.5.:.:.:.:.:.:.5.e.e.e.e.e.e.e.e.$.| e.e.5.d._   ",
"  q ! e.e.e.;X;Xz.f.R %.e.e.e.e.e.e.e.e.e.e.e.e.e.e.e.e.e.e.e.e.e.e.e.e.e.e.e.e.e.e.e.e.e.e.e.e.e.e.e.e.<.>.e.e.e.;X]   ",
"  q ! e.e.e.e.=X2X1Xp.e.e.e.e.e.e.e.e.e.e.e.e.e.e.e.e.e.e.e.e.e.e.e.e.e.e.e.e.e.e.e.e.e.e.e.e.e.e.e.e.e.=X>Xe.e.e.;X]   ",
"  q ! e.e.e.e.u.a.p.r.e.e.e.e.e.e.e.e.e.e.e.e.e.e.e.e.e.e.e.e.e.e.e.e.e.e.e.e.e.e.e.e.e.e.e.e.e.e.e.e.e.u.i.e.e.e.;X]   ",
"  q ! e.e.e.e.e.e.e.e.e.e.e.e.e.e.e.e.e.e.e.e.e.e.e.e.e.e.e.e.e.e.e.e.e.e.e.e.e.e.e.e.e.e.e.e.e.e.e.e.e.e.e.e.e.e.;X]   ",
"  6 D ! ! ! ! ! ! ! ! ! ! ! ! ! ! ! ! ! ! ! ! ! ! ! ! ! ! ! ! ! ! ! ! ! ! ! ! ! ! ! ! ! ! ! ! ! ! ! ! ! ! ! ! ! ! y._   ",
"  > 6 q q q q q q q q q q q q q q q q q q q q q q q q q q q q q q q q q q q q q q q q q q q q q q q q q q q q q q m n   ",
"                                                                                                                        "
};
