/* XPM */
static char *result[] = {
/* columns rows colors chars-per-pixel */
"60 38 166 2 ",
"   c #1B192C",
".  c #251F2D",
"X  c #291F2C",
"o  c #1C2035",
"O  c #1D293E",
"+  c #1C223C",
"@  c #26202F",
"#  c #36242C",
"$  c #3D262C",
"%  c #252132",
"&  c #272539",
"*  c #29273B",
"=  c #2B293D",
"-  c #262838",
";  c #432B2D",
":  c #4A2B2C",
">  c #4C312F",
",  c #5D322C",
"<  c #482E32",
"1  c #4E3631",
"2  c #4D363C",
"3  c #533837",
"4  c #64352C",
"5  c #6E392C",
"6  c #7A3E2B",
"7  c #603B30",
"8  c #5F4134",
"9  c #7D412F",
"0  c #664434",
"q  c #744F3A",
"w  c #1C2644",
"e  c #1D2E46",
"r  c #1C2D4E",
"t  c #1E334A",
"y  c #1D3055",
"u  c #1F3B55",
"i  c #1F3E58",
"p  c #1D3359",
"a  c #2D2C40",
"s  c #313145",
"d  c #3B3747",
"f  c #36354A",
"g  c #393A4D",
"h  c #3E3F53",
"j  c #1E3D6B",
"k  c #1E3863",
"l  c #413F4F",
"z  c #4A3F45",
"x  c #1E4275",
"c  c #1F4779",
"v  c #1F487F",
"b  c #1F4873",
"n  c #204863",
"m  c #214E6B",
"M  c #204763",
"N  c #3C4565",
"B  c #21516E",
"V  c #32586C",
"C  c #204C79",
"Z  c #225776",
"A  c #225B7C",
"S  c #205179",
"D  c #5C4147",
"F  c #414256",
"G  c #46455A",
"H  c #47495C",
"J  c #49495D",
"K  c #494757",
"L  c #49555C",
"P  c #684D40",
"I  c #785844",
"U  c #786050",
"Y  c #4C4C62",
"T  c #4F5065",
"R  c #565464",
"E  c #535469",
"W  c #56596D",
"Q  c #595C71",
"!  c #4F6168",
"~  c #5D6276",
"^  c #5F6478",
"/  c #62677B",
"(  c #6F6D79",
")  c #686774",
"_  c #86432B",
"`  c #90472C",
"'  c #915D37",
"]  c #915E39",
"[  c #895836",
"{  c #B8562B",
"}  c #9F6538",
"|  c #B26F3A",
" . c #B2713C",
".. c #A36739",
"X. c #CA5D2B",
"o. c #C15A2C",
"O. c #C1783B",
"+. c #D57636",
"@. c #805C40",
"#. c #946D4C",
"$. c #97785C",
"%. c #967153",
"&. c #A07F5F",
"*. c #DD883E",
"=. c #B68254",
"-. c #B8885B",
";. c #A78463",
":. c #BA9269",
">. c #B49069",
",. c #E2A15F",
"<. c #1F4B83",
"1. c #2A5289",
"2. c #215B99",
"3. c #236282",
"4. c #246A8C",
"5. c #236688",
"6. c #356A81",
"7. c #257295",
"8. c #257599",
"9. c #25799E",
"0. c #2163A8",
"q. c #267EA3",
"w. c #216ABB",
"e. c #247ABC",
"r. c #7D7C87",
"t. c #216EC2",
"y. c #2271C8",
"u. c #247EC4",
"i. c #2276D0",
"p. c #237CD2",
"a. c #2788AF",
"s. c #2783A9",
"d. c #278AB1",
"f. c #288EB6",
"g. c #2582BD",
"h. c #288FB8",
"j. c #2893BD",
"k. c #2997C1",
"l. c #299BC5",
"z. c #299DCC",
"x. c #2483D3",
"c. c #268CD4",
"v. c #2794D6",
"b. c #289BD7",
"n. c #299ED8",
"m. c #2AA2CE",
"M. c #2AA6D2",
"N. c #2BA9D6",
"B. c #2AA3D9",
"V. c #2BADDB",
"C. c #2FB0DC",
"Z. c #34B3DE",
"A. c #38B6DF",
"S. c #3DBAE1",
"D. c #3AB7E0",
"F. c #43BEE3",
"G. c #4BC3E6",
"H. c #47C0E4",
"J. c #53C9E9",
"K. c #5BCEEB",
"L. c #5ED0EC",
"P. c #64D4EE",
"I. c #6CDAF1",
"U. c #93929B",
"Y. c #F3F3F4",
"T. c None",
/* pixels */
"T.T.T.T.T.T.T.T.T.T.T.T.T.T.T.T.T.T.T.T.T.T.T.T.T.T.T.T.T.T.T.T.T.T.T.T.T.T.T.T.T.T.T.T.T.T.T.T.T.T.T.T.T.T.T.T.T.T.T.T.",
"T.T.T.T.T.T.T.T.T.T.T.T.T.T.T.T.T.T.T.T.T.T.T.T.T.T.T.T.T.T.T.T.T.T.T.T.T.T.T.T.T.T.T.T.T.T.T.T.T.T.T.T.T.T.T.T.T.T.T.T.",
"T.T.T.T.T.T.T.T.T.T.T.T.T.T.T.T.T.T.T.T.T.T.T.T.T.T.T.T.T.T.T.T.T.T.T.T.T.T.T.T.T.T.T.T.T.T.T.T.T.T.T.T.T.T.T.T.T.T.T.T.",
"T.T.T.T.T.T.T.T.T.T.T.T.T.T.T.T.T.T.T.T.T.T.T.T.T.T.T.T.T.T.T.T.T.T.T.T.T.T.T.T.T.T.T.T.T.T.T.T.T.T.T.T.T.T.T.T.T.T.T.T.",
"T.T.T.T.T.T.T.T.T.T.T.T.T.T.T.T.T.T.T.T.T.T.T.T.T.T.T.T.T.T.T.T.T.T.T.T.T.T.T.T.T.T.T.T.T.T.T.T.T.T.T.T.T.T.T.T.T.T.T.T.",
"T.T.T.T.T.T.T.T.T.T.T.T.T.T.T.T.T.T.T.T.T.T.T.T.T.T.T.T.T.T.T.T.T.T.T.T.T.T.T.T.T.T.T.T.T.T.T.T.T.T.T.T.T.T.T.T.T.T.T.T.",
"T.T.T.T.T.T.T.T.T.T.T.T.T.T.T.T.T.T.T.T.T.T.T.T.T.T.T.T.T.T.T.T.T.T.T.T.T.T.T.T.T.T.T.T.T.T.T.T.T.T.T.T.T.T.T.T.T.T.T.T.",
"T.T.T.T.T.T.T.T.T.T.T.T.T.T.T.T.T.T.T.T.T.T.T.                            T.T.T.T.T.T.T.T.T.T.T.T.T.T.T.T.T.T.T.T.T.T.T.",
"T.T.T.T.T.T.T.T.T.T.T.T.T.T.T.T.T.T.T.T.T.T.T.n n n n n n n n M n n n n n T.T.T.T.T.T.T.T.T.T.T.T.T.T.T.T.T.T.T.T.T.T.T.",
"T.T.T.T.T.T.T.T.T.T.T.T.T.T.T.T.T.T.T.T.    i M.V.V.V.V.V.V.V.V.V.V.V.V.M.i       T.T.T.T.T.T.T.T.T.T.T.T.T.T.T.T.T.T.T.",
"T.T.T.T.T.T.T.T.T.T.T.T.T.T.T.T.T.    e 7.q.d.V.V.V.V.V.V.V.V.V.V.V.V.V.V.a.q.q.q.B     T.T.T.T.T.T.T.T.T.T.T.T.T.T.T.T.",
"T.T.T.T.T.T.T.T.T.T.T.T.T.T.T.T.T.n B A m.V.V.V.V.V.V.V.V.V.V.V.V.V.V.V.V.V.V.V.V.9.m B u T.T.T.T.T.T.T.T.T.T.T.T.T.T.T.",
"T.T.T.T.T.T.T.T.T.T.T.T.T.T.T.T.O d.V.V.C.C.V.V.V.V.V.V.V.V.V.V.V.V.V.V.V.V.V.V.V.V.V.V.B o T.T.T.T.T.T.T.T.T.T.T.T.T.T.",
"T.T.T.T.T.T.T.T.T.T.T.T.T.T.T.M d.m.V.Z.J.L.G.C.V.V.V.V.V.V.V.V.V.V.V.V.V.V.V.V.V.V.V.V.j.4.  T.T.T.T.T.T.T.T.T.T.T.T.T.",
"T.T.T.T.T.T.T.T.T.T.T.T.T.T.m 8.V.V.Z.G.P.I.P.H.Z.Z.F.Z.V.V.V.V.V.V.V.V.V.V.V.V.V.V.V.V.V.h.Z t T.T.T.T.T.T.T.T.T.T.T.T.",
"T.T.T.T.T.T.T.T.T.T.T.T.T.O q.V.V.V.G.I.I.I.I.I.H.S.P.D.V.V.V.V.V.V.V.V.V.V.V.V.V.V.V.V.V.V.N.n O T.T.T.T.T.T.T.T.T.T.T.",
"T.T.T.T.T.T.T.T.T.T.T.T.u a.m.V.V.V.H.I.I.I.I.I.H.V.A.V.V.V.V.V.V.V.V.V.V.V.V.V.V.V.V.V.V.V.V.k.3.  T.T.T.T.T.T.T.T.T.T.",
"T.T.T.T.T.T.T.T.T.T.T.  i M.V.V.V.V.D.J.P.I.P.J.A.V.V.V.V.V.V.V.V.V.V.V.V.V.V.V.V.V.V.V.V.V.V.V.4.  T.T.T.T.T.T.T.T.T.T.",
"T.T.T.T.T.T.T.T.T.T.T.e B M.V.C.Z.Z.Z.Z.L.L.J.C.V.V.V.V.V.V.V.V.V.V.V.V.V.V.V.V.V.V.V.V.V.V.V.V.8.e T.T.T.T.T.T.T.T.T.T.",
"T.T.T.T.T.T.T.T.T.T.  A m.V.C.S.P.P.H.V.Z.A.Z.V.V.V.V.V.V.V.V.V.V.V.V.V.V.V.V.V.V.V.V.V.V.V.V.V.m.a.e T.T.T.T.T.T.T.T.T.",
"T.T.T.T.T.T.T.T.T.T.  4.V.V.V.F.I.I.G.V.V.V.V.V.V.V.V.V.V.V.V.V.V.V.V.V.V.V.V.V.V.V.V.V.V.V.V.V.V.k.e T.T.T.T.T.T.T.T.T.",
"T.T.T.T.T.T.T.T.T.T.  4.V.V.V.A.L.L.H.N.j.h.h.h.f.f.f.h.h.h.f.h.f.f.z.B.V.V.V.V.V.V.V.V.V.V.V.V.V.k.e T.T.T.T.T.T.T.T.T.",
"T.T.T.T.T.T.T.T.T.T.  4.V.V.V.V.Z.Z.C.l.i - O O O O O O O O O O O O 2.c.V.V.V.V.V.V.V.V.V.V.V.V.V.k.e T.T.T.T.T.T.T.T.T.",
"T.T.T.T.T.T.T.T.T.e 5.j.V.V.V.N.N.4.Z V q %.$.$.$.#.' %.#.' ' ' ' ] J C A e.b.V.V.V.V.V.V.V.V.V.V.m.2.k T.T.T.T.T.T.T.T.",
"T.T.T.T.T.T.T.T.T.t k.V.V.V.V.m.s.L 3 8 ..=.:.:.:.-. .-.=.| | | | | 0 : < 1.e.n.V.V.V.V.V.V.B.B.V.B.x.x   T.T.T.T.T.T.T.",
"T.T.T.T.T.T.T.T.T.e k.V.V.V.N.s.- >.,.O.; @ % % @ @ @ @ @ @ @ @ . . ` X.o.< C i.B.V.V.V.V.n.i.B.V.B.p.c   T.T.T.T.T.T.T.",
"T.T.T.T.T.T.T.T.T.e k.V.V.V.7.E ;.U P 8 d g f f f f f f f f s f f f 2 4 4 _ z C u.n.V.V.V.B.b.B.V.z.C y T.T.T.T.T.T.T.T.",
"T.T.T.T.T.T.T.T.T.e k.V.m.s.L I ;.z * a F L T T T T T T T T T T R Y f & = _ _ 2 1.u.n.V.B.b.b.V.V.k.e T.T.T.T.T.T.T.T.T.",
"T.T.T.T.T.T.T.T.T.e k.V.a.o } }   h F G H W ^ / / / / / / / / / / / R G G & 5 { # <.x.V.c.i.i.B.V.k.e T.T.T.T.T.T.T.T.T.",
"T.T.T.T.T.T.T.T.T.t k.V.a.o } ..  h Y l = = s s s F / F s s s s g / ~ Q W = 5 { # <.x.V.c.y.i.B.n.e.w T.T.T.T.T.T.T.T.T.",
"T.T.T.T.T.T.T.T.T.e k.h.6.0 [ q a h Y G - K ( ( d f ^ = F ( ( F = / / / / g 3 _ 4 N 0.v.c.c.c.B.v.w.w T.T.T.T.T.T.T.T.T.",
"T.T.T.T.T.T.T.T.T.e k.A 1 *.3 a G G E W - U.Y.Y.) f ( = ( Y.Y.r.= / / / / Y s # { 5 y y.v.V.V.V.v.w.w T.T.T.T.T.T.T.T.T.",
"T.T.T.T.T.T.T.T.T.e k.S 1 *.0 * G G E Q G J R R G J / G G R R K G ^ / / / ~ h # { 5 y y.n.V.V.c.p.w.w T.T.T.T.T.T.T.T.T.",
"T.T.T.T.T.T.T.T.T.e k.S < +.7 * Y G E Q W G g g J W / W G g g J W / / / / / F # { 5 y y.c.v.v.x.i.t.v p T.T.T.T.T.T.T.T.",
"T.T.T.T.T.T.T.T.T.w 0.j : X., * G G E / / / / / / / / / / / / / / / / / / / F # { 5 y y.i.i.y.i.y.t.w.x   T.T.T.T.T.T.T.",
"T.T.T.T.T.T.T.T.T.T.r + : X., a G G E / / / / / / / / / / / / / / / / / / / F # { 5 y y.i.i.i.i.2.r r w T.T.T.T.T.T.T.T.",
"T.T.T.T.T.T.T.T.T.T.T.  $ 6 $ % s s g h F F F F F F F F F F F F F F F F F F s @ 5 : w v <.<.<.<.j     T.T.T.T.T.T.T.T.T.",
"T.T.T.T.T.T.T.T.T.T.T.T.T.                                                                        T.T.T.T.T.T.T.T.T.T.T."
};
