/* XPM */
static char *result[] = {
/* columns rows colors chars-per-pixel */
"60 60 98 2 ",
"   c #1F1C2B",
".  c #1B192C",
"X  c #1B192D",
"o  c #1C1A2C",
"O  c #231F2B",
"+  c #2F2127",
"@  c #27212A",
"#  c #23202C",
"$  c #24212C",
"%  c #24212D",
"&  c #24222F",
"*  c #2C2028",
"=  c #2F2B2C",
"-  c #3B2624",
";  c #382C27",
":  c #322828",
">  c #322A29",
",  c #332B2A",
"<  c #332C2B",
"1  c #342E2C",
"2  c #342F2C",
"3  c #342F2D",
"4  c #34302F",
"5  c #39332B",
"6  c #3A352D",
"7  c #242230",
"8  c #363235",
"9  c #363336",
"0  c #363338",
"q  c #373438",
"w  c #3E3A38",
"e  c #59321D",
"r  c #643519",
"t  c #4B2B20",
"y  c #403126",
"u  c #413327",
"i  c #4C3021",
"p  c #423729",
"a  c #43392A",
"s  c #423C2C",
"d  c #433D2D",
"f  c #443C2C",
"g  c #443D2D",
"h  c #443E2D",
"j  c #503B23",
"k  c #503D24",
"l  c #403E3C",
"z  c #79551C",
"x  c #7D581C",
"c  c #554D2D",
"v  c #665C2D",
"b  c #685E31",
"n  c #373646",
"m  c #5C584F",
"M  c #52505E",
"N  c #797148",
"B  c #5D5C69",
"V  c #5E5C6A",
"C  c #A85A0C",
"Z  c #BB5603",
"A  c #B87E12",
"S  c #C16606",
"D  c #B98013",
"F  c #BC8918",
"G  c #AA992F",
"H  c #BAA72F",
"J  c #CC830C",
"K  c #C8880F",
"L  c #CF8C0E",
"P  c #C0971F",
"I  c #CD9919",
"U  c #D19211",
"Y  c #D0A31E",
"T  c #C3A024",
"R  c #C3AF2F",
"E  c #C7AE2C",
"W  c #D3AD24",
"Q  c #C8B22E",
"!  c #C9B52F",
"~  c #DCBD29",
"^  c #D9C330",
"/  c #DDC83B",
"(  c #E0C32C",
")  c #E5CF3B",
"_  c #DECA42",
"`  c #E8D54B",
"'  c #E8DA6D",
"]  c #E9DD75",
"[  c #EBE07C",
"{  c #EDE487",
"}  c #F7ED8B",
"|  c #F7EE90",
" . c #F8F09E",
".. c #F6F4E1",
"X. c #FDFBE7",
"o. c #FEFDF5",
"O. c #FFFEFA",
"+. c None",
/* pixels */
"+.+.+.+.+.+.+.+.+.+.+.+.+.+.+.+.+.+.+.+.+.+.+.+.+.+.+.+.+.+.+.+.+.+.+.+.+.+.+.+.+.+.+.+.+.+.+.+.+.+.+.+.+.+.+.+.+.+.+.+.",
"+.+.+.+.+.+.+.+.+.+.+.+.+.+.+.+.+.+.+.+.+.+.+.+.+.+.+.+.+.+.+.+.+.+.+.+.+.+.+.+.+.+.+.+.+.+.+.+.+.+.+.+.+.+.+.+.+.+.+.+.",
"+.+.+.+.+.+.+.+.+.+.+.+.+.+.+.+.+.+.+.+.+.+.+.+.+.+.+.+.+.+.+.+.+.+.+.+.+.+.+.+.+.+.+.+.+.+.+.+.+.+.+.+.+.+.+.+.+.+.+.+.",
"+.+.+.+.+.+.+.+.+.+.+.+.+.+.+.+.+.+.+.+.+.+.+.+.+.+.+.+.+.+.+.+.+.+.+.+.+.+.+.+.+.+.+.+.+.+.+.+.+.+.+.+.+.+.+.+.+.+.+.+.",
"+.+.+.+.+.+.+.+.+.+.+.+.+.+.+.+.+.+.+.+.+.+.+.+.+.+.+.+.+.+.+.+.+.+.+.+.+.+.+.+.+.+.+.+.+.+.+.+.+.+.+.+.+.+.+.+.+.+.+.+.",
"+.+.+.+.+.+.+.+.+.+.+.+.+.+.+.+.+.+.+.+.+.+.+.+.+.+.+.+.+.+.+.+.+.+.+.+.+.+.+.+.+.+.+.+.+.+.+.+.+.+.+.+.+.+.+.+.+.+.+.+.",
"+.+.+.+.+.+.+.+.+.+.+.+.+.+.+.+.+.+.+.+.+.+.+.+.+.+.+.+.+.+.+.+.+.+.+.+.+.+.+.+.+.+.+.+.+.+.+.+.+.+.+.+.+.+.+.+.+.+.+.+.",
"+.+.+.+.+.+.+.+.+.+.+.+.+.+.+.+.+.+.+.+.+.+.+.+.+.+.+.+.+.+.+.+.+.+.+.+.+.+.+.+.+.+.+.+.+.+.+.+.+.+.+.+.+.+.+.+.+.+.+.+.",
"+.+.+.+.+.+.+.+.+.+.+.+.+.+.+.+.+.+.+.+.+.+.+.+.+.+.+.+.+.+.+.+.+.+.+.+.+.+.+.+.+.+.+.+.+.+.+.+.+.+.+.+.+.+.+.+.+.+.+.+.",
"+.+.+.+.+.+.+.+.+.+.+.+.+.+.+.+.+.+.+.+.+.+.+.+.+.+.+.+.+.+.+.+.+.+.+.+.+.+.+.+.+.+.+.+.+.+.+.+.+.+.+.+.+.+.+.+.+.+.+.+.",
"+.+.+.+.+.+.+.+.+.+.+.q n n +.+.+.+.+.+.+.+.+.+.+.+.+.+.+.+.+.+.+.+.+.+.+.+.+.+.+.+.+.+.+.+.+.+.+.+.+.+.+.+.+.+.+.+.+.+.",
"+.+.+.+.+.+.+.+.+.+.w | o.O.M +.+.+.+.+.+.+.+.+.+.+.+.+.+.+.+.+.+.+.+.+.+.+.+.+.+.+.+.+.+.+.+.+.+.+.+.+.+.+.+.+.+.+.+.+.",
"+.+.+.+.+.+.+.+.+.d / } | | ..B +.+.+.+.+.+.+.+.+.+.+.+.+.+.+.+.+.+.+.+.+.+.+.+.+.+.+.+.+.+.+.+.+.+.+.+.+.+.+.+.+.+.+.+.",
"+.+.+.+.+.+.+.+.+.h ) } } } X.V +.+.+.+.+.+.+.+.+.+.+.+.+.+.+.+.+.+.+.+.+.+.+.+.+.+.+.+.+.+.+.+.+.+.+.+.+.+.+.+.+.+.+.+.",
"+.+.+.+.+.+.+.+.+.h ) } } }  .m +.+.+.+.+.+.+.+.+.+.+.+.+.+.+.+.+.+.+.+.+.+.+.+.+.+.+.+.+.+.+.+.+.+.+.+.+.+.+.+.+.+.+.+.",
"+.+.+.+.+.+.+.+.+.+.b ` ` ` N l +.+.+.+.+.+.+.+.+.+.+.+.+.+.+.+.+.+.+.+.+.+.+.+.+.+.+.+.+.+.+.+.+.+.+.+.+.+.+.+.+.+.+.+.",
"+.+.+.+.+.+.+.+.+.+.+.v v v 5 +.+.+.+.+.+.+.+.+.+.+.+.+.+.+.+.+.+.+.+.+.+.+.+.+.+.+.+.+.+.+.+.+.+.+.+.+.+.+.+.+.+.+.+.+.",
"+.+.+.+.+.+.+.+.+.+.+.  z @ +.+.+.+.+.+.+.+.+.+.+.+.+.+.+.+.+.+.+.+.+.+.+.+.+.+.+.+.+.+.+.+.+.+.+.+.+.+.+.+.+.+.+.+.+.+.",
"+.+.+.+.+.+.+.+.+.+.+.O Y , +.+.+.+.+.+.+.+.+.+.+.+.+.+.+.+.+.+.+.+.+.+.+.+.+.+.+.+.+.+.+.+.+.+.+.+.+.+.+.+.+.+.+.+.+.+.",
"+.+.+.+.+.+.+.+.+.+.+.# W < +.+.+.+.+.+.+.+.+.+.+.+.+.+.+.+.+.+.+.+.+.+.+.+.+.+.+.+.+.+.+.+.+.+.+.+.+.+.+.+.+.+.+.+.+.+.",
"+.+.+.+.+.+.+.+.+.+.+.O I > +.+.+.+.+.+.+.+.+.+.+.+.+.+.+.+.+.+.+.+.+.+.+.+.+.+.+.+.+.+.+.+.+.+.+.+.+.+.+.+.+.+.+.+.+.+.",
"+.+.+.+.+.+.+.+.+.+.+.$ ^ 2 +.+.+.+.+.+.+.+.+.+.+.+.+.+.+.+.+.+.+.+.+.+.+.+.+.+.+.+.+.+.+.+.+.+.+.+.+.+.+.+.+.+.+.+.+.+.",
"+.+.+.+.+.+.+.+.+.+.+.$ ^ 2 +.+.+.+.+.+.+.+.+.+.+.+.+.+.+.+.+.+.+.+.+.+.+.+.+.+.+.+.+.+.+.+.+.+.+.+.+.+.+.+.+.+.+.+.+.+.",
"+.+.+.+.+.+.+.+.+.+.+.$ ^ 2 +.+.+.+.+.+.+.+.+.+.+.+.+.+.+.+.+.+.+.+.+.+.+.+.+.+.+.+.+.+.+.+.+.+.+.+.+.+.+.+.+.+.+.+.+.+.",
"+.+.+.+.+.+.+.+.+.+.+.$ ^ 2 +.+.+.+.+.+.+.+.+.+.+.+.+.+.+.+.+.+.+.+.+.+.+.+.+.+.+.+.+.+.+.+.+.+.+.+.+.+.+.+.+.+.+.+.+.+.",
"+.+.+.+.+.+.+.+.+.+.3 R 6 +.+.+.+.+.+.+.+.+.+.+.+.+.+.+.+.+.+.+.+.+.+.+.+.+.+.+.+.+.+.+.+.+.+.+.+.+.+.+.+.+.+.+.+.+.+.+.",
"+.+.+.+.+.+.+.+.+.+.9 ] & +.+.+.+.+.+.+.+.+.+.+.+.+.+.+.+.+.+.+.+.+.+.+.+.+.+.+.+.+.+.+.+.+.+.+.+.+.+.+.+.+.+.+.+.+.+.+.",
"+.+.+.+.+.+.+.+.+.+.0 { 7 +.+.+.+.+.+.+.+.+.+.+.+.+.+.+.+.+.+.+.+.+.+.+.+.+.+.+.+.+.+.+.+.+.+.+.+.+.+.+.+.+.+.+.+.+.+.+.",
"+.+.+.+.+.+.+.+.+.+.0 { 7 +.+.+.+.+.+.+.+.+.+.+.+.+.+.+.+.+.+.+.+.+.+.+.+.+.+.+.+.+.+.+.+.+.+.+.+.+.+.+.+.+.+.+.+.+.+.+.",
"+.+.+.+.+.+.+.+.+.+.0 { 7 +.+.+.+.+.+.+.+.+.+.+.+.+.+.+.+.+.+.+.+.+.+.+.+.+.+.+.+.+.+.+.+.+.+.+.+.+.+.+.+.+.+.+.+.+.+.+.",
"+.+.+.+.+.+.+.+.+.+.0 { 7 +.+.+.+.+.+.+.+.+.+.+.+.+.+.+.+.+.+.+.+.+.+.+.+.+.+.+.+.+.+.+.+.+.+.+.+.+.+.+.+.+.+.+.+.+.+.+.",
"+.+.+.+.+.+.+.+.+.+.0 { 7 +.+.+.+.+.+.+.+.+.+.+.+.+.+.+.+.+.+.+.+.+.+.+.+.+.+.+.+.+.+.+.+.+.+.+.+.+.+.+.+.+.+.+.+.+.+.+.",
"+.+.+.+.+.+.+.+.+.+.8 ' & +.+.+.+.+.+.+.+.+.+.+.+.+.+.+.+.+.+.+.+.+.+.+.+.+.+.+.+.+.+.+.+.+.+.+.+.+.+.+.+.+.+.+.+.+.+.+.",
"+.+.+.+.+.+.+.+.+.+.4 _ % +.+.+.+.+.+.+.+.+.+.+.+.+.+.+.+.+.+.+.+.+.+.+.+.+.+.+.+.+.+.+.+.+.+.+.+.+.+.+.+.+.+.+.+.+.+.+.",
"+.+.+.+.+.+.+.+.+.+.9 [ 7 +.+.+.+.+.+.+.+.+.+.+.+.+.+.+.+.+.+.+.+.+.+.+.+.+.+.+.+.+.+.+.+.+.+.+.+.+.+.+.+.+.+.+.+.+.+.+.",
"+.+.+.+.+.+.+.+.+.+.2 ^ $ +.+.+.+.+.+.+.+.+.+.+.+.+.+.+.+.+.+.+.+.+.+.+.+.+.+.+.+.+.+.+.+.+.+.+.+.+.+.+.+.+.+.+.+.+.+.+.",
"+.+.+.+.+.+.+.+.+.+.2 ^ $ +.+.+.+.+.+.+.+.+.+.+.+.+.+.+.+.+.+.+.+.+.+.+.+.+.+.+.+.+.+.+.+.+.+.+.+.+.+.+.+.+.+.+.+.+.+.+.",
"+.+.+.+.+.+.+.+.+.+.2 ^ $ +.+.+.+.+.+.+.+.+.+.+.+.+.+.+.+.+.+.+.+.+.+.+.+.+.+.+.+.+.+.+.+.+.+.+.+.+.+.+.+.+.+.+.+.+.+.+.",
"+.+.+.+.+.+.+.+.+.s G d +.+.+.+.+.+.+.+.+.+.+.+.+.+.+.+.+.+.+.+.+.+.+.+.+.+.+.+.+.+.+.+.+.+.+.+.+.+.+.+.+.+.+.+.+.+.+.+.",
"+.+.+.+.+.+.+.+.+.h ! . +.+.+.+.+.+.+.+.+.+.+.+.+.+.+.+.+.+.+.+.+.+.+.+.+.+.+.+.+.+.+.+.+.+.+.+.+.+.+.+.+.+.+.+.+.+.+.+.",
"+.+.+.+.+.+.+.+.+.h ! . +.+.+.+.+.+.+.+.+.+.+.+.+.+.+.+.+.+.+.+.+.+.+.+.+.+.+.+.+.+.+.+.+.+.+.+.+.+.+.+.+.+.+.+.+.+.+.+.",
"+.+.+.+.+.+.+.+.+.h ! . +.+.+.+.+.+.+.+.+.+.+.+.+.+.+.+.+.+.+.+.+.+.+.+.+.+.+.+.+.+.+.+.+.+.+.+.+.+.+.+.+.+.+.+.+.+.+.+.",
"+.+.+.+.+.+.+.+.+.h ! . +.+.+.+.+.+.+.+.+.+.+.+.+.+.+.+.+.+.+.+.+.+.+.+.+.+.+.+.+.+.+.+.+.+.+.+.+.+.+.+.+.+.+.+.+.+.+.+.",
"+.+.+.+.+.+.+.+.+.h ! . +.+.+.+.+.+.+.+.+.+.+.+.+.+.+.+.+.+.+.+.+.+.+.+.+.+.+.+.+.+.+.+.+.+.+.+.+.+.+.+.+.+.+.+.+.+.+.+.",
"+.+.+.+.+.+.+.+.+.h ! . +.+.+.+.+.+.+.+.+.+.+.+.+.+.+.+.+.+.+.+.+.+.+.+.+.+.+.+.+.+.+.+.+.+.+.+.+.+.+.+.+.+.+.+.+.+.+.+.",
"+.+.+.+.+.+.+.+.+.h ! . +.+.+.+.+.+.+.+.+.+.+.+.+.+.+.+.+.+.+.+.+.+.+.+.+.+.+.+.+.+.+.+.+.+.+.+.+.+.+.+.+.+.+.+.+.+.+.+.",
"+.+.+.+.+.+.+.+.+.h ! . +.+.+.+.+.+.+.+.+.+.+.+.+.+.+.+.+.+.+.+.+.+.+.+.+.+.+.+.+.+.+.+.+.+.+.+.+.+.+.+.+.+.+.+.+.+.+.+.",
"+.+.+.+.+.+.+.+.+.g Q . +.+.+.+.+.+.+.+.+.+.+.+.+.+.+.+.+.+.+.+.+.+.+.+.+.+.+.+.+.+.+.+.+.+.+.+.+.+.+.+.+.+.+.+.+.+.+.+.",
"+.+.+.+.+.+.+.+.+.y D . +.+.+.+.+.+.+.+.+.+.+.+.+.+.+.+.+.+.+.+.+.+.+.+.+.+.+.+.+.+.+.+.+.+.+.+.+.+.+.+.+.+.+.+.+.+.+.+.",
"+.+.+.+.+.+.+.+.+.f E . +.+.+.+.+.+.+.+.+.+.+.+.+.+.+.+.+.+.+.+.+.+.+.+.+.+.+.+.+.+.+.+.+.+.+.+.+.+.+.+.+.+.+.+.+.+.+.+.",
"+.+.+.+.+.+.+.+.+.u F . +.+.+.+.+.+.+.+.+.+.+.+.+.+.+.+.+.+.+.+.+.+.+.+.+.+.+.+.+.+.+.+.+.+.+.+.+.+.+.+.+.+.+.+.+.+.+.+.",
"+.+.+.+.+.+.+.+.+.y A . +.+.+.+.+.+.+.+.+.+.+.+.+.+.+.+.+.+.+.+.+.+.+.+.+.+.+.+.+.+.+.+.+.+.+.+.+.+.+.+.+.+.+.+.+.+.+.+.",
"+.+.+.+.+.+.+.+.+.a T . +.+.+.+.+.+.+.+.+.+.+.+.+.+.+.+.+.+.+.+.+.+.+.+.+.+.+.+.+.+.+.+.+.+.+.+.+.+.+.+.+.+.+.+.+.+.+.+.",
"+.+.+.+.+.+.+.+.+.p P . +.+.+.+.+.+.+.+.+.+.+.+.+.+.+.+.+.+.+.+.+.+.+.+.+.+.+.+.+.+.+.+.+.+.+.+.+.+.+.+.+.+.+.+.+.+.+.+.",
"+.+.+.+.+.+.+.+.+.y A . +.+.+.+.+.+.+.+.+.+.+.+.+.+.+.+.+.+.+.+.+.+.+.+.+.+.+.+.+.+.+.+.+.+.+.+.+.+.+.+.+.+.+.+.+.+.+.+.",
"+.+.+.+.+.+.+.+.X : x . +.+.+.+.+.+.+.+.+.+.+.+.+.+.+.+.+.+.+.+.+.+.+.+.+.+.+.+.+.+.+.+.+.+.+.+.+.+.+.+.+.+.+.+.+.+.+.+.",
"+.+.+.+.+.+.+.- i j k c c +.+.+.+.+.+.+.+.+.+.+.+.+.+.+.+.+.+.+.+.+.+.+.+.+.+.+.+.+.+.+.+.+.+.+.+.+.+.+.+.+.+.+.+.+.+.+.",
"+.+.+.+.+.+.+.t C J U ~ H = +.+.+.+.+.+.+.+.+.+.+.+.+.+.+.+.+.+.+.+.+.+.+.+.+.+.+.+.+.+.+.+.+.+.+.+.+.+.+.+.+.+.+.+.+.+.",
"+.+.+.+.+.+.* + e S L K ; 1 +.+.+.+.+.+.+.+.+.+.+.+.+.+.+.+.+.+.+.+.+.+.+.+.+.+.+.+.+.+.+.+.+.+.+.+.+.+.+.+.+.+.+.+.+.+.",
"+.+.+.+.+.o r Z S L L L L ( h +.+.+.+.+.+.+.+.+.+.+.+.+.+.+.+.+.+.+.+.+.+.+.+.+.+.+.+.+.+.+.+.+.+.+.+.+.+.+.+.+.+.+.+.+."
};
