/* XPM */
static char *result[] = {
/* columns rows colors chars-per-pixel */
"60 60 152 2 ",
"   c #1B192B",
".  c #1B1A2B",
"X  c #1C1A2B",
"o  c #1A192C",
"O  c #1B192C",
"+  c #1B1A2C",
"@  c #1C1A2C",
"#  c #1D1B2E",
"$  c #1D1C2E",
"%  c #201B2B",
"&  c #201E32",
"*  c #211F32",
"=  c #211F33",
"-  c #2F2127",
";  c #24202C",
":  c #24212C",
">  c #382B27",
",  c #3C2E27",
"<  c #332C2B",
"1  c #322D2D",
"2  c #232134",
"3  c #252337",
"4  c #272638",
"5  c #28263A",
"6  c #2A293A",
"7  c #2B293E",
"8  c #2C2B3D",
"9  c #2D2B3F",
"0  c #2D2C3F",
"q  c #363338",
"w  c #492A20",
"e  c #4F3923",
"r  c #463F2D",
"t  c #503B23",
"y  c #503B24",
"u  c #513F25",
"i  c #684A1F",
"p  c #6D4D1E",
"a  c #74521D",
"s  c #48422C",
"d  c #514026",
"f  c #524328",
"g  c #534629",
"h  c #54482A",
"j  c #554B2C",
"k  c #554C2D",
"l  c #554D2D",
"z  c #574F33",
"x  c #63592D",
"c  c #62582E",
"v  c #665C2D",
"b  c #2D2C40",
"n  c #313042",
"m  c #323142",
"M  c #333243",
"N  c #373543",
"B  c #343346",
"V  c #373646",
"C  c #363449",
"Z  c #383749",
"A  c #383849",
"S  c #3A394D",
"D  c #3D3C51",
"F  c #4B4741",
"G  c #5A5440",
"H  c #5A5542",
"J  c #5B5644",
"K  c #5B5748",
"L  c #404051",
"P  c #46455B",
"I  c #4C4C61",
"U  c #505160",
"Y  c #505063",
"T  c #515163",
"R  c #535462",
"E  c #525266",
"W  c #515464",
"Q  c #58596A",
"!  c #595C6A",
"~  c #60626F",
"^  c #626471",
"/  c #686A7B",
"(  c #76757F",
")  c #94470D",
"_  c #AC5509",
"`  c #BB5603",
"'  c #AA7414",
"]  c #AA7615",
"[  c #AD7F1A",
"{  c #877A2E",
"}  c #C57A0C",
"|  c #807C62",
" . c #AE831C",
".. c #B18B21",
"X. c #B39325",
"o. c #B7A02C",
"O. c #B8A42E",
"+. c #B9A62F",
"@. c #BCAC3E",
"#. c #CB820C",
"$. c #CC850D",
"%. c #CE8A0E",
"&. c #CF8C0E",
"*. c #C7AF2D",
"=. c #D9AE20",
"-. c #DAAF21",
";. c #D1BC30",
":. c #D9C330",
">. c #908649",
",. c #C4B962",
"<. c #C6BC68",
"1. c #C7BE6E",
"2. c #D6C447",
"3. c #E8D54B",
"4. c #C9C177",
"5. c #DDD37F",
"6. c #717383",
"7. c #747686",
"8. c #747786",
"9. c #7D808F",
"0. c #7F8190",
"q. c #81808A",
"w. c #83828C",
"e. c #888B99",
"r. c #8B8F9C",
"t. c #8E929C",
"y. c #9297A0",
"u. c #A0A5B0",
"i. c #A2A7B1",
"p. c #A3AEB8",
"a. c #ABB1BA",
"s. c #A8B3BC",
"d. c #AEB4BD",
"f. c #F3E880",
"g. c #F4E980",
"h. c #F7ED8B",
"j. c #F7EE8F",
"k. c #F7EE90",
"l. c #F8EF9A",
"z. c #AFBBC2",
"x. c #B4C0C7",
"c. c #B5C1C8",
"v. c #C9D2D6",
"b. c #CDD5DA",
"n. c #D0DADE",
"m. c #D3DBDF",
"M. c #F6F2D0",
"N. c #FCF8D3",
"B. c #D9E2E5",
"V. c #FDFBE3",
"C. c #FFFEFA",
"Z. c None",
/* pixels */
"Z.Z.Z.Z.Z.Z.Z.Z.Z.Z.Z.Z.Z.Z.Z.Z.Z.Z.Z.Z.Z.Z.Z.Z.Z.Z.Z.Z.Z.Z.Z.Z.Z.Z.Z.Z.Z.Z.Z.Z.Z.Z.Z.Z.Z.Z.Z.Z.Z.Z.Z.Z.Z.Z.Z.Z.Z.Z.Z.Z.",
"Z.Z.Z.Z.Z.Z.Z.Z.Z.Z.Z.Z.Z.Z.Z.Z.Z.Z.Z.Z.Z.Z.Z.Z.Z.Z.Z.Z.Z.Z.Z.Z.Z.Z.Z.Z.Z.Z.Z.Z.Z.Z.Z.Z.Z.Z.Z.Z.Z.Z.Z.Z.Z.Z.Z.Z.Z.Z.Z.Z.",
"Z.Z.Z.Z.Z.Z.Z.Z.Z.Z.Z.Z.Z.Z.Z.Z.Z.Z.Z.Z.Z.Z.Z.Z.Z.Z.Z.Z.Z.Z.Z.Z.Z.Z.Z.Z.Z.Z.Z.Z.Z.Z.Z.Z.Z.Z.Z.Z.Z.Z.Z.Z.Z.Z.Z.Z.Z.Z.Z.Z.",
"Z.Z.Z.Z.Z.Z.Z.Z.Z.Z.Z.Z.Z.Z.Z.Z.Z.Z.Z.Z.Z.Z.Z.Z.Z.Z.Z.Z.Z.Z.Z.Z.Z.Z.Z.Z.Z.Z.Z.Z.Z.Z.Z.Z.Z.Z.Z.Z.Z.Z.Z.Z.Z.Z.Z.Z.Z.Z.Z.Z.",
"Z.Z.Z.Z.Z.Z.Z.Z.Z.Z.Z.Z.Z.Z.Z.Z.Z.Z.Z.Z.Z.Z.Z.Z.Z.Z.Z.Z.Z.Z.Z.Z.Z.Z.Z.Z.Z.Z.Z.Z.Z.Z.Z.Z.Z.Z.Z.Z.Z.Z.Z.Z.Z.Z.Z.Z.Z.Z.Z.Z.",
"Z.Z.Z.Z.Z.Z.Z.Z.Z.Z.Z.Z.Z.Z.Z.Z.Z.Z.Z.Z.Z.Z.Z.Z.Z.Z.Z.Z.Z.Z.Z.Z.Z.Z.Z.Z.Z.Z.Z.Z.Z.Z.Z.Z.Z.Z.Z.Z.Z.Z.Z.Z.Z.Z.Z.Z.Z.Z.Z.Z.",
"Z.Z.Z.Z.Z.Z.Z.Z.Z.Z.Z.Z.Z.Z.Z.Z.Z.Z.Z.Z.Z.Z.Z.Z.Z.Z.Z.Z.Z.Z.Z.Z.Z.Z.Z.Z.Z.Z.Z.Z.Z.Z.Z.Z.Z.Z.Z.Z.Z.Z.Z.Z.Z.Z.Z.Z.Z.Z.Z.Z.",
"Z.Z.Z.Z.Z.Z.Z.Z.Z.Z.Z.Z.Z.Z.Z.Z.Z.Z.Z.Z.Z.Z.Z.Z.Z.Z.Z.Z.Z.Z.Z.Z.Z.Z.Z.Z.Z.Z.Z.Z.Z.Z.Z.Z.Z.Z.Z.Z.Z.Z.Z.Z.Z.Z.Z.Z.Z.Z.Z.Z.",
"Z.Z.Z.Z.Z.Z.Z.Z.Z.Z.Z.Z.Z.Z.Z.Z.Z.Z.Z.Z.Z.Z.Z.Z.Z.Z.Z.Z.Z.Z.Z.Z.Z.Z.Z.Z.Z.Z.Z.Z.Z.Z.Z.Z.Z.Z.Z.Z.Z.Z.Z.Z.Z.Z.Z.Z.Z.Z.Z.Z.",
"Z.Z.Z.Z.Z.Z.Z.Z.Z.Z.Z.Z.Z.Z.Z.Z.Z.Z.Z.Z.Z.Z.Z.Z.Z.Z.Z.Z.Z.Z.Z.Z.Z.Z.Z.Z.Z.Z.Z.Z.Z.Z.Z.Z.Z.Z.Z.Z.Z.Z.Z.Z.Z.Z.Z.Z.Z.Z.Z.Z.",
"Z.Z.Z.Z.Z.Z.Z.Z.Z.Z.Z.Z.Z.q N V Z.Z.Z.Z.Z.Z.Z.Z.Z.Z.Z.Z.Z.Z.Z.Z.Z.Z.Z.Z.Z.Z.Z.Z.Z.Z.Z.Z.Z.Z.Z.Z.Z.Z.Z.Z.Z.Z.Z.Z.Z.Z.Z.Z.",
"Z.Z.Z.Z.Z.Z.Z.Z.Z.Z.Z.Z.; 5.V.C.( Z.Z.Z.Z.Z.Z.Z.Z.Z.Z.Z.Z.Z.Z.Z.Z.Z.Z.Z.Z.Z.Z.Z.Z.Z.Z.Z.Z.Z.Z.Z.Z.Z.Z.Z.Z.Z.Z.Z.Z.Z.Z.Z.",
"Z.Z.Z.Z.Z.Z.Z.Z.Z.Z.Z.; ;.f.j.k.M.q.O Z.Z.Z.Z.Z.Z.Z.Z.Z.Z.Z.Z.Z.Z.Z.Z.Z.Z.Z.Z.Z.Z.Z.Z.Z.Z.Z.Z.Z.Z.Z.Z.Z.Z.Z.Z.Z.Z.Z.Z.Z.",
"Z.Z.Z.Z.Z.Z.Z.Z.Z.Z.Z.: :.g.h.h.N.w.@ Z.Z.Z.Z.Z.Z.Z.Z.Z.Z.Z.Z.Z.Z.Z.Z.Z.Z.Z.Z.Z.Z.Z.Z.Z.Z.Z.Z.Z.Z.Z.Z.Z.Z.Z.Z.Z.Z.Z.Z.Z.",
"Z.Z.Z.Z.Z.Z.Z.Z.Z.Z.Z.: :.g.h.h.l.| @ Z.Z.Z.Z.Z.Z.Z.Z.Z.Z.Z.Z.Z.Z.Z.Z.Z.Z.Z.Z.Z.Z.Z.Z.Z.Z.Z.Z.Z.Z.Z.Z.Z.Z.Z.Z.Z.Z.Z.Z.Z.",
"Z.Z.Z.Z.Z.Z.Z.Z.Z.Z.Z.Z.k 2.3.3.>.F Z.Z.Z.Z.Z.Z.Z.Z.Z.Z.Z.Z.Z.Z.Z.Z.Z.Z.Z.Z.Z.Z.Z.Z.Z.Z.Z.Z.Z.Z.Z.Z.Z.Z.Z.Z.Z.Z.Z.Z.Z.Z.",
"Z.Z.Z.Z.Z.Z.Z.Z.Z.Z.Z.Z.Z.c v v s Z.Z.Z.Z.Z.Z.Z.Z.Z.Z.Z.Z.Z.Z.Z.Z.Z.Z.Z.Z.Z.Z.Z.Z.Z.Z.Z.Z.Z.Z.Z.Z.Z.Z.Z.Z.Z.Z.Z.Z.Z.Z.Z.",
"Z.Z.Z.Z.Z.Z.Z.Z.Z.Z.Z.Z.Z.  i > Z.Z.Z.Z.Z.Z.Z.Z.Z.Z.Z.@ Z.Z.Z.Z.Z.Z.Z.Z.Z.Z.Z.Z.Z.Z.Z.Z.Z.Z.Z.Z.Z.Z.Z.Z.Z.Z.Z.Z.Z.Z.Z.Z.",
"Z.Z.Z.Z.Z.Z.Z.Z.Z.Z.Z.Z.Z.  ..f + Z.Z.Z.Z.Z.Z.Z.Z.Z.9 * Z.Z.Z.Z.Z.Z.Z.Z.Z.Z.Z.Z.Z.Z.Z.Z.Z.Z.Z.Z.Z.Z.Z.Z.Z.Z.Z.Z.Z.Z.Z.Z.",
"Z.Z.Z.Z.Z.Z.Z.Z.Z.Z.Z.Z.Z.  X.g 3 7 7 L ^ ^ ^ ~ b # D 5 Z.Z.Z.Z.Z.Z.Z.Z.Z.Z.Z.Z.Z.Z.Z.Z.Z.Z.Z.Z.Z.Z.Z.Z.Z.Z.Z.Z.Z.Z.Z.Z.",
"Z.Z.Z.Z.Z.Z.Z.Z.Z.Z.Z.Z.Z.   .d C P P 9.B.B.B.m.I & D 5 Z.Z.Z.Z.Z.Z.Z.Z.Z.Z.Z.Z.Z.Z.Z.Z.Z.Z.Z.Z.Z.Z.Z.Z.Z.Z.Z.Z.Z.Z.Z.Z.",
"Z.Z.Z.Z.Z.Z.Z.Z.Z.Z.Z.Z.Z.  +.l C P P 9.B.B.B.m.I & D 5 Z.Z.Z.Z.Z.Z.Z.Z.Z.Z.Z.Z.Z.Z.Z.Z.Z.Z.Z.Z.Z.Z.Z.Z.Z.Z.Z.Z.Z.Z.Z.Z.",
"Z.Z.Z.Z.Z.Z.Z.Z.Z.Z.Z.Z.Z.  +.l C P P 9.B.B.B.m.I n Y 0 Z.Z.Z.Z.Z.Z.Z.Z.Z.Z.Z.Z.Z.Z.Z.Z.Z.Z.Z.Z.Z.Z.Z.Z.Z.Z.Z.Z.Z.Z.Z.Z.",
"Z.Z.Z.Z.Z.Z.Z.Z.Z.Z.Z.Z.Z.  +.l S I I 0.m.m.m.b.E p.n.R Z.Z.Z.Z.Z.Z.Z.Z.Z.Z.Z.Z.Z.Z.Z.Z.Z.Z.Z.Z.Z.Z.Z.Z.Z.Z.Z.Z.Z.Z.Z.Z.",
"Z.Z.Z.Z.Z.Z.Z.Z.Z.Z.Z.Z.Z.  +.l t.m.m.u.I I I E b.x.n.R Z.Z.Z.Z.Z.Z.Z.Z.Z.Z.Z.Z.Z.Z.Z.Z.Z.Z.Z.Z.Z.Z.Z.Z.Z.Z.Z.Z.Z.Z.Z.Z.",
"Z.Z.Z.Z.Z.Z.Z.Z.Z.Z.Z.Z.Z.  +.l y.B.B.i.P P P I m.c.n.R Z.Z.Z.Z.Z.Z.Z.Z.Z.Z.Z.Z.Z.Z.Z.Z.Z.Z.Z.Z.Z.Z.Z.Z.Z.Z.Z.Z.Z.Z.Z.Z.",
"Z.Z.Z.Z.Z.Z.Z.Z.Z.Z.Z.Z.Z.  <.H y.B.B.i.P P P I m.c.n.R Z.Z.Z.Z.Z.Z.Z.Z.Z.Z.Z.Z.Z.Z.Z.Z.Z.Z.Z.Z.Z.Z.Z.Z.Z.Z.Z.Z.Z.Z.Z.Z.",
"Z.Z.Z.Z.Z.Z.Z.Z.Z.Z.Z.Z.Z.  4.K y.B.B.i.P P P I m.! / B Z.Z.Z.Z.Z.Z.Z.Z.Z.Z.Z.Z.Z.Z.Z.Z.Z.Z.Z.Z.Z.Z.Z.Z.Z.Z.Z.Z.Z.Z.Z.Z.",
"Z.Z.Z.Z.Z.Z.Z.Z.Z.Z.Z.Z.Z.  4.K Q 9.9.r.i.i.i.u.0.4 D 5 Z.Z.Z.Z.Z.Z.Z.Z.Z.Z.Z.Z.Z.Z.Z.Z.Z.Z.Z.Z.Z.Z.Z.Z.Z.Z.Z.Z.Z.Z.Z.Z.",
"Z.Z.Z.Z.Z.Z.Z.Z.Z.Z.Z.Z.Z.  4.K C P P 9.B.B.B.m.I & D 5 Z.Z.Z.Z.Z.Z.Z.Z.Z.Z.Z.Z.Z.Z.Z.Z.Z.Z.Z.Z.Z.Z.Z.Z.Z.Z.Z.Z.Z.Z.Z.Z.",
"Z.Z.Z.Z.Z.Z.Z.Z.Z.Z.Z.Z.Z.  4.K C P P 9.B.B.B.m.I & D 5 Z.Z.Z.Z.Z.Z.Z.Z.Z.Z.Z.Z.Z.Z.Z.Z.Z.Z.Z.Z.Z.Z.Z.Z.Z.Z.Z.Z.Z.Z.Z.Z.",
"Z.Z.Z.Z.Z.Z.Z.Z.Z.Z.Z.Z.Z.  4.K C P P 9.B.B.B.m.I W 8.Z Z.Z.Z.Z.Z.Z.Z.Z.Z.Z.Z.Z.Z.Z.Z.Z.Z.Z.Z.Z.Z.Z.Z.Z.Z.Z.Z.Z.Z.Z.Z.Z.",
"Z.Z.Z.Z.Z.Z.Z.Z.Z.Z.Z.Z.Z.  ,.G T 6.6.e.d.d.d.a.7.s.n.R Z.Z.Z.Z.Z.Z.Z.Z.Z.Z.Z.Z.Z.Z.Z.Z.Z.Z.Z.Z.Z.Z.Z.Z.Z.Z.Z.Z.Z.Z.Z.Z.",
"Z.Z.Z.Z.Z.Z.Z.Z.Z.Z.Z.Z.Z.  @.z y.B.B.i.P P P I m.c.n.R Z.Z.Z.Z.Z.Z.Z.Z.Z.Z.Z.Z.Z.Z.Z.Z.Z.Z.Z.Z.Z.Z.Z.Z.Z.Z.Z.Z.Z.Z.Z.Z.",
"Z.Z.Z.Z.Z.Z.Z.Z.Z.Z.Z.Z.Z.  1.J y.B.B.i.P P P I m.c.n.R Z.Z.Z.Z.Z.Z.Z.Z.Z.Z.Z.Z.Z.Z.Z.Z.Z.Z.Z.Z.Z.Z.Z.Z.Z.Z.Z.Z.Z.Z.Z.Z.",
"Z.Z.Z.Z.Z.Z.Z.Z.Z.Z.Z.Z.Z.  +.l y.B.B.i.P P P I m.z.v.U Z.Z.Z.Z.Z.Z.Z.Z.Z.Z.Z.Z.Z.Z.Z.Z.Z.Z.Z.Z.Z.Z.Z.Z.Z.Z.Z.Z.Z.Z.Z.Z.",
"Z.Z.Z.Z.Z.Z.Z.Z.Z.Z.Z.Z.Z.  +.l y.B.B.i.P P P I m.A 2 $ Z.Z.Z.Z.Z.Z.Z.Z.Z.Z.Z.Z.Z.Z.Z.Z.Z.Z.Z.Z.Z.Z.Z.Z.Z.Z.Z.Z.Z.Z.Z.Z.",
"Z.Z.Z.Z.Z.Z.Z.Z.Z.Z.Z.Z.Z.  +.l 6 M M 8 & & & = m Z.Z.Z.Z.Z.Z.Z.Z.Z.Z.Z.Z.Z.Z.Z.Z.Z.Z.Z.Z.Z.Z.Z.Z.Z.Z.Z.Z.Z.Z.Z.Z.Z.Z.Z.",
"Z.Z.Z.Z.Z.Z.Z.Z.Z.Z.Z.Z.Z.  +.l X Z.Z.Z.Z.Z.Z.Z.Z.Z.Z.Z.Z.Z.Z.Z.Z.Z.Z.Z.Z.Z.Z.Z.Z.Z.Z.Z.Z.Z.Z.Z.Z.Z.Z.Z.Z.Z.Z.Z.Z.Z.Z.Z.",
"Z.Z.Z.Z.Z.Z.Z.Z.Z.Z.Z.Z.Z.  +.l Z.Z.Z.Z.Z.Z.Z.Z.Z.Z.Z.Z.Z.Z.Z.Z.Z.Z.Z.Z.Z.Z.Z.Z.Z.Z.Z.Z.Z.Z.Z.Z.Z.Z.Z.Z.Z.Z.Z.Z.Z.Z.Z.Z.",
"Z.Z.Z.Z.Z.Z.Z.Z.Z.Z.Z.Z.Z.  +.l Z.Z.Z.Z.Z.Z.Z.Z.Z.Z.Z.Z.Z.Z.Z.Z.Z.Z.Z.Z.Z.Z.Z.Z.Z.Z.Z.Z.Z.Z.Z.Z.Z.Z.Z.Z.Z.Z.Z.Z.Z.Z.Z.Z.",
"Z.Z.Z.Z.Z.Z.Z.Z.Z.Z.Z.Z.Z.  +.l Z.Z.Z.Z.Z.Z.Z.Z.Z.Z.Z.Z.Z.Z.Z.Z.Z.Z.Z.Z.Z.Z.Z.Z.Z.Z.Z.Z.Z.Z.Z.Z.Z.Z.Z.Z.Z.Z.Z.Z.Z.Z.Z.Z.",
"Z.Z.Z.Z.Z.Z.Z.Z.Z.Z.Z.Z.Z.  +.l Z.Z.Z.Z.Z.Z.Z.Z.Z.Z.Z.Z.Z.Z.Z.Z.Z.Z.Z.Z.Z.Z.Z.Z.Z.Z.Z.Z.Z.Z.Z.Z.Z.Z.Z.Z.Z.Z.Z.Z.Z.Z.Z.Z.",
"Z.Z.Z.Z.Z.Z.Z.Z.Z.Z.Z.Z.Z.  +.l Z.Z.Z.Z.Z.Z.Z.Z.Z.Z.Z.Z.Z.Z.Z.Z.Z.Z.Z.Z.Z.Z.Z.Z.Z.Z.Z.Z.Z.Z.Z.Z.Z.Z.Z.Z.Z.Z.Z.Z.Z.Z.Z.Z.",
"Z.Z.Z.Z.Z.Z.Z.Z.Z.Z.Z.Z.Z.  +.l Z.Z.Z.Z.Z.Z.Z.Z.Z.Z.Z.Z.Z.Z.Z.Z.Z.Z.Z.Z.Z.Z.Z.Z.Z.Z.Z.Z.Z.Z.Z.Z.Z.Z.Z.Z.Z.Z.Z.Z.Z.Z.Z.Z.",
"Z.Z.Z.Z.Z.Z.Z.Z.Z.Z.Z.Z.Z.  +.l Z.Z.Z.Z.Z.Z.Z.Z.Z.Z.Z.Z.Z.Z.Z.Z.Z.Z.Z.Z.Z.Z.Z.Z.Z.Z.Z.Z.Z.Z.Z.Z.Z.Z.Z.Z.Z.Z.Z.Z.Z.Z.Z.Z.",
"Z.Z.Z.Z.Z.Z.Z.Z.Z.Z.Z.Z.Z.  +.l Z.Z.Z.Z.Z.Z.Z.Z.Z.Z.Z.Z.Z.Z.Z.Z.Z.Z.Z.Z.Z.Z.Z.Z.Z.Z.Z.Z.Z.Z.Z.Z.Z.Z.Z.Z.Z.Z.Z.Z.Z.Z.Z.Z.",
"Z.Z.Z.Z.Z.Z.Z.Z.Z.Z.Z.Z.Z.  O.k Z.Z.Z.Z.Z.Z.Z.Z.Z.Z.Z.Z.Z.Z.Z.Z.Z.Z.Z.Z.Z.Z.Z.Z.Z.Z.Z.Z.Z.Z.Z.Z.Z.Z.Z.Z.Z.Z.Z.Z.Z.Z.Z.Z.",
"Z.Z.Z.Z.Z.Z.Z.Z.Z.Z.Z.Z.Z.  ] y Z.Z.Z.Z.Z.Z.Z.Z.Z.Z.Z.Z.Z.Z.Z.Z.Z.Z.Z.Z.Z.Z.Z.Z.Z.Z.Z.Z.Z.Z.Z.Z.Z.Z.Z.Z.Z.Z.Z.Z.Z.Z.Z.Z.",
"Z.Z.Z.Z.Z.Z.Z.Z.Z.Z.Z.Z.Z.  o.j Z.Z.Z.Z.Z.Z.Z.Z.Z.Z.Z.Z.Z.Z.Z.Z.Z.Z.Z.Z.Z.Z.Z.Z.Z.Z.Z.Z.Z.Z.Z.Z.Z.Z.Z.Z.Z.Z.Z.Z.Z.Z.Z.Z.",
"Z.Z.Z.Z.Z.Z.Z.Z.Z.Z.Z.Z.Z.  [ u Z.Z.Z.Z.Z.Z.Z.Z.Z.Z.Z.Z.Z.Z.Z.Z.Z.Z.Z.Z.Z.Z.Z.Z.Z.Z.Z.Z.Z.Z.Z.Z.Z.Z.Z.Z.Z.Z.Z.Z.Z.Z.Z.Z.",
"Z.Z.Z.Z.Z.Z.Z.Z.Z.Z.Z.Z.Z.  ' t Z.Z.Z.Z.Z.Z.Z.Z.Z.Z.Z.Z.Z.Z.Z.Z.Z.Z.Z.Z.Z.Z.Z.Z.Z.Z.Z.Z.Z.Z.Z.Z.Z.Z.Z.Z.Z.Z.Z.Z.Z.Z.Z.Z.",
"Z.Z.Z.Z.Z.Z.Z.Z.Z.Z.Z.Z.Z.  X.g Z.Z.Z.Z.Z.Z.Z.Z.Z.Z.Z.Z.Z.Z.Z.Z.Z.Z.Z.Z.Z.Z.Z.Z.Z.Z.Z.Z.Z.Z.Z.Z.Z.Z.Z.Z.Z.Z.Z.Z.Z.Z.Z.Z.",
"Z.Z.Z.Z.Z.Z.Z.Z.Z.Z.Z.Z.Z.  ..f Z.Z.Z.Z.Z.Z.Z.Z.Z.Z.Z.Z.Z.Z.Z.Z.Z.Z.Z.Z.Z.Z.Z.Z.Z.Z.Z.Z.Z.Z.Z.Z.Z.Z.Z.Z.Z.Z.Z.Z.Z.Z.Z.Z.",
"Z.Z.Z.Z.Z.Z.Z.Z.Z.Z.Z.Z.Z.  ' t Z.Z.Z.Z.Z.Z.Z.Z.Z.Z.Z.Z.Z.Z.Z.Z.Z.Z.Z.Z.Z.Z.Z.Z.Z.Z.Z.Z.Z.Z.Z.Z.Z.Z.Z.Z.Z.Z.Z.Z.Z.Z.Z.Z.",
"Z.Z.Z.Z.Z.Z.Z.Z.Z.Z.Z.Z.Z.O a , o Z.Z.Z.Z.Z.Z.Z.Z.Z.Z.Z.Z.Z.Z.Z.Z.Z.Z.Z.Z.Z.Z.Z.Z.Z.Z.Z.Z.Z.Z.Z.Z.Z.Z.Z.Z.Z.Z.Z.Z.Z.Z.Z.",
"Z.Z.Z.Z.Z.Z.Z.Z.Z.Z.Z.Z.w e t h l r Z.Z.Z.Z.Z.Z.Z.Z.Z.Z.Z.Z.Z.Z.Z.Z.Z.Z.Z.Z.Z.Z.Z.Z.Z.Z.Z.Z.Z.Z.Z.Z.Z.Z.Z.Z.Z.Z.Z.Z.Z.Z.",
"Z.Z.Z.Z.Z.Z.Z.Z.Z.Z.Z.% ) } %.-.*.x @ Z.Z.Z.Z.Z.Z.Z.Z.Z.Z.Z.Z.Z.Z.Z.Z.Z.Z.Z.Z.Z.Z.Z.Z.Z.Z.Z.Z.Z.Z.Z.Z.Z.Z.Z.Z.Z.Z.Z.Z.Z.",
"Z.Z.Z.Z.Z.Z.Z.Z.Z.Z.Z.- - _ #.&.p < 1 Z.Z.Z.Z.Z.Z.Z.Z.Z.Z.Z.Z.Z.Z.Z.Z.Z.Z.Z.Z.Z.Z.Z.Z.Z.Z.Z.Z.Z.Z.Z.Z.Z.Z.Z.Z.Z.Z.Z.Z.Z.",
"Z.Z.Z.Z.Z.Z.Z.Z.Z.Z.- ` ` $.&.&.&.=.{ . Z.Z.Z.Z.Z.Z.Z.Z.Z.Z.Z.Z.Z.Z.Z.Z.Z.Z.Z.Z.Z.Z.Z.Z.Z.Z.Z.Z.Z.Z.Z.Z.Z.Z.Z.Z.Z.Z.Z.Z."
};
