/* XPM */
static char *result[] = {
/* columns rows colors chars-per-pixel */
"60 60 204 2 ",
"   c #1B192B",
".  c #1B192C",
"X  c #1B182D",
"o  c #1A192D",
"O  c #1B192D",
"+  c #1C192C",
"@  c #1C1A2C",
"#  c #1D1B2E",
"$  c #1E1C2F",
"%  c #1F1D30",
"&  c #221F2C",
"*  c #201E31",
"=  c #201E32",
"-  c #211F32",
";  c #2E2027",
":  c #2F2127",
">  c #24212C",
",  c #322829",
"<  c #342F2C",
"1  c #3B352D",
"2  c #222032",
"3  c #222133",
"4  c #252231",
"5  c #222034",
"6  c #232234",
"7  c #252235",
"8  c #252335",
"9  c #262437",
"0  c #272539",
"q  c #282739",
"w  c #292739",
"e  c #2B293E",
"r  c #2C2B3D",
"t  c #2D2C3E",
"y  c #343037",
"u  c #37343E",
"i  c #6F3917",
"p  c #432921",
"a  c #453425",
"s  c #4D3322",
"d  c #4B3824",
"f  c #503B23",
"g  c #684A1F",
"h  c #694B1F",
"j  c #7C4114",
"k  c #4E462D",
"l  c #514026",
"z  c #5F4421",
"x  c #544C2D",
"c  c #554D2D",
"v  c #684B20",
"b  c #695022",
"n  c #6A5223",
"m  c #6B5626",
"M  c #60572E",
"N  c #665C2D",
"B  c #6D5B28",
"V  c #6F612C",
"C  c #6F642D",
"Z  c #70652E",
"A  c #726836",
"S  c #2E2C41",
"D  c #2F2D41",
"F  c #2F2E40",
"G  c #2F2F41",
"H  c #302F40",
"J  c #333243",
"K  c #343346",
"L  c #343445",
"P  c #373546",
"I  c #373646",
"U  c #353449",
"Y  c #373648",
"T  c #383849",
"R  c #38384B",
"E  c #5A5547",
"W  c #404051",
"Q  c #404052",
"!  c #404053",
"~  c #444456",
"^  c #444359",
"/  c #464658",
"(  c #46455B",
")  c #49485E",
"_  c #4A4A5F",
"`  c #766F49",
"'  c #77704C",
"]  c #787150",
"[  c #797354",
"{  c #4C4C61",
"}  c #4D4F61",
"|  c #4F5061",
" . c #575868",
".. c #595B6B",
"X. c #58596C",
"o. c #5E5E71",
"O. c #5D616F",
"+. c #626471",
"@. c #626375",
"#. c #666875",
"$. c #656977",
"%. c #646578",
"&. c #68697B",
"*. c #6C6D7F",
"=. c #97480C",
"-. c #BB5603",
";. c #976817",
":. c #986A18",
">. c #9A711C",
",. c #9B751E",
"<. c #B4670C",
"1. c #B17913",
"2. c #9D7C22",
"3. c #C57108",
"4. c #C67309",
"5. c #9A8B2F",
"6. c #9E8E2F",
"7. c #A08426",
"8. c #A38F2C",
"9. c #A4922E",
"0. c #A4942F",
"q. c #AD9C2F",
"w. c #A5973D",
"e. c #A8993C",
"r. c #CD850D",
"t. c #CF8C0E",
"y. c #D09111",
"u. c #D49B16",
"i. c #D7B92A",
"p. c #E1C82F",
"a. c #AFA55B",
"s. c #969060",
"d. c #B0A761",
"f. c #B1A966",
"g. c #B3AC6E",
"h. c #CDBD4A",
"j. c #E8D54B",
"k. c #E9DA61",
"l. c #EDDD61",
"z. c #717383",
"x. c #727580",
"c. c #727681",
"v. c #757787",
"b. c #767888",
"n. c #7B7D8D",
"m. c #7C7F8E",
"M. c #7D808F",
"N. c #7E808F",
"B. c #7F8190",
"V. c #7F8692",
"C. c #818492",
"Z. c #808793",
"A. c #838694",
"S. c #858896",
"D. c #878C97",
"F. c #848A98",
"G. c #878A98",
"H. c #888B99",
"J. c #8A8E98",
"K. c #898D9A",
"L. c #8B8F9C",
"P. c #8F939D",
"I. c #949CA7",
"U. c #A0A5B0",
"Y. c #A2A7B1",
"T. c #A2A8B2",
"R. c #A3A9B2",
"E. c #A2ACB5",
"W. c #A8ADB6",
"Q. c #A9AFB8",
"!. c #ACB3BB",
"~. c #AAB5BE",
"^. c #AEB4BD",
"/. c #F7ED8B",
"(. c #F7ED8D",
"). c #E8E19A",
"_. c #F7EE90",
"`. c #F7EFA3",
"'. c #F9F0A1",
"]. c #FAF4BA",
"[. c #AFBAC2",
"{. c #B3BAC1",
"}. c #B3BFC6",
"|. c #B7BEC5",
" X c #BBC1C8",
".X c #BBC5CB",
"XX c #BDC4CB",
"oX c #BFC9CF",
"OX c #BFCAD0",
"+X c #C1C9CF",
"@X c #C2CDD3",
"#X c #C7CED4",
"$X c #CBD3D7",
"%X c #D5D4D4",
"&X c #D1D9DD",
"*X c #D3DBDF",
"=X c #D5DEE1",
"-X c #D6DFE3",
";X c #D7E0E3",
":X c #D9E2E5",
">X c #E6E6E8",
",X c #EEEEEF",
"<X c #FFFEFA",
"1X c None",
/* pixels */
"1X1X1X1X1X1X1X1X1X1X1X1X1X1X1X1X1X1X1X1X1X1X1X1X1X1X1X1X1X1X1X1X1X1X1X1X1X1X1X1X1X1X1X1X1X1X1X1X1X1X1X1X1X1X1X1X1X1X1X1X",
"1X1X1X1X1X1X1X1X1X1X1X1X1X1X1X1X1X1X1X1X1X1X1X1X1X1X1X1X1X1X1X1X1X1X1X1X1X1X1X1X1X1X1X1X1X1X1X1X1X1X1X1X1X1X1X1X1X1X1X1X",
"1X1X1X1X1X1X1X1X1X1X1X1X1X1X1X1X1X1X1X1X1X1X1X1X1X1X1X1X1X1X1X1X1X1X1X1X1X1X1X1X1X1X1X1X1X1X1X1X1X1X1X1X1X1X1X1X1X1X1X1X",
"1X1X1X1X1X1X1X1X1X1X1X1X1X1X1X1X1X1X1X1X1X1X1X1X1X1X1X1X1X1X1X1X1X1X1X1X1X1X1X1X1X1X1X1X1X1X1X1X1X1X1X1X1X1X1X1X1X1X1X1X",
"1X1X1X1X1X1X1X1X1X1X1X1X1X1X1X1X1X1X1X1X1X1X1X1X1X1X1X1X1X1X1X1X1X1X1X1X1X1X1X1X1X1X1X1X1X1X1X1X1X1X1X1X1X1X1X1X1X1X1X1X",
"1X1X1X1X1X1X1X1X1X1X1X1X1X1X1X1X1X1X1X1X1X1X1X1X1X1X1X1X1X1X1X1X1X1X1X1X1X1X1X1X1X1X1X1X1X1X1X1X1X1X1X1X1X1X1X1X1X1X1X1X",
"1X1X1X1X1X1X1X1X1X1X1X1X1X1X1X1X1X1X1X1X1X1X1X1X1X1X1X1X1X1X1X1X1X1X1X1X1X1X1X1X1X1X1X1X1X1X1X1X1X1X1X1X1X1X1X1X1X1X1X1X",
"1X1X1X1X1X1X1X1X1X1X1X1X1X1X1X1X1X1X1X1X1X1X1X1X1X1X1X1X1X1X1X1X1X1X1X1X1X1X1X1X1X1X1X1X1X1X1X1X1X1X1X1X1X1X1X1X1X1X1X1X",
"1X1X1X1X1X1X1X1X1X1X1X1X1X1X1X1X1X1X1X1X1X1X1X1X1X1X1X1X1X1X1X1X1X1X1X1X1X1X1X1X1X1X1X1X1X1X1X1X1X1X1X1X1X1X1X1X1X1X1X1X",
"1X1X1X1X1X1X1X1X1X1X1X1X1X1X1X1X1X1X1X1X1X1X1X1X1X1X1X1X1X1X1X1X1X1X1X1X1X1X1X1X1X1X1X1X1X1X1X1X1X1X1X1X1X1X1X1X1X1X1X1X",
"1X1X1X1X1X1X1X1X1X1X1X1Xy u I P 1X1X1X1X1X1X1X1X1X1X1X1X1X1X1X1X1X1X1X1X1X1X1X1X1X1X1X1X1X1X1X1X1X1X1X1X1X1X1X1X1X1X1X1X",
"1X1X1X1X1X1X1X1X1X1X1X> s.].<X%X7 1X1X1X1X1X1X1X1X1X1X1X1X1X1X1X1X1X1X1X1X1X1X1X1X1X1X1X1X1X1X1X1X1X1X1X1X1X1X1X1X1X1X1X",
"1X1X1X1X1X1X1X1X1X1XX 5.k.(._.`.>X7 1X1X1X1X1X1X1X1X1X1X1X1X1X1X1X1X1X1X1X1X1X1X1X1X1X1X1X1X1X1X1X1X1X1X1X1X1X1X1X1X1X1X",
"1X1X1X1X1X1X1X1X1X1X. 6.l././.'.,X8 1X1X1X1X1X1X1X1X1X1X1X1X1X1X1X1X1X1X1X1X1X1X1X1X1X1X1X1X1X1X1X1X1X1X1X1X1X1X1X1X1X1X",
"1X1X1X1X1X1X1X1X1X1X. 6.l././._.).4 1X1X1X1X1X1X1X1X1X1X1X1X1X1X1X1X1X1X1X1X1X1X1X1X1X1X1X1X1X1X1X1X1X1X1X1X1X1X1X1X1X1X",
"1X1X1X1X1X1X1X1X1X1X1Xk w.j.j.h.E 1X1X1X1X1X1X1X1X1X1X1X1X1X1X1X1X1X1X1X1X1X1X1X1X1X1X1X1X1X1X1X1X1X1X1X1X1X1X1X1X1X1X1X",
"1X1X1X1X1X1X1X1X1X1X1X1Xx N N M 1X1X1X1X1X1X1X1X1X1X1X1X1X1X1X1X1X1X1X1X1X1X1X1X1X1X1X1X1X1X1X1X1X1X1X1X1X1X1X1X1X1X1X1X",
"1X1X1X1X1X1X1X1X1X1X1X1X@ a z . @ 1X1X1X1X1X1X1X1X1X1X1X1X1X1X@ @ @ @ @ @ @ @ @ 1X1X1X1X1X1X1X1X1X1X1X1X1X1X1X1X1X1X1X1X",
"1X1X1X1X1X1X1X1X1X1X1X1X@ m 2.q O.1X1X1X1X1X1X1X1X1X1X1X1X1X0 ~ x.x.x.x.Q D D 0 + 1X1X1X1X1X1X1X1X1X1X1X1X1X1X1X1X1X1X1X",
"1X1X1X1X1X1X1X1X1X1X1X1X@ B 7.T ~.#.K e e e W +.+.+.+.Y e 5 S b.:X:X:X:X*.( ( U + 1X1X1X1X1X1X1X1X1X1X1X1X1X1X1X1X1X1X1X",
"1X1X1X1X1X1X1X1X1X1X1X1X@ n ,.T }.;Xo.( ( ( M.:X:X:X:X%.( S S b.:X:X:X:X*.( ( U + 1X1X1X1X1X1X1X1X1X1X1X1X1X1X1X1X1X1X1X",
"1X1X1X1X1X1X1X1X1X1X1X1X@ Z 0.T }.;Xo.( ( ( M.:X:X:X:X%.( S S b.:X:X:X:X*.( ( U + 1X1X1X1X1X1X1X1X1X1X1X1X1X1X1X1X1X1X1X",
"1X1X1X1X1X1X1X1X1X1X1X1X@ Z 0.L E.-Xo.( ( ( M.:X:X:X:X%.( R ! m.#X#X#X#Xv.X.X.! + 1X1X1X1X1X1X1X1X1X1X1X1X1X1X1X1X1X1X1X",
"1X1X1X1X1X1X1X1X1X1X1X1X@ Z 0.. w $X@.{ { { B.*X*X*X*X&.{ F.@XQ.( ( ( ( {.:X:XP.+ 1X1X1X1X1X1X1X1X1X1X1X1X1X1X1X1X1X1X1X",
"1X1X1X1X1X1X1X1X1X1X1X1X@ Z 0.. % _ XX*X*X*XU.{ { { { |.*XOX@XQ.( ( ( ( {.:X:XP.+ 1X1X1X1X1X1X1X1X1X1X1X1X1X1X1X1X1X1X1X",
"1X1X1X1X1X1X1X1X1X1X1X1X@ Z 0.. $ ^ +X:X:X:XY.( ( ( (  X:X@X@XQ.( ( ( ( {.:X:XP.+ 1X1X1X1X1X1X1X1X1X1X1X1X1X1X1X1X1X1X1X",
"1X1X1X1X1X1X1X1X1X1X1X1X@ ' d.. $ ^ +X:X:X:XY.( ( ( (  X:X@X@XQ.( ( ( ( {.:X:XP.+ 1X1X1X1X1X1X1X1X1X1X1X1X1X1X1X1X1X1X1X",
"1X1X1X1X1X1X1X1X1X1X1X1X@ [ g.G Z.) +X:X:X:XY.( ( ( (  X:XD...S.^.^.^.^.C.z.z.| + 1X1X1X1X1X1X1X1X1X1X1X1X1X1X1X1X1X1X1X",
"1X1X1X1X1X1X1X1X1X1X1X1X@ [ g.T [.T.A.M.M.M.L.Y.Y.Y.Y.S.M./ S b.:X:X:X:X*.( ( U + 1X1X1X1X1X1X1X1X1X1X1X1X1X1X1X1X1X1X1X",
"1X1X1X1X1X1X1X1X1X1X1X1X@ [ g.T }.;Xo.( ( ( M.:X:X:X:X%.( S S b.:X:X:X:X*.( ( U + 1X1X1X1X1X1X1X1X1X1X1X1X1X1X1X1X1X1X1X",
"1X1X1X1X1X1X1X1X1X1X1X1X@ [ g.T }.;Xo.( ( ( M.:X:X:X:X%.( S S b.:X:X:X:X*.( ( U + 1X1X1X1X1X1X1X1X1X1X1X1X1X1X1X1X1X1X1X",
"1X1X1X1X1X1X1X1X1X1X1X1X@ [ g.t V.=Xo.( ( ( M.:X:X:X:X%.( } $.K.Y.Y.Y.Y.G.M.M. .+ 1X1X1X1X1X1X1X1X1X1X1X1X1X1X1X1X1X1X1X",
"1X1X1X1X1X1X1X1X1X1X1X1X@ ` a.. 9 W.n.z.z.z.H.^.^.^.^.N.z.I.@XQ.( ( ( ( {.:X:XP.+ 1X1X1X1X1X1X1X1X1X1X1X1X1X1X1X1X1X1X1X",
"1X1X1X1X1X1X1X1X1X1X1X1X@ A e.. $ ^ +X:X:X:XY.( ( ( (  X:X@X@XQ.( ( ( ( {.:X:XP.+ 1X1X1X1X1X1X1X1X1X1X1X1X1X1X1X1X1X1X1X",
"1X1X1X1X1X1X1X1X1X1X1X1X@ ] f.. $ ^ +X:X:X:XY.( ( ( (  X:X@X@XQ.( ( ( ( {.:X:XP.+ 1X1X1X1X1X1X1X1X1X1X1X1X1X1X1X1X1X1X1X",
"1X1X1X1X1X1X1X1X1X1X1X1X@ Z 0.. $ ^ +X:X:X:XY.( ( ( (  X:XoX.XR.^ ^ ^ ^ !.&X&XJ.+ 1X1X1X1X1X1X1X1X1X1X1X1X1X1X1X1X1X1X1X",
"1X1X1X1X1X1X1X1X1X1X1X1X@ Z 0.. $ ^ +X:X:X:XY.( ( ( (  X:Xc.3 - # # # # 2 6 6 * + 1X1X1X1X1X1X1X1X1X1X1X1X1X1X1X1X1X1X1X",
"1X1X1X1X1X1X1X1X1X1X1X1X@ Z 0.o 1X= H J J J r = = = = F J G 1X1X1X1X1X1X1X1X1X1X1X1X1X1X1X1X1X1X1X1X1X1X1X1X1X1X1X1X1X1X",
"1X1X1X1X1X1X1X1X1X1X1X1X@ Z 0.O 1X1X1X1X1X1X1X1X1X1X1X1X1X1X1X1X1X1X1X1X1X1X1X1X1X1X1X1X1X1X1X1X1X1X1X1X1X1X1X1X1X1X1X1X",
"1X1X1X1X1X1X1X1X1X1X1X1X@ Z 0.O 1X1X1X1X1X1X1X1X1X1X1X1X1X1X1X1X1X1X1X1X1X1X1X1X1X1X1X1X1X1X1X1X1X1X1X1X1X1X1X1X1X1X1X1X",
"1X1X1X1X1X1X1X1X1X1X1X1X@ Z 0.O 1X1X1X1X1X1X1X1X1X1X1X1X1X1X1X1X1X1X1X1X1X1X1X1X1X1X1X1X1X1X1X1X1X1X1X1X1X1X1X1X1X1X1X1X",
"1X1X1X1X1X1X1X1X1X1X1X1X@ Z 0.O 1X1X1X1X1X1X1X1X1X1X1X1X1X1X1X1X1X1X1X1X1X1X1X1X1X1X1X1X1X1X1X1X1X1X1X1X1X1X1X1X1X1X1X1X",
"1X1X1X1X1X1X1X1X1X1X1X1X@ Z 0.O 1X1X1X1X1X1X1X1X1X1X1X1X1X1X1X1X1X1X1X1X1X1X1X1X1X1X1X1X1X1X1X1X1X1X1X1X1X1X1X1X1X1X1X1X",
"1X1X1X1X1X1X1X1X1X1X1X1X@ Z 0.O 1X1X1X1X1X1X1X1X1X1X1X1X1X1X1X1X1X1X1X1X1X1X1X1X1X1X1X1X1X1X1X1X1X1X1X1X1X1X1X1X1X1X1X1X",
"1X1X1X1X1X1X1X1X1X1X1X1X@ Z 0.O 1X1X1X1X1X1X1X1X1X1X1X1X1X1X1X1X1X1X1X1X1X1X1X1X1X1X1X1X1X1X1X1X1X1X1X1X1X1X1X1X1X1X1X1X",
"1X1X1X1X1X1X1X1X1X1X1X1X@ Z 0.O 1X1X1X1X1X1X1X1X1X1X1X1X1X1X1X1X1X1X1X1X1X1X1X1X1X1X1X1X1X1X1X1X1X1X1X1X1X1X1X1X1X1X1X1X",
"1X1X1X1X1X1X1X1X1X1X1X1X@ Z 0.O 1X1X1X1X1X1X1X1X1X1X1X1X1X1X1X1X1X1X1X1X1X1X1X1X1X1X1X1X1X1X1X1X1X1X1X1X1X1X1X1X1X1X1X1X",
"1X1X1X1X1X1X1X1X1X1X1X1X@ C 9.O 1X1X1X1X1X1X1X1X1X1X1X1X1X1X1X1X1X1X1X1X1X1X1X1X1X1X1X1X1X1X1X1X1X1X1X1X1X1X1X1X1X1X1X1X",
"1X1X1X1X1X1X1X1X1X1X1X1X@ v :.O 1X1X1X1X1X1X1X1X1X1X1X1X1X1X1X1X1X1X1X1X1X1X1X1X1X1X1X1X1X1X1X1X1X1X1X1X1X1X1X1X1X1X1X1X",
"1X1X1X1X1X1X1X1X1X1X1X1X@ V 8.O 1X1X1X1X1X1X1X1X1X1X1X1X1X1X1X1X1X1X1X1X1X1X1X1X1X1X1X1X1X1X1X1X1X1X1X1X1X1X1X1X1X1X1X1X",
"1X1X1X1X1X1X1X1X1X1X1X1X@ b >.O 1X1X1X1X1X1X1X1X1X1X1X1X1X1X1X1X1X1X1X1X1X1X1X1X1X1X1X1X1X1X1X1X1X1X1X1X1X1X1X1X1X1X1X1X",
"1X1X1X1X1X1X1X1X1X1X1X1X@ g ;.O 1X1X1X1X1X1X1X1X1X1X1X1X1X1X1X1X1X1X1X1X1X1X1X1X1X1X1X1X1X1X1X1X1X1X1X1X1X1X1X1X1X1X1X1X",
"1X1X1X1X1X1X1X1X1X1X1X1X@ B 7.O 1X1X1X1X1X1X1X1X1X1X1X1X1X1X1X1X1X1X1X1X1X1X1X1X1X1X1X1X1X1X1X1X1X1X1X1X1X1X1X1X1X1X1X1X",
"1X1X1X1X1X1X1X1X1X1X1X1X@ m 2.O 1X1X1X1X1X1X1X1X1X1X1X1X1X1X1X1X1X1X1X1X1X1X1X1X1X1X1X1X1X1X1X1X1X1X1X1X1X1X1X1X1X1X1X1X",
"1X1X1X1X1X1X1X1X1X1X1X1X@ g ;.O 1X1X1X1X1X1X1X1X1X1X1X1X1X1X1X1X1X1X1X1X1X1X1X1X1X1X1X1X1X1X1X1X1X1X1X1X1X1X1X1X1X1X1X1X",
"1X1X1X1X1X1X1X1X1X1X1X1X  d h . 1X1X1X1X1X1X1X1X1X1X1X1X1X1X1X1X1X1X1X1X1X1X1X1X1X1X1X1X1X1X1X1X1X1X1X1X1X1X1X1X1X1X1X1X",
"1X1X1X1X1X1X1X1X1X1X1Xp s f l c x 1X1X1X1X1X1X1X1X1X1X1X1X1X1X1X1X1X1X1X1X1X1X1X1X1X1X1X1X1X1X1X1X1X1X1X1X1X1X1X1X1X1X1X",
"1X1X1X1X1X1X1X1X1X1X. i <.r.u.i.q.& 1X1X1X1X1X1X1X1X1X1X1X1X1X1X1X1X1X1X1X1X1X1X1X1X1X1X1X1X1X1X1X1X1X1X1X1X1X1X1X1X1X1X",
"1X1X1X1X1X1X1X1X1X1X; : j 3.t.1., < 1X1X1X1X1X1X1X1X1X1X1X1X1X1X1X1X1X1X1X1X1X1X1X1X1X1X1X1X1X1X1X1X1X1X1X1X1X1X1X1X1X1X",
"1X1X1X1X1X1X1X1X1X. =.-.4.t.t.t.y.p.1 1X1X1X1X1X1X1X1X1X1X1X1X1X1X1X1X1X1X1X1X1X1X1X1X1X1X1X1X1X1X1X1X1X1X1X1X1X1X1X1X1X"
};
