/* XPM */
static char *result[] = {
/* columns rows colors chars-per-pixel */
"60 60 147 2 ",
"   c #1B192B",
".  c #1C1A2B",
"X  c #1F1C2B",
"o  c #1A192C",
"O  c #1C1A2C",
"+  c #1C1A2D",
"@  c #1F1D31",
"#  c #201C2B",
"$  c #231E2B",
"%  c #231F2B",
"&  c #201E31",
"*  c #201E32",
"=  c #2F2127",
"-  c #27212A",
";  c #23202C",
":  c #23212C",
">  c #24212C",
",  c #24212D",
"<  c #24222F",
"1  c #29222A",
"2  c #352325",
"3  c #312728",
"4  c #322828",
"5  c #322929",
"6  c #322A29",
"7  c #332B2A",
"8  c #332C2B",
"9  c #332D2B",
"0  c #342E2C",
"q  c #342F2C",
"w  c #34302F",
"e  c #39332B",
"r  c #3E382C",
"t  c #212032",
"y  c #242230",
"u  c #232234",
"i  c #2B293D",
"p  c #2B293E",
"a  c #363235",
"s  c #363336",
"d  c #363338",
"f  c #373438",
"g  c #3E3A38",
"h  c #412823",
"j  c #4A2B20",
"k  c #4B2D20",
"l  c #433D2D",
"z  c #443E2D",
"x  c #503B23",
"c  c #523C23",
"v  c #403E3C",
"b  c #79551C",
"n  c #49422D",
"m  c #554B2C",
"M  c #554D2D",
"N  c #665C2D",
"B  c #685E31",
"V  c #2D2C40",
"C  c #2F2D41",
"Z  c #313044",
"A  c #323145",
"S  c #373646",
"D  c #3D3C51",
"F  c #5C584F",
"G  c #424156",
"H  c #46455B",
"J  c #4C4B5F",
"K  c #52505E",
"L  c #797148",
"P  c #4C4C61",
"I  c #505362",
"U  c #525362",
"Y  c #535563",
"T  c #535464",
"R  c #5D5C69",
"E  c #5E5C6A",
"W  c #58596C",
"Q  c #5F6071",
"!  c #60626F",
"~  c #626471",
"^  c #696B7A",
"/  c #696D7A",
"(  c #875E1A",
")  c #A0500C",
"_  c #BB5603",
"`  c #BD5D04",
"'  c #BE5F05",
"]  c #C7870F",
"[  c #CB810C",
"{  c #CE8A0E",
"}  c #CF8B0E",
"|  c #CF8C0E",
" . c #C88A11",
".. c #CB9316",
"X. c #CD9919",
"o. c #D0A31E",
"O. c #C0AB2E",
"+. c #D3AD24",
"@. c #DCB826",
"#. c #DCB926",
"$. c #D7BC2C",
"%. c #D9C12E",
"&. c #D9C330",
"*. c #DDC83B",
"=. c #E5CF3B",
"-. c #DECA42",
";. c #E8D54B",
":. c #E8DA6D",
">. c #E9DD75",
",. c #EBE07C",
"<. c #6D7181",
"1. c #717383",
"2. c #7D808F",
"3. c #848895",
"4. c #868A96",
"5. c #898D9A",
"6. c #8F949F",
"7. c #8F95A0",
"8. c #9195A1",
"9. c #9296A2",
"0. c #939BA5",
"q. c #9499A4",
"w. c #969AA6",
"e. c #9BA2AC",
"r. c #9CA4AD",
"t. c #A2A7B1",
"y. c #ABB1B8",
"u. c #ADB3BA",
"i. c #ABB4BD",
"p. c #AEB4BD",
"a. c #B2B8BF",
"s. c #EDE487",
"d. c #F7ED8B",
"f. c #F7EE90",
"g. c #F8F09E",
"h. c #B4BDC4",
"j. c #B4BEC4",
"k. c #BFCAD0",
"l. c #C6D1D6",
"z. c #D1D9DD",
"x. c #D3DBDF",
"c. c #D9E2E5",
"v. c #F6F4E1",
"b. c #FDFBE7",
"n. c #FEFDF5",
"m. c #FFFEFA",
"M. c None",
/* pixels */
"M.M.M.M.M.M.M.M.M.M.M.M.M.M.M.M.M.M.M.M.M.M.M.M.M.M.M.M.M.M.M.M.M.M.M.M.M.M.M.M.M.M.M.M.M.M.M.M.M.M.M.M.M.M.M.M.M.M.M.M.",
"M.M.M.M.M.M.M.M.M.M.M.M.M.M.M.M.M.M.M.M.M.M.M.M.M.M.M.M.M.M.M.M.M.M.M.M.M.M.M.M.M.M.M.M.M.M.M.M.M.M.M.M.M.M.M.M.M.M.M.M.",
"M.M.M.M.M.M.M.M.M.M.M.M.M.M.M.M.M.M.M.M.M.M.M.M.M.M.M.M.M.M.M.M.M.M.M.M.M.M.M.M.M.M.M.M.M.M.M.M.M.M.M.M.M.M.M.M.M.M.M.M.",
"M.M.M.M.M.M.M.M.M.M.M.M.M.M.M.M.M.M.M.M.M.M.M.M.M.M.M.M.M.M.M.M.M.M.M.M.M.M.M.M.M.M.M.M.M.M.M.M.M.M.M.M.M.M.M.M.M.M.M.M.",
"M.M.M.M.M.M.M.M.M.M.M.M.M.M.M.M.M.M.M.M.M.M.M.M.M.M.M.M.M.M.M.M.M.M.M.M.M.M.M.M.M.M.M.M.M.M.M.M.M.M.M.M.M.M.M.M.M.M.M.M.",
"M.M.M.M.M.M.M.M.M.M.M.M.M.M.M.M.M.M.M.M.M.M.M.M.M.M.M.M.M.M.M.M.M.M.M.M.M.M.M.M.M.M.M.M.M.M.M.M.M.M.M.M.M.M.M.M.M.M.M.M.",
"M.M.M.M.M.M.M.M.M.M.M.M.M.M.M.M.M.M.M.M.M.M.M.M.M.M.M.M.M.M.M.M.M.M.M.M.M.M.M.M.M.M.M.M.M.M.M.M.M.M.M.M.M.M.M.M.M.M.M.M.",
"M.M.M.M.M.M.M.M.M.M.M.M.M.M.M.M.M.M.M.M.M.M.M.M.M.M.M.M.M.M.M.M.M.M.M.M.M.M.M.M.M.M.M.M.M.M.M.M.M.M.M.M.M.M.M.M.M.M.M.M.",
"M.M.M.M.M.M.M.M.M.M.M.M.M.M.M.M.M.M.M.M.M.M.M.M.M.M.M.M.M.M.M.M.M.M.M.M.M.M.M.M.M.M.M.M.M.M.M.M.M.M.M.M.M.M.M.M.M.M.M.M.",
"M.M.M.M.M.M.M.M.M.M.M.M.M.M.M.M.M.M.M.M.M.M.M.M.M.M.M.M.M.M.M.M.M.M.M.M.M.M.M.M.M.M.M.M.M.M.M.M.M.M.M.M.M.M.M.M.M.M.M.M.",
"M.M.M.M.M.M.M.M.M.M.M.f S S M.M.M.M.M.M.M.M.M.M.M.M.M.M.M.M.M.M.M.M.M.M.M.M.M.M.M.M.M.M.M.M.M.M.M.M.M.M.M.M.M.M.M.M.M.M.",
"M.M.M.M.M.M.M.M.M.M.g f.n.m.K M.M.M.M.M.M.M.M.M.M.M.M.M.M.M.M.M.M.M.M.M.M.M.M.M.M.M.M.M.M.M.M.M.M.M.M.M.M.M.M.M.M.M.M.M.",
"M.M.M.M.M.M.M.M.M.l *.d.f.f.v.R M.M.M.M.M.M.M.M.M.M.M.M.M.M.M.M.M.M.M.M.M.M.M.M.M.M.M.M.M.M.M.M.M.M.M.M.M.M.M.M.M.M.M.M.",
"M.M.M.M.M.M.M.M.M.z =.d.d.d.b.E M.M.M.M.M.M.M.M.M.M.M.M.M.M.M.M.M.M.M.M.M.M.M.M.M.M.M.M.M.M.M.M.M.M.M.M.M.M.M.M.M.M.M.M.",
"M.M.M.M.M.M.M.M.M.z =.d.d.d.g.F M.M.M.M.M.M.M.M.M.M.M.M.M.M.M.M.M.M.M.M.M.M.M.M.M.M.M.M.M.M.M.M.M.M.M.M.M.M.M.M.M.M.M.M.",
"M.M.M.M.M.M.M.M.M.M.B ;.;.;.L v M.M.M.M.M.M.M.M.M.M.M.M.M.M.M.M.M.M.M.M.M.M.M.M.M.M.M.M.M.M.M.M.M.M.M.M.M.M.M.M.M.M.M.M.",
"M.M.M.M.M.M.M.M.M.M.M.N N N e M.M.M.M.M.M.M.M.M.M.M.M.M.M.M.M.M.M.M.M.M.M.M.M.M.M.M.M.M.M.M.M.M.M.M.M.M.M.M.M.M.M.M.M.M.",
"M.M.M.M.M.M.M.M.M.M.M.X b - M.M.M.O O O O O M.M.M.M.M.M.M.M.M.M.M.M.M.M.M.M.M.M.M.M.M.M.M.M.M.M.M.M.M.M.M.M.M.M.M.M.M.M.",
"M.M.M.M.M.M.M.M.M.M.M.% o.7 o M.I / T C C i   M.M.M.M.M.M.M.M.M.M.M.M.M.M.M.M.M.M.M.M.M.M.M.M.M.M.M.M.M.M.M.M.M.M.M.M.M.",
"M.M.M.M.M.M.M.M.M.M.M.; +.8 Y ~ 0.l.w.H H D   M.M.M.M.M.M.M.M.M.M.M.M.M.M.M.M.M.M.M.M.M.M.M.M.M.M.M.M.M.M.M.M.M.M.M.M.M.",
"M.M.M.M.M.M.M.M.M.M.M.% X.6 a.c.k.l.w.H H D   M.M.M.M.M.M.M.M.M.M.M.M.M.M.M.M.M.M.M.M.M.M.M.M.M.M.M.M.M.M.M.M.M.M.M.M.M.",
"M.M.M.M.M.M.M.M.M.M.M.> &.q a.c.k.l.w.H H D   M.M.M.M.M.M.M.M.M.M.M.M.M.M.M.M.M.M.M.M.M.M.M.M.M.M.M.M.M.M.M.M.M.M.M.M.M.",
"M.M.M.M.M.M.M.M.M.M.M.> &.q a.c.j.h.q.W W J   M.M.M.M.M.M.M.M.M.M.M.M.M.M.M.M.M.M.M.M.M.M.M.M.M.M.M.M.M.M.M.M.M.M.M.M.M.",
"M.M.M.M.M.M.M.M.M.M.M.> &.q u.x.! A 5.c.c.a.  M.M.M.M.M.M.M.M.M.M.M.M.M.M.M.M.M.M.M.M.M.M.M.M.M.M.M.M.M.M.M.M.M.M.M.M.M.",
"M.M.M.M.M.M.M.M.M.M.M.> &.q G P V A 5.c.c.a.  M.M.M.M.M.M.M.M.M.M.M.M.M.M.M.M.M.M.M.M.M.M.M.M.M.M.M.M.M.M.M.M.M.M.M.M.M.",
"M.M.M.M.M.M.M.M.M.M.M.> &.q D H p A 5.c.c.a.  M.M.M.M.M.M.M.M.M.M.M.M.M.M.M.M.M.M.M.M.M.M.M.M.M.M.M.M.M.M.M.M.M.M.M.M.M.",
"M.M.M.M.M.M.M.M.M.M.M.< >.s D H p A 5.c.c.a.  M.M.M.M.M.M.M.M.M.M.M.M.M.M.M.M.M.M.M.M.M.M.M.M.M.M.M.M.M.M.M.M.M.M.M.M.M.",
"M.M.M.M.M.M.M.M.M.M.M.y s.d D H <.e.9.1.1.Q   M.M.M.M.M.M.M.M.M.M.M.M.M.M.M.M.M.M.M.M.M.M.M.M.M.M.M.M.M.M.M.M.M.M.M.M.M.",
"M.M.M.M.M.M.M.M.M.M.M.y s.d 4.t.i.l.w.H H D   M.M.M.M.M.M.M.M.M.M.M.M.M.M.M.M.M.M.M.M.M.M.M.M.M.M.M.M.M.M.M.M.M.M.M.M.M.",
"M.M.M.M.M.M.M.M.M.M.M.y s.d a.c.k.l.w.H H D   M.M.M.M.M.M.M.M.M.M.M.M.M.M.M.M.M.M.M.M.M.M.M.M.M.M.M.M.M.M.M.M.M.M.M.M.M.",
"M.M.M.M.M.M.M.M.M.M.M.y s.d a.c.k.l.w.H H D   M.M.M.M.M.M.M.M.M.M.M.M.M.M.M.M.M.M.M.M.M.M.M.M.M.M.M.M.M.M.M.M.M.M.M.M.M.",
"M.M.M.M.M.M.M.M.M.M.M.y s.d a.c.r.7.8.2.2.^   M.M.M.M.M.M.M.M.M.M.M.M.M.M.M.M.M.M.M.M.M.M.M.M.M.M.M.M.M.M.M.M.M.M.M.M.M.",
"M.M.M.M.M.M.M.M.M.M.M.< :.a 6.p.U A 5.c.c.a.  M.M.M.M.M.M.M.M.M.M.M.M.M.M.M.M.M.M.M.M.M.M.M.M.M.M.M.M.M.M.M.M.M.M.M.M.M.",
"M.M.M.M.M.M.M.M.M.M.M., -.w D H p A 5.c.c.a.  M.M.M.M.M.M.M.M.M.M.M.M.M.M.M.M.M.M.M.M.M.M.M.M.M.M.M.M.M.M.M.M.M.M.M.M.M.",
"M.M.M.M.M.M.M.M.M.M.M.y ,.s D H p A 5.c.c.a.  M.M.M.M.M.M.M.M.M.M.M.M.M.M.M.M.M.M.M.M.M.M.M.M.M.M.M.M.M.M.M.M.M.M.M.M.M.",
"M.M.M.M.M.M.M.M.M.M.M.> &.q D H p Z 3.z.z.y.  M.M.M.M.M.M.M.M.M.M.M.M.M.M.M.M.M.M.M.M.M.M.M.M.M.M.M.M.M.M.M.M.M.M.M.M.M.",
"M.M.M.M.M.M.M.M.M.M.M.> &.q D H p + & u u t   M.M.M.M.M.M.M.M.M.M.M.M.M.M.M.M.M.M.M.M.M.M.M.M.M.M.M.M.M.M.M.M.M.M.M.M.M.",
"M.M.M.M.M.M.M.M.M.M.M.> &.q @ * M.M.M.M.M.M.M.M.M.M.M.M.M.M.M.M.M.M.M.M.M.M.M.M.M.M.M.M.M.M.M.M.M.M.M.M.M.M.M.M.M.M.M.M.",
"M.M.M.M.M.M.M.M.M.M.M.> &.q M.M.M.M.M.M.M.M.M.M.M.M.M.M.M.M.M.M.M.M.M.M.M.M.M.M.M.M.M.M.M.M.M.M.M.M.M.M.M.M.M.M.M.M.M.M.",
"M.M.M.M.M.M.M.M.M.M.M.> &.q M.M.M.M.M.M.M.M.M.M.M.M.M.M.M.M.M.M.M.M.M.M.M.M.M.M.M.M.M.M.M.M.M.M.M.M.M.M.M.M.M.M.M.M.M.M.",
"M.M.M.M.M.M.M.M.M.M.M.> &.q M.M.M.M.M.M.M.M.M.M.M.M.M.M.M.M.M.M.M.M.M.M.M.M.M.M.M.M.M.M.M.M.M.M.M.M.M.M.M.M.M.M.M.M.M.M.",
"M.M.M.M.M.M.M.M.M.M.M.> &.q M.M.M.M.M.M.M.M.M.M.M.M.M.M.M.M.M.M.M.M.M.M.M.M.M.M.M.M.M.M.M.M.M.M.M.M.M.M.M.M.M.M.M.M.M.M.",
"M.M.M.M.M.M.M.M.M.M.M.> &.q M.M.M.M.M.M.M.M.M.M.M.M.M.M.M.M.M.M.M.M.M.M.M.M.M.M.M.M.M.M.M.M.M.M.M.M.M.M.M.M.M.M.M.M.M.M.",
"M.M.M.M.M.M.M.M.M.M.M.> &.q M.M.M.M.M.M.M.M.M.M.M.M.M.M.M.M.M.M.M.M.M.M.M.M.M.M.M.M.M.M.M.M.M.M.M.M.M.M.M.M.M.M.M.M.M.M.",
"M.M.M.M.M.M.M.M.M.M.M.> &.q M.M.M.M.M.M.M.M.M.M.M.M.M.M.M.M.M.M.M.M.M.M.M.M.M.M.M.M.M.M.M.M.M.M.M.M.M.M.M.M.M.M.M.M.M.M.",
"M.M.M.M.M.M.M.M.M.M.M.> &.q M.M.M.M.M.M.M.M.M.M.M.M.M.M.M.M.M.M.M.M.M.M.M.M.M.M.M.M.M.M.M.M.M.M.M.M.M.M.M.M.M.M.M.M.M.M.",
"M.M.M.M.M.M.M.M.M.M.M.> &.q M.M.M.M.M.M.M.M.M.M.M.M.M.M.M.M.M.M.M.M.M.M.M.M.M.M.M.M.M.M.M.M.M.M.M.M.M.M.M.M.M.M.M.M.M.M.",
"M.M.M.M.M.M.M.M.M.M.M.: %.q M.M.M.M.M.M.M.M.M.M.M.M.M.M.M.M.M.M.M.M.M.M.M.M.M.M.M.M.M.M.M.M.M.M.M.M.M.M.M.M.M.M.M.M.M.M.",
"M.M.M.M.M.M.M.M.M.M.M.$  .4 M.M.M.M.M.M.M.M.M.M.M.M.M.M.M.M.M.M.M.M.M.M.M.M.M.M.M.M.M.M.M.M.M.M.M.M.M.M.M.M.M.M.M.M.M.M.",
"M.M.M.M.M.M.M.M.M.M.M.; $.0 M.M.M.M.M.M.M.M.M.M.M.M.M.M.M.M.M.M.M.M.M.M.M.M.M.M.M.M.M.M.M.M.M.M.M.M.M.M.M.M.M.M.M.M.M.M.",
"M.M.M.M.M.M.M.M.M.M.M.$ ..5 M.M.M.M.M.M.M.M.M.M.M.M.M.M.M.M.M.M.M.M.M.M.M.M.M.M.M.M.M.M.M.M.M.M.M.M.M.M.M.M.M.M.M.M.M.M.",
"M.M.M.M.M.M.M.M.M.M.M.$ ] 3 M.M.M.M.M.M.M.M.M.M.M.M.M.M.M.M.M.M.M.M.M.M.M.M.M.M.M.M.M.M.M.M.M.M.M.M.M.M.M.M.M.M.M.M.M.M.",
"M.M.M.M.M.M.M.M.M.M.M.; +.8 M.M.M.M.M.M.M.M.M.M.M.M.M.M.M.M.M.M.M.M.M.M.M.M.M.M.M.M.M.M.M.M.M.M.M.M.M.M.M.M.M.M.M.M.M.M.",
"M.M.M.M.M.M.M.M.M.M.M.% o.7 M.M.M.M.M.M.M.M.M.M.M.M.M.M.M.M.M.M.M.M.M.M.M.M.M.M.M.M.M.M.M.M.M.M.M.M.M.M.M.M.M.M.M.M.M.M.",
"M.M.M.M.M.M.M.M.M.M.M.$ ] 3 M.M.M.M.M.M.M.M.M.M.M.M.M.M.M.M.M.M.M.M.M.M.M.M.M.M.M.M.M.M.M.M.M.M.M.M.M.M.M.M.M.M.M.M.M.M.",
"M.M.M.M.M.M.M.M.M.M.M.# ( 1 . M.M.M.M.M.M.M.M.M.M.M.M.M.M.M.M.M.M.M.M.M.M.M.M.M.M.M.M.M.M.M.M.M.M.M.M.M.M.M.M.M.M.M.M.M.",
"M.M.M.M.M.M.M.M.M.M.k x x m M r M.M.M.M.M.M.M.M.M.M.M.M.M.M.M.M.M.M.M.M.M.M.M.M.M.M.M.M.M.M.M.M.M.M.M.M.M.M.M.M.M.M.M.M.",
"M.M.M.M.M.M.M.M.M.2 ) [ } @.O.n M.M.M.M.M.M.M.M.M.M.M.M.M.M.M.M.M.M.M.M.M.M.M.M.M.M.M.M.M.M.M.M.M.M.M.M.M.M.M.M.M.M.M.M.",
"M.M.M.M.M.M.M.M.M.= h ' { | c 9 M.M.M.M.M.M.M.M.M.M.M.M.M.M.M.M.M.M.M.M.M.M.M.M.M.M.M.M.M.M.M.M.M.M.M.M.M.M.M.M.M.M.M.M.",
"M.M.M.M.M.M.M.M.j _ ` | | | | #.N M.M.M.M.M.M.M.M.M.M.M.M.M.M.M.M.M.M.M.M.M.M.M.M.M.M.M.M.M.M.M.M.M.M.M.M.M.M.M.M.M.M.M."
};
