/* XPM */
static char *result[] = {
/* columns rows colors chars-per-pixel */
"60 60 177 2 ",
"   c #1B192B",
".  c #1B1A2B",
"X  c #1C1A2B",
"o  c #1F1C2B",
"O  c #1B192C",
"+  c #1C1A2C",
"@  c #1D1B2E",
"#  c #1E1C2F",
"$  c #201C2B",
"%  c #231E2B",
"&  c #231F2B",
"*  c #201E31",
"=  c #211E31",
"-  c #201E32",
";  c #2F2127",
":  c #27212A",
">  c #23202C",
",  c #23212C",
"<  c #24212C",
"1  c #24212D",
"2  c #24222F",
"3  c #29222A",
"4  c #362424",
"5  c #312728",
"6  c #322828",
"7  c #322929",
"8  c #322A29",
"9  c #332B2A",
"0  c #332C2B",
"q  c #332E2C",
"w  c #342E2C",
"e  c #342F2C",
"r  c #34302F",
"t  c #39332B",
"y  c #3C362D",
"u  c #3E382C",
"i  c #222133",
"p  c #242230",
"a  c #232234",
"s  c #242236",
"d  c #282739",
"f  c #2B293E",
"g  c #2C2A3D",
"h  c #2C2B3F",
"j  c #2D2C3E",
"k  c #363235",
"l  c #363336",
"z  c #363338",
"x  c #37343A",
"c  c #57301D",
"v  c #402722",
"b  c #4B2E21",
"n  c #4C2D20",
"m  c #453425",
"M  c #503B23",
"N  c #503B24",
"B  c #79551C",
"V  c #554C2D",
"C  c #554D2D",
"Z  c #665C2D",
"A  c #746933",
"S  c #2F2D41",
"D  c #333243",
"F  c #323145",
"G  c #373646",
"H  c #363549",
"J  c #373649",
"K  c #3B3B4D",
"L  c #403E4E",
"P  c #413F55",
"I  c #494645",
"U  c #4F4B40",
"Y  c #424157",
"T  c #4A4957",
"R  c #444359",
"E  c #46455A",
"W  c #46455B",
"Q  c #4A4958",
"!  c #4A4A5B",
"~  c #6D6748",
"^  c #4C4C61",
"/  c #4E4E63",
"(  c #505162",
")  c #515164",
"_  c #535464",
"`  c #58596C",
"'  c #626471",
"]  c #606472",
"[  c #646673",
"{  c #616274",
"}  c #646578",
"|  c #666779",
" . c #666878",
".. c #6C6F7C",
"X. c #875E1A",
"o. c #A4550C",
"O. c #BB5603",
"+. c #BF6105",
"@. c #C06306",
"#. c #BDA92E",
"$. c #C7870F",
"%. c #CB820C",
"&. c #CF8C0E",
"*. c #D08E0F",
"=. c #C88A11",
"-. c #CB9316",
";. c #CD9919",
":. c #D0A31E",
">. c #D3AD24",
",. c #D7BC2C",
"<. c #DDBC28",
"1. c #DEBE29",
"2. c #D9C12E",
"3. c #D9C330",
"4. c #DECA42",
"5. c #DFCC43",
"6. c #E6D243",
"7. c #E8D54B",
"8. c #E8DA6D",
"9. c #E9DD75",
"0. c #EBE07C",
"q. c #717382",
"w. c #717383",
"e. c #717480",
"r. c #727580",
"t. c #747686",
"y. c #797B8A",
"u. c #7A808D",
"i. c #7F828D",
"p. c #7D808F",
"a. c #828690",
"s. c #828593",
"d. c #838694",
"f. c #848895",
"g. c #868E99",
"h. c #888B99",
"j. c #898D9A",
"k. c #9195A1",
"l. c #9296A2",
"z. c #9499A4",
"x. c #969AA6",
"c. c #9A9FAA",
"v. c #9CA1AA",
"b. c #9FA9B2",
"n. c #A0A5B0",
"m. c #A1A6B1",
"M. c #A2A7B1",
"N. c #A4AAB4",
"B. c #ABB1BA",
"V. c #ACB2BB",
"C. c #AEB4BD",
"Z. c #B0B6BE",
"A. c #EDE487",
"S. c #F7ED8B",
"D. c #F7ED8C",
"F. c #F7EE90",
"G. c #F8EF99",
"H. c #F8F0A0",
"J. c #B2BEC5",
"K. c #BAC1C7",
"L. c #BBC1C8",
"P. c #BCC3C9",
"I. c #BFC6CC",
"U. c #C1C9CE",
"Y. c #C5CDD2",
"T. c #C7CED4",
"R. c #CDD6DA",
"E. c #D1D9DD",
"W. c #D1DBDE",
"Q. c #D3DBDF",
"!. c #D4DDE1",
"~. c #D7E0E3",
"^. c #D9E2E5",
"/. c #F5F4E9",
"(. c #FEFDF0",
"). c #FFFEFA",
"_. c None",
/* pixels */
"_._._._._._._._._._._._._._._._._._._._._._._._._._._._._._._._._._._._._._._._._._._._._._._._._._._._._._._._._._._._.",
"_._._._._._._._._._._._._._._._._._._._._._._._._._._._._._._._._._._._._._._._._._._._._._._._._._._._._._._._._._._._.",
"_._._._._._._._._._._._._._._._._._._._._._._._._._._._._._._._._._._._._._._._._._._._._._._._._._._._._._._._._._._._.",
"_._._._._._._._._._._._._._._._._._._._._._._._._._._._._._._._._._._._._._._._._._._._._._._._._._._._._._._._._._._._.",
"_._._._._._._._._._._._._._._._._._._._._._._._._._._._._._._._._._._._._._._._._._._._._._._._._._._._._._._._._._._._.",
"_._._._._._._._._._._._._._._._._._._._._._._._._._._._._._._._._._._._._._._._._._._._._._._._._._._._._._._._._._._._.",
"_._._._._._._._._._._._._._._._._._._._._._._._._._._._._._._._._._._._._._._._._._._._._._._._._._._._._._._._._._._._.",
"_._._._._._._._._._._._._._._._._._._._._._._._._._._._._._._._._._._._._._._._._._._._._._._._._._._._._._._._._._._._.",
"_._._._._._._._._._._._._._._._._._._._._._._._._._._._._._._._._._._._._._._._._._._._._._._._._._._._._._._._._._._._.",
"_._._._._._._._._._._._._._._._._._._._._._._._._._._._._._._._._._._._._._._._._._._._._._._._._._._._._._._._._._._._.",
"_._._._._._._._._._.x G G _._._._._._._._._._._._._._._._._._._._._._._._._._._._._._._._._._._._._._._._._._._._._._._.",
"_._._._._._._._._.U G.).).L _._._._._._._._._._._._._._._._._._._._._._._._._._._._._._._._._._._._._._._._._._._._._._.",
"_._._._._._._._.V 5.D.F.F./.T _._._._._._._._._._._._._._._._._._._._._._._._._._._._._._._._._._._._._._._._._._._._._.",
"_._._._._._._._.C 6.S.S.S.(.Q _._._._._._._._._._._._._._._._._._._._._._._._._._._._._._._._._._._._._._._._._._._._._.",
"_._._._._._._._.C 6.S.S.S.H.I _._._._._._._._._._._._._._._._._._._._._._._._._._._._._._._._._._._._._._._._._._._._._.",
"_._._._._._._._.u A 7.7.7.~ _._._._._._._._._._._._._._._._._._._._._._._._._._._._._._._._._._._._._._._._._._._._._._.",
"_._._._._._._._._.t Z Z Z _._._._._._._._._._._._._._._._._._._._._._._._._._._._._._._._._._._._._._._._._._._._._._._.",
"_._._._._._._._._._.: B o   + + + + + + + + + + + _._._._._._._._._._._._._._._._._._._._._._._._._._._._._._._._._._._.",
"_._._._._._._._._._.9 :.& h [ r.r.r._ S S S J e.] g _._._._._._._._._._._._._._._._._._._._._._._._._._._._._._._._._._.",
"_._._._._._._._._._.0 >.> P L.^.^.^.x.W W W ` ~.J...' K f f s . _._._._._._._._._._._._._._._._._._._._._._._._._._._._.",
"_._._._._._._._._._.8 ;.& P L.^.^.^.x.W W W ` ~.J.!.^.w.W W F . _._._._._._._._._._._._._._._._._._._._._._._._._._._._.",
"_._._._._._._._._._.e 3.< P L.^.^.^.x.W W W ` ~.J.!.^.w.W W F . _._._._._._._._._._._._._._._._._._._._._._._._._._._._.",
"_._._._._._._._._._.e 3.< ) Z.T.T.T.z.` ` ` | Y.b.W.^.w.W W F . _._._._._._._._._._._._._._._._._._._._._._._._._._._._.",
"_._._._._._._._._._.e 3.< U.} W W W j.^.^.^.T.R @ P.Q.t.^ ^ H . _._._._._._._._._._._._._._._._._._._._._._._._._._._._.",
"_._._._._._._._._._.e 3.< U.} W W W j.^.^.^.T.R @ E ^ B.Q.Q.i.. _._._._._._._._._._._._._._._._._._._._._._._._._._._._.",
"_._._._._._._._._._.e 3.< U.} W W W j.^.^.^.T.R @ P W C.^.^.a.. _._._._._._._._._._._._._._._._._._._._._._._._._._._._.",
"_._._._._._._._._._.l 9.2 U.} W W W j.^.^.^.T.R @ P W C.^.^.a.. _._._._._._._._._._._._._._._._._._._._._._._._._._._._.",
"_._._._._._._._._._.z A.p  .m.C.C.C.l.w.w.w.y.V.g./ W C.^.^.a.. _._._._._._._._._._._._._._._._._._._._._._._._._._._._.",
"_._._._._._._._._._.z A.p P L.^.^.^.x.W W W ` ~.J.N.M.h.p.p.( . _._._._._._._._._._._._._._._._._._._._._._._._._._._._.",
"_._._._._._._._._._.z A.p P L.^.^.^.x.W W W ` ~.J.!.^.w.W W F . _._._._._._._._._._._._._._._._._._._._._._._._._._._._.",
"_._._._._._._._._._.z A.p P L.^.^.^.x.W W W ` ~.J.!.^.w.W W F . _._._._._._._._._._._._._._._._._._._._._._._._._._._._.",
"_._._._._._._._._._.z A.p q.c.M.M.M.k.p.p.p.s.n.u.R.^.w.W W F . _._._._._._._._._._._._._._._._._._._._._._._._._._._._.",
"_._._._._._._._._._.k 8.2 U.} W W W j.^.^.^.T.R @ v.C.d.w.w.! . _._._._._._._._._._._._._._._._._._._._._._._._._._._._.",
"_._._._._._._._._._.r 4.1 U.} W W W j.^.^.^.T.R @ P W C.^.^.a.. _._._._._._._._._._._._._._._._._._._._._._._._._._._._.",
"_._._._._._._._._._.l 0.p U.} W W W j.^.^.^.T.R @ P W C.^.^.a.. _._._._._._._._._._._._._._._._._._._._._._._._._._._._.",
"_._._._._._._._._._.e 3.< K.{ R R R f.E.E.E.I.Y @ P W C.^.^.a.. _._._._._._._._._._._._._._._._._._._._._._._._._._._._.",
"_._._._._._._._._._.e 3.< i # @ @ @ * a a a i @ O P W C.^.^.a.. _._._._._._._._._._._._._._._._._._._._._._._._._._._._.",
"_._._._._._._._._._.e 3.< _._._._._._._._._._._._.= - j D D d . _._._._._._._._._._._._._._._._._._._._._._._._._._._._.",
"_._._._._._._._._._.e 3.< _._._._._._._._._._._._._._._._._._._._._._._._._._._._._._._._._._._._._._._._._._._._._._._.",
"_._._._._._._._._._.e 3.< _._._._._._._._._._._._._._._._._._._._._._._._._._._._._._._._._._._._._._._._._._._._._._._.",
"_._._._._._._._._._.e 3.< _._._._._._._._._._._._._._._._._._._._._._._._._._._._._._._._._._._._._._._._._._._._._._._.",
"_._._._._._._._._._.e 3.< _._._._._._._._._._._._._._._._._._._._._._._._._._._._._._._._._._._._._._._._._._._._._._._.",
"_._._._._._._._._._.e 3.< _._._._._._._._._._._._._._._._._._._._._._._._._._._._._._._._._._._._._._._._._._._._._._._.",
"_._._._._._._._._._.e 3.< _._._._._._._._._._._._._._._._._._._._._._._._._._._._._._._._._._._._._._._._._._._._._._._.",
"_._._._._._._._._._.e 3.< _._._._._._._._._._._._._._._._._._._._._._._._._._._._._._._._._._._._._._._._._._._._._._._.",
"_._._._._._._._._._.e 3.< _._._._._._._._._._._._._._._._._._._._._._._._._._._._._._._._._._._._._._._._._._._._._._._.",
"_._._._._._._._._._.e 3.< _._._._._._._._._._._._._._._._._._._._._._._._._._._._._._._._._._._._._._._._._._._._._._._.",
"_._._._._._._._._._.e 2., _._._._._._._._._._._._._._._._._._._._._._._._._._._._._._._._._._._._._._._._._._._._._._._.",
"_._._._._._._._._._.6 =.% _._._._._._._._._._._._._._._._._._._._._._._._._._._._._._._._._._._._._._._._._._._._._._._.",
"_._._._._._._._._._.w ,.> _._._._._._._._._._._._._._._._._._._._._._._._._._._._._._._._._._._._._._._._._._._._._._._.",
"_._._._._._._._._._.7 -.% _._._._._._._._._._._._._._._._._._._._._._._._._._._._._._._._._._._._._._._._._._._._._._._.",
"_._._._._._._._._._.5 $.% _._._._._._._._._._._._._._._._._._._._._._._._._._._._._._._._._._._._._._._._._._._._._._._.",
"_._._._._._._._._._.0 >.> _._._._._._._._._._._._._._._._._._._._._._._._._._._._._._._._._._._._._._._._._._._._._._._.",
"_._._._._._._._._._.9 :.& _._._._._._._._._._._._._._._._._._._._._._._._._._._._._._._._._._._._._._._._._._._._._._._.",
"_._._._._._._._._._.5 $.% _._._._._._._._._._._._._._._._._._._._._._._._._._._._._._._._._._._._._._._._._._._._._._._.",
"_._._._._._._._._.X 3 X.$ _._._._._._._._._._._._._._._._._._._._._._._._._._._._._._._._._._._._._._._._._._._._._._._.",
"_._._._._._._._.4 b M N V C _._._._._._._._._._._._._._._._._._._._._._._._._._._._._._._._._._._._._._._._._._._._._._.",
"_._._._._._._._.v o.%.*.<.#.y _._._._._._._._._._._._._._._._._._._._._._._._._._._._._._._._._._._._._._._._._._._._._.",
"_._._._._._._._.; n @.&.&.m q _._._._._._._._._._._._._._._._._._._._._._._._._._._._._._._._._._._._._._._._._._._._._.",
"_._._._._._._.c O.+.&.&.&.&.1.C _._._._._._._._._._._._._._._._._._._._._._._._._._._._._._._._._._._._._._._._._._._._."
};
