/* XPM */
static char *result[] = {
/* columns rows colors chars-per-pixel */
"60 60 184 2 ",
"   c #1C1A2B",
".  c #1F1C2B",
"X  c #1A192C",
"o  c #1B192C",
"O  c #1C1A2C",
"+  c #1D1B2E",
"@  c #1E1C2F",
"#  c #1E1C30",
"$  c #1F1D30",
"%  c #201C2B",
"&  c #231E2B",
"*  c #231F2B",
"=  c #201E32",
"-  c #2F2127",
";  c #27212A",
":  c #23202C",
">  c #23212C",
",  c #24212C",
"<  c #24212D",
"1  c #24222F",
"2  c #29222A",
"3  c #352325",
"4  c #312728",
"5  c #322828",
"6  c #322929",
"7  c #322A29",
"8  c #332B2A",
"9  c #332C2B",
"0  c #332D2B",
"q  c #342E2C",
"w  c #342F2C",
"e  c #34302F",
"r  c #39332B",
"t  c #3E382C",
"y  c #242230",
"u  c #232134",
"i  c #232234",
"p  c #242235",
"a  c #242236",
"s  c #28263A",
"d  c #29273B",
"f  c #2A293B",
"g  c #2B293E",
"h  c #2C2A3E",
"j  c #2E2D3E",
"k  c #363235",
"l  c #363336",
"z  c #363338",
"x  c #373438",
"c  c #3E3A38",
"v  c #412823",
"b  c #4A2B20",
"n  c #4B2D20",
"m  c #433D2D",
"M  c #443E2D",
"N  c #503B23",
"B  c #523C23",
"V  c #403E3C",
"C  c #79551C",
"Z  c #49422D",
"A  c #554B2C",
"S  c #554D2D",
"D  c #665C2D",
"F  c #685E31",
"G  c #2F2D41",
"H  c #2F2E40",
"J  c #302F40",
"K  c #333243",
"L  c #333245",
"P  c #373646",
"I  c #39384D",
"U  c #3C3C4C",
"Y  c #3D3C51",
"T  c #3E3D51",
"R  c #413F55",
"E  c #5C584F",
"W  c #424156",
"Q  c #444455",
"!  c #474857",
"~  c #444359",
"^  c #46455A",
"/  c #46455B",
"(  c #4C4C5F",
")  c #52505E",
"_  c #797148",
"`  c #4C4C61",
"'  c #505363",
"]  c #565669",
"[  c #595A69",
"{  c #5D5C69",
"}  c #5E5C6A",
"|  c #58596C",
" . c #585A6D",
".. c #5E606E",
"X. c #5F6071",
"o. c #626471",
"O. c #636775",
"+. c #656777",
"@. c #656876",
"#. c #666878",
"$. c #696B7A",
"%. c #696C79",
"&. c #875E1A",
"*. c #A0500C",
"=. c #BB5603",
"-. c #BD5D04",
";. c #BE5F05",
":. c #C7870F",
">. c #CB810C",
",. c #CE8A0E",
"<. c #CF8B0E",
"1. c #CF8C0E",
"2. c #C88A11",
"3. c #CB9316",
"4. c #CD9919",
"5. c #D0A31E",
"6. c #C0AB2E",
"7. c #D3AD24",
"8. c #DCB826",
"9. c #DCB926",
"0. c #D7BC2C",
"q. c #D9C12E",
"w. c #D9C330",
"e. c #DDC83B",
"r. c #E5CF3B",
"t. c #DECA42",
"y. c #E8D54B",
"u. c #E8DA6D",
"i. c #E9DD75",
"p. c #EBE07C",
"a. c #6D6F80",
"s. c #717382",
"d. c #717383",
"f. c #727580",
"g. c #717482",
"h. c #797B8A",
"j. c #797E89",
"k. c #7D808F",
"l. c #818793",
"z. c #838692",
"x. c #898D9A",
"c. c #8A8D9B",
"v. c #8D919E",
"b. c #8E929F",
"n. c #8D949F",
"m. c #9498A4",
"M. c #959AA5",
"N. c #969AA6",
"B. c #979CA7",
"V. c #9DA2AB",
"C. c #9CA1AC",
"Z. c #9DA2AD",
"A. c #9BA5AF",
"S. c #A2A7B1",
"D. c #A3ADB7",
"F. c #A6ACB5",
"G. c #A6ADB7",
"H. c #A6B0B8",
"J. c #ADB3BA",
"K. c #AEB4BD",
"L. c #B2B8BF",
"P. c #EDE487",
"I. c #F7ED8B",
"U. c #F7EE90",
"Y. c #F8F09E",
"T. c #B3BEC6",
"R. c #B9C0C7",
"E. c #B7C2CA",
"W. c #BCC3C9",
"Q. c #B8C4CB",
"!. c #BDC5CB",
"~. c #C1C9CE",
"^. c #C5CFD4",
"/. c #C7CED4",
"(. c #C7D1D6",
"). c #CDD7DB",
"_. c #D1D9DD",
"`. c #D3DBDF",
"'. c #D9E2E5",
"]. c #F6F4E1",
"[. c #FDFBE7",
"{. c #FEFDF5",
"}. c #FFFEFA",
"|. c None",
/* pixels */
"|.|.|.|.|.|.|.|.|.|.|.|.|.|.|.|.|.|.|.|.|.|.|.|.|.|.|.|.|.|.|.|.|.|.|.|.|.|.|.|.|.|.|.|.|.|.|.|.|.|.|.|.|.|.|.|.|.|.|.|.",
"|.|.|.|.|.|.|.|.|.|.|.|.|.|.|.|.|.|.|.|.|.|.|.|.|.|.|.|.|.|.|.|.|.|.|.|.|.|.|.|.|.|.|.|.|.|.|.|.|.|.|.|.|.|.|.|.|.|.|.|.",
"|.|.|.|.|.|.|.|.|.|.|.|.|.|.|.|.|.|.|.|.|.|.|.|.|.|.|.|.|.|.|.|.|.|.|.|.|.|.|.|.|.|.|.|.|.|.|.|.|.|.|.|.|.|.|.|.|.|.|.|.",
"|.|.|.|.|.|.|.|.|.|.|.|.|.|.|.|.|.|.|.|.|.|.|.|.|.|.|.|.|.|.|.|.|.|.|.|.|.|.|.|.|.|.|.|.|.|.|.|.|.|.|.|.|.|.|.|.|.|.|.|.",
"|.|.|.|.|.|.|.|.|.|.|.|.|.|.|.|.|.|.|.|.|.|.|.|.|.|.|.|.|.|.|.|.|.|.|.|.|.|.|.|.|.|.|.|.|.|.|.|.|.|.|.|.|.|.|.|.|.|.|.|.",
"|.|.|.|.|.|.|.|.|.|.|.|.|.|.|.|.|.|.|.|.|.|.|.|.|.|.|.|.|.|.|.|.|.|.|.|.|.|.|.|.|.|.|.|.|.|.|.|.|.|.|.|.|.|.|.|.|.|.|.|.",
"|.|.|.|.|.|.|.|.|.|.|.|.|.|.|.|.|.|.|.|.|.|.|.|.|.|.|.|.|.|.|.|.|.|.|.|.|.|.|.|.|.|.|.|.|.|.|.|.|.|.|.|.|.|.|.|.|.|.|.|.",
"|.|.|.|.|.|.|.|.|.|.|.|.|.|.|.|.|.|.|.|.|.|.|.|.|.|.|.|.|.|.|.|.|.|.|.|.|.|.|.|.|.|.|.|.|.|.|.|.|.|.|.|.|.|.|.|.|.|.|.|.",
"|.|.|.|.|.|.|.|.|.|.|.|.|.|.|.|.|.|.|.|.|.|.|.|.|.|.|.|.|.|.|.|.|.|.|.|.|.|.|.|.|.|.|.|.|.|.|.|.|.|.|.|.|.|.|.|.|.|.|.|.",
"|.|.|.|.|.|.|.|.|.|.|.|.|.|.|.|.|.|.|.|.|.|.|.|.|.|.|.|.|.|.|.|.|.|.|.|.|.|.|.|.|.|.|.|.|.|.|.|.|.|.|.|.|.|.|.|.|.|.|.|.",
"|.|.|.|.|.|.|.|.|.|.|.x P P |.|.|.|.|.|.|.|.|.|.|.|.|.|.|.|.|.|.|.|.|.|.|.|.|.|.|.|.|.|.|.|.|.|.|.|.|.|.|.|.|.|.|.|.|.|.",
"|.|.|.|.|.|.|.|.|.|.c U.{.}.) |.|.|.|.|.|.|.|.|.|.|.|.|.|.|.|.|.|.|.|.|.|.|.|.|.|.|.|.|.|.|.|.|.|.|.|.|.|.|.|.|.|.|.|.|.",
"|.|.|.|.|.|.|.|.|.m e.I.U.U.].{ |.|.|.|.|.|.|.|.|.|.|.|.|.|.|.|.|.|.|.|.|.|.|.|.|.|.|.|.|.|.|.|.|.|.|.|.|.|.|.|.|.|.|.|.",
"|.|.|.|.|.|.|.|.|.M r.I.I.I.[.} |.|.|.|.|.|.|.|.|.|.|.|.|.|.|.|.|.|.|.|.|.|.|.|.|.|.|.|.|.|.|.|.|.|.|.|.|.|.|.|.|.|.|.|.",
"|.|.|.|.|.|.|.|.|.M r.I.I.I.Y.E |.|.|.|.|.|.|.|.|.|.|.|.|.|.|.|.|.|.|.|.|.|.|.|.|.|.|.|.|.|.|.|.|.|.|.|.|.|.|.|.|.|.|.|.",
"|.|.|.|.|.|.|.|.|.|.F y.y.y._ V |.|.|.|.|.|.|.|.|.|.|.|.|.|.|.|.|.|.|.|.|.|.|.|.|.|.|.|.|.|.|.|.|.|.|.|.|.|.|.|.|.|.|.|.",
"|.|.|.|.|.|.|.|.|.|.|.D D D r |.|.|.|.|.|.|.|.|.|.|.|.|.|.|.|.|.|.|.|.|.|.|.|.|.|.|.|.|.|.|.|.|.|.|.|.|.|.|.|.|.|.|.|.|.",
"|.|.|.|.|.|.|.|.|.|.|.. C ; |.|.|.|.|.|.|.O O O O O O O O O O O |.|.|.|.|.|.|.|.|.|.|.|.|.|.|.|.|.|.|.|.|.|.|.|.|.|.|.|.",
"|.|.|.|.|.|.|.|.|.|.|.* 5.8 X |.|.|.|.|.U O.%.G G G G ..f.f.f.[ h |.|.|.|.|.|.|.|.|.|.|.|.|.|.|.|.|.|.|.|.|.|.|.|.|.|.|.",
"|.|.|.|.|.|.|.|.|.|.|.: 7.9 s g g g Q o.j.Q././ / / / K.'.'.'.S.I # d o |.|.|.|.|.|.|.|.|.|.|.|.|.|.|.|.|.|.|.|.|.|.|.|.",
"|.|.|.|.|.|.|.|.|.|.|.* 4.7 Y / / / x.'.).Q././ / / / K.'.'.'.S.I a R o |.|.|.|.|.|.|.|.|.|.|.|.|.|.|.|.|.|.|.|.|.|.|.|.",
"|.|.|.|.|.|.|.|.|.|.|., w.w Y / / / x.'.).Q././ / / / K.'.'.'.S.I a R o |.|.|.|.|.|.|.|.|.|.|.|.|.|.|.|.|.|.|.|.|.|.|.|.",
"|.|.|.|.|.|.|.|.|.|.|., w.w Y / / / x.'.(.H.R.| | | | F./././.Z.( L R o |.|.|.|.|.|.|.|.|.|.|.|.|.|.|.|.|.|.|.|.|.|.|.|.",
"|.|.|.|.|.|.|.|.|.|.|., w.w W ` ` ` c.`.V.a | '.'.'.'.d./ / / k.).A.^ o |.|.|.|.|.|.|.|.|.|.|.|.|.|.|.|.|.|.|.|.|.|.|.|.",
"|.|.|.|.|.|.|.|.|.|.|., w.w J.`.`.`.M.` T a | '.'.'.'.d./ / / k.).E.W.o |.|.|.|.|.|.|.|.|.|.|.|.|.|.|.|.|.|.|.|.|.|.|.|.",
"|.|.|.|.|.|.|.|.|.|.|., w.w L.'.'.'.N./ I a | '.'.'.'.d./ / / k.).Q.~.o |.|.|.|.|.|.|.|.|.|.|.|.|.|.|.|.|.|.|.|.|.|.|.|.",
"|.|.|.|.|.|.|.|.|.|.|.1 i.l L.'.'.'.N./ I a | '.'.'.'.d./ / / k.).Q.~.o |.|.|.|.|.|.|.|.|.|.|.|.|.|.|.|.|.|.|.|.|.|.|.|.",
"|.|.|.|.|.|.|.|.|.|.|.y P.z L.'.'.'.N./  .n.F.d.d.d.d.C.K.K.K.B.+.@.~.o |.|.|.|.|.|.|.|.|.|.|.|.|.|.|.|.|.|.|.|.|.|.|.|.",
"|.|.|.|.|.|.|.|.|.|.|.y P.z $.k.k.k.b.S.G.Q././ / / / K.'.'.'.S.I H s.o |.|.|.|.|.|.|.|.|.|.|.|.|.|.|.|.|.|.|.|.|.|.|.|.",
"|.|.|.|.|.|.|.|.|.|.|.y P.z Y / / / x.'.).Q././ / / / K.'.'.'.S.I a R o |.|.|.|.|.|.|.|.|.|.|.|.|.|.|.|.|.|.|.|.|.|.|.|.",
"|.|.|.|.|.|.|.|.|.|.|.y P.z Y / / / x.'.).Q././ / / / K.'.'.'.S.I a R o |.|.|.|.|.|.|.|.|.|.|.|.|.|.|.|.|.|.|.|.|.|.|.|.",
"|.|.|.|.|.|.|.|.|.|.|.y P.z Y / / / x.'.!.l.Z.k.k.k.k.B.S.S.S.m.g.' R o |.|.|.|.|.|.|.|.|.|.|.|.|.|.|.|.|.|.|.|.|.|.|.|.",
"|.|.|.|.|.|.|.|.|.|.|.1 u.k X.d.d.d.v.K.z.a | '.'.'.'.d./ / / k.).D.#.o |.|.|.|.|.|.|.|.|.|.|.|.|.|.|.|.|.|.|.|.|.|.|.|.",
"|.|.|.|.|.|.|.|.|.|.|.< t.e L.'.'.'.N./ I a | '.'.'.'.d./ / / k.).Q.~.o |.|.|.|.|.|.|.|.|.|.|.|.|.|.|.|.|.|.|.|.|.|.|.|.",
"|.|.|.|.|.|.|.|.|.|.|.y p.l L.'.'.'.N./ I a | '.'.'.'.d./ / / k.).Q.~.o |.|.|.|.|.|.|.|.|.|.|.|.|.|.|.|.|.|.|.|.|.|.|.|.",
"|.|.|.|.|.|.|.|.|.|.|., w.w L.'.'.'.N./ I p ] _._._._.a.~ ~ ~ h.^.T.~.o |.|.|.|.|.|.|.|.|.|.|.|.|.|.|.|.|.|.|.|.|.|.|.|.",
"|.|.|.|.|.|.|.|.|.|.|., w.w L.'.'.'.N./ I o @ i i i i $ + + + $ u ! ~.o |.|.|.|.|.|.|.|.|.|.|.|.|.|.|.|.|.|.|.|.|.|.|.|.",
"|.|.|.|.|.|.|.|.|.|.|., w.w j K K K f = = |.|.|.|.|.|.|.|.|.|.|.|.|.J o |.|.|.|.|.|.|.|.|.|.|.|.|.|.|.|.|.|.|.|.|.|.|.|.",
"|.|.|.|.|.|.|.|.|.|.|., w.w |.|.|.|.|.|.|.|.|.|.|.|.|.|.|.|.|.|.|.|.|.|.|.|.|.|.|.|.|.|.|.|.|.|.|.|.|.|.|.|.|.|.|.|.|.|.",
"|.|.|.|.|.|.|.|.|.|.|., w.w |.|.|.|.|.|.|.|.|.|.|.|.|.|.|.|.|.|.|.|.|.|.|.|.|.|.|.|.|.|.|.|.|.|.|.|.|.|.|.|.|.|.|.|.|.|.",
"|.|.|.|.|.|.|.|.|.|.|., w.w |.|.|.|.|.|.|.|.|.|.|.|.|.|.|.|.|.|.|.|.|.|.|.|.|.|.|.|.|.|.|.|.|.|.|.|.|.|.|.|.|.|.|.|.|.|.",
"|.|.|.|.|.|.|.|.|.|.|., w.w |.|.|.|.|.|.|.|.|.|.|.|.|.|.|.|.|.|.|.|.|.|.|.|.|.|.|.|.|.|.|.|.|.|.|.|.|.|.|.|.|.|.|.|.|.|.",
"|.|.|.|.|.|.|.|.|.|.|., w.w |.|.|.|.|.|.|.|.|.|.|.|.|.|.|.|.|.|.|.|.|.|.|.|.|.|.|.|.|.|.|.|.|.|.|.|.|.|.|.|.|.|.|.|.|.|.",
"|.|.|.|.|.|.|.|.|.|.|., w.w |.|.|.|.|.|.|.|.|.|.|.|.|.|.|.|.|.|.|.|.|.|.|.|.|.|.|.|.|.|.|.|.|.|.|.|.|.|.|.|.|.|.|.|.|.|.",
"|.|.|.|.|.|.|.|.|.|.|., w.w |.|.|.|.|.|.|.|.|.|.|.|.|.|.|.|.|.|.|.|.|.|.|.|.|.|.|.|.|.|.|.|.|.|.|.|.|.|.|.|.|.|.|.|.|.|.",
"|.|.|.|.|.|.|.|.|.|.|., w.w |.|.|.|.|.|.|.|.|.|.|.|.|.|.|.|.|.|.|.|.|.|.|.|.|.|.|.|.|.|.|.|.|.|.|.|.|.|.|.|.|.|.|.|.|.|.",
"|.|.|.|.|.|.|.|.|.|.|., w.w |.|.|.|.|.|.|.|.|.|.|.|.|.|.|.|.|.|.|.|.|.|.|.|.|.|.|.|.|.|.|.|.|.|.|.|.|.|.|.|.|.|.|.|.|.|.",
"|.|.|.|.|.|.|.|.|.|.|.> q.w |.|.|.|.|.|.|.|.|.|.|.|.|.|.|.|.|.|.|.|.|.|.|.|.|.|.|.|.|.|.|.|.|.|.|.|.|.|.|.|.|.|.|.|.|.|.",
"|.|.|.|.|.|.|.|.|.|.|.& 2.5 |.|.|.|.|.|.|.|.|.|.|.|.|.|.|.|.|.|.|.|.|.|.|.|.|.|.|.|.|.|.|.|.|.|.|.|.|.|.|.|.|.|.|.|.|.|.",
"|.|.|.|.|.|.|.|.|.|.|.: 0.q |.|.|.|.|.|.|.|.|.|.|.|.|.|.|.|.|.|.|.|.|.|.|.|.|.|.|.|.|.|.|.|.|.|.|.|.|.|.|.|.|.|.|.|.|.|.",
"|.|.|.|.|.|.|.|.|.|.|.& 3.6 |.|.|.|.|.|.|.|.|.|.|.|.|.|.|.|.|.|.|.|.|.|.|.|.|.|.|.|.|.|.|.|.|.|.|.|.|.|.|.|.|.|.|.|.|.|.",
"|.|.|.|.|.|.|.|.|.|.|.& :.4 |.|.|.|.|.|.|.|.|.|.|.|.|.|.|.|.|.|.|.|.|.|.|.|.|.|.|.|.|.|.|.|.|.|.|.|.|.|.|.|.|.|.|.|.|.|.",
"|.|.|.|.|.|.|.|.|.|.|.: 7.9 |.|.|.|.|.|.|.|.|.|.|.|.|.|.|.|.|.|.|.|.|.|.|.|.|.|.|.|.|.|.|.|.|.|.|.|.|.|.|.|.|.|.|.|.|.|.",
"|.|.|.|.|.|.|.|.|.|.|.* 5.8 |.|.|.|.|.|.|.|.|.|.|.|.|.|.|.|.|.|.|.|.|.|.|.|.|.|.|.|.|.|.|.|.|.|.|.|.|.|.|.|.|.|.|.|.|.|.",
"|.|.|.|.|.|.|.|.|.|.|.& :.4 |.|.|.|.|.|.|.|.|.|.|.|.|.|.|.|.|.|.|.|.|.|.|.|.|.|.|.|.|.|.|.|.|.|.|.|.|.|.|.|.|.|.|.|.|.|.",
"|.|.|.|.|.|.|.|.|.|.|.% &.2   |.|.|.|.|.|.|.|.|.|.|.|.|.|.|.|.|.|.|.|.|.|.|.|.|.|.|.|.|.|.|.|.|.|.|.|.|.|.|.|.|.|.|.|.|.",
"|.|.|.|.|.|.|.|.|.|.n N N A S t |.|.|.|.|.|.|.|.|.|.|.|.|.|.|.|.|.|.|.|.|.|.|.|.|.|.|.|.|.|.|.|.|.|.|.|.|.|.|.|.|.|.|.|.",
"|.|.|.|.|.|.|.|.|.3 *.>.<.8.6.Z |.|.|.|.|.|.|.|.|.|.|.|.|.|.|.|.|.|.|.|.|.|.|.|.|.|.|.|.|.|.|.|.|.|.|.|.|.|.|.|.|.|.|.|.",
"|.|.|.|.|.|.|.|.|.- v ;.,.1.B 0 |.|.|.|.|.|.|.|.|.|.|.|.|.|.|.|.|.|.|.|.|.|.|.|.|.|.|.|.|.|.|.|.|.|.|.|.|.|.|.|.|.|.|.|.",
"|.|.|.|.|.|.|.|.b =.-.1.1.1.1.9.D |.|.|.|.|.|.|.|.|.|.|.|.|.|.|.|.|.|.|.|.|.|.|.|.|.|.|.|.|.|.|.|.|.|.|.|.|.|.|.|.|.|.|."
};
