/* XPM */
static char *result[] = {
/* columns rows colors chars-per-pixel */
"60 38 161 2 ",
"   c #1B192C",
".  c #1B1C31",
"X  c #241E2D",
"o  c #291F2C",
"O  c #1D293E",
"+  c #1D2239",
"@  c #26202E",
"#  c #36242C",
"$  c #252334",
"%  c #262538",
"&  c #29273B",
"*  c #2B293E",
"=  c #302B3C",
"-  c #4B2C2C",
";  c #502F2C",
":  c #5E332C",
">  c #4E3631",
",  c #533B3C",
"<  c #513735",
"1  c #6E392C",
"2  c #65362C",
"3  c #753C2C",
"4  c #763F30",
"5  c #594138",
"6  c #644435",
"7  c #734C34",
"8  c #7C5135",
"9  c #1C2744",
"0  c #1D2E46",
"q  c #1C2C4D",
"w  c #1E334A",
"e  c #1F3B54",
"r  c #1F3E58",
"t  c #1D345C",
"y  c #2D2C40",
"u  c #333145",
"i  c #36354A",
"p  c #38374C",
"a  c #3C3B4C",
"s  c #3D3D52",
"d  c #3A3E59",
"f  c #1E3E69",
"g  c #403442",
"h  c #403E54",
"j  c #20405B",
"k  c #3E4159",
"l  c #1E4172",
"z  c #204864",
"x  c #214E6B",
"c  c #224569",
"v  c #21516E",
"b  c #204F74",
"n  c #225675",
"m  c #225B7B",
"M  c #205179",
"N  c #534341",
"B  c #414356",
"V  c #46455B",
"C  c #494C5F",
"Z  c #545A5A",
"A  c #67554B",
"S  c #745545",
"D  c #7F6756",
"F  c #4C4D62",
"G  c #4F5165",
"H  c #495B62",
"J  c #525669",
"K  c #56596E",
"L  c #5B5E72",
"P  c #5E6377",
"I  c #5F6478",
"U  c #756F65",
"Y  c #62677B",
"T  c #80412B",
"R  c #8B472E",
"E  c #874F32",
"W  c #8B5936",
"Q  c #915D37",
"!  c #985E36",
"~  c #95492B",
"^  c #A54F2B",
"/  c #B8562B",
"(  c #96613A",
")  c #AE6234",
"_  c #B26F3A",
"`  c #B4713A",
"'  c #C65C2B",
"]  c #936543",
"[  c #916F53",
"{  c #8F7159",
"}  c #97785C",
"|  c #977558",
" . c #B47947",
".. c #DD883E",
"X. c #B88D62",
"o. c #BA9269",
"O. c #B99067",
"+. c #DF934D",
"@. c #E6B278",
"#. c #1F4B84",
"$. c #294F84",
"%. c #215F99",
"&. c #236282",
"*. c #246A8C",
"=. c #356F87",
"-. c #257296",
";. c #25799D",
":. c #257599",
">. c #236A97",
",. c #2161A9",
"<. c #2162A5",
"1. c #267EA4",
"2. c #2168B9",
"3. c #247AB9",
"4. c #216FC3",
"5. c #2274CC",
"6. c #2378CA",
"7. c #2276D0",
"8. c #237BD1",
"9. c #2787AE",
"0. c #278AB1",
"q. c #288EB6",
"w. c #2683BA",
"e. c #2894BE",
"r. c #278ECB",
"t. c #2997C1",
"y. c #299BC5",
"u. c #299FCA",
"i. c #2792CF",
"p. c #2483D3",
"a. c #258BD4",
"s. c #2794D6",
"d. c #299ED8",
"f. c #289CD7",
"g. c #2AA2CF",
"h. c #2AA5D3",
"j. c #29A4D9",
"k. c #2BADDB",
"l. c #2FB0DC",
"z. c #33B2DE",
"x. c #38B6DF",
"c. c #3CB9E1",
"v. c #39B6E0",
"b. c #42BDE3",
"n. c #4EC5E7",
"m. c #51C7E8",
"M. c #56CBEA",
"N. c #5CCFEB",
"B. c #5FD1ED",
"V. c #62D3ED",
"C. c #6CDAF1",
"Z. c #82818C",
"A. c #8E8D97",
"S. c #95959E",
"D. c #9F9EA6",
"F. c #A3A2AA",
"G. c #B7B6BC",
"H. c #C6C5CA",
"J. c #DDDDE0",
"K. c white",
"L. c None",
/* pixels */
"L.L.L.L.L.L.L.L.L.L.L.L.L.L.L.L.L.L.L.L.L.L.L.L.L.L.L.L.L.L.L.L.L.L.L.L.L.L.L.L.L.L.L.L.L.L.L.L.L.L.L.L.L.L.L.L.L.L.L.L.",
"L.L.L.L.L.L.L.L.L.L.L.L.L.L.L.L.L.L.L.L.L.L.L.L.L.L.L.L.L.L.L.L.L.L.L.L.L.L.L.L.L.L.L.L.L.L.L.L.L.L.L.L.L.L.L.L.L.L.L.L.",
"L.L.L.L.L.L.L.L.L.L.L.L.L.L.L.L.L.L.L.L.L.L.L.L.L.L.L.L.L.L.L.L.L.L.L.L.L.L.L.L.L.L.L.L.L.L.L.L.L.L.L.L.L.L.L.L.L.L.L.L.",
"L.L.L.L.L.L.L.L.L.L.L.L.L.L.L.L.L.L.L.L.L.L.L.L.L.L.L.L.L.L.L.L.L.L.L.L.L.L.L.L.L.L.L.L.L.L.L.L.L.L.L.L.L.L.L.L.L.L.L.L.",
"L.L.L.L.L.L.L.L.L.L.L.L.L.L.L.L.L.L.L.L.L.L.L.L.L.L.L.L.L.L.L.L.L.L.L.L.L.L.L.L.L.L.L.L.L.L.L.L.L.L.L.L.L.L.L.L.L.L.L.L.",
"L.L.L.L.L.L.L.L.L.L.L.L.L.L.L.L.L.L.L.L.L.L.L.L.L.L.L.L.L.L.L.L.L.L.L.L.L.L.L.L.L.L.L.L.L.L.L.L.L.L.L.L.L.L.L.L.L.L.L.L.",
"L.L.L.L.L.L.L.L.L.L.L.L.L.L.L.L.L.L.L.L.L.L.L.L.L.L.L.L.L.L.L.L.L.L.L.L.L.L.L.L.L.L.L.L.L.L.L.L.L.L.L.L.L.L.L.L.L.L.L.L.",
"L.L.L.L.L.L.L.L.L.L.L.L.L.L.L.L.L.L.L.L.L.L.                          L.L.L.L.L.L.L.L.L.L.L.L.L.L.L.L.L.L.L.L.L.L.L.L.L.",
"L.L.L.L.L.L.L.L.L.L.L.L.L.L.L.L.L.L.L.L.L.r z z z z z z z z z z z z z j L.L.L.L.L.L.L.L.L.L.L.L.L.L.L.L.L.L.L.L.L.L.L.L.",
"L.L.L.L.L.L.L.L.L.L.L.L.L.L.L.L.L.L.L.    *.k.k.k.k.k.k.k.k.k.k.k.k.k.;.        L.L.L.L.L.L.L.L.L.L.L.L.L.L.L.L.L.L.L.L.",
"L.L.L.L.L.L.L.L.L.L.L.L.L.L.L.L.    v 1.1.t.k.k.k.k.k.k.k.k.k.k.k.k.k.y.1.1.1.-.0     L.L.L.L.L.L.L.L.L.L.L.L.L.L.L.L.L.",
"L.L.L.L.L.L.L.L.L.L.L.L.L.L.L.e x x ;.k.k.k.k.k.k.k.k.k.k.k.k.k.k.k.k.k.k.k.k.g.m v z L.L.L.L.L.L.L.L.L.L.L.L.L.L.L.L.L.",
"L.L.L.L.L.L.L.L.L.L.L.L.L.L.+ v k.k.k.l.z.k.k.k.k.k.k.k.k.k.k.k.k.k.k.k.k.k.k.k.k.k.0.O L.L.L.L.L.L.L.L.L.L.L.L.L.L.L.L.",
"L.L.L.L.L.L.L.L.L.L.L.L.L.  *.e.k.k.c.N.M.b.k.k.k.k.k.k.k.k.k.k.k.k.k.k.k.k.k.k.k.k.h.9.z L.L.L.L.L.L.L.L.L.L.L.L.L.L.L.",
"L.L.L.L.L.L.L.L.L.L.L.L.w n q.k.k.b.M.C.C.M.b.k.x.c.k.k.k.k.k.k.k.k.k.k.k.k.k.k.k.k.k.k.-.z L.L.L.L.L.L.L.L.L.L.L.L.L.L.",
"L.L.L.L.L.L.L.L.L.L.L.O x h.k.k.l.B.C.C.C.C.B.k.m.m.k.k.k.k.k.k.k.k.k.k.k.k.k.k.k.k.k.k.k.9.O L.L.L.L.L.L.L.L.L.L.L.L.L.",
"L.L.L.L.L.L.L.L.L.L.  m e.k.k.k.l.M.C.C.C.C.B.k.l.z.k.k.k.k.k.k.k.k.k.k.k.k.k.k.k.k.k.k.k.g.0.e L.L.L.L.L.L.L.L.L.L.L.L.",
"L.L.L.L.L.L.L.L.L.L.  *.k.k.k.k.k.n.N.C.C.M.n.k.k.k.k.k.k.k.k.k.k.k.k.k.k.k.k.k.k.k.k.k.k.k.h.r   L.L.L.L.L.L.L.L.L.L.L.",
"L.L.L.L.L.L.L.L.L.L.w :.k.k.z.z.z.k.b.V.V.n.k.k.k.k.k.k.k.k.k.k.k.k.k.k.k.k.k.k.k.k.k.k.k.k.h.x 0 L.L.L.L.L.L.L.L.L.L.L.",
"L.L.L.L.L.L.L.L.L.w 9.g.k.k.n.B.V.v.z.z.z.l.k.k.k.k.k.k.k.k.k.k.k.k.k.k.k.k.k.k.k.k.k.k.k.k.k.u.&.  L.L.L.L.L.L.L.L.L.L.",
"L.L.L.L.L.L.L.L.L.w e.k.k.k.M.C.C.v.k.k.k.k.k.k.k.k.k.k.k.k.k.k.k.k.k.k.k.k.k.k.k.k.k.k.k.k.k.k.*.  L.L.L.L.L.L.L.L.L.L.",
"L.L.L.L.L.L.L.L.L.w e.k.k.k.n.B.B.v.g.q.q.q.q.q.q.q.q.q.q.q.q.q.t.f.j.k.k.k.k.k.k.k.k.k.k.k.k.k.*.  L.L.L.L.L.L.L.L.L.L.",
"L.L.L.L.L.L.L.L.L.w t.k.k.k.l.z.l.k.-.9 O O O O O O O O O O O O f 6.f.k.k.k.k.k.k.k.k.k.k.k.k.k.*.  L.L.L.L.L.L.L.L.L.L.",
"L.L.L.L.L.L.L.L.x ;.g.k.k.k.k.q.n n Z ( | | | } ] ] } ( ( W ( W S c b >.a.j.k.k.k.k.k.k.k.k.k.k.w.#.9 L.L.L.L.L.L.L.L.L.",
"L.L.L.L.L.L.L.  m k.k.k.k.k.e.=.N < 8  .X.o.o.o. .X.o. .` _ _ _ ! ; - d ,.r.j.k.k.k.k.k.j.j.k.k.s.2.9 L.L.L.L.L.L.L.L.L.",
"L.L.L.L.L.L.L.  m k.k.k.k.k.v A @.+.W X @ $ @ @ X X @ @ X @ @ X - ' ' R + ,.s.j.k.k.k.k.a.a.k.k.s.2.9 L.L.L.L.L.L.L.L.L.",
"L.L.L.L.L.L.L.  m k.k.k.e.v U { A 6 , i i i i i u u u i i i i i g : 2 1 R d %.a.j.k.k.k.j.d.k.k.s.2.9 L.L.L.L.L.L.L.L.L.",
"L.L.L.L.L.L.L.  m k.k.e.=.5 [ D * * i B a p s G G G G s p a C G V * % > ~ 2 F <.s.j.k.f.f.j.k.k.s.2.9 L.L.L.L.L.L.L.L.L.",
"L.L.L.L.L.L.L.  m k.k.m > ..6 * V V V h $   * P Y Y Y *   % L Y L V V i X ^ 3 9 2.s.d.8.7.a.k.k.s.2.9 L.L.L.L.L.L.L.L.L.",
"L.L.L.L.L.L.L.  m l.k.m > ..6 * V V i a F.G.S.i J J p S.G.F.V F Y L L V X ^ T y 2.s.d.8.7.a.k.a.p.2.9 L.L.L.L.L.L.L.L.L.",
"L.L.L.L.L.L.L.  m g.1.H 7 ( , u V F a a J.K.H.% C C % H.K.J.a B Y Y Y F = 4 3 , $.3.s.a.a.s.k.p.7.2.9 L.L.L.L.L.L.L.L.L.",
"L.L.L.L.L.L.L.  m e.0 W ` o i V V L V a J.K.H.$ C C $ H.K.J.a B Y Y Y L V $ 1 / # #.p.k.k.k.j.p.5.2.9 L.L.L.L.L.L.L.L.L.",
"L.L.L.L.L.L.L.  m t.0 W _ X i V V L V a J.K.H.% C F $ H.K.J.a B Y Y Y Y K * 1 / # #.p.k.k.j.p.8.7.2.9 L.L.L.L.L.L.L.L.L.",
"L.L.L.L.L.L.L.  M w.y R ) X i V C L F a A.D.Z.u G G u Z.D.A.a F Y Y Y Y P y 1 / # #.8.s.s.a.7.7.7.2.9 L.L.L.L.L.L.L.L.L.",
"L.L.L.L.L.L.L.  l ,.+ T ^ X i V V L K B & $ * V K L C * $ & B K Y Y Y Y P y 1 / # #.8.7.7.7.7.4.4.,.9 L.L.L.L.L.L.L.L.L.",
"L.L.L.L.L.L.L.L.q q . 7 ^ X i V V L Y L K J K L I P P K J K L P Y Y Y Y P * 1 / # #.8.7.7.7.7.f q q L.L.L.L.L.L.L.L.L.L.",
"L.L.L.L.L.L.L.L.L.    2 2   * u u s B B B k B B B B k B B B B k B B B B B $ - 1 o t #.#.#.#.#.q   L.L.L.L.L.L.L.L.L.L.L.",
"L.L.L.L.L.L.L.L.L.L.L.                                                                        L.L.L.L.L.L.L.L.L.L.L.L.L."
};
