/* XPM */
static char *result[] = {
/* columns rows colors chars-per-pixel */
"60 38 193 2 ",
"   c #1B192C",
".  c #1B1D34",
"X  c #241E2D",
"o  c #291F2C",
"O  c #1D293E",
"+  c #1C233E",
"@  c #26202E",
"#  c #36242C",
"$  c #252334",
"%  c #29273B",
"&  c #2B293D",
"*  c #262538",
"=  c #302D3E",
"-  c #4B2C2C",
";  c #5E332C",
":  c #4E3631",
">  c #523A39",
",  c #502F2C",
"<  c #6E392C",
"1  c #65362C",
"2  c #753C2C",
"3  c #763F30",
"4  c #594138",
"5  c #644435",
"6  c #784F35",
"7  c #1C2643",
"8  c #1D2D45",
"9  c #1C2C4D",
"0  c #1E3148",
"q  c #1E395A",
"w  c #1A255B",
"e  c #2D2D40",
"r  c #353446",
"t  c #36354A",
"y  c #3C3B4C",
"u  c #38374C",
"i  c #3D3D52",
"p  c #3A3E59",
"a  c #1E3B63",
"s  c #1E3B68",
"d  c #192C76",
"f  c #40394B",
"g  c #3E4159",
"h  c #20405B",
"j  c #1F4466",
"k  c #1E4375",
"l  c #214A69",
"z  c #21516E",
"x  c #244974",
"c  c #225B7B",
"v  c #215576",
"b  c #374B75",
"n  c #414356",
"m  c #46455B",
"M  c #4A4C5C",
"N  c #464856",
"B  c #524E52",
"V  c #67554B",
"C  c #745545",
"Z  c #7F6756",
"A  c #4C4D62",
"S  c #4F5165",
"D  c #495B62",
"F  c #525669",
"G  c #56596E",
"H  c #5C5D6A",
"J  c #555564",
"K  c #5B5E72",
"L  c #4A5B77",
"P  c #5E616F",
"I  c #5E6376",
"U  c #5F6478",
"Y  c #62616F",
"T  c #6B6A76",
"R  c #62677B",
"E  c #666876",
"W  c #70737F",
"Q  c #756F65",
"!  c #80412B",
"~  c #8B472E",
"^  c #8B5936",
"/  c #915D37",
"(  c #985E36",
")  c #8E4C2F",
"_  c #A54F2B",
"`  c #B8562B",
"'  c #96613A",
"]  c #B26F3A",
"[  c #B4713A",
"{  c #AE6234",
"}  c #C65C2B",
"|  c #936543",
" . c #97785C",
".. c #977558",
"X. c #907056",
"o. c #B47947",
"O. c #DD883E",
"+. c #BA9269",
"@. c #B88D62",
"#. c #DF934D",
"$. c #E6B278",
"%. c #173CB2",
"&. c #1F4B84",
"*. c #1E5199",
"=. c #215C9B",
"-. c #2E548B",
";. c #24698A",
":. c #356F87",
">. c #25769A",
",. c #236A97",
"<. c #1F59AC",
"1. c #1C52B5",
"2. c #3959BD",
"3. c #205EA5",
"4. c #2161A9",
"5. c #2265A4",
"6. c #267EA4",
"7. c #2169B9",
"8. c #216AB1",
"9. c #2476B7",
"0. c #727884",
"q. c #6C778A",
"w. c #5266AB",
"e. c #1D5CC2",
"r. c #1F64C6",
"t. c #206EC8",
"y. c #2378CB",
"u. c #2276D0",
"i. c #237BD1",
"p. c #3C6BC7",
"a. c #288EB6",
"s. c #2683BA",
"d. c #2894BE",
"f. c #2786AD",
"g. c #7E838E",
"h. c #2997C1",
"j. c #299AC8",
"k. c #2484D3",
"l. c #258BD4",
"z. c #2794D6",
"x. c #289BD7",
"c. c #289DD8",
"v. c #278ECB",
"b. c #2AA4D9",
"n. c #2BADDB",
"m. c #2AA3D3",
"M. c #33B2DE",
"N. c #38B6DF",
"B. c #2DA9D6",
"V. c #3CB8E1",
"C. c #42BDE3",
"Z. c #4EC5E7",
"A. c #5CCFEB",
"S. c #54CAE9",
"D. c #5FD1ED",
"F. c #62D3ED",
"G. c #6CDAF1",
"H. c #82818C",
"J. c #898C96",
"K. c #92939C",
"L. c #9B9EA6",
"P. c #9398A2",
"I. c #9CA3AC",
"U. c #9EA7B5",
"Y. c #A2A3AB",
"T. c #ADACB3",
"R. c #A3ACB5",
"E. c #B7B6BC",
"W. c #AEB5BB",
"Q. c #889CC7",
"!. c #9AABD8",
"~. c #9CA8C2",
"^. c #B6BBC1",
"/. c #BCC4C9",
"(. c #B9C1C7",
"). c #C5C5CA",
"_. c #C5CBCF",
"`. c #C7CED3",
"'. c #CFD8DC",
"]. c #D3D7DB",
"[. c #DDDDE1",
"{. c #D3DBE4",
"}. c #DCE4E7",
"|. c #DDE2F4",
" X c #E2E7EA",
".X c #E5EBEC",
"XX c #EBEBEC",
"oX c #EEF2F3",
"OX c #F2F4F5",
"+X c #F5F7F8",
"@X c #FEFEFE",
"#X c #E9EEF0",
"$X c None",
/* pixels */
"$X$X$X$X$X$X$X$X$X$X$X$X$X$X$X$X$X$X$X$X$X$X$X$X$X$X$XX   $X$X$X$X$X$X$X$X$X$X$X$X$X$X$X$X$X$X$X$X$X$X$X$X$X$X$X$X$X$X$X",
"$X$X$X$X$X$X$X$X$X$X$X$X$X$X$X$X$X$X$X$X$X$X$X$X$X$X$ W Y $X$X$X$X$X$X$X$X$X$X$X$X$X$X$X$X$X$X$X$X$X$X$X$X$X$X$X$X$X$X$X",
"$X$X$X$X$X$X$X$X$X$X$X$X$X$X$X$X$X$X$X$X$X$X$X$X$X$XJ ^.L.n $X$X$X$X$X$X$X$X$X$X$X$X$X$X$X$X$X$X$X$X$X$X$X$X$X$X$X$X$X$X",
"$X$X$X$X$X$X$X$X$X$X$X$X$X$X$X$X$X$X$X$X$X$X$X$X  T  X+X XW.r $X$X$X$X$X$X$X$X$X$X$X$X$X$X$X$X$X$X$X$X$X$X$X$X$X$X$X$X$X",
"$X$X$X$X$X$X$X$X$X$X$X$X$X$X$X$X$X$X$X$X$X$X$X$X  T @X@XOX/.r $X$X$X$X$X$X$X$X$X$X$X$X$X$X$X$X$X$X$X$X$X$X$X$X$X$X$X$X$X",
"$X$X$X$X$X$X$X$X$X$X$X$X$X$X$X$X$X$X$X$X$X$X$X$XM K.@X@XoX_.H y $X$X$X$X$X$X$X$X$X$X$X$X$X$X$X$X$X$X$X$X$X$X$X$X$X$X$X$X",
"$X$X$X$X$X$X$X$X$X$X$X$X$X$X$X$X$X$X$X$X$X$X$X  T.+X@X@X#X}.W.I   $X$X$X$X$X$X$X$X$X$X$X$X$X$X$X$X$X$X$X$X$X$X$X$X$X$X$X",
"$X$X$X$X$X$X$X$X      $X$X$X$X$X$X$X$X$X$X$X    I.XX.X#X}.'.(.P       $X$X$X$X$X$X$X$X$X$X$X$X$X      $X$X$X$X$X$X$X$X$X",
"$X$X$X$X$X$X$X  r H H M $X$X$X$X$X$X$X$X$Xq j q q.R.!.!.~.L.J.L a j j h $X$X$X$X$X$X$X$X$X$X$XH P M * $X$X$X$X$X$X$X$X$X",
"$X$X$X$X$X$X$X  W  X@XH.    $X$X$X$X$X    ;.c.i.s w %.%.d     &.k.b.n.>.        $X$X$X$X    $ ).oX/.t $X$X$X$X$X$X$X$X$X",
"$X$X$X$X$X$X$X  W  X+X].E.E.Y       z f.f.d.n.x.8.<.t.r.<.<.=.9.b.n.n.j.f.f.>.>.e       J.E.^.oXOX/.t $X$X$X$X$X$X$X$X$X",
"$X$X$X$X$X$X$X$XP Y. X@X@X@XT 8 z z >.n.n.n.n.n.x.l.k.l.l.l.l.b.n.n.n.n.n.n.n.j.;.0 = T `.@X@X+X_.J.r $X$X$X$X$X$X$X$X$X",
"$X$X$X$X$X$X$X$X$Xr /.oX+X+XT v n.n.n.n.M.n.n.n.n.n.n.n.n.n.n.n.n.n.n.n.n.n.n.n.b.c S OX@X@X@X}.H.  $X$X$X$X$X$X$X$X$X$X",
"$X$X$X$X$X$X$X$X$Xr R.'.).H -.9.n.n.C.A.A.V.n.n.n.n.n.n.n.n.n.n.n.n.n.n.n.n.n.n.n.8.w.OX@X+X X`.0.  $X$X$X$X$X$X$X$X$X$X",
"$X$X$X$X$X$X$X$X$Xe W g.q.x 8.x.n.C.S.G.G.A.V.n.V.V.n.n.n.n.n.n.n.n.n.n.n.n.n.n.n.i.p.!.{.}./.J.H $X$X$X$X$X$X$X$X$X$X$X",
"$X$X$X$X$X$X$X$X$X$X  . a y.c.n.n.A.G.G.G.G.D.M.Z.S.n.n.n.n.n.n.n.n.n.n.n.n.n.n.n.z.r.1.Q.(.I.g   $X$X$X$X$X$X$X$X$X$X$X",
"$X$X$X$X$X$X$X$X$X$X  s 9.m.n.n.M.A.G.G.G.G.A.n.N.N.n.n.n.n.n.n.n.n.n.n.n.n.n.n.n.b.z.r.b g g .   $X$X$X$X$X$X$X$X$X$X$X",
"$X$X$X$X$X$X$X$X$X$X  ;.z.n.n.n.n.C.A.G.G.A.C.n.n.n.n.n.n.n.n.n.n.n.n.n.n.n.n.n.n.n.n.z.=.k k O   $X$X$X$X$X$X$X$X$X$X$X",
"$X$X$X$X$X$X$X$X$X$X8 >.n.n.M.M.M.n.Z.A.A.V.n.n.n.n.n.n.n.n.n.n.n.n.n.n.n.n.n.n.n.n.n.n.z.i.i.j 8 $X$X$X$X$X$X$X$X$X$X$X",
"$X$X$X$X$X$X$X$X$X0 f.m.n.n.S.D.F.N.M.M.n.n.n.n.n.n.n.n.n.n.n.n.n.n.n.n.n.n.n.n.n.n.n.n.b.b.b.j.;.  $X$X$X$X$X$X$X$X$X$X",
"$X$X$X$X$X$X$X$X$X0 h.n.n.n.S.G.G.N.n.n.n.n.b.n.n.n.n.n.n.n.n.n.n.n.n.n.n.n.n.n.n.n.n.n.n.n.n.n.;.  $X$X$X$X$X$X$X$X$X$X",
"$X$X$X$X$X$X$X$X$X0 h.n.n.n.Z.D.A.N.j.a.a.a.a.a.a.a.a.a.d.d.a.a.d.m.n.n.n.n.n.n.n.n.n.n.n.n.n.n.;.  $X$X$X$X$X$X$X$X$X$X",
"$X$X$X$X$X$X$X$X$X8 h.n.n.n.n.M.M.M.,.O O . O + O O O O O O O O a y.x.n.n.n.n.n.n.n.n.n.n.n.n.n.;.  $X$X$X$X$X$X$X$X$X$X",
"$X$X$X$X$X$X$X$Xz >.m.n.n.n.n.a.v v J ' ..@.X.@.' C @.' / / ^ ^ C k z ,.z.b.n.n.n.n.n.n.n.n.n.n.s.&.7 $X$X$X$X$X$X$X$X$X",
"$X$X$X$X$X$X$X  c n.n.n.n.n.d.:.B : 6 o.@.+.+.+.@.o.@.o.] ] ] ] ( , - f 8.l.b.n.n.n.n.n.b.b.n.n.z.7.7   $X$X$X$X$X$X$X$X",
"$X$X$X$X$X$X$X  c n.n.n.n.n.z V $.#.^ X X $ @ $ @   @ @ @ @ @ @ - } } ~ . 4.l.n.n.n.n.n.l.l.n.n.z.7.+     $X$X$X$X$X$X$X",
"$X$X$X$X$X      c n.n.n.d.z Q X.C 5 > u t t u t h r r r t t r r f ; ; < ~ p =.l.n.n.n.n.c.c.n.z.5.b K.T.K.$   $X$X$X$X$X",
"$X$X$X$XJ H J & c n.n.d.:.4 X.Z * * r m y u i A B J S g u y A S f e % > ) < A <.z.b.b.x.x.b.n.k.*.b  X@X].T Y J $X$X$X$X",
"$X$X$X  T.OX'.M c n.n.c : O.5 & m m m f @   e U R R R r   * G R K m m i X _ 3 7 7.z.x.i.u.l.n.k.e.2.|.@X@X@X@XT.  $X$X$X",
"$X$XN L. XOX].N c n.n.c : O.5 & m m u i Y.E.K.u F S t K.E.Y.n S U K K f X _ ! e 7.z.x.i.u.l.n.i.e.2.|.@X@X@X@X}.L.N $X$X",
"$X$XN K.'.#X].M c m.6.D 6 ( > t m A u y [.@X).* M M $ ).@X].y n R R q.F = 2 2 > -.9.z.l.l.z.n.k.<.-.{.oXOXOXOX].K.N $X$X",
"$X$X$X  K.'.`.N c h.8 ^ [ X t m m K m y [.@X).* M A $ ).@X Xy n R R K K f * < ` # &.l.B.n.n.b.i.&.u (.}.].'.'.K.  $X$X$X",
"$X$X$X$XN M M $ c h.8 ^ [ X t m A K n y [.@X).* A M * ).@X[.y n R R R R G & < ` # &.l.n.n.c.k.i.&.r R.(.U.S M N $X$X$X$X",
"$X$X$X$X$X      v s.7 ~ { o t m m K A y J.L.H.r S S r H.Y.J.f A R R R R U e < ` # &.i.z.z.l.u.u.3.x W 0.E $   $X$X$X$X$X",
"$X$X$X$X$X$X$X  x <.7 ! _ X t m m K K n & $ & m K K m e $ * n G R R R R I & < ` # &.i.u.u.u.u.t.t.4.7     $X$X$X$X$X$X$X",
"$X$X$X$X$X$X$X$X7 9 . 6 _ X t m m K U H G F G K K R K G F G K I R R R R I & < ` # &.u.u.u.u.u.s 9 9 $X$X$X$X$X$X$X$X$X$X",
"$X$X$X$X$X$X$X$X$X    ; 1 X * r r i g g n g n n n n n f m g g g n n g n g * - < o q &.&.&.&.k 9   $X$X$X$X$X$X$X$X$X$X$X",
"$X$X$X$X$X$X$X$X$X$X$X                                    .                                 . $X$X$X$X$X$X$X$X$X$X$X$X$X"
};
