/* XPM */
static char *result[] = {
/* columns rows colors chars-per-pixel */
"60 38 195 2 ",
"   c #1B192C",
".  c #1B1C31",
"X  c #241E2D",
"o  c #291F2C",
"O  c #1D293E",
"+  c #1C233B",
"@  c #26202E",
"#  c #36242C",
"$  c #252334",
"%  c #29273B",
"&  c #2B2A3E",
"*  c #262538",
"=  c #302D3E",
"-  c #4B2C2C",
";  c #5E332C",
":  c #4E3631",
">  c #523A39",
",  c #502F2C",
"<  c #6E392C",
"1  c #65362C",
"2  c #753C2C",
"3  c #763F30",
"4  c #594138",
"5  c #644435",
"6  c #784F35",
"7  c #1C2643",
"8  c #1D2D45",
"9  c #1C2C4D",
"0  c #1E3148",
"q  c #1E395A",
"w  c #1A255B",
"e  c #2D2C40",
"r  c #353446",
"t  c #36354A",
"y  c #38374C",
"u  c #3B3B4C",
"i  c #3D3D52",
"p  c #3A3E59",
"a  c #1E3C63",
"s  c #1E3B68",
"d  c #192C76",
"f  c #40394B",
"g  c #3E4159",
"h  c #20405B",
"j  c #1F4466",
"k  c #1E4376",
"l  c #214A69",
"z  c #21516E",
"x  c #244974",
"c  c #225B7B",
"v  c #215576",
"b  c #374B75",
"n  c #414356",
"m  c #46455B",
"M  c #4A4C5E",
"N  c #464856",
"B  c #524E52",
"V  c #67554B",
"C  c #745545",
"Z  c #7F6756",
"A  c #4C4D62",
"S  c #4F5165",
"D  c #495B62",
"F  c #535463",
"G  c #525669",
"H  c #56596E",
"J  c #5B5D6B",
"K  c #575866",
"L  c #5B5E72",
"P  c #4A5B77",
"I  c #5E6376",
"U  c #5F6478",
"Y  c #5D616F",
"T  c #6A6A76",
"R  c #62677B",
"E  c #646673",
"W  c #6D6C71",
"Q  c #80412B",
"!  c #8B472E",
"~  c #8B5936",
"^  c #915D37",
"/  c #985E36",
"(  c #8E4C2F",
")  c #A54F2B",
"_  c #B8562B",
"`  c #96613A",
"'  c #B26F3A",
"]  c #B4713A",
"[  c #AE6234",
"{  c #C65C2B",
"}  c #936543",
"|  c #97785C",
" . c #977558",
".. c #907056",
"X. c #B47947",
"o. c #DD883E",
"O. c #BA9269",
"+. c #B88D62",
"@. c #DF934D",
"#. c #E6B278",
"$. c #173CB2",
"%. c #1F4B84",
"&. c #1E5199",
"*. c #215C9B",
"=. c #31518B",
"-. c #246A8C",
";. c #246383",
":. c #356F87",
">. c #25769A",
",. c #236A97",
"<. c #1F59AC",
"1. c #1C52B5",
"2. c #3959BD",
"3. c #205EA5",
"4. c #2161A9",
"5. c #2265A4",
"6. c #267EA4",
"7. c #2169B9",
"8. c #216AB1",
"9. c #2477B7",
"0. c #727884",
"q. c #6C778A",
"w. c #5266AB",
"e. c #1D5CC2",
"r. c #1F64C6",
"t. c #206EC8",
"y. c #237ACB",
"u. c #2274CC",
"i. c #2276D0",
"p. c #237BD1",
"a. c #3C6BC7",
"s. c #288EB6",
"d. c #2683BA",
"f. c #2894BE",
"g. c #2786AD",
"h. c #2997C1",
"j. c #299AC5",
"k. c #289BCC",
"l. c #2484D3",
"z. c #258BD4",
"x. c #2794D6",
"c. c #289DD8",
"v. c #289AD7",
"b. c #278ECB",
"n. c #2AA2D4",
"m. c #2AA4D9",
"M. c #2BADDB",
"N. c #33B2DE",
"B. c #38B6DF",
"V. c #2DA9D6",
"C. c #3CB8E1",
"Z. c #42BDE3",
"A. c #4EC5E7",
"S. c #5CCFEB",
"D. c #54CAE9",
"F. c #5FD1ED",
"G. c #62D3ED",
"H. c #6CDAF1",
"J. c #82818C",
"K. c #898C96",
"L. c #93939C",
"P. c #8D929B",
"I. c #9B9DA6",
"U. c #9599A4",
"Y. c #9DA3AB",
"T. c #9EA7B5",
"R. c #A3A2AA",
"E. c #ACACB3",
"W. c #A3ACB5",
"Q. c #B7B6BC",
"!. c #AEB5BB",
"~. c #889CC7",
"^. c #9AABD8",
"/. c #9CA8C2",
"(. c #B5BBC2",
"). c #BCC4C9",
"_. c #B9C1C7",
"`. c #C6C5CA",
"'. c #C5CBCF",
"]. c #C7CDD2",
"[. c #D3D9DD",
"{. c #D4D6DA",
"}. c #CFD8DC",
"|. c #DDDDE1",
" X c #D3DBE4",
".X c #DDE2F4",
"XX c #D7E0E3",
"oX c #E1E7EA",
"OX c #E5EBEC",
"+X c #EAEBED",
"@X c #EEF2F3",
"#X c #F2F4F5",
"$X c #F5F7F8",
"%X c #FFFFFF",
"&X c None",
/* pixels */
"&X&X&X&X&X&X&X&X&X&X&X&X&X&X&X&X&X&X&X&X&X&X&X&X&X&X&X    &X&X&X&X&X&X&X&X&X&X&X&X&X&X&X&X&X&X&X&X&X&X&X&X&X&X&X&X&X&X&X",
"&X&X&X&X&X&X&X&X&X&X&X&X&X&X&X&X&X&X&X&X&X&X&X&X&X&X* W E &X&X&X&X&X&X&X&X&X&X&X&X&X&X&X&X&X&X&X&X&X&X&X&X&X&X&X&X&X&X&X",
"&X&X&X&X&X&X&X&X&X&X&X&X&X&X&X&X&X&X&X&X&X&X&X&X&X&XF _.I.n &X&X&X&X&X&X&X&X&X&X&X&X&X&X&X&X&X&X&X&X&X&X&X&X&X&X&X&X&X&X",
"&X&X&X&X&X&X&X&X&X&X&X&X&X&X&X&X&X&X&X&X&X&X&X&X  T +X$XoX!.t &X&X&X&X&X&X&X&X&X&X&X&X&X&X&X&X&X&X&X&X&X&X&X&X&X&X&X&X&X",
"&X&X&X&X&X&X&X&X&X&X&X&X&X&X&X&X&X&X&X&X&X&X&X&X  T %X%X@X).r &X&X&X&X&X&X&X&X&X&X&X&X&X&X&X&X&X&X&X&X&X&X&X&X&X&X&X&X&X",
"&X&X&X&X&X&X&X&X&X&X&X&X&X&X&X&X&X&X&X&X&X&X&X&XM L.%X%X@X'.J u &X&X&X&X&X&X&X&X&X&X&X&X&X&X&X&X&X&X&X&X&X&X&X&X&X&X&X&X",
"&X&X&X&X&X&X&X&X&X&X&X&X&X&X&X&X&X&X&X&X&X&X&X  E.$X%X%X@X[.!.Y   &X&X&X&X&X&X&X&X&X&X&X&X&X&X&X&X&X&X&X&X&X&X&X&X&X&X&X",
"&X&X&X&X&X&X&X&X&X&X&X&X&X&X&X&X&X&X&X&X&X&X    R.+XOXOXOX[._.I       &X&X&X&X&X&X&X&X&X&X&X&X&X      &X&X&X&X&X&X&X&X&X",
"&X&X&X&X&X&X&X&X&X&X&X&X&X&X&X&X&X&X&X&X&Xq j a q.T.^.^.T.I.K.P a j j h &X&X&X&X&X&X&X&X&X&X&XJ J M * &X&X&X&X&X&X&X&X&X",
"&X&X&X&X&X&X&X&X&X        &X&X&X&X&X&X    -.v.p.s w $.$.d   . %.l.M.M.>.        &X&X&X&X    * '.#X).t &X&X&X&X&X&X&X&X&X",
"&X&X&X&X&X&X&X&X&X& K.E.L.%         z g.g.f.M.c.9.<.t.r.<.*.*.y.m.M.M.k.g.6.6.>.e       K.Q.(.+X@X).t &X&X&X&X&X&X&X&X&X",
"&X&X&X&X&X&X&X&X&Xy ).@X[.T r 8 z z >.M.M.M.M.M.x.z.l.z.z.z.z.v.M.M.M.M.M.M.M.j.;.0 = T ].%X%X$X'.K.r &X&X&X&X&X&X&X&X&X",
"&X&X&X&X&X&X&X&X&Xt (.+X#X[.Y z M.M.M.M.M.M.M.M.M.M.M.M.M.M.M.M.M.M.M.M.M.M.M.M.M.c S @X%X%X$XoXK.  &X&X&X&X&X&X&X&X&X&X",
"&X&X&X&X&X&X&X&X&X&XM R.).F =.9.M.M.Z.S.D.A.M.M.M.M.M.M.M.M.M.M.M.M.M.M.M.M.M.M.M.8.w.$X%X$XoX].T   &X&X&X&X&X&X&X&X&X&X",
"&X&X&X&X&X&X&X&X&X&X  K q.x 8.v.M.Z.D.H.H.D.C.M.C.C.M.M.M.M.M.M.M.M.M.M.M.M.M.M.M.p.a.^. X.X].K.J &X&X&X&X&X&X&X&X&X&X&X",
"&X&X&X&X&X&X&X&X&X&X  + j y.n.M.M.S.H.H.H.H.F.N.A.D.M.M.M.M.M.M.M.M.M.M.M.M.M.M.M.z.r.1.~._.Y.u   &X&X&X&X&X&X&X&X&X&X&X",
"&X&X&X&X&X&X&X&X&X&X  c f.n.M.M.N.S.H.H.H.H.S.M.N.N.M.M.M.M.M.M.M.M.M.M.M.M.M.M.M.V.x.t.=.n t $   &X&X&X&X&X&X&X&X&X&X&X",
"&X&X&X&X&X&X&X&X&X&X  -.M.M.M.M.M.Z.S.H.H.S.A.M.M.M.M.M.M.M.M.M.M.M.M.M.M.M.M.M.M.M.m.x.*.k x +   &X&X&X&X&X&X&X&X&X&X&X",
"&X&X&X&X&X&X&X&X&X&X8 >.M.M.N.B.B.M.Z.G.G.Z.M.M.M.M.M.M.M.M.M.M.M.M.M.M.M.M.M.M.M.M.M.M.z.l.y.j 0 &X&X&X&X&X&X&X&X&X&X&X",
"&X&X&X&X&X&X&X&X&X0 g.n.M.M.A.F.G.B.N.B.N.N.M.M.M.M.M.M.M.M.M.M.M.M.M.M.M.M.M.M.M.M.M.M.M.m.m.j.;.  &X&X&X&X&X&X&X&X&X&X",
"&X&X&X&X&X&X&X&X&X0 f.M.M.M.D.H.H.B.M.M.M.M.M.M.M.M.M.M.M.M.M.M.M.M.M.M.M.M.M.M.M.M.M.M.M.M.M.M.-.  &X&X&X&X&X&X&X&X&X&X",
"&X&X&X&X&X&X&X&X&X0 h.M.M.M.A.F.S.B.k.s.s.s.s.s.s.s.s.s.s.s.s.s.f.c.m.M.M.M.M.M.M.M.M.M.M.M.M.M.-.  &X&X&X&X&X&X&X&X&X&X",
"&X&X&X&X&X&X&X&X&X0 h.M.M.M.M.M.N.M.>.8 O O O O O O O O O O O O a u.c.M.M.M.M.M.M.M.M.M.M.M.M.M.-.  &X&X&X&X&X&X&X&X&X&X",
"&X&X&X&X&X&X&X&Xl >.n.M.M.M.M.s.v v B `  .| | | } } | ` ^ ^ ^ ^ C x v ,.z.m.M.M.M.M.M.M.M.M.M.M.d.%.7 &X&X&X&X&X&X&X&X&X",
"&X&X&X&X&X&X&X  c M.M.M.M.M.f.:.4 > 6 X.+.O.O.O.+.] O.X.' ' ' ' / - - f 7.z.m.M.M.M.M.M.m.m.M.M.x.8.7   &X&X&X&X&X&X&X&X",
"&X&X&X&X&X&X&X  c M.M.M.M.M.z V #.@.~ X @ @ $ $ @ X $ @ X X X @ - { { ! + 4.x.M.M.M.M.M.z.z.M.M.x.7.7     &X&X&X&X&X&X&X",
"&X&X&X&X&X&X&X  c M.M.M.f.z W ..V 5 > t t t t t r t t r r r r r f ; ; < ! i *.z.m.M.M.M.c.m.M.x.5.b U.E.L.$   &X&X&X&X&X",
"&X&X&X&X&X&X&X  c M.M.f.:.4 ....% & t m u y i A S S S i y i A S f e e , ( < p 4.x.m.M.v.v.m.m.l.&.b |.%X{.T E K &X&X&X&X",
"&X&X&X&X&X&X    c M.M.c : o.5 & m m m f $   & U R R U =   * H R L m f t o ) 6 e 7.x.c.p.i.z.m.l.e.2..X%X%X%X%XE.  &X&X&X",
"&X&X&X&X&XK U.u c M.M.c : o.5 & m m i i R.Q.L.u G G y L.Q.R.m S U L U A X ) 2 7 7.x.c.y.i.z.M.l.e.2..X%X%X%X%X|.I.N &X&X",
"&X&X&X&X&XF P.u c n.6.D 6 / > t m A y y |.%X`.* M M * `.%X|.u g R R q.G = 2 2 > =.9.v.z.z.v.m.l.<.=. X@X#X@X#X{.L.n &X&X",
"&X&X&X&X&X&X    c h.8 ~ ' X t m m I n u [.%X`.* M M * `.%X|.u n R U I L f $ < _ # %.l.m.M.M.m.l.%.y _.XXXX}.}.L.  &X&X&X",
"&X&X&X&X&X&X&X  c h.8 ~ ] o t m m L n u [.%X`.* A A * `.%X|.u n R R R R H e < _ # %.l.M.M.m.l.p.%.r W.).W.F M N &X&X&X&X",
"&X&X&X&X&X&X&X  v d.8 ! [ o t m A L A i K.R.J.r A S r J.R.K.u A R R R R I e < _ # %.p.x.x.z.i.i.3.x q.T E $   &X&X&X&X&X",
"&X&X&X&X&X&X&X  k <.O Q ) X t m m L H n % $ & m L L m & $ % n H R R R R I e < _ # %.i.i.i.i.i.r.t.4.7     &X&X&X&X&X&X&X",
"&X&X&X&X&X&X&X&X9 9   6 ) o t m m L R J H K H L U U L H G K L I R R R R U e < _ # %.i.i.i.i.u.k 9 9 &X&X&X&X&X&X&X&X&X&X",
"&X&X&X&X&X&X&X&X&X    ; 1   % r r i g g n n g n g g n n n g n n n n n n i * - < o q %.%.%.k %.9   &X&X&X&X&X&X&X&X&X&X&X",
"&X&X&X&X&X&X&X&X&X&X&X                                                                        &X&X&X&X&X&X&X&X&X&X&X&X&X"
};
