/* XPM */
static char *result[] = {
/* columns rows colors chars-per-pixel */
"60 38 190 2 ",
"   c #1B192C",
".  c #1B1E34",
"X  c #241E2D",
"o  c #291F2C",
"O  c #1D293E",
"+  c #1C243D",
"@  c #26202E",
"#  c #36242C",
"$  c #252334",
"%  c #29273B",
"&  c #2B293E",
"*  c #262538",
"=  c #302D3E",
"-  c #4B2C2C",
";  c #5E332C",
":  c #4E3631",
">  c #523A39",
",  c #502F2C",
"<  c #6E392C",
"1  c #65362C",
"2  c #753C2C",
"3  c #763F30",
"4  c #594138",
"5  c #644435",
"6  c #784F35",
"7  c #1C2643",
"8  c #1D2E46",
"9  c #1C2C4D",
"0  c #1E3148",
"q  c #1E3958",
"w  c #1A255B",
"e  c #2D2C40",
"r  c #353446",
"t  c #36354A",
"y  c #38374C",
"u  c #3C3B4C",
"i  c #3D3D52",
"p  c #3A3E59",
"a  c #1E3D67",
"s  c #192C76",
"d  c #40394B",
"f  c #3E4159",
"g  c #20405B",
"h  c #1E4376",
"j  c #1F446A",
"k  c #204964",
"l  c #224B6C",
"z  c #21516E",
"x  c #244974",
"c  c #225C7C",
"v  c #225675",
"b  c #374B75",
"n  c #414356",
"m  c #46455B",
"M  c #4A4C5E",
"N  c #464856",
"B  c #544F4E",
"V  c #67554B",
"C  c #745545",
"Z  c #7F6756",
"A  c #4C4D62",
"S  c #4F5165",
"D  c #495B62",
"F  c #525669",
"G  c #56596E",
"H  c #585867",
"J  c #5B5E72",
"K  c #5E6377",
"L  c #5F6478",
"P  c #4C6579",
"I  c #6B6A76",
"U  c #62677B",
"Y  c #676976",
"T  c #6C696A",
"R  c #80412B",
"E  c #8B472E",
"W  c #8B5936",
"Q  c #915D37",
"!  c #985E36",
"~  c #8E4C2F",
"^  c #A54F2B",
"/  c #B8562B",
"(  c #96613A",
")  c #B26F3A",
"_  c #B4713A",
"`  c #AE6234",
"'  c #C65C2B",
"]  c #936543",
"[  c #97785C",
"{  c #977558",
"}  c #907056",
"|  c #B47947",
" . c #DD883E",
".. c #BA9269",
"X. c #B88D62",
"o. c #DF934D",
"O. c #E6B278",
"+. c #173CB2",
"@. c #1F4B84",
"#. c #1E5199",
"$. c #215C9B",
"%. c #314E8B",
"&. c #246A8C",
"*. c #236282",
"=. c #356F87",
"-. c #25769A",
";. c #2E7095",
":. c #1F59AC",
">. c #1C52B5",
",. c #3959BD",
"<. c #205EA5",
"1. c #2161A9",
"2. c #2265A4",
"3. c #267EA4",
"4. c #2169B9",
"5. c #216AB1",
"6. c #2478B6",
"7. c #737784",
"8. c #6A7587",
"9. c #5266AB",
"0. c #1D5CC2",
"q. c #1F64C6",
"w. c #206EC8",
"e. c #237ACB",
"r. c #2274CC",
"t. c #2276D0",
"y. c #237BD1",
"u. c #3C6BC7",
"i. c #288EB6",
"p. c #2686B9",
"a. c #2894BE",
"s. c #2786AD",
"d. c #7E828D",
"f. c #718291",
"g. c #2997C1",
"h. c #299FCA",
"j. c #2998C8",
"k. c #2484D3",
"l. c #258BD4",
"z. c #2794D6",
"x. c #289DD8",
"c. c #289CD7",
"v. c #278ECB",
"b. c #29A1D5",
"n. c #2AA4D9",
"m. c #2BADDB",
"M. c #33B2DE",
"N. c #38B6DF",
"B. c #2DA9D6",
"V. c #3CB8E1",
"C. c #42BDE3",
"Z. c #4EC5E7",
"A. c #5CCFEB",
"S. c #54CAE9",
"D. c #5FD1ED",
"F. c #62D3ED",
"G. c #6CDAF1",
"H. c #82818C",
"J. c #858A94",
"K. c #898C96",
"L. c #93949D",
"P. c #9C9EA6",
"I. c #9499A4",
"U. c #9CA3AD",
"Y. c #9EA7B5",
"T. c #A3A2AA",
"R. c #AAACB4",
"E. c #B6B6BC",
"W. c #889CC7",
"Q. c #9AABD8",
"!. c #9CA8C2",
"~. c #BABDC2",
"^. c #BCC4CA",
"/. c #B8C1C7",
"(. c #C5C5CA",
"). c #C7CBCF",
"_. c #C7CDD2",
"`. c #CDD6DA",
"'. c #D3D7DA",
"]. c #DDDDE1",
"[. c #D3DAE6",
"{. c #DBE3E6",
"}. c #DDE2F4",
"|. c #E4EBEC",
" X c #E5E9EB",
".X c #EEF2F3",
"XX c #F2F4F5",
"oX c #FFFFFF",
"OX c #F4F6F8",
"+X c None",
/* pixels */
"+X+X+X+X+X+X+X+X+X+X+X+X+X+X+X+X+X+X+X+X+X+X+X+X+X+X+X+X+X+X+X+X+X+X+X+X+X+X+X+X+X+X+X+X+X+X+X+X+X+X+X+X+X+X+X+X+X+X+X+X",
"+X+X+X+X+X+X+X+X+X+X+X+X+X+X+X+X+X+X+X+X+X+X+X+X+X+X+X+X+X+X+X+X+X+X+X+X+X+X+X+X+X+X+X+X+X+X+X+X+X+X+X+X+X+X+X+X+X+X+X+X",
"+X+X+X+X+X+X+X+X+X+X+X+X+X+X+X+X+X+X+X+X+X+X+X+X+X+X+Xn d +X+X+X+X+X+X+X+X+X+X+X+X+X+X+X+X+X+X+X+X+X+X+X+X+X+X+X+X+X+X+X",
"+X+X+X+X+X+X+X+X+X+X+X+X+X+X+X+X+X+X+X+X+X+X+X+X+X+X* U.d.  +X+X+X+X+X+X+X+X+X+X+X+X+X+X+X+X+X+X+X+X+X+X+X+X+X+X+X+X+X+X",
"+X+X+X+X+X+X+X+X+X+X+X+X+X+X+X+X+X+X+X+X+X+X+X+X+XJ T.'.(.d.r +X+X+X+X+X+X+X+X+X+X+X+X+X+X+X+X+X+X+X+X+X+X+X+X+X+X+X+X+X",
"+X+X+X+X+X+X+X+X+X+X+X+X+X+X+X+X+X+X+X+X+X+X+X+X  I oXoX.X^.t +X+X+X+X+X+X+X+X+X+X+X+X+X+X+X+X+X+X+X+X+X+X+X+X+X+X+X+X+X",
"+X+X+X+X+X+X+X+X+X+X+X+X+X+X+X+X+X+X+X+X+X+X+X+X  I oXoX.X/.r +X+X+X+X+X+X+X+X+X+X+X+X+X+X+X+X+X+X+X+X+X+X+X+X+X+X+X+X+X",
"+X+X+X+X+X+X+X+X+X+X+X+X+X+X+X+X+X+X+X+X+X+X    7.E.|..X{.`.K.H       +X+X+X+X+X+X+X+X+X+X+X+X+X      +X+X+X+X+X+X+X+X+X",
"+X+X+X+X+X+X+X+X+X+X+X+X+X+X+X+X+X+X+X+X+Xg k k f.Y.Q.Q.Y.U.J.P j k k g +X+X+X+X+X+X+X+X+X+X+XJ J M $ +X+X+X+X+X+X+X+X+X",
"+X+X+X+X+X+X+X+X+X+X+X+X+X+X+X+X+X+X+X    &.m.m.l w +.+.s     &.m.m.m.-.        +X+X+X+X    * (..X^.r +X+X+X+X+X+X+X+X+X",
"+X+X+X+X+X+X+X+X+X+X        +X+X    z s.s.a.m.m.6.:.q.q.>.$.$.p.m.m.m.h.s.3.3.-.e       K.E.~.|..X^.u +X+X+X+X+X+X+X+X+X",
"+X+X+X+X+X+X+X+X+X+X  n I I M q l z -.m.m.m.m.m.z.l.l.l.l.l.l.x.m.m.m.m.m.m.m.h.*.0 = I ).oXoXOX).K.r +X+X+X+X+X+X+X+X+X",
"+X+X+X+X+X+X+X+X+X+X  H.{.XXI z m.m.m.m.m.m.m.m.m.m.m.m.m.m.m.m.m.m.m.m.m.m.m.m.m.c S XXoXoXoX|.J.  +X+X+X+X+X+X+X+X+X+X",
"+X+X+X+X+X+X+X+X+X+X  J./.J ;.a.m.m.C.A.A.C.m.m.m.m.m.m.m.m.m.m.m.m.m.m.m.m.m.m.m.5.9.OXoXOX{._.7.  +X+X+X+X+X+X+X+X+X+X",
"+X+X+X+X+X+X+X+X+X+X+XY 7.x s.m.m.V.S.G.G.A.C.m.V.V.m.m.m.m.m.m.m.m.m.m.m.m.m.m.m.y.u.Q.[.{.^.J.H +X+X+X+X+X+X+X+X+X+X+X",
"+X+X+X+X+X+X+X+X+X+X+XO a e.c.m.M.D.G.G.G.G.A.m.S.S.m.m.m.m.m.m.m.m.m.m.m.m.m.m.m.l.q.>.W./.U.f   +X+X+X+X+X+X+X+X+X+X+X",
"+X+X+X+X+X+X+X+X+X+X  *.a.b.B.m.m.A.G.G.G.G.A.m.M.M.m.m.m.m.m.m.m.m.m.m.m.m.m.m.m.n.z.w.b f f $   +X+X+X+X+X+X+X+X+X+X+X",
"+X+X+X+X+X+X+X+X+X+X  &.m.m.m.m.m.Z.A.G.G.A.C.m.m.m.m.m.m.m.m.m.m.m.m.m.m.m.m.m.m.m.n.z.$.h h +   +X+X+X+X+X+X+X+X+X+X+X",
"+X+X+X+X+X+X+X+X+X+X0 -.m.m.M.N.M.M.C.F.F.Z.m.m.m.m.m.m.m.m.m.m.m.m.m.m.m.m.m.m.m.m.m.m.z.y.e.j 8 +X+X+X+X+X+X+X+X+X+X+X",
"+X+X+X+X+X+X+X+X+X8 s.h.m.m.Z.D.D.M.M.M.M.m.m.m.m.m.m.m.m.m.m.m.m.m.m.m.m.m.m.m.m.m.m.m.n.n.n.h.*.  +X+X+X+X+X+X+X+X+X+X",
"+X+X+X+X+X+X+X+X+X0 g.m.m.m.S.G.G.N.m.m.m.m.m.m.m.m.m.m.m.m.m.m.m.m.m.m.m.m.m.m.m.m.m.m.m.m.m.m.&.  +X+X+X+X+X+X+X+X+X+X",
"+X+X+X+X+X+X+X+X+X8 g.m.m.m.Z.A.D.N.h.i.i.i.i.i.i.i.i.i.i.i.i.i.a.b.n.m.m.m.m.m.m.m.m.m.m.m.m.m.&.  +X+X+X+X+X+X+X+X+X+X",
"+X+X+X+X+X+X+X+X+X8 g.m.m.m.M.M.M.m.-.* O O O O O O O O O O O O a r.x.m.m.m.m.m.m.m.m.m.m.m.m.m.&.  +X+X+X+X+X+X+X+X+X+X",
"+X+X+X+X+X+X+X+Xk -.B.m.m.m.m.i.v v D ( { [ [ [ ] ] [ ( Q Q Q ( C x x &.z.n.m.m.m.m.m.m.m.m.m.m.p.@.7 +X+X+X+X+X+X+X+X+X",
"+X+X+X+X+X+X+X  c m.m.m.m.m.a.=.B : 6 | X.......X.| ..| ) ) ) ) ! - - d 1.v.n.m.m.m.m.m.n.n.m.m.z.5.7   +X+X+X+X+X+X+X+X",
"+X+X+X+X+X+X+X  c m.m.m.m.m.z V O.o.W X @ @ @ @ X X @ @ X @ @ X - ' ' E + 1.z.m.m.m.m.m.l.l.m.m.z.4.+     +X+X+X+X+X+X+X",
"+X+X+X+X+X+X+X+Xg c h.m.a.v T } V 5 > y y y t t r r t t t t t t d ; 1 < E p $.l.n.m.m.m.x.n.m.z.2.b I.R.L.$   +X+X+X+X+X",
"+X+X+X+X+X+X+X+X+X8 a.a.=.4 { Z % * t m y y i A A S A i y u M S m & * : ~ < p 1.z.n.n.c.c.n.n.k.$.b ].oX'.I Y H +X+X+X+X",
"+X+X+X+X+X+X+X+X+X8 g.c :  .5 & m m m d $   e U U U U e   * J U J m m t X ^ R 7 4.z.x.y.t.l.n.k.0.,.}.oXoXoXoXR.  +X+X+X",
"+X+X+X+X+X+X+X+X+X8 g.c : o.1 & m m u d T.E.L.y F F t L.E.T.N A U J J m X ^ R 7 4.z.x.y.t.l.m.k.0.,.}.oXoXoXoX'.I.N +X+X",
"+X+X+X+X+X+X+X+X+X+ &.D 6 Q > t m A y d ].oX(.* M M * (.oX].u n U U U A = 3 2 > %.6.z.l.l.z.m.k.:.%.`.XXXXXXOX'.L.N +X+X",
"+X+X+X+X+X+X+X+X+X    W ) X t m M J m u '.oX(.* M M * (.oX].u n U U U J N * < / # @.k.m.m.m.n.k.@.y /.{.{.`.'.L.  +X+X+X",
"+X+X+X+X+X+X+X+X+X    W ) X t m A J n u ].oX(.* M A * (.oX].u n U U U U J % < / # @.k.m.m.n.k.y.@.r R./.Y.H M N +X+X+X+X",
"+X+X+X+X+X+X+X+Xq a . E ` o t m m J A u K.P.H.r A F e H.P.K.i M U U U U L e < / # @.y.z.z.l.t.t.<.x 8.7.Y .   +X+X+X+X+X",
"+X+X+X+X+X+X+X  h 1.7 R ^ X t m m J G n & X e m J J m e $ % n J U U U U L e < / # @.t.t.t.t.t.q.w.1.7     +X+X+X+X+X+X+X",
"+X+X+X+X+X+X+X+X7 9   6 ^ X t m m J U J G G G J L U J G F G J L U U U U J e < / # @.t.t.t.t.r.h 9 9 +X+X+X+X+X+X+X+X+X+X",
"+X+X+X+X+X+X+X+X+X    1 1 X & e r i f n n f n n n f n n d n f n n n n n n * - < o q @.@.h @.h 9   +X+X+X+X+X+X+X+X+X+X+X",
"+X+X+X+X+X+X+X+X+X+X+X                                                                  .   . +X+X+X+X+X+X+X+X+X+X+X+X+X"
};
