/* XPM */
static char *result[] = {
/* columns rows colors chars-per-pixel */
"60 38 188 2 ",
"   c #1B192C",
".  c #1E1E32",
"X  c #241E2D",
"o  c #211F32",
"O  c #1C2035",
"+  c #1C223B",
"@  c #1D293E",
"#  c #26202F",
"$  c #39292F",
"%  c #35242C",
"&  c #252133",
"*  c #262438",
"=  c #29273B",
"-  c #2B293D",
";  c #312C3D",
":  c #4A2C2C",
">  c #472A2C",
",  c #5E332C",
"<  c #4D3438",
"1  c #553631",
"2  c #502E2C",
"3  c #6D392C",
"4  c #64352C",
"5  c #733D2E",
"6  c #52403C",
"7  c #774B33",
"8  c #704735",
"9  c #1C2744",
"0  c #1D2E45",
"q  c #1C2C4D",
"w  c #1A224D",
"e  c #1E324B",
"r  c #1F3E58",
"t  c #1E3655",
"y  c #302F43",
"u  c #313245",
"i  c #36354A",
"p  c #3B3A4D",
"a  c #38374C",
"s  c #3E3E52",
"d  c #2F2F41",
"f  c #1E3F6D",
"g  c #1E3860",
"h  c #1C3975",
"j  c #423944",
"k  c #20435D",
"l  c #1E4475",
"z  c #1E477D",
"x  c #1F4362",
"c  c #204662",
"v  c #204864",
"b  c #214D69",
"n  c #225674",
"m  c #225C7B",
"M  c #275873",
"N  c #37527B",
"B  c #5A4A46",
"V  c #404256",
"C  c #45445A",
"Z  c #4B4C5D",
"A  c #484856",
"S  c #504F5B",
"D  c #684942",
"F  c #755B47",
"G  c #7E6452",
"H  c #4D4D63",
"J  c #4F5165",
"K  c #435B67",
"L  c #505166",
"P  c #56596D",
"I  c #58596A",
"U  c #5A5E72",
"Y  c #43597A",
"T  c #5D6176",
"R  c #5F6478",
"E  c #63626F",
"W  c #62677B",
"Q  c #696A76",
"!  c #6F727E",
"~  c #80412B",
"^  c #8D462B",
"/  c #875737",
"(  c #915D37",
")  c #915E39",
"_  c #A54F2B",
"`  c #B8562B",
"'  c #996138",
"]  c #B26F3A",
"[  c #B3713B",
"{  c #CA5D2B",
"}  c #C97D3C",
"|  c #C16C35",
" . c #956C4D",
".. c #97785C",
"X. c #967153",
"o. c #B57F4F",
"O. c #9C7E61",
"+. c #D3833D",
"@. c #B7875A",
"#. c #9F8062",
"$. c #BA9269",
"%. c #AA8562",
"&. c #E3A565",
"*. c #173BAF",
"=. c #1F4A83",
"-. c #1F4E89",
";. c #1B4398",
":. c #274F82",
">. c #215A8D",
",. c #215C9E",
"<. c #26698A",
"1. c #27769B",
"2. c #22669F",
"3. c #1A4AB9",
"4. c #1D56B2",
"5. c #205CA2",
"6. c #267EA4",
"7. c #2477AC",
"8. c #2169BA",
"9. c #2476B7",
"0. c #2478B6",
"q. c #5D6D89",
"w. c #727784",
"e. c #757B86",
"r. c #637289",
"t. c #1D5CC2",
"y. c #1F63C4",
"u. c #2273CB",
"i. c #2A72CC",
"p. c #2276D0",
"a. c #237DD2",
"s. c #4D72C4",
"d. c #2784AB",
"f. c #2788AF",
"g. c #2681A7",
"h. c #278AB1",
"j. c #288EB6",
"k. c #2894BD",
"l. c #7E848F",
"z. c #7A88B5",
"x. c #268BCE",
"c. c #2997C1",
"v. c #2999C6",
"b. c #2484D2",
"n. c #258BD4",
"m. c #2793D6",
"M. c #289AD7",
"N. c #299ED8",
"B. c #2AA3CF",
"V. c #2AA5D3",
"C. c #2BA9D7",
"Z. c #2AA4D9",
"A. c #2BADDB",
"S. c #34B3DE",
"D. c #38B6DF",
"F. c #2FB0DC",
"G. c #3CB9E1",
"H. c #3AB7E0",
"J. c #468BD4",
"K. c #7F94D5",
"L. c #43BEE3",
"P. c #4CC4E6",
"I. c #54C9E9",
"U. c #5BCEEB",
"Y. c #5FD1ED",
"T. c #64D4EE",
"R. c #6CDAF1",
"E. c #878893",
"W. c #8B919B",
"Q. c #8192BB",
"!. c #8C91A3",
"~. c #ACADB4",
"^. c #A3AAB9",
"/. c #AEB1B8",
"(. c #A7B6CF",
"). c #BCC5CB",
"_. c #B8C5E3",
"`. c #C9CED3",
"'. c #CFD8DC",
"]. c #CCD0D4",
"[. c #D5DDE1",
"{. c #D7E0E3",
"}. c #E2E9EB",
"|. c #EDF0F2",
" X c #F1F4F5",
".X c #FFFFFF",
"XX c #EAEEF2",
"oX c None",
/* pixels */
"oXoXoXoXoXoXoXoXoXoXoXoXoXoXoXoXoXoXoXoXoXoXoXoXoXoXoXoXoXoXoXoXoXoXoXoXoXoXoXoXoXoXoXoXoXoXoXoXoXoXoXoXoXoXoXoXoXoXoXoX",
"oXoXoXoXoXoXoXoXoXoXoXoXoXoXoXoXoXoXoXoXoXoXoXoXoXoXoXoXoXoXoXoXoXoXoXoXoXoXoXoXoXoXoXoXoXoXoXoXoXoXoXoXoXoXoXoXoXoXoXoX",
"oXoXoXoXoXoXoXoXoXoXoXoXoXoXoXoXoXoXoXoXoXoXoXoXoXoXoXoXoXoXoXoXoXoXoXoXoXoXoXoXoXoXoXoXoXoXoXoXoXoXoXoXoXoXoXoXoXoXoXoX",
"oXoXoXoXoXoXoXoXoXoXoXoXoXoXoXoXoXoXoXoXoXoXoXoXoXoXoXoXoXoXoXoXoXoXoXoXoXoXoXoXoXoXoXoXoXoXoXoXoXoXoXoXoXoXoXoXoXoXoXoX",
"oXoXoXoXoXoXoXoXoXoXoXoXoXoXoXoXoXoXoXoXoXoXoXoXoXoX  oXoXoXoXoXoXoXoXoXoXoXoXoXoXoXoXoXoXoXoXoXoXoXoXoXoXoXoXoXoXoXoXoX",
"oXoXoXoXoXoXoXoXoXoXoXoXoXoXoXoXoXoXoXoXoXoXoXoXoXp Z oXoXoXoXoXoXoXoXoXoXoXoXoXoXoXoXoXoXoXoXoXoXoXoXoXoXoXoXoXoXoXoXoX",
"oXoXoXoXoXoXoXoXoXoXoXoXoXoXoXoXoXoXoXoXoXoXoXoX  E `.Z   oXoXoXoXoXoXoXoXoXoXoXoXoXoXoXoXoXoXoXoXoXoXoXoXoXoXoXoXoXoXoX",
"oXoXoXoXoXoXoXoXoXoXoXoXoXoXoXoXoXoXoXoX        l.`.|.~.!           oXoXoXoXoXoXoXoXoXoXoXoXoXoXoXoXoXoXoXoXoXoXoXoXoXoX",
"oXoXoXoXoXoXoXoXoXoXoXoXoXoXoXoXoXoXoXoXc v x g Q.(.(.(.r.g c c v v e oXoXoXoXoXoXoXoXoXoXoXoXoXoXoXoXoXoXoXoXoXoXoXoXoX",
"oXoXoXoXoXoXoXoXoXoXoXoXoXoXoXoXoX    0 c.A.N.a.t.*.*.w l a.V.F.A.A.b         oXoXoXoXoX          oXoXoXoXoXoXoXoXoXoXoX",
"oXoXoXoXoXoXoXoXoXoXoXoXoXoXoX  O <.6.d.V.A.C.M.i.y.y.4.9.N.C.F.A.A.j.g.g.6.m           W.~.!.V   oXoXoXoXoXoXoXoXoXoXoX",
"oXoXoXoXoXoXoXoXoXoXoXoXoXoX  0 n c.A.A.A.A.A.A.m.n.n.n.M.A.A.A.A.A.A.A.A.A.g.v O V Q Q ]. X'.A   oXoXoXoXoXoXoXoXoXoXoX",
"oXoXoXoXoXoXoXoXoXoXoXoXoXoX  b A.F.F.F.A.A.A.A.A.A.A.A.F.A.A.A.A.A.A.A.A.A.A.c.e E.}..X.X|.`.Z   oXoXoXoXoXoXoXoXoXoXoX",
"oXoXoXoXoXoXoXoXoXoXoXoXoXoX  b A.P.U.I.S.A.A.A.A.A.A.A.A.A.A.A.A.A.A.A.A.A.A.M.;.Q.}..X X/.S oXoXoXoXoXoXoXoXoXoXoXoXoX",
"oXoXoXoXoXoXoXoXoXoXoXoXoXoXb 1.P.T.R.T.P.H.S.L.S.A.A.A.A.A.A.A.A.A.A.A.A.A.A.N.y.s.(.XX[.W.  oXoXoXoXoXoXoXoXoXoXoXoXoX",
"oXoXoXoXoXoXoXoXoXoXoXoXoX@ 6.L.R.R.R.R.R.L.H.T.L.A.A.A.A.A.A.A.A.A.A.A.A.A.A.A.b.t.s._.(.w.  oXoXoXoXoXoXoXoXoXoXoXoXoX",
"oXoXoXoXoXoXoXoXoX      r h.B.L.R.R.R.R.R.P.A.D.F.A.A.A.A.A.A.A.A.A.A.A.A.A.A.A.Z.b.i.J.N u   oXoXoXoXoXoXoXoXoXoXoXoXoX",
"oXoXoXoXoXoXoXoXoXO n m 1.C.A.D.P.T.R.R.I.H.A.A.A.A.A.A.A.A.A.A.A.A.A.A.A.A.A.A.A.N.m.n.1.c   oXoXoXoXoXoXoXoXoXoXoXoXoX",
"oXoXoXoXoXoXoXoX0 k v.A.A.S.D.F.A.P.T.U.S.A.A.A.A.A.A.A.A.A.A.A.A.A.A.A.A.A.A.A.A.A.A.A.A.g.0 oXoXoXoXoXoXoXoXoXoXoXoXoX",
"oXoXoXoXoXoXoX  M v.C.A.D.Y.T.P.A.H.F.H.A.A.A.A.A.A.A.A.A.A.A.A.A.A.A.A.A.A.A.A.A.A.A.A.A.B.k.r oXoXoXoXoXoXoXoXoXoXoXoX",
"oXoXoXoXoXoXoX  m A.A.A.G.R.R.I.A.A.A.A.A.A.A.A.A.A.A.A.A.A.A.A.A.A.A.A.A.A.A.A.A.A.A.A.A.A.V.r   oXoXoXoXoXoXoXoXoXoXoX",
"oXoXoXoXoXoXoX  m A.A.A.D.Y.U.P.A.c.j.h.j.j.j.j.j.j.j.j.j.j.j.v.Z.A.A.A.A.A.A.A.A.A.A.A.A.A.V.r   oXoXoXoXoXoXoXoXoXoXoX",
"oXoXoXoXoXoXoX. m A.A.A.A.F.F.F.V.b @ @ @ @ @ @ @ @ @ @ @ @ 9 >.n.C.A.A.A.A.A.A.A.A.A.A.A.A.V.r   oXoXoXoXoXoXoXoXoXoXoX",
"oXoXoXoXoXoXO m h.A.A.A.A.A.1.m M F  .......X.)  . .( ( ( ( ( S l n 0.M.A.A.A.A.A.A.A.A.A.A.C.2.c oXoXoXoXoXoXoXoXoXoXoX",
"oXoXoXoXoXoXO f.A.A.A.A.B.f.K 6 1 ) o.$.$.$.@.] @.@.] ] ] ] ] 7 > : N 8.Z.C.A.A.A.A.Z.N.Z.A.C.b.:.  oXoXoXoXoXoXoXoXoXoX",
"oXoXoXoXoXoXO f.A.A.A.A.h.@ #.&.+.1 X # & & & X # # X X X # X ~ { { 2 f a.N.A.A.A.A.Z.a.N.A.A.b.-.    oXoXoXoXoXoXoXoXoX",
"oXoXoXoXoXoXO f.A.A.A.1.K #.G 8 8 j i i i i i i i i i i i i i < 4 4 5 D f 9.M.F.A.A.Z.N.Z.Z.b.:.q.~.~.E     oXoXoXoXoXoX",
"oXoXoXoXoXoXO f.A.V.f.K 7 %.S = = s Z L L L J H J J J J L H J p = - 5 ~ 1 :.9.M.Z.Z.N.N.Z.M.u.h z..X.X~.E E A oXoXoXoXoX",
"oXoXoXoXoXoXO f.A.c.0 / [ X a C C C P W W W W W W W W W W W W L C C - , { : l a.C.n.a.p.M.M.u.3.K..X.X.X.X.XQ   oXoXoXoX",
"oXoXoXoXoXoXO f.F.c.0 ) [ X a C C y d y u u s W C u u u u p U R U U y , { : l a.Z.m.p.p.M.M.p.3.K..X.X.X.X.X`.e.  oXoXoX",
"oXoXoXoXoXoXO f.k.<.B / / ; s C H i o     & a W k %     o u U W W W s < ^ 3 j 5.m.m.n.n.N.M.u.;.z. X X X X X/.w.  oXoXoX",
"oXoXoXoXoXoXO f.<.$ } 7 * C C L W H i . . i J W L j   . u H R W W W L a o _ 7 9 8.m.A.Z.C.m.u.t ! {.{.[.'.'.I   oXoXoXoX",
"oXoXoXoXoXoXO h.<.$ } 7 * C C L W R P J J P R W R P J J L U W W W W U H X _ ~ 9 8.m.A.A.m.a.u.t W ).).l.S S p oXoXoXoXoX",
"oXoXoXoXoXoX. 7.>.$ | 8 * C C L W W W W W W W W W W W W W W W W W W R H X _ ~ 9 8.b.m.m.b.p.u.:.Y w.w.S     oXoXoXoXoXoX",
"oXoXoXoXoXoX. ,.z % ` 3 * C A L W W W W W W W W W W W W W W W W W W W H X _ ~ 9 8.p.p.p.p.u.y.y.z     oXoXoXoXoXoXoXoXoX",
"oXoXoXoXoXoXoXe 9 % ` 3 * C C L W W W W W W W W W W W W W W W q.W W W C # _ ~ w 8.u.p.p.p.5.e e q oXoXoXoXoXoXoXoXoXoXoX",
"oXoXoXoXoXoXoXoX  % 5 > o y y a V V V V V V V V k A j j N j j H k A j i   4 2 . l =.=.=.=.l     oXoXoXoXoXoXoXoXoXoXoXoX",
"oXoXoXoXoXoXoXoXoXoX                            X X             X X                         oXoXoXoXoXoXoXoXoXoXoXoXoXoX"
};
