/* XPM */
static char *result[] = {
/* columns rows colors chars-per-pixel */
"60 38 174 2 ",
"   c #1B192C",
".  c #1F1D30",
"X  c #251F2D",
"o  c #291F2C",
"O  c #1C233C",
"+  c #1D293E",
"@  c #1C2035",
"#  c #26202F",
"$  c #36242C",
"%  c #3D262C",
"&  c #242234",
"*  c #2B293D",
"=  c #28273A",
"-  c #432B2D",
";  c #4A2B2C",
":  c #4C312F",
">  c #5D322C",
",  c #482E32",
"<  c #4E3635",
"1  c #533837",
"2  c #6E392C",
"3  c #64352C",
"4  c #7A3E2B",
"5  c #603B30",
"6  c #5F4134",
"7  c #7D412F",
"8  c #664434",
"9  c #744F3A",
"0  c #1C2644",
"q  c #1D2E46",
"w  c #1C2D4E",
"e  c #1E3047",
"r  c #1D3055",
"t  c #1F3E58",
"y  c #1F3C56",
"u  c #2D2C40",
"i  c #302F43",
"p  c #313145",
"a  c #36354A",
"s  c #3A3A4E",
"d  c #3D3746",
"f  c #3E3F53",
"g  c #1D3A69",
"h  c #4A3F45",
"j  c #1F425C",
"k  c #20405B",
"l  c #1E4275",
"z  c #1F477A",
"x  c #1F487F",
"c  c #1F4873",
"v  c #204863",
"b  c #214E6B",
"n  c #204763",
"m  c #21506D",
"M  c #225B7C",
"N  c #215478",
"B  c #2F4E6E",
"V  c #414256",
"C  c #46455B",
"Z  c #494B5A",
"A  c #49555C",
"S  c #5C4147",
"D  c #705342",
"F  c #786050",
"G  c #4C4D62",
"H  c #4F5165",
"J  c #465067",
"K  c #515265",
"L  c #535469",
"P  c #56596D",
"I  c #585765",
"U  c #5B5E73",
"Y  c #4C5F7B",
"T  c #4F6168",
"R  c #5D6175",
"E  c #5F6478",
"W  c #63626F",
"Q  c #62677B",
"!  c #686976",
"~  c #86432B",
"^  c #915D37",
"/  c #915E39",
"(  c #8D5031",
")  c #B8562B",
"_  c #9F6538",
"`  c #B26F3A",
"'  c #AB6C3B",
"]  c #CA5D2B",
"[  c #C15A2C",
"{  c #CB7739",
"}  c #805C40",
"|  c #946D4C",
" . c #97785C",
".. c #967153",
"X. c #A07F5F",
"o. c #DD883E",
"O. c #B78558",
"+. c #BA9269",
"@. c #B49069",
"#. c #A78463",
"$. c #E2A15F",
"%. c #1A3A8C",
"&. c #1F4B83",
"*. c #275589",
"=. c #215B99",
"-. c #246B8D",
";. c #246586",
":. c #257599",
">. c #356A81",
",. c #1945B6",
"<. c #2163A8",
"1. c #267EA4",
"2. c #216ABC",
"3. c #2B6DB7",
"4. c #247CBD",
"5. c #70788B",
"6. c #216DC7",
"7. c #2271C8",
"8. c #247EC4",
"9. c #2276D0",
"0. c #237CD2",
"q. c #2788AF",
"w. c #2783A9",
"e. c #278AB1",
"r. c #288EB6",
"t. c #2686BB",
"y. c #2892BB",
"u. c #2997C1",
"i. c #299BC6",
"p. c #299DCC",
"a. c #2483D3",
"s. c #268CD5",
"d. c #2793D6",
"f. c #289BD7",
"g. c #299ED8",
"h. c #2D92CE",
"j. c #2AA2CE",
"k. c #2AA5D2",
"l. c #2AA4D9",
"z. c #2BADDB",
"x. c #2BA9D6",
"c. c #2FB0DC",
"v. c #34B3DE",
"b. c #38B6DF",
"n. c #3DBAE1",
"m. c #3AB7E0",
"M. c #5294D5",
"N. c #43BEE3",
"B. c #76B1E3",
"V. c #4BC3E6",
"C. c #47C0E4",
"Z. c #53C9E9",
"A. c #5BCEEB",
"S. c #5ED0EC",
"D. c #64D4EE",
"F. c #6CDAF1",
"G. c #91939C",
"H. c #828791",
"J. c #959AA3",
"K. c #919EB8",
"L. c #9FA8B1",
"P. c #A0A6AE",
"I. c #AFAEB5",
"U. c #909CC1",
"Y. c #97A7DC",
"T. c #B9BBC1",
"R. c #BDCDDA",
"E. c #B5CFE9",
"W. c #CFD8DC",
"Q. c #D3D7DA",
"!. c #D9DEE1",
"~. c #F1F4F5",
"^. c white",
"/. c None",
/* pixels */
"/./././././././././././././././././././././././././././././././././././././././././././././././././././././././././././.",
"/./././././././././././././././././././././././././././././././././././././././././././././././././././././././././././.",
"/./././././././././././././././././././././././././././././././././././././././././././././././././././././././././././.",
"/./././././././././././././././././././././././././././././././././././././././././././././././././././././././././././.",
"/./././././././././././././././././././././././././././././././././././././././././././././././././././././././././././.",
"/./././././././././././././././././././././././././././././././././././././././././././././././././././././././././././.",
"/./././././././././././././././././././././././././././././././././././././././././././././././././././././././././././.",
"/././././././././././././././././././././././.    /./././././././.        /././././././././././././././././././././././.",
"/././././././././././././././././././././././.v v k /././././././.v v v v /././././././././././././././././././././././.",
"/./././././././././././././././././././.    t k.z.:.            t k.z.z.k.t       /././././././././././././././././././.",
"/././././././././././././././././.    q :.1.e.z.z.p.w.1.1.1.1.1.e.x.z.z.x.r.1.1.1.m     /./././././././././././././././.",
"/././././././././././././././././.v b M p.z.z.z.z.z.z.z.z.z.z.z.z.z.z.z.z.z.z.z.z.:.j @   /././././././././././././././.",
"/./././././././././././././././.+ e.z.z.c.c.z.z.z.z.z.z.z.z.z.z.z.z.z.z.z.z.z.z.z.z.r.O & = &     /././././././././././.",
"/././././././././././././././.n e.j.z.v.Z.S.Z.z.z.z.z.z.z.z.z.z.z.z.z.z.z.z.z.z.z.z.p.<.K.T.L.s   /././././././././././.",
"/./././././././././././././.b :.z.z.v.V.D.F.D.C.v.v.N.v.z.z.z.z.z.z.z.z.z.z.z.z.z.z.l.d.B.E.W.Z   /././././././././././.",
"/././././././././././././.+ 1.z.z.z.V.F.F.F.F.F.C.n.D.m.z.z.z.z.z.z.z.z.z.z.z.z.z.z.z.z.d.M.R.J O /././././././././././.",
"/./././././././././././.y e.j.z.z.z.C.F.F.F.F.F.C.c.b.z.z.z.z.z.z.z.z.z.z.z.z.z.z.z.z.z.l.g.M.3.z   /./././././././././.",
"/././././././././././.  y k.z.z.z.z.m.Z.F.F.D.V.b.z.z.z.z.z.z.z.z.z.z.z.z.z.z.z.z.z.z.z.z.l.s.s.*.  /./././././././././.",
"/././././././././././.q m k.z.c.v.v.v.v.A.S.Z.c.z.z.z.z.z.z.z.z.z.z.z.z.z.z.z.z.z.z.z.z.z.z.z.z.:.e /./././././././././.",
"/./././././././././.  ;.i.z.z.n.D.D.C.z.v.v.c.z.z.z.z.z.z.z.z.z.z.z.z.z.z.z.z.z.z.z.z.z.z.z.z.z.j.q.q /././././././././.",
"/./././././././././.  -.z.z.z.C.F.F.V.c.c.z.z.z.z.z.z.z.z.z.z.z.z.z.z.z.z.z.z.z.z.z.z.z.z.z.z.z.z.u.e /././././././././.",
"/./././././././././.  -.z.z.z.b.S.S.C.x.y.r.r.r.r.r.r.y.r.r.r.r.r.r.p.l.z.z.z.z.z.z.z.z.z.z.z.z.z.u.q /././././././././.",
"/./././././././././.  -.z.z.z.c.v.v.c.i.y + + + + + + + + + + + + + =.s.z.z.z.z.z.z.z.z.z.z.z.z.z.y.q /././././././././.",
"/././././././././.q ;.r.z.z.z.z.x.-.M B 9 | #. . .| ^ ..| ^ ^ ^ / / G c M 8.g.z.z.z.z.z.z.z.z.z.z.j.=.g /./././././././.",
"/././././././././.e u.z.z.z.z.i.w.J 6 8 ' X.+.+.+.O.` O.O.` ` ` ` ` 8 ; ; *.3.g.z.z.z.z.z.l.l.l.z.x.0.z   /././././././.",
"/././././././././.q u.z.z.z.z.w.= @.$.` ; # # & # # # # # # # # o # ( ] ] ; &.0.l.z.z.z.z.f.0.l.z.x.0.l   /././././././.",
"/././././././././.q u.z.z.z.:.T #.F S 8 d a a a a a a a a a a a a a < 3 3 ~ h l 8.g.z.z.z.l.f.l.z.i.z 5.G.=   /././././.",
"/././././././././.q u.z.j.w.A 9 #.V u i h Z H H H H H H H H H H H G a = * 7 ~ 1 *.8.g.z.l.g.f.z.l.h.g K.Q.! W I /./././.",
"/././././././././.q u.z.e.. _ _   s C C C P Q Q Q Q ! ! E E Q Q Q Q G C C = 2 ) $ &.a.z.a.9.0.g.d.6.,.Y.^.^.^.I.X /././.",
"/././././././././.q u.z.e.. _ _   d C V u u p p p C ! k p p p p f Q U U P * 2 ) $ &.a.z.s.9.9.l.d.6.,.Y.^.^.^.!.J.V /./.",
"/././././././././.q u.y.>.6 ^ 9 * f Z G u &     & h E s &     & s Q Q Q Q a > ~ 3 B <.d.s.s.s.l.d.6.%.U.~.~.~.Q.G.C /./.",
"/././././././././.q u.M < o.8 * C C L E J i . . s L E H a . @ a G Q Q Q Q G i % ) 2 r 7.f.z.z.z.d.2.0 H.!.W.W.G.  /././.",
"/././././././././.q y.M < o.8 * C C H U U L J G L P U U L J H L U E E E Q U h $ ) 2 r 6.d.c.z.s.a.2.0 5.P.K Z Z /./././.",
"/././././././././.q a.N : { 3 * C C L 5.U 5.5.U U 5.U 5.U 5.5.U 5.U U 5.Q Q C $ ) 2 r 9.s.d.d.0.7.6.x Y ! &   /././././.",
"/././././././././.0 <.g ; ] > * C C H U U 5.U U 5.U 5.U U U 5.U 5.E E E Q Q h $ ) 2 r 6.9.9.9.9.7.2.2.l   /././././././.",
"/./././././././././.w O ; ] > * C G H 5.5.U U 5.U U 5.U 5.U U 5.U E U 5.>.5.h $ ) 2 r 6.9.9.9.9.=.w w w /./././././././.",
"/././././././././././.  - 4 % & i i d h h B V V f f f f G f f f f f f f C B * o 2 ; O &.&.&.&.&.g     /././././././././.",
"/././././././././././././.                                                X             .         /././././././././././."
};
