/* XPM */
static char *result[] = {
/* columns rows colors chars-per-pixel */
"60 38 169 2 ",
"   c #1B192C",
".  c #1B1C31",
"X  c #241E2D",
"o  c #291F2C",
"O  c #1D293E",
"+  c #1D2239",
"@  c #26202E",
"#  c #36242C",
"$  c #252334",
"%  c #262538",
"&  c #29273B",
"*  c #2B293E",
"=  c #302B3C",
"-  c #4B2C2C",
";  c #502F2C",
":  c #5E332C",
">  c #4E3631",
",  c #533B3C",
"<  c #513735",
"1  c #6E392C",
"2  c #65362C",
"3  c #753C2C",
"4  c #763F30",
"5  c #594138",
"6  c #644435",
"7  c #784F35",
"8  c #1C2744",
"9  c #1D2D45",
"0  c #1C2C4D",
"q  c #1E3249",
"w  c #1E3958",
"e  c #2D2C40",
"r  c #333145",
"t  c #36354A",
"y  c #38374C",
"u  c #3C3B4C",
"i  c #36394D",
"p  c #3D3D52",
"a  c #3A3E59",
"s  c #1E3E69",
"d  c #403442",
"f  c #403E54",
"g  c #20405B",
"h  c #3E4159",
"j  c #1E4172",
"k  c #204864",
"l  c #214F6C",
"z  c #24426E",
"x  c #21516E",
"c  c #204F74",
"v  c #225675",
"b  c #225B7B",
"n  c #205179",
"m  c #534341",
"M  c #414256",
"N  c #46455B",
"B  c #4A4C5E",
"V  c #545A5A",
"C  c #67554B",
"Z  c #745545",
"A  c #7F6756",
"S  c #4C4D62",
"D  c #4F5165",
"F  c #485665",
"G  c #525669",
"H  c #56596E",
"J  c #5B5E72",
"K  c #5E6377",
"L  c #5E6479",
"P  c #62677B",
"I  c #6E717D",
"U  c #756F65",
"Y  c #80412B",
"T  c #8B472E",
"R  c #874F32",
"E  c #8B5936",
"W  c #915D37",
"Q  c #985E36",
"!  c #95492B",
"~  c #A54F2B",
"^  c #B8562B",
"/  c #96613A",
"(  c #AE6234",
")  c #B26F3A",
"_  c #B4713A",
"`  c #C65C2B",
"'  c #936543",
"]  c #916F53",
"[  c #8F7159",
"{  c #97785C",
"}  c #977558",
"|  c #B47947",
" . c #DD883E",
".. c #BA9269",
"X. c #B99067",
"o. c #B88D62",
"O. c #DF934D",
"+. c #E6B278",
"@. c #1F4B84",
"#. c #1F4E8A",
"$. c #245D9A",
"%. c #314E8B",
"&. c #246A8C",
"*. c #236282",
"=. c #356F87",
"-. c #25799E",
";. c #257397",
":. c #236A97",
">. c #1E56AC",
",. c #3959BD",
"<. c #2161A9",
"1. c #2162A5",
"2. c #267EA4",
"3. c #2169BA",
"4. c #2963B9",
"5. c #247AB9",
"6. c #1F65C4",
"7. c #216FC3",
"8. c #2276CB",
"9. c #2276D0",
"0. c #237BD1",
"q. c #288EB6",
"w. c #2788B8",
"e. c #2894BE",
"r. c #2786AD",
"t. c #7E828D",
"y. c #2997C1",
"u. c #299BC5",
"i. c #299FCA",
"p. c #2792CF",
"a. c #2484D3",
"s. c #258BD4",
"d. c #2794D6",
"f. c #299ED8",
"g. c #289CD7",
"h. c #278ECB",
"j. c #2AA2CF",
"k. c #2AA5D3",
"l. c #29A4D9",
"z. c #2BADDB",
"x. c #2FB0DC",
"c. c #33B2DE",
"v. c #38B6DF",
"b. c #3CB9E1",
"n. c #39B6E0",
"m. c #42BDE3",
"M. c #4EC5E7",
"N. c #51C7E8",
"B. c #56CBEA",
"V. c #5CCFEB",
"C. c #5FD1ED",
"Z. c #62D3ED",
"A. c #6CDAF1",
"S. c #82818C",
"D. c #8E8D97",
"F. c #848992",
"G. c #95959E",
"H. c #9F9EA6",
"J. c #A3A2AA",
"K. c #B7B6BC",
"L. c #B5BCC3",
"P. c #BDC1C7",
"I. c #C6C5CA",
"U. c #C9CCD0",
"Y. c #DDDDE0",
"T. c #D1D7E4",
"R. c #DDE2F4",
"E. c white",
"W. c None",
/* pixels */
"W.W.W.W.W.W.W.W.W.W.W.W.W.W.W.W.W.W.W.W.W.W.W.W.W.W.W.W.W.W.W.W.W.W.W.W.W.W.W.W.W.W.W.W.W.W.W.W.W.W.W.W.W.W.W.W.W.W.W.W.",
"W.W.W.W.W.W.W.W.W.W.W.W.W.W.W.W.W.W.W.W.W.W.W.W.W.W.W.W.W.W.W.W.W.W.W.W.W.W.W.W.W.W.W.W.W.W.W.W.W.W.W.W.W.W.W.W.W.W.W.W.",
"W.W.W.W.W.W.W.W.W.W.W.W.W.W.W.W.W.W.W.W.W.W.W.W.W.W.W.W.W.W.W.W.W.W.W.W.W.W.W.W.W.W.W.W.W.W.W.W.W.W.W.W.W.W.W.W.W.W.W.W.",
"W.W.W.W.W.W.W.W.W.W.W.W.W.W.W.W.W.W.W.W.W.W.W.W.W.W.W.W.W.W.W.W.W.W.W.W.W.W.W.W.W.W.W.W.W.W.W.W.W.W.W.W.W.W.W.W.W.W.W.W.",
"W.W.W.W.W.W.W.W.W.W.W.W.W.W.W.W.W.W.W.W.W.W.W.W.W.W.W.W.W.W.W.W.W.W.W.W.W.W.W.W.W.W.W.W.W.W.W.W.W.W.W.W.W.W.W.W.W.W.W.W.",
"W.W.W.W.W.W.W.W.W.W.W.W.W.W.W.W.W.W.W.W.W.W.W.W.W.W.W.W.W.W.W.W.W.W.W.W.W.W.W.W.W.W.W.W.W.W.W.W.W.W.W.W.W.W.W.W.W.W.W.W.",
"W.W.W.W.W.W.W.W.W.W.W.W.W.W.W.W.W.W.W.W.W.W.W.W.W.W.W.W.W.W.W.W.W.W.W.W.W.W.W.W.W.W.W.W.W.W.W.W.W.W.W.W.W.W.W.W.W.W.W.W.",
"W.W.W.W.W.W.W.W.W.W.W.W.W.W.W.W.W.W.W.W.W.W.                          W.W.W.W.W.W.W.W.W.W.W.W.W.W.W.W.W.W.W.W.W.W.W.W.W.",
"W.W.W.W.W.W.W.W.W.W.W.W.W.W.W.W.W.W.W.W.W.w k k k k k k k k k k k k k g W.W.W.W.W.W.W.W.W.W.W.W.W.W.W.W.W.W.W.W.W.W.W.W.",
"W.W.W.W.W.W.W.W.W.W.W.W.W.W.W.W.W.W.W.    &.z.z.z.z.z.z.z.z.z.z.z.z.z.-.        W.W.W.W.W.W.W.W.W.W.W.W.W.W.W.W.W.W.W.W.",
"W.W.W.W.W.W.W.W.W.W.W.W.W.W.W.W.    x 2.r.e.z.z.z.z.z.z.z.z.z.z.z.z.z.u.2.2.2.;.q     W.W.W.W.W.W.W.W.W.W.W.W.W.W.W.W.W.",
"W.W.W.W.W.W.W.W.W.W.W.W.W.W.W.w l l -.z.z.z.z.z.z.z.z.z.z.z.z.z.z.z.z.z.z.z.z.i.b q   W.W.W.W.W.W.W.W.W.W.W.W.W.W.W.W.W.",
"W.W.W.W.W.W.W.W.W.W.W.W.W.W.+ x z.z.z.x.z.x.z.z.z.z.z.z.z.z.z.z.z.z.z.z.z.z.z.z.z.b   W.W.W.W.W.W.W.W.W.W.W.W.W.W.W.W.W.",
"W.W.W.W.W.W.W.W.W.W.W.W.W.  &.e.z.z.b.V.V.m.z.z.z.z.z.z.z.z.z.z.z.z.z.z.z.z.z.z.z.b   W.W.W.W.W.W.W.W.W.W.W.W.W.W.W.W.W.",
"W.W.W.W.W.W.W.W.W.W.W.W.q b q.z.z.m.B.A.A.B.m.z.v.b.z.z.z.z.z.z.z.z.z.z.z.z.z.z.z.2.x W.W.W.W.W.W.W.W.W.W.W.W.W.W.W.W.W.",
"W.W.W.W.W.W.W.W.W.W.W.O k k.z.z.x.C.A.A.A.A.V.x.N.N.z.z.z.z.z.z.z.z.z.z.z.z.z.z.z.z.q.9 W.W.W.W.W.W.W.W.W.W.W.W.W.W.W.W.",
"W.W.W.W.W.W.W.W.W.W.. b e.z.z.z.z.V.A.A.A.A.V.x.c.c.z.z.z.z.z.z.z.z.z.z.z.z.z.z.z.z.k.q.k       W.W.W.W.W.W.W.W.W.W.W.W.",
"W.W.W.W.W.W.W.W.W.W.  &.z.z.z.z.z.M.V.A.A.B.m.z.z.z.z.z.z.z.z.z.z.z.z.z.z.z.z.z.z.z.z.z.2.b b O   W.W.W.W.W.W.W.W.W.W.W.",
"W.W.W.W.W.W.W.W.W.W.q ;.z.z.c.v.v.z.m.Z.C.M.z.z.z.z.z.z.z.z.z.z.z.z.z.z.z.z.z.z.z.z.z.z.z.z.k.x 9 W.W.W.W.W.W.W.W.W.W.W.",
"W.W.W.W.W.W.W.W.W.q r.k.z.z.M.C.C.n.x.c.v.x.z.z.z.z.z.z.z.z.z.z.z.z.z.z.z.z.z.z.z.z.z.z.z.z.z.u.*.  W.W.W.W.W.W.W.W.W.W.",
"W.W.W.W.W.W.W.W.W.q e.z.z.z.N.A.A.n.z.z.z.z.z.z.z.z.z.z.z.z.z.z.z.z.z.z.z.z.z.z.z.z.z.z.z.z.z.z.&.  W.W.W.W.W.W.W.W.W.W.",
"W.W.W.W.W.W.W.W.W.q e.z.z.z.M.C.C.v.j.q.q.q.q.q.q.q.q.q.q.q.q.q.e.l.l.z.z.z.z.z.z.z.z.z.z.z.z.z.&.  W.W.W.W.W.W.W.W.W.W.",
"W.W.W.W.W.W.W.W.W.9 y.z.z.z.x.x.x.z.;.8 O O O O O O O O O O O O s 8.f.z.z.z.z.z.z.z.z.z.z.z.z.z.&.  W.W.W.W.W.W.W.W.W.W.",
"W.W.W.W.W.W.W.W.k -.k.z.z.z.z.q.v v V / } } { { ' ' { / W W W W Z z c :.s.l.z.z.z.z.z.z.z.z.z.z.w.@.8 W.W.W.W.W.W.W.W.W.",
"W.W.W.W.W.W.W.  b z.z.z.z.z.e.=.5 < 7 | o.......| o.X.| _ _ ) ) Q ; - p <.h.l.z.z.z.z.z.l.l.z.z.d.3.8 W.W.W.W.W.W.W.W.W.",
"W.W.W.W.W.W.W.  b z.z.z.z.z.x C +.O.E @ @ @ $ @ X X @ @ X X X X - ` ` T + <.d.z.z.z.z.z.s.s.z.z.d.3.8 W.W.W.W.W.W.W.W.W.",
"W.W.W.W.W.W.W.  b z.z.z.e.x U [ C 6 , t t t t t r t t t t t t t d : 2 1 T a $.d.l.z.z.z.f.f.z.z.d.3.8 W.W.W.W.W.W.W.W.W.",
"W.W.W.W.W.W.W.  b z.z.e.=.5 ] A * * t N y y p S D S S p y u S D N * % < ! 2 h <.d.l.z.g.g.l.z.z.s.4.L B W.W.W.W.W.W.W.W.",
"W.W.W.W.W.W.W.  b z.z.b >  .6 * N N N h $   * K P P P *   % H P J N N t X ~ 4 8 3.d.g.0.9.a.z.z.8.,.R.S.  W.W.W.W.W.W.W.",
"W.W.W.W.W.W.W.  b z.z.b >  .6 & N N y u J.K.G.t G G y G.K.J.N D P J J N X ~ Y e 3.d.g.0.9.s.z.d.6.,.R.U.F.$ W.W.W.W.W.W.",
"W.W.W.W.W.W.W.  b k.2.V 7 / , t N S y u Y.E.I.% B B $ I.E.Y.u M P P P D = 3 3 , @.5.d.s.s.d.z.a.>.%.T.P.t.$ W.W.W.W.W.W.",
"W.W.W.W.W.W.W.  b e.9 E _ X y N N J N u Y.E.I.% B B % I.E.Y.u M P P P H N % 3 ^ # @.a.z.z.z.l.a.#.p L.I   W.W.W.W.W.W.W.",
"W.W.W.W.W.W.W.  b u.9 E _ X t N N J N u Y.E.I.% B S % I.E.Y.u N P P P K J * 1 ^ # @.a.z.z.l.a.0.3.$.F f W.W.W.W.W.W.W.W.",
"W.W.W.W.W.W.W.  n w.e R ( X t N B J S u D.H.S.r D D r S.H.D.u B P P P P L * 1 ^ # @.0.d.d.s.9.9.9.3.8 W.W.W.W.W.W.W.W.W.",
"W.W.W.W.W.W.W.  j 1.8 Y ~ X t N N J H M & $ * N J J N * $ & N H P P P P K * 1 ^ # @.0.9.9.9.9.7.7.<.8 W.W.W.W.W.W.W.W.W.",
"W.W.W.W.W.W.W.W.0 0   4 ~ X t N N J P J H G H J K L K H G G J K P P P P K * 1 ^ # @.0.9.9.9.8.s 0 0 W.W.W.W.W.W.W.W.W.W.",
"W.W.W.W.W.W.W.W.W.    : 2   * r r p h M M M M M M M h M M M M h M M M M M % - 1 o w @.@.@.@.@.0   W.W.W.W.W.W.W.W.W.W.W.",
"W.W.W.W.W.W.W.W.W.W.W.                                                                        W.W.W.W.W.W.W.W.W.W.W.W.W."
};
