/* XPM */
static char *result[] = {
/* columns rows colors chars-per-pixel */
"60 38 190 2 ",
"   c #1B192C",
".  c #1E1D30",
"X  c #241E2D",
"o  c #291F2C",
"O  c #1D293E",
"+  c #1C2239",
"@  c #26202E",
"#  c #36242C",
"$  c #252233",
"%  c #29273B",
"&  c #2A293D",
"*  c #262438",
"=  c #302B3C",
"-  c #4B2C2C",
";  c #502F2C",
":  c #5E332C",
">  c #4E3631",
",  c #533B3C",
"<  c #513735",
"1  c #6E392C",
"2  c #65362C",
"3  c #753C2C",
"4  c #763F30",
"5  c #594138",
"6  c #644435",
"7  c #784F35",
"8  c #1C2744",
"9  c #1D2D45",
"0  c #1C2C4D",
"q  c #1E3148",
"w  c #1E3A58",
"e  c #2D2C40",
"r  c #323245",
"t  c #36354A",
"y  c #3A3A4C",
"u  c #3D3E54",
"i  c #3A3E59",
"p  c #1E3E66",
"a  c #192C76",
"s  c #403442",
"d  c #1F415B",
"f  c #20405B",
"g  c #3E4159",
"h  c #1F4062",
"j  c #1E4172",
"k  c #204964",
"l  c #23496D",
"z  c #36466D",
"x  c #21516E",
"c  c #254C74",
"v  c #225675",
"b  c #225C7C",
"n  c #205179",
"m  c #334C73",
"M  c #414356",
"N  c #46465B",
"B  c #4A4C5D",
"V  c #464856",
"C  c #544F4E",
"Z  c #67554B",
"A  c #745545",
"S  c #7F6756",
"D  c #4D4D63",
"F  c #4F5165",
"G  c #495B62",
"H  c #515468",
"J  c #56596E",
"K  c #5E5E6B",
"L  c #555664",
"P  c #5A5D72",
"I  c #5E6377",
"U  c #5F6478",
"Y  c #62677B",
"T  c #676875",
"R  c #6C696A",
"E  c #80412B",
"W  c #8B472E",
"Q  c #8B5936",
"!  c #915D37",
"~  c #985E36",
"^  c #8E4C2F",
"/  c #A54F2B",
"(  c #B8562B",
")  c #96613A",
"_  c #B26F3A",
"`  c #B4713A",
"'  c #AE6234",
"]  c #C65C2B",
"[  c #936543",
"{  c #97785C",
"}  c #977558",
"|  c #907056",
" . c #B47947",
".. c #DD883E",
"X. c #BA9269",
"o. c #B99067",
"O. c #B88D62",
"+. c #DF934D",
"@. c #E6B278",
"#. c #173CB2",
"$. c #1F4B84",
"%. c #1E5199",
"&. c #2C5390",
"*. c #246A8C",
"=. c #246383",
"-. c #356F87",
";. c #25799D",
":. c #257397",
">. c #236A97",
",. c #1D53B2",
"<. c #3959BD",
"1. c #205EA5",
"2. c #2164A4",
"3. c #2161A9",
"4. c #267EA4",
"5. c #2169B9",
"6. c #216AB1",
"7. c #257DB8",
"8. c #53678F",
"9. c #727682",
"0. c #656F81",
"q. c #485FA4",
"w. c #4470A4",
"e. c #1D5CC2",
"r. c #1F63C6",
"t. c #206EC8",
"y. c #2377CB",
"u. c #2276D0",
"i. c #237BD1",
"p. c #3766C3",
"a. c #2788AF",
"s. c #2786AD",
"d. c #288EB6",
"f. c #2683BA",
"g. c #2894BD",
"h. c #2997C1",
"j. c #299BC5",
"k. c #2899CD",
"l. c #2484D3",
"z. c #258BD4",
"x. c #2793D6",
"c. c #299ED8",
"v. c #289CD7",
"b. c #3187CE",
"n. c #2AA4D3",
"m. c #2AA4D9",
"M. c #2BADDB",
"N. c #2FB0DC",
"B. c #33B2DE",
"V. c #38B6DF",
"C. c #34A4CC",
"Z. c #3CB9E1",
"A. c #39B6E0",
"S. c #43BDE3",
"D. c #4EC5E7",
"F. c #56CBEA",
"G. c #5CCFEB",
"H. c #51C7E8",
"J. c #5FD1ED",
"K. c #62D3ED",
"L. c #6CDAF1",
"P. c #81848F",
"I. c #868A94",
"U. c #91939C",
"Y. c #8A929F",
"T. c #959AA4",
"R. c #9CA6AF",
"E. c #A2A4AC",
"W. c #AEADB4",
"Q. c #A4ABB3",
"!. c #B6B5BB",
"~. c #8298CF",
"^. c #89A2D3",
"/. c #AAB3CC",
"(. c #BCC5CC",
"). c #B9C7D2",
"_. c #B6C1E7",
"`. c #CFD8DC",
"'. c #D3D7DA",
"]. c #C7CBCF",
"[. c #CDD7E4",
"{. c #D8DDE3",
"}. c #DCE2E4",
"|. c #D7E0E3",
" X c #DDE2F4",
".X c #E2E8EB",
"XX c #F1F4F5",
"oX c #FEFFFF",
"OX c #F5F7F8",
"+X c None",
/* pixels */
"+X+X+X+X+X+X+X+X+X+X+X+X+X+X+X+X+X+X+X+X+X+X+X+X+X+X+X+X+X+X+X+X+X+X+X+X+X+X+X+X+X+X+X+X+X+X+X+X+X+X+X+X+X+X+X+X+X+X+X+X",
"+X+X+X+X+X+X+X+X+X+X+X+X+X+X+X+X+X+X+X+X+X+X+X+X+X+X+X+X+X+X+X+X+X+X+X+X+X+X+X+X+X+X+X+X+X+X+X+X+X+X+X+X+X+X+X+X+X+X+X+X",
"+X+X+X+X+X+X+X+X+X+X+X+X+X+X+X+X+X+X+X+X+X+X+X+X+X+X+X+X+X+X+X+X+X+X+X+X+X+X+X+X+X+X+X+X+X+X+X+X+X+X+X+X+X+X+X+X+X+X+X+X",
"+X+X+X+X+X+X+X+X+X+X+X+X+X+X+X+X+X+X+X+X+X+X+X+X+X+X+X+X+X+X+X+X+X+X+X+X+X+X+X+X+X+X+X+X+X+X+X+X+X+X+X+X+X+X+X+X+X+X+X+X",
"+X+X+X+X+X+X+X+X+X+X+X+X+X+X+X+X+X+X+X+X+X+X+X+X+X+X+X+X+X+X+X+X+X+X+X+X+X+X+X+X+X+X+X+X+X+X+X+X+X+X+X+X+X+X+X+X+X+X+X+X",
"+X+X+X+X+X+X+X+X+X+X+X+X+X+X+X+X+X+X+X+X+X+X+X+X+X+X+XV V +X+X+X+X+X+X+X+X+X+X+X+X+X+X+X+X+X+X+X+X+X+X+X+X+X+X+X+X+X+X+X",
"+X+X+X+X+X+X+X+X+X+X+X+X+X+X+X+X+X+X+X+X+X+X+X+X+X+X$ Q.P.  +X+X+X+X+X+X+X+X+X+X+X+X+X+X+X+X+X+X+X+X+X+X+X+X+X+X+X+X+X+X",
"+X+X+X+X+X+X+X+X+X+X+X+X+X+X+X+X+X+X+X+X+X+X      K W..X].I.r         +X+X+X+X+X+X+X+X+X+X+X+X+X+X+X+X+X+X+X+X+X+X+X+X+X",
"+X+X+X+X+X+X+X+X+X+X+X+X+X+X+X+X+X+X+X+X+Xd h h h 8._._./.Y.z w h k k d +X+X+X+X+X+X+X+X+X+X+X+X+X+X+X+X+X+X+X+X+X+X+X+X",
"+X+X+X+X+X+X+X+X+X+X+X+X+X+X+X+X+X+X+X    :.N.M.l.t.#.#.a 8 5.x.M.M.N.;.        +X+X+X+X+X+X        +X+X+X+X+X+X+X+X+X+X",
"+X+X+X+X+X+X+X+X+X+X+X+X+X+X+X+X    x 4.s.g.M.M.v.l.t.t.3.2.x.m.M.M.M.j.s.4.4.:.9         K !.Q.T   +X+X+X+X+X+X+X+X+X+X",
"+X+X+X+X+X+X+X+X+X+X+X+X+X+X+X+X  d ;.M.M.M.M.M.M.c.l.z.z.z.m.M.M.M.M.M.M.M.M.j.b q & K T E.oX.XP.  +X+X+X+X+X+X+X+X+X+X",
"+X+X+X+X+X+X+X+X+X+X+X+X+X+X+X+X+ s.M.N.N.M.M.M.M.M.M.M.M.M.M.M.M.M.M.M.M.M.M.M.M.b D `.XXoXoX|.P.  +X+X+X+X+X+X+X+X+X+X",
"+X+X+X+X+X+X+X+X+X+X+X+X+X+X+X+X+ s.Z.G.G.S.M.M.M.M.M.M.M.M.M.M.M.M.M.M.M.M.M.M.M.6.q.[.OXOX|.9.V +X+X+X+X+X+X+X+X+X+X+X",
"+X+X+X+X+X+X+X+X+X+X+X+X+X+X+Xw b C.F.L.L.F.Z.M.Z.Z.M.M.M.M.M.M.M.M.M.M.M.M.M.M.M.i.p.~.[.}.).V   +X+X+X+X+X+X+X+X+X+X+X",
"+X+X+X+X+X+X+X+X+X+X+X+X+X+XO v B.J.L.L.L.L.J.N.H.H.M.M.M.M.M.M.M.M.M.M.M.M.M.M.M.x.r.,.^.).R.y   +X+X+X+X+X+X+X+X+X+X+X",
"+X+X+X+X+X+X+X+X+X+X        *.j.B.F.L.L.L.L.G.M.B.B.M.M.M.M.M.M.M.M.M.M.M.M.M.M.M.m.x.r.i.w.s *   +X+X+X+X+X+X+X+X+X+X+X",
"+X+X+X+X+X+X+X+X+X+X  d b b g.M.M.D.G.L.L.G.D.M.M.M.M.M.M.M.M.M.M.M.M.M.M.M.M.M.M.M.M.x.x.f.b e   +X+X+X+X+X+X+X+X+X+X+X",
"+X+X+X+X+X+X+X+X+X+Xq :.M.M.B.V.V.M.S.K.K.S.M.M.M.M.M.M.M.M.M.M.M.M.M.M.M.M.M.M.M.M.M.M.M.M.n.x 9 +X+X+X+X+X+X+X+X+X+X+X",
"+X+X+X+X+X+X+X+X+Xq a.n.M.M.H.J.K.V.B.B.B.N.M.M.M.M.M.M.M.M.M.M.M.M.M.M.M.M.M.M.M.M.M.M.M.M.M.j.=.  +X+X+X+X+X+X+X+X+X+X",
"+X+X+X+X+X+X+X+X+Xq g.M.M.M.F.L.L.V.M.M.M.M.M.M.M.M.M.M.M.M.M.M.M.M.M.M.M.M.M.M.M.M.M.M.M.M.M.M.*.  +X+X+X+X+X+X+X+X+X+X",
"+X+X+X+X+X+X+X+X+Xq h.M.M.M.D.G.G.V.j.d.d.d.d.d.d.d.d.d.d.d.d.d.g.v.M.M.M.M.M.M.M.M.M.M.M.M.M.M.*.  +X+X+X+X+X+X+X+X+X+X",
"+X+X+X+X+X+X+X+X+Xq h.M.M.M.M.M.B.M.:.O O O O O O O O O O O O O p y.c.M.M.M.M.M.M.M.M.M.M.M.M.M.*.  +X+X+X+X+X+X+X+X+X+X",
"+X+X+X+X+X+X+X+Xk ;.n.M.M.M.M.d.v v L ) } { { { [ [ { ) ! ! ! ! A j n >.x.m.M.M.M.M.M.M.M.M.M.M.f.$.8 +X+X+X+X+X+X+X+X+X",
"+X+X+X+X+X+X+X  b M.M.M.M.M.g.-.5 < 7  .O.X.X.o.O.` o. ._ _ _ _ ~ ; - s 5.b.m.M.M.M.M.M.m.m.M.M.x.6.8   +X+X+X+X+X+X+X+X",
"+X+X+X+X+X+X+X  b M.M.M.M.M.x Z @.+.Q @ @ $ @ $ @ X $ $ @ @ X @ - ] ] W + 3.x.N.M.M.M.M.z.z.M.M.x.5.8     +X+X+X+X+X+X+X",
"+X+X+X+X+X+X+X  v M.M.M.g.v R | Z 6 , t t t t t r r y r t t r t t : : 1 W i 1.x.M.M.M.M.c.m.M.x.2.m T.W.U.$   +X+X+X+X+X",
"+X+X+X+X+X+X+X  b M.M.g.-.5 | | & & t N D F F F F F F F F F F F g e e < ^ 2 s 3.k.m.m.v.v.m.m.l.%.z .XoX'.T T L +X+X+X+X",
"+X+X+X+X+X+X+X  b M.M.b > ..6 & N N N D I U Y Y Y Y Y Y Y Y Y Y P D s t X / 3 8 5.x.c.i.u.z.M.l.e.<. XoXoXoXoXW.  +X+X+X",
"+X+X+X+X+X+X+X  b M.M.b > ..6 % N N t % r r r r H H r r r r r F I P P D X / E e 5.z.c.i.u.z.M.l.e.<. XoXoXoXoX{.T.V +X+X",
"+X+X+X+X+X+X+X  b n.4.G 7 ~ , t N D g %       & F F & .     % B Y Y 0.H = 4 4 , $.7.x.z.z.x.m.l.,.&.[.XXXXXXXX'.U.V +X+X",
"+X+X+X+X+X+X+X  b h.9 Q _ X t N N P J M % . & N J P N % . * u J Y Y Y U s * 3 ( # $.l.M.M.M.m.b.$.t (.|.|.`.`.U.  +X+X+X",
"+X+X+X+X+X+X+X  b h.q Q _ @ t N N P Y P H F H P U U P H F H P I Y Y Y U P & 1 ( # $.l.M.M.c.l.i.$.r Q.(.Q.L B V +X+X+X+X",
"+X+X+X+X+X+X+X  n f.9 ^ ' X t N B P Y Y Y Y Y Y Y Y Y Y Y Y Y Y Y Y Y Y U e 1 ( # $.i.x.v.z.u.u.1.c 0.9.T $   +X+X+X+X+X",
"+X+X+X+X+X+X+X  j 3.O E / X t N N P Y Y Y Y Y Y Y Y Y Y Y Y Y Y Y Y Y Y I & 1 ( # $.i.u.u.u.u.r.t.3.8     +X+X+X+X+X+X+X",
"+X+X+X+X+X+X+X+X0 0 . 3 / X t N N P Y Y Y Y Y Y Y Y Y Y Y Y Y Y Y Y Y Y I & 1 ( # $.u.u.u.u.y.j 0 0 +X+X+X+X+X+X+X+X+X+X",
"+X+X+X+X+X+X+X+X+X    : 2 X % r r u g M M M g M M M M g M M g M M g M M g $ - 1 X w $.$.$.n $.0   +X+X+X+X+X+X+X+X+X+X+X",
"+X+X+X+X+X+X+X+X+X+X+X                                                                        +X+X+X+X+X+X+X+X+X+X+X+X+X"
};
