/* XPM */
static char *result[] = {
/* columns rows colors chars-per-pixel */
"60 38 190 2 ",
"   c #1B192C",
".  c #1E1D31",
"X  c #241E2D",
"o  c #291F2C",
"O  c #1D293E",
"+  c #1C243D",
"@  c #26202E",
"#  c #36242C",
"$  c #252234",
"%  c #29273B",
"&  c #2A283D",
"*  c #262438",
"=  c #302D3E",
"-  c #4B2C2C",
";  c #5E332C",
":  c #4E3631",
">  c #523A39",
",  c #502F2C",
"<  c #6E392C",
"1  c #65362C",
"2  c #753C2C",
"3  c #763F30",
"4  c #594138",
"5  c #644435",
"6  c #784F35",
"7  c #1C2643",
"8  c #1D2E46",
"9  c #1C2C4D",
"0  c #1E3148",
"q  c #1E3958",
"w  c #1A255B",
"e  c #2D2C40",
"r  c #333345",
"t  c #36354A",
"y  c #3B3B4D",
"u  c #3D3E54",
"i  c #3A3E59",
"p  c #1E3D67",
"a  c #192C76",
"s  c #403442",
"d  c #3E4159",
"f  c #20405B",
"g  c #1E4376",
"h  c #1F446A",
"j  c #204964",
"k  c #214E6B",
"l  c #24426E",
"z  c #21516E",
"x  c #244974",
"c  c #225675",
"v  c #225C7C",
"b  c #374B75",
"n  c #414255",
"m  c #46465B",
"M  c #4C4D5D",
"N  c #464856",
"B  c #544F4E",
"V  c #67554B",
"C  c #745545",
"Z  c #7F6756",
"A  c #4D4D63",
"S  c #4F5165",
"D  c #495B62",
"F  c #515468",
"G  c #56596E",
"H  c #585867",
"J  c #5A5D72",
"K  c #5E6377",
"L  c #5F6478",
"P  c #4C6579",
"I  c #6B6A76",
"U  c #62677B",
"Y  c #676976",
"T  c #6C696A",
"R  c #80412B",
"E  c #8B472E",
"W  c #8B5936",
"Q  c #915D37",
"!  c #985E36",
"~  c #8E4C2F",
"^  c #A54F2B",
"/  c #B8562B",
"(  c #96613A",
")  c #B26F3A",
"_  c #B4713A",
"`  c #AE6234",
"'  c #C65C2B",
"]  c #936543",
"[  c #97785C",
"{  c #977558",
"}  c #907056",
"|  c #B47947",
" . c #DD883E",
".. c #BA9269",
"X. c #B88D62",
"o. c #DF934D",
"O. c #E6B278",
"+. c #173CB2",
"@. c #1F4B84",
"#. c #1E5199",
"$. c #215C9B",
"%. c #314E8B",
"&. c #246A8C",
"*. c #236282",
"=. c #356F87",
"-. c #25799D",
";. c #257397",
":. c #2E7095",
">. c #1F59AC",
",. c #1C52B5",
"<. c #3959BD",
"1. c #205EA5",
"2. c #2161A9",
"3. c #2265A4",
"4. c #267EA4",
"5. c #2169B9",
"6. c #216AB1",
"7. c #2478B6",
"8. c #737784",
"9. c #6A7587",
"0. c #5266AB",
"q. c #1D5CC2",
"w. c #1F64C6",
"e. c #206EC8",
"r. c #237ACB",
"t. c #2274CC",
"y. c #2276D0",
"u. c #237BD1",
"i. c #3C6BC7",
"p. c #288EB6",
"a. c #2686B9",
"s. c #2894BE",
"d. c #2786AD",
"f. c #7E828D",
"g. c #718291",
"h. c #2997C1",
"j. c #299AC5",
"k. c #299FCA",
"l. c #2792CF",
"z. c #2484D3",
"x. c #258BD4",
"c. c #2794D6",
"v. c #289DD8",
"b. c #289CD7",
"n. c #278ECB",
"m. c #29A1D5",
"M. c #2AA4D9",
"N. c #2BADDB",
"B. c #33B2DE",
"V. c #38B6DF",
"C. c #2DA9D6",
"Z. c #3CB9E1",
"A. c #39B6E0",
"S. c #42BDE3",
"D. c #4EC5E7",
"F. c #5CCFEB",
"G. c #54CAE9",
"H. c #5FD1ED",
"J. c #62D3ED",
"K. c #6CDAF1",
"L. c #858A94",
"P. c #878C96",
"I. c #91939C",
"U. c #969BA5",
"Y. c #9CA3AD",
"T. c #9EA7B5",
"R. c #AAACB4",
"E. c #B4B6BC",
"W. c #A3A2AA",
"Q. c #889CC7",
"!. c #9AABD8",
"~. c #9CA8C2",
"^. c #BABDC2",
"/. c #BCC4CA",
"(. c #B8C1C7",
"). c #C5C7CC",
"_. c #C7CDD2",
"`. c #CDD6DA",
"'. c #D3D7DA",
"]. c #DCDEE2",
"[. c #D3DAE6",
"{. c #DBE3E6",
"}. c #DDE2F4",
"|. c #E4EBEC",
" X c #E5E9EB",
".X c #EEF2F3",
"XX c #F2F4F5",
"oX c #F4F6F8",
"OX c #FFFFFF",
"+X c None",
/* pixels */
"+X+X+X+X+X+X+X+X+X+X+X+X+X+X+X+X+X+X+X+X+X+X+X+X+X+X+X+X+X+X+X+X+X+X+X+X+X+X+X+X+X+X+X+X+X+X+X+X+X+X+X+X+X+X+X+X+X+X+X+X",
"+X+X+X+X+X+X+X+X+X+X+X+X+X+X+X+X+X+X+X+X+X+X+X+X+X+X+X+X+X+X+X+X+X+X+X+X+X+X+X+X+X+X+X+X+X+X+X+X+X+X+X+X+X+X+X+X+X+X+X+X",
"+X+X+X+X+X+X+X+X+X+X+X+X+X+X+X+X+X+X+X+X+X+X+X+X+X+X+Xn s +X+X+X+X+X+X+X+X+X+X+X+X+X+X+X+X+X+X+X+X+X+X+X+X+X+X+X+X+X+X+X",
"+X+X+X+X+X+X+X+X+X+X+X+X+X+X+X+X+X+X+X+X+X+X+X+X+X+X* Y.f.  +X+X+X+X+X+X+X+X+X+X+X+X+X+X+X+X+X+X+X+X+X+X+X+X+X+X+X+X+X+X",
"+X+X+X+X+X+X+X+X+X+X+X+X+X+X+X+X+X+X+X+X+X+X+X+X+XH W.'.).f.t +X+X+X+X+X+X+X+X+X+X+X+X+X+X+X+X+X+X+X+X+X+X+X+X+X+X+X+X+X",
"+X+X+X+X+X+X+X+X+X+X+X+X+X+X+X+X+X+X+X+X+X+X+X+X  I OXOX.X/.t +X+X+X+X+X+X+X+X+X+X+X+X+X+X+X+X+X+X+X+X+X+X+X+X+X+X+X+X+X",
"+X+X+X+X+X+X+X+X+X+X+X+X+X+X+X+X+X+X+X+X+X+X+X+X  I OXOX.X/.y +X+X+X+X+X+X+X+X+X+X+X+X+X+X+X+X+X+X+X+X+X+X+X+X+X+X+X+X+X",
"+X+X+X+X+X+X+X+X+X+X+X+X+X+X+X+X+X+X+X+X+X+X    8.E.|.|.|.`.P.S       +X+X+X+X+X+X+X+X+X+X+X+X+X      +X+X+X+X+X+X+X+X+X",
"+X+X+X+X+X+X+X+X+X+X+X+X+X+X+X+X+X+X+X+X+Xq j j g.T.!.!.T.U.P.P j j j q +X+X+X+X+X+X+X+X+X+X+XH H S $ +X+X+X+X+X+X+X+X+X",
"+X+X+X+X+X+X+X+X+X+X+X+X+X+X+X+X+X+X+X    &.N.N.z w +.+.a     &.N.N.N.-.        +X+X+X+X    & ).XX/.t +X+X+X+X+X+X+X+X+X",
"+X+X+X+X+X+X+X+X+X+X        +X+X    z 4.4.j.N.N.7.>.e.e.>.$.$.n.N.N.N.k.d.4.4.;.8   X   P.E.^.|.XX/.t +X+X+X+X+X+X+X+X+X",
"+X+X+X+X+X+X+X+X+X+X  n I I M q k k -.N.N.N.N.N.c.x.z.x.x.x.x.c.N.N.N.N.N.N.N.k.v 0 = I _.OXOXoX_.P.r +X+X+X+X+X+X+X+X+X",
"+X+X+X+X+X+X+X+X+X+X  L.{.XXI z N.N.N.N.N.N.N.N.N.N.N.N.N.N.N.N.N.N.N.N.N.N.N.N.N.v F XXOXOXOX|.L.  +X+X+X+X+X+X+X+X+X+X",
"+X+X+X+X+X+X+X+X+X+X  L.^.H :.s.N.N.Z.H.F.S.N.N.N.N.N.N.N.N.N.N.N.N.N.N.N.N.N.N.N.6.0.oXOXoX{._.I   +X+X+X+X+X+X+X+X+X+X",
"+X+X+X+X+X+X+X+X+X+X+XY 8.x a.N.N.Z.F.K.K.F.Z.N.Z.Z.N.N.N.N.N.N.N.N.N.N.N.N.N.N.N.u.i.!.[.{./.L.H +X+X+X+X+X+X+X+X+X+X+X",
"+X+X+X+X+X+X+X+X+X+X+XO p r.b.N.N.F.K.K.K.K.F.B.D.G.N.N.N.N.N.N.N.N.N.N.N.N.N.N.N.x.w.,.Q./.Y.d . +X+X+X+X+X+X+X+X+X+X+X",
"+X+X+X+X+X+X+X+X+X+X  v s.m.C.N.B.F.K.K.K.K.H.N.V.V.N.N.N.N.N.N.N.N.N.N.N.N.N.N.N.M.c.e.b d y $   +X+X+X+X+X+X+X+X+X+X+X",
"+X+X+X+X+X+X+X+X+X+X  &.N.N.N.N.N.D.F.K.K.F.S.N.N.N.N.N.N.N.N.N.N.N.N.N.N.N.N.N.N.N.M.c.$.g g 7   +X+X+X+X+X+X+X+X+X+X+X",
"+X+X+X+X+X+X+X+X+X+X0 -.N.N.B.V.A.N.S.J.H.S.N.N.N.N.N.N.N.N.N.N.N.N.N.N.N.N.N.N.N.N.N.N.x.z.r.h 8 +X+X+X+X+X+X+X+X+X+X+X",
"+X+X+X+X+X+X+X+X+X0 d.k.N.N.D.J.H.A.N.A.B.B.N.N.N.N.N.N.N.N.N.N.N.N.N.N.N.N.N.N.N.N.N.N.N.M.m.j.*.  +X+X+X+X+X+X+X+X+X+X",
"+X+X+X+X+X+X+X+X+X8 h.N.N.N.G.K.K.A.N.N.N.N.N.N.N.N.N.N.N.N.N.N.N.N.N.N.N.N.N.N.N.N.N.N.N.N.N.N.&.  +X+X+X+X+X+X+X+X+X+X",
"+X+X+X+X+X+X+X+X+X0 h.N.N.N.D.H.F.A.k.p.p.p.p.p.p.p.p.p.p.p.p.p.s.b.N.N.N.N.N.N.N.N.N.N.N.N.N.N.&.  +X+X+X+X+X+X+X+X+X+X",
"+X+X+X+X+X+X+X+X+X8 h.N.N.N.N.B.N.N.;.O O O O O O O O O O O O O p r.b.N.N.N.N.N.N.N.N.N.N.N.N.N.&.  +X+X+X+X+X+X+X+X+X+X",
"+X+X+X+X+X+X+X+Xj -.C.N.N.N.N.p.v c H ( { { [ [ ] ] [ ( Q Q Q Q C l c 3.x.N.N.N.N.N.N.N.N.N.N.N.a.@.7 +X+X+X+X+X+X+X+X+X",
"+X+X+X+X+X+X+X  v N.N.N.N.N.s.=.B : 6 | X.......X._ ..| ) ) ) ) ! , - s 5.n.M.N.N.N.N.N.M.M.N.N.c.6.7   +X+X+X+X+X+X+X+X",
"+X+X+X+X+X+X+X  v N.N.N.N.N.z V O.o.W $ @ @ $ $ @ @ @ $ @ @ @ @ - ' ' E 7 2.x.N.N.N.N.N.x.x.N.N.c.5.7 X   +X+X+X+X+X+X+X",
"+X+X+X+X+X+X+X+Xf v k.N.s.c T } C 5 > t t t t t r r r t t t r t s ; ; 2 E i $.x.M.N.N.N.v.v.N.c.3.b U.W.I.$   +X+X+X+X+X",
"+X+X+X+X+X+X+X+X+X8 s.s.=.4 { Z % * t m A S S S S S S S S S S S m & % : ~ < s 6.c.M.N.b.b.M.N.z.$.b ].OX'.I K H +X+X+X+X",
"+X+X+X+X+X+X+X+X+X8 h.v -  .; e m m m m K U U L U U U U U L L U J m m t X ^ R 7 5.c.b.u.y.x.N.z.q.<.}.OXOXOXOXR.  +X+X+X",
"+X+X+X+X+X+X+X+X+X8 h.v : o.5 e m m y & e r r r F S r r r r r S U J J n X ^ R 7 5.c.b.y.y.x.M.z.q.<.}.OXOXOXOX'.U.N +X+X",
"+X+X+X+X+X+X+X+X+X+ &.D 6 ( > r A S s e       % S S % .     % A U U U S & 3 6 : %.7.c.x.x.c.M.z.>.%.`.XX.XoXoX'.I.N +X+X",
"+X+X+X+X+X+X+X+X+X    W ) X t m m J G d * $ % m J J m % . * d F U U U G m * < / # @.z.N.N.N.M.z.@.y (.{.{.'.'.I.  +X+X+X",
"+X+X+X+X+X+X+X+X+X    W ) X t m m J U J F S F J L L J F F F J K U U U L J & < / # @.z.N.N.M.z.u.@.r R.(.T.S M N +X+X+X+X",
"+X+X+X+X+X+X+X+Xq p . W ` X t m m K U U U U U U U U U U U U U U U U U U L e < / # @.u.c.c.x.y.y.1.x 9.8.Y $   +X+X+X+X+X",
"+X+X+X+X+X+X+X  g >.7 R ^ X t m m J U U U U U U U U U U U U U U U U U U K & < / # @.u.y.y.y.y.e.e.2.7     +X+X+X+X+X+X+X",
"+X+X+X+X+X+X+X+X7 9   R ^ X t m m J U U U U U U U U U U U U U U U U U U K & < / # @.u.y.y.y.t.p 9 9 +X+X+X+X+X+X+X+X+X+X",
"+X+X+X+X+X+X+X+X+X    ; 1 X % r r u d n n d n n n n n n n n d n d n n d d $ - < X q @.@.@.@.g 9   +X+X+X+X+X+X+X+X+X+X+X",
"+X+X+X+X+X+X+X+X+X+X+X                                                                      . +X+X+X+X+X+X+X+X+X+X+X+X+X"
};
