/* XPM */
static char *result[] = {
/* columns rows colors chars-per-pixel */
"60 38 195 2 ",
"   c #1B192C",
".  c #1E1E32",
"X  c #241E2D",
"o  c #211F32",
"O  c #1C2035",
"+  c #1D293E",
"@  c #1C233C",
"#  c #26202F",
"$  c #39292F",
"%  c #35242C",
"&  c #252133",
"*  c #262539",
"=  c #2B2A3D",
"-  c #29273B",
";  c #312C3D",
":  c #492B2C",
">  c #5E332C",
",  c #4D3438",
"<  c #553631",
"1  c #502E2C",
"2  c #6B382C",
"3  c #733D2E",
"4  c #52403C",
"5  c #774B33",
"6  c #704735",
"7  c #1C2744",
"8  c #1D2E45",
"9  c #1C2C4D",
"0  c #1A224D",
"q  c #1E324B",
"w  c #1F3E58",
"e  c #1E3657",
"r  c #302F43",
"t  c #313245",
"y  c #36354A",
"u  c #3B3B4D",
"i  c #38374C",
"p  c #3E3E52",
"a  c #2F2F41",
"s  c #1E3F6D",
"d  c #1E3E61",
"f  c #1C3975",
"g  c #423944",
"h  c #20435D",
"j  c #1E4475",
"k  c #1E477C",
"l  c #1F4062",
"z  c #204964",
"x  c #234967",
"c  c #225675",
"v  c #225B7B",
"b  c #275873",
"n  c #364F76",
"m  c #5A4A46",
"M  c #404255",
"N  c #45445A",
"B  c #4C4D5D",
"V  c #484856",
"C  c #4E515F",
"Z  c #524D57",
"A  c #684942",
"S  c #755B47",
"D  c #7E6452",
"F  c #4D4D63",
"G  c #4F5165",
"H  c #435969",
"J  c #525265",
"K  c #56596D",
"L  c #57586A",
"P  c #5A5E72",
"I  c #43597A",
"U  c #5D6176",
"Y  c #5F6478",
"T  c #63626F",
"R  c #62677B",
"E  c #6C6D79",
"W  c #686975",
"Q  c #6F727E",
"!  c #70737F",
"~  c #80412B",
"^  c #8D462B",
"/  c #875737",
"(  c #915D37",
")  c #915E39",
"_  c #A54F2B",
"`  c #B8562B",
"'  c #996138",
"]  c #B26F3A",
"[  c #B3713B",
"{  c #CA5D2B",
"}  c #C97D3C",
"|  c #C16C35",
" . c #956C4D",
".. c #97785C",
"X. c #967153",
"o. c #B57F4F",
"O. c #9C7E61",
"+. c #D3833D",
"@. c #B7875A",
"#. c #9F8062",
"$. c #BA9269",
"%. c #AA8562",
"&. c #E3A565",
"*. c #183083",
"=. c #173BAF",
"-. c #1F4A83",
";. c #1F4E89",
":. c #1B4398",
">. c #274F82",
",. c #20558D",
"<. c #225E8A",
"1. c #205B9E",
"2. c #26698A",
"3. c #25779C",
"4. c #22669F",
"5. c #1C50B3",
"6. c #215DA3",
"7. c #1F60B8",
"8. c #2462A6",
"9. c #267DA3",
"0. c #2477AC",
"q. c #2169BA",
"w. c #2478B8",
"e. c #566886",
"r. c #737784",
"t. c #767C88",
"y. c #6E7481",
"u. c #4365BC",
"i. c #1D5CC2",
"p. c #1F63C4",
"a. c #2272CB",
"s. c #2276D0",
"d. c #237DD2",
"f. c #2788AF",
"g. c #2784AB",
"h. c #288EB6",
"j. c #278BB2",
"k. c #2894BD",
"l. c #7D828C",
"z. c #7A88B5",
"x. c #268BCC",
"c. c #2997C1",
"v. c #2897C8",
"b. c #2483D2",
"n. c #258BD4",
"m. c #2794D6",
"M. c #289AD6",
"N. c #299ED8",
"B. c #2AA5D3",
"V. c #2AA3D9",
"C. c #2BADDB",
"Z. c #2BA9D7",
"A. c #34B3DE",
"S. c #38B6DF",
"D. c #2DAAD6",
"F. c #3BB8E0",
"G. c #7F94D5",
"H. c #6385D0",
"J. c #43BEE3",
"K. c #4CC4E6",
"L. c #54C9E9",
"P. c #5BCEEB",
"I. c #5FD1ED",
"U. c #64D4EE",
"Y. c #6CDAF1",
"T. c #848892",
"R. c #92939C",
"E. c #80818C",
"W. c #959BA4",
"Q. c #8186A2",
"!. c #9CA5B1",
"~. c #A5A5AD",
"^. c #ABACB3",
"/. c #A2A9B2",
"(. c #ABB5BC",
"). c #B4B5BB",
"_. c #9AA6CA",
"`. c #9CADD4",
"'. c #B3BDC4",
"]. c #B2BEE4",
"[. c #BCC5CB",
"{. c #BCC6D0",
"}. c #CCD5D9",
"|. c #D2D7DA",
" X c #C4C8CE",
".X c #D5DDE1",
"XX c #DBE2E5",
"oX c #E4EAEC",
"OX c #E9E9EB",
"+X c #EDEFF2",
"@X c #EDF1F2",
"#X c #F1F4F5",
"$X c #FEFEFE",
"%X c #F6F8F9",
"&X c None",
/* pixels */
"&X&X&X&X&X&X&X&X&X&X&X&X&X&X&X&X&X&X&X&X&X&X&X&X&X&XX &X&X&X&X&X&X&X&X&X&X&X&X&X&X&X&X&X&X&X&X&X&X&X&X&X&X&X&X&X&X&X&X&X",
"&X&X&X&X&X&X&X&X&X&X&X&X&X&X&X&X&X&X&X&X&X&X&X&X&XC t.V &X&X&X&X&X&X&X&X&X&X&X&X&X&X&X&X&X&X&X&X&X&X&X&X&X&X&X&X&X&X&X&X",
"&X&X&X&X&X&X&X&X&X&X&X&X&X&X&X&X&X&X&X&X&X&X&X&XV E..XE u &X&X&X&X&X&X&X&X&X&X&X&X&X&X&X&X&X&X&X&X&X&X&X&X&X&X&X&X&X&X&X",
"&X&X&X&X&X&X&X&X&X&X&X&X&X&X&X&X&X&X&X&X&X&X&X  ~.+X%X|.l.  &X&X&X&X&X&X&X&X&X&X&X&X&X&X&X&X&X&X&X&X&X&X&X&X&X&X&X&X&X&X",
"&X&X&X&X&X&X&X&X&X&X&X&X&X&X&X&X&X&X&X&X&X&X&X  ^.$X$XXXT.  &X&X&X&X&X&X&X&X&X&X&X&X&X&X&X&X&X&X&X&X&X&X&X&X&X&X&X&X&X&X",
"&X&X&X&X&X&X&X&X&X&X&X&X&X&X&X&X&X&X&X&X&X&X&XJ  X$X$XoXW.M &X&X&X&X&X&X&X&X&X&X&X&X&X&X&X&X&X&X&X&X&X&X&X&X&X&X&X&X&X&X",
"&X&X&X&X&X&X&X&X&X&X&X&X&X&X&X&X&X&X&X&X&X  J OX%X$X$XoX XW.t &X&X&X&X&X&X&X&X&X&X&X&X&X&X&X&X&X&X&X&X&X&X&X&X&X&X&X&X&X",
"&X&X&X&X&X&X&X&X&X&X&X&X&X&X&X&X&X&X&X&X    Z XX+X+XoXXX}.!.t       &X&X&X&X&X&X&X&X&X&X&X&X        &X&X&X&X&X&X&X&X&X&X",
"&X&X&X&X&X&X&X&X&X&X&X&X&X&X&X&X&X&X&X&Xh d n W._.`.`.!.R.t.x l z z q &X&X&X&X&X&X&X&X&X&XV T P u   &X&X&X&X&X&X&X&X&X&X",
"&X&X&X&X&X&X&X        &X&X&X&X&X&X    8 c.m.8.. *.=.=.0   7 q.m.C.C.x         &X&X&X&X    W $XoXT.  &X&X&X&X&X&X&X&X&X&X",
"&X&X&X&X&X&X&X  J ~.).E         O 2.9.f.B.V.x.1.7.p.p.6.1.8.n.V.C.C.h.9.g.g.c       Z ).).|.$XXXT.  &X&X&X&X&X&X&X&X&X&X",
"&X&X&X&X&X&X&X  Q oX%X^.C   w c c c.C.C.C.C.V.n.n.n.n.n.n.n.C.C.C.C.C.C.C.C.g.h O V R.%X$X%X@X^.E   &X&X&X&X&X&X&X&X&X&X",
"&X&X&X&X&X&X&X  Q |.%XoX/.* 3.C.C.A.C.A.C.C.C.C.C.C.C.C.C.C.C.C.C.C.C.C.C.C.C.c.q W.$X$X$X#X}.B   &X&X&X&X&X&X&X&X&X&X&X",
"&X&X&X&X&X&X&X&Xh W  XR.I 6.x.C.C.K.P.K.A.C.C.C.C.C.C.C.C.C.C.C.C.C.C.C.C.C.C.M.:._.$X$X#X|.'.M   &X&X&X&X&X&X&X&X&X&X&X",
"&X&X&X&X&X&X&X&X&X; E.e.;.x.V.A.K.U.Y.U.K.F.A.K.A.C.C.C.C.C.C.C.C.C.C.C.C.C.C.V.p.H.].+XXX(.y.i &X&X&X&X&X&X&X&X&X&X&X&X",
"&X&X&X&X&X&X&X&X&XX * ,.b.C.C.J.Y.Y.Y.Y.U.K.F.U.F.C.C.C.C.C.C.C.C.C.C.C.C.C.C.V.b.i.u.{.(.r.  &X&X&X&X&X&X&X&X&X&X&X&X&X",
"&X&X&X&X&X&X&X&X&X+ 3.B.Z.C.C.J.Y.Y.Y.Y.Y.K.C.S.A.C.C.C.C.C.C.C.C.C.C.C.C.C.C.C.V.b.8.N p a   &X&X&X&X&X&X&X&X&X&X&X&X&X",
"&X&X&X&X&X&X&X&X&Xq k.C.C.C.C.S.K.U.Y.Y.L.S.C.C.C.C.C.C.C.C.C.C.C.C.C.C.C.C.C.C.C.M.a.k k e   &X&X&X&X&X&X&X&X&X&X&X&X&X",
"&X&X&X&X&X&X&X&X8 h c.C.C.A.S.A.A.L.U.P.A.C.C.C.C.C.C.C.C.C.C.C.C.C.C.C.C.C.C.C.C.C.B.b.b.4.8 &X&X&X&X&X&X&X&X&X&X&X&X&X",
"&X&X&X&X&X&X&X  v c.C.C.S.P.P.L.C.A.A.A.C.C.C.C.C.C.C.C.C.C.C.C.C.C.C.C.C.C.C.C.C.C.C.D.B.M.k.w &X&X&X&X&X&X&X&X&X&X&X&X",
"&X&X&X&X&X&X&X  v C.C.C.F.Y.Y.L.C.C.C.C.C.C.C.C.C.C.C.C.C.C.C.C.C.C.C.C.C.C.C.C.C.C.C.C.C.C.B.w   &X&X&X&X&X&X&X&X&X&X&X",
"&X&X&X&X&X&X&X  v C.C.C.S.P.P.K.C.k.h.h.h.h.h.h.h.h.h.h.h.h.h.v.V.C.C.C.C.C.C.C.C.C.C.C.C.C.B.w   &X&X&X&X&X&X&X&X&X&X&X",
"&X&X&X&X&X&X&X. v C.C.C.C.A.A.C.B.z + + + + + + + + + + + + + ,.n.C.C.C.C.C.C.C.C.C.C.C.C.C.B.w   &X&X&X&X&X&X&X&X&X&X&X",
"&X&X&X&X&X&XO v j.C.C.C.C.C.3.v c S  .......X.(  . .( ) ) ) ) Z j b w.m.C.C.C.C.C.C.C.C.C.C.D.4.j &X&X&X&X&X&X&X&X&X&X&X",
"&X&X&X&X&X&XO f.C.C.C.C.B.f.H 4 < ' o.$.$.$.@.[ @.@.] ] ] ] ] 5 1 : n q.N.C.C.C.C.C.V.N.C.C.V.b.>.  &X&X&X&X&X&X&X&X&X&X",
"&X&X&X&X&X&XO f.C.C.C.C.f.+ #.&.+.< X # # & & X # # # # # # X 5 { { < s d.N.C.C.C.C.V.d.N.C.V.b.-.    &X&X&X&X&X&X&X&X&X",
"&X&X&X&X&X&XO f.C.C.C.3.H #.D 6 6 y y y y y y y y t y y y y t , > > 3 A s w.m.C.C.C.V.N.V.V.d.;.e.^.^.W     &X&X&X&X&X&X",
"&X&X&X&X&X  O f.D.D.f.H 5 %.Z - - p F J F J J F G G G G J J J i - - 3 ~ < >.w.N.V.V.N.N.V.M.a.f Q.$X$X^.T T V &X&X&X&X&X",
"&X&X&X&X    O f.C.c.8 / [ X y N N N L R R R R R R R R R R R R J N N - > { : j d.V.m.s.s.M.M.a.5._.$X$X$X$X$XW   &X&X&X&X",
"&X&X&X  l.Q O f.A.c.q / [ X y N N a = t t t p R N t t t r i P U P P t > { : j d.V.m.s.s.M.M.a.5.G.$X$X$X$X$X Xt.  &X&X&X",
"&X&X&X  r.W O f.v.2.A / / a p B G t &     & i R p &     o t P R R R p , ^ 2 p 1.n.m.n.n.V.M.p.=.z.+X#X#X#X#X).r.  &X&X&X",
"&X&X&X&X    O f.2.$ } 5 7 g N G R G y . . y F R J i . . t B R R R R J y X _ 5 7 q.m.C.C.C.M.a.e y..XXX|.|.|.P   &X&X&X&X",
"&X&X&X&X&X  O f.2.$ } 5 * N N J R U L J J K U R U K J G K P R R R W U g X _ ~ 7 q.m.A.D.m.d.a.e R [.[.l.C B u &X&X&X&X&X",
"&X&X&X&X&X&XO 0.<.$ | 5 * N N J R R R R R R R R R R W e.R R R R R e.e.G X _ 3 7 q.b.m.m.b.a.a.>.I r.r.C     &X&X&X&X&X&X",
"&X&X&X&X&X&XO 1.k % ` 2 * N N G R R e.Y R R R R R R R R R R R R R R y.F X _ ~ 7 q.s.s.s.s.a.p.p.k     &X&X&X&X&X&X&X&X&X",
"&X&X&X&X&X&X&X9 7 % ` 2 * N N G R R R y.R R R R R R R R R R R e.R R R N # _ ~ 0 q.s.s.s.s.6.q q 9 &X&X&X&X&X&X&X&X&X&X&X",
"&X&X&X&X&X&X&X&X  % 3 : X r t y M M h g M M M M g F p g n g g F g F p y   > 1 . j -.-.-.-.j     &X&X&X&X&X&X&X&X&X&X&X&X",
"&X&X&X&X&X&X&X&X&X&X                X X                   .                                 &X&X&X&X&X&X&X&X&X&X&X&X&X&X"
};
