/* XPM */
static char *result[] = {
/* columns rows colors chars-per-pixel */
"60 38 192 2 ",
"   c #1B192C",
".  c #1D1D32",
"X  c #241E2D",
"o  c #291F2C",
"O  c #1D293E",
"+  c #1C233E",
"@  c #26202E",
"#  c #36242C",
"$  c #252334",
"%  c #29273A",
"&  c #2A293D",
"*  c #272538",
"=  c #302D3E",
"-  c #4B2C2C",
";  c #5E332C",
":  c #4E3631",
">  c #523A39",
",  c #502F2C",
"<  c #6E392C",
"1  c #65362C",
"2  c #753C2C",
"3  c #763F30",
"4  c #594138",
"5  c #644435",
"6  c #784F35",
"7  c #1C2643",
"8  c #1D2D45",
"9  c #1C2C4D",
"0  c #1E3148",
"q  c #1E395A",
"w  c #1A255B",
"e  c #2E2D40",
"r  c #333446",
"t  c #36354A",
"y  c #3A3A4C",
"u  c #39374D",
"i  c #3D3D52",
"p  c #3A3E59",
"a  c #1E3B63",
"s  c #1E3B68",
"d  c #192C76",
"f  c #403442",
"g  c #3F4054",
"h  c #3D425E",
"j  c #20405B",
"k  c #1F4466",
"l  c #1E4375",
"z  c #214A69",
"x  c #21516E",
"c  c #244974",
"v  c #225B7B",
"b  c #215576",
"n  c #374B75",
"m  c #414355",
"M  c #46465B",
"N  c #4B4C5C",
"B  c #464856",
"V  c #504E5D",
"C  c #544F4E",
"Z  c #67554B",
"A  c #745545",
"S  c #7F6756",
"D  c #4C4D62",
"F  c #4F5065",
"G  c #495B62",
"H  c #535364",
"J  c #53566A",
"K  c #5C5D6A",
"L  c #585867",
"P  c #5B5E72",
"I  c #4A5B77",
"U  c #5E616F",
"Y  c #5D6275",
"T  c #5F6478",
"R  c #62616E",
"E  c #6B6A76",
"W  c #62677B",
"Q  c #686A77",
"!  c #70737F",
"~  c #756F65",
"^  c #80412B",
"/  c #8B472E",
"(  c #8B5936",
")  c #915D37",
"_  c #985E36",
"`  c #8E4C2F",
"'  c #A54F2B",
"]  c #B8562B",
"[  c #96613A",
"{  c #B26F3A",
"}  c #B4713A",
"|  c #AE6234",
" . c #C65C2B",
".. c #936543",
"X. c #97785C",
"o. c #977558",
"O. c #907056",
"+. c #B47947",
"@. c #DD883E",
"#. c #BA9269",
"$. c #B88D62",
"%. c #DF934D",
"&. c #E6B278",
"*. c #173CB2",
"=. c #1F4B84",
"-. c #1E5199",
";. c #215C9B",
":. c #2E548B",
">. c #24698A",
",. c #356F87",
"<. c #25769A",
"1. c #236A97",
"2. c #1F59AC",
"3. c #1C52B5",
"4. c #3959BD",
"5. c #205EA5",
"6. c #2161A9",
"7. c #2265A4",
"8. c #267EA4",
"9. c #2169B9",
"0. c #216AB1",
"q. c #2476B7",
"w. c #727884",
"e. c #6C778A",
"r. c #5266AB",
"t. c #1D5CC2",
"y. c #1F64C6",
"u. c #206EC8",
"i. c #2378CB",
"p. c #2276D0",
"a. c #237BD1",
"s. c #3C6BC7",
"d. c #288EB6",
"f. c #2683BA",
"g. c #2894BE",
"h. c #2786AD",
"j. c #7E838E",
"k. c #2997C1",
"l. c #299AC8",
"z. c #2484D3",
"x. c #258BD4",
"c. c #2794D6",
"v. c #289BD7",
"b. c #289DD8",
"n. c #278ECB",
"m. c #2AA4D9",
"M. c #2BADDB",
"N. c #2AA3D3",
"B. c #33B2DE",
"V. c #38B6DF",
"C. c #2DA9D6",
"Z. c #3CB8E1",
"A. c #42BDE3",
"S. c #4EC5E7",
"D. c #5CCFEB",
"F. c #54CAE9",
"G. c #5FD1ED",
"H. c #62D3ED",
"J. c #6CDAF1",
"K. c #878B95",
"L. c #91939C",
"P. c #81808B",
"I. c #999EA6",
"U. c #9398A2",
"Y. c #9CA3AC",
"T. c #9EA7B5",
"R. c #ADACB3",
"E. c #A3ACB5",
"W. c #B7B6BC",
"Q. c #A8AEB5",
"!. c #889CC7",
"~. c #9AABD8",
"^. c #9CA8C2",
"/. c #BABCC2",
"(. c #BCC4C9",
"). c #B9C1C7",
"_. c #C4C8CD",
"`. c #C7CED3",
"'. c #CFD8DC",
"]. c #D3D6DA",
"[. c #D7DCE4",
"{. c #DCE4E7",
"}. c #DDE2F4",
"|. c #E2E7EA",
" X c #E5EBEC",
".X c #EBEBEC",
"XX c #EEF2F3",
"oX c #F2F4F5",
"OX c #F5F7F8",
"+X c #FEFEFE",
"@X c #E9EEF0",
"#X c None",
/* pixels */
"#X#X#X#X#X#X#X#X#X#X#X#X#X#X#X#X#X#X#X#X#X#X#X#X#X#X#X    #X#X#X#X#X#X#X#X#X#X#X#X#X#X#X#X#X#X#X#X#X#X#X#X#X#X#X#X#X#X#X",
"#X#X#X#X#X#X#X#X#X#X#X#X#X#X#X#X#X#X#X#X#X#X#X#X#X#X$ ! R #X#X#X#X#X#X#X#X#X#X#X#X#X#X#X#X#X#X#X#X#X#X#X#X#X#X#X#X#X#X#X",
"#X#X#X#X#X#X#X#X#X#X#X#X#X#X#X#X#X#X#X#X#X#X#X#X#X#XH /.Y.g #X#X#X#X#X#X#X#X#X#X#X#X#X#X#X#X#X#X#X#X#X#X#X#X#X#X#X#X#X#X",
"#X#X#X#X#X#X#X#X#X#X#X#X#X#X#X#X#X#X#X#X#X#X#X#X  E .XoX{.W.t #X#X#X#X#X#X#X#X#X#X#X#X#X#X#X#X#X#X#X#X#X#X#X#X#X#X#X#X#X",
"#X#X#X#X#X#X#X#X#X#X#X#X#X#X#X#X#X#X#X#X#X#X#X#X  E +X+XXX(.y #X#X#X#X#X#X#X#X#X#X#X#X#X#X#X#X#X#X#X#X#X#X#X#X#X#X#X#X#X",
"#X#X#X#X#X#X#X#X#X#X#X#X#X#X#X#X#X#X#X#X#X#X#X#XN L.+X+XXX_.L y #X#X#X#X#X#X#X#X#X#X#X#X#X#X#X#X#X#X#X#X#X#X#X#X#X#X#X#X",
"#X#X#X#X#X#X#X#X#X#X#X#X#X#X#X#X#X#X#X#X#X#X#X  R.oX+X+XXX'.W.U   #X#X#X#X#X#X#X#X#X#X#X#X#X#X#X#X#X#X#X#X#X#X#X#X#X#X#X",
"#X#X#X#X#X#X#X#X      #X#X#X#X#X#X#X#X#X#X#X    Y. X X X X[.).U       #X#X#X#X#X#X#X#X#X#X#X#X#X      #X#X#X#X#X#X#X#X#X",
"#X#X#X#X#X#X#X  r L R N #X#X#X#X#X#X#X#X#Xq k a e.E.~.~.^.I.K.I a k k j #X#X#X#X#X#X#X#X#X#X#XK K V $ #X#X#X#X#X#X#X#X#X",
"#X#X#X#X#X#X#X  ! |.+XP.    #X#X#X#X#X    >.v.a.s w *.*.d     =.z.M.M.<.        #X#X#X#X    * _.XX(.t #X#X#X#X#X#X#X#X#X",
"#X#X#X#X#X#X#X  ! |.OX].W.W.Y       x h.h.g.M.b.q.2.u.u.3.;.;.q.m.M.M.l.h.8.8.<.e       K.W./.@XoX(.t #X#X#X#X#X#X#X#X#X",
"#X#X#X#X#X#X#X#XR Y.|.+X+X+XQ e x x <.M.M.M.M.M.c.x.z.x.x.x.x.b.M.M.M.M.M.M.M.l.>.0 = E `.+X+XOX`.K.r #X#X#X#X#X#X#X#X#X",
"#X#X#X#X#X#X#X#X#Xt ).XX+XoXQ x M.M.M.M.M.M.M.M.M.M.M.M.M.M.M.M.M.M.M.M.M.M.M.M.m.v F oX+X+X+X{.K.  #X#X#X#X#X#X#X#X#X#X",
"#X#X#X#X#X#X#X#X#Xr E.'._.K :.q.M.M.A.D.D.A.M.M.M.M.M.M.M.M.M.M.M.M.M.M.M.M.M.M.M.0.r.oX+XOX{.`.!   #X#X#X#X#X#X#X#X#X#X",
"#X#X#X#X#X#X#X#X#Xr Q j.e.c 0.v.M.A.F.J.J.F.A.M.Z.Z.M.M.M.M.M.M.M.M.M.M.M.M.M.M.M.p.s.~.[.{.(.K.L #X#X#X#X#X#X#X#X#X#X#X",
"#X#X#X#X#X#X#X#X#X#X  + q i.v.M.M.D.J.J.J.J.G.M.F.F.M.M.M.M.M.M.M.M.M.M.M.M.M.M.M.c.y.3.!.).Y.g   #X#X#X#X#X#X#X#X#X#X#X",
"#X#X#X#X#X#X#X#X#X#X  s q.N.M.M.B.D.J.J.J.J.D.M.B.B.M.M.M.M.M.M.M.M.M.M.M.M.M.M.M.m.c.y.n g g +   #X#X#X#X#X#X#X#X#X#X#X",
"#X#X#X#X#X#X#X#X#X#X  >.c.M.M.M.M.A.D.J.J.F.S.M.M.M.M.M.M.M.M.M.M.M.M.M.M.M.M.M.M.M.M.c.;.l l +   #X#X#X#X#X#X#X#X#X#X#X",
"#X#X#X#X#X#X#X#X#X#X8 <.M.M.B.B.B.M.S.D.H.S.M.M.M.M.M.M.M.M.M.M.M.M.M.M.M.M.M.M.M.M.M.M.x.z.i.k 8 #X#X#X#X#X#X#X#X#X#X#X",
"#X#X#X#X#X#X#X#X#X8 h.N.M.M.F.G.H.V.B.B.B.B.M.M.M.M.M.M.M.M.M.M.M.M.M.M.M.M.M.M.M.M.M.M.M.m.m.l.>.  #X#X#X#X#X#X#X#X#X#X",
"#X#X#X#X#X#X#X#X#X0 k.M.M.M.F.J.J.V.M.M.M.M.M.M.M.M.M.M.M.M.M.M.M.M.M.M.M.M.M.M.M.M.M.M.M.M.M.M.>.  #X#X#X#X#X#X#X#X#X#X",
"#X#X#X#X#X#X#X#X#X8 k.M.M.M.S.G.D.V.l.d.d.d.d.d.d.d.d.d.d.d.d.d.g.m.M.M.M.M.M.M.M.M.M.M.M.M.M.M.>.  #X#X#X#X#X#X#X#X#X#X",
"#X#X#X#X#X#X#X#X#X0 k.M.M.M.M.B.B.B.1.* O O O O O O O O O O O O a i.v.M.M.M.M.M.M.M.M.M.M.M.M.M.>.  #X#X#X#X#X#X#X#X#X#X",
"#X#X#X#X#X#X#X#Xz <.N.M.M.M.M.d.b b G [ o.X.X.X.....X.[ ) ) ) ) A z l 1.c.m.M.M.M.M.M.M.M.M.M.M.f.=.7 #X#X#X#X#X#X#X#X#X",
"#X#X#X#X#X#X#X  v M.M.M.M.M.g.,.4 > 6 +.$.#.#.#.$.} #.+.{ { { { _ , - f 6.x.m.M.M.M.M.M.m.m.M.M.c.9.7   #X#X#X#X#X#X#X#X",
"#X#X#X#X#X#X#X  v M.M.M.M.M.x Z &.%.( X $ $ o $ @ . @ @ X @ @ X -  . ./ * 6.c.M.M.M.M.M.x.x.M.M.c.9.7     #X#X#X#X#X#X#X",
"#X#X#X#X#X      v M.M.M.g.x ~ O.Z 5 > t t t t t r t t t t t t t t ; ; 2 / p ;.x.m.M.M.M.b.b.M.c.7.n I.R.L.$   #X#X#X#X#X",
"#X#X#X#XL R H & v M.M.g.,.4 O.S & & t M D F F D G F F F F F F F M & e , ` 1 D 2.c.m.M.v.v.m.M.z.-.h [.+X].E R L #X#X#X#X",
"#X#X#X  R.oX'.N v M.M.v : @.5 & M M M D Y W W W W W W W W T W W P M M t X ' 3 7 9.c.b.p.p.x.m.z.t.4.}.+X+X+X+XR.  #X#X#X",
"#X#XB I.{.oX'.N v M.M.v : %.1 & M M u % r r r r F J r r r r r D Y P P M X ' ^ e 9.c.m.p.p.x.M.z.t.4.}.+X+X+X+X{.I.B #X#X",
"#X#XB L.'..X'.N v N.8.G 6 _ > t M F u * R E L   D N X L E R $ m W W W F & 3 2 > :.q.c.x.x.c.M.z.2.:.'.XXoXoXoX].L.B #X#X",
"#X#X#X  L.'.`.B v g.8 ( { X u M M P B y ].oX/.* D D & /.oX].y M W W W P M $ < ] # =.x.C.M.M.m.a.=.u ).{.[.'.'.L.  #X#X#X",
"#X#X#X#XB N N * v k.8 ( } @ u B D P F i H H F y J J i V H H i J W W W Y P e < ] o =.x.M.M.b.z.a.=.r Q.).T.V N N #X#X#X#X",
"#X#X#X#X#X      b f.8 ` | X u M M P P D i y i J Y Y J f y i F P W W W W Y e < ] # =.a.c.c.x.p.p.5.c e.w.Q $   #X#X#X#X#X",
"#X#X#X#X#X#X#X  l 6.7 ^ ' X t M M P W W W W W W W W e.T W W W W W W W W Y e < ] # =.p.p.p.p.p.u.u.6.7     #X#X#X#X#X#X#X",
"#X#X#X#X#X#X#X#X7 9 . 2 ' X t M D P W W W W W W W W W T W W W W W W W W Y e < ] # =.p.p.p.p.p.s 9 9 #X#X#X#X#X#X#X#X#X#X",
"#X#X#X#X#X#X#X#X#X    1 1 X * e r i g g g m g m g g g g h m m m m m m g g * - < o q =.=.=.=.=.7   #X#X#X#X#X#X#X#X#X#X#X",
"#X#X#X#X#X#X#X#X#X#X#X.             .             .                                           #X#X#X#X#X#X#X#X#X#X#X#X#X"
};
