/* XPM */
static char *result[] = {
/* columns rows colors chars-per-pixel */
"60 38 192 2 ",
"   c #1B192C",
".  c #1B1B32",
"X  c #251F2D",
"o  c #291F2C",
"O  c #1D293E",
"+  c #1C223A",
"@  c #26202F",
"#  c #36242C",
"$  c #3D262C",
"%  c #242234",
"&  c #2B293D",
"*  c #272639",
"=  c #462B2C",
"-  c #5D322C",
";  c #482E32",
":  c #4E3635",
">  c #533837",
",  c #4C312F",
"<  c #6E392C",
"1  c #64352C",
"2  c #7A3E2B",
"3  c #603B30",
"4  c #5F4134",
"5  c #664434",
"6  c #794835",
"7  c #1A1E40",
"8  c #1D2E46",
"9  c #1C2949",
"0  c #1D3155",
"q  c #1F3D57",
"w  c #1E3047",
"e  c #2D2C40",
"r  c #343446",
"t  c #36354A",
"y  c #38374C",
"u  c #3A3A4E",
"i  c #3D3746",
"p  c #3E3E52",
"a  c #1D3967",
"s  c #223B62",
"d  c #4A3F45",
"f  c #1F425C",
"g  c #3F4051",
"h  c #1F4679",
"j  c #1E4578",
"k  c #1F4262",
"l  c #204862",
"z  c #214F6C",
"x  c #22597A",
"c  c #304F6A",
"v  c #414256",
"b  c #46455B",
"n  c #4C4D5C",
"m  c #474858",
"M  c #504F57",
"N  c #705342",
"B  c #786050",
"V  c #4D4D62",
"C  c #4F5065",
"Z  c #535363",
"A  c #535569",
"S  c #575B6F",
"D  c #5D5C6A",
"F  c #575866",
"G  c #475C7B",
"H  c #595D71",
"J  c #605F6E",
"K  c #5E6276",
"L  c #5F6478",
"P  c #57616C",
"I  c #62616F",
"U  c #6B6A76",
"Y  c #62677B",
"T  c #6C6D7A",
"R  c #646774",
"E  c #70737F",
"W  c #6F717D",
"Q  c #86432B",
"!  c #915D37",
"~  c #915E39",
"^  c #8D5031",
"/  c #B8562B",
"(  c #9F6538",
")  c #B26F3A",
"_  c #AB6C3B",
"`  c #C85C2B",
"'  c #CB7739",
"]  c #805C40",
"[  c #946D4C",
"{  c #97765A",
"}  c #A07F5F",
"|  c #DD883E",
" . c #B78558",
".. c #B99269",
"X. c #A78463",
"o. c #E2A15F",
"O. c #183696",
"+. c #1A3A8C",
"@. c #173CB2",
"#. c #1F4B83",
"$. c #2A5289",
"%. c #205C9D",
"&. c #215995",
"*. c #24698A",
"=. c #257498",
"-. c #356A81",
";. c #1A4BB9",
":. c #245CA3",
">. c #1F61BC",
",. c #2164A9",
"<. c #267EA3",
"1. c #216ABC",
"2. c #247ABA",
"3. c #747884",
"4. c #747885",
"5. c #6A768C",
"6. c #5573BF",
"7. c #1C59C0",
"8. c #1F63C3",
"9. c #216DC7",
"0. c #2271C8",
"q. c #247EC8",
"w. c #2276D0",
"e. c #237DD2",
"r. c #2785AB",
"t. c #2789B1",
"y. c #288EB6",
"u. c #2686BB",
"i. c #2892BB",
"p. c #268AC8",
"a. c #2997C1",
"s. c #299DCD",
"d. c #299BC5",
"f. c #258BD4",
"g. c #2483D3",
"h. c #2794D6",
"j. c #289AD7",
"k. c #289ED8",
"l. c #2AA3D9",
"z. c #2BADDB",
"x. c #2AA7D4",
"c. c #34B3DE",
"v. c #38B6DF",
"b. c #2DA9D5",
"n. c #3DBAE1",
"m. c #3AB7E0",
"M. c #43BEE3",
"N. c #708ED3",
"B. c #4BC3E6",
"V. c #47C0E4",
"C. c #56CBEA",
"Z. c #5ED0EC",
"A. c #64D4EE",
"S. c #6CDAF1",
"D. c #81808B",
"F. c #868A94",
"G. c #8D939D",
"H. c #91929B",
"J. c #9B9BA3",
"K. c #9297A0",
"L. c #989DB3",
"P. c #9EA6B1",
"I. c #9DA3AD",
"U. c #A1A4AB",
"Y. c #ADADB4",
"T. c #A4AAB3",
"R. c #B7B6BC",
"E. c #B7B9BE",
"W. c #A9B3BB",
"Q. c #909CC1",
"!. c #9CACCD",
"~. c #99A9DA",
"^. c #B5B9CC",
"/. c #BCC4CA",
"(. c #BEC8CF",
"). c #BAC5E6",
"_. c #C6C7CC",
"`. c #C4CED3",
"'. c #CDD5D9",
"]. c #D1DADE",
"[. c #D5D6D9",
"{. c #D9DEE1",
"}. c #DFE6E9",
"|. c #D8E1E4",
" X c #E5ECED",
".X c #E5E9EB",
"XX c #EDF1F2",
"oX c #F2F4F5",
"OX c #FEFEFE",
"+X c #F6F7F8",
"@X c #EAEFF1",
"#X c None",
/* pixels */
"#X#X#X#X#X#X#X#X#X#X#X#X#X#X#X#X#X#X#X#X#X#X#X#X#X#X#X#X#X  #X#X#X#X#X#X#X#X#X#X#X#X#X#X#X#X#X#X#X#X#X#X#X#X#X#X#X#X#X#X",
"#X#X#X#X#X#X#X#X#X#X#X#X#X#X#X#X#X#X#X#X#X#X#X#X#X#X#X#XD 4.t #X#X#X#X#X#X#X#X#X#X#X#X#X#X#X#X#X#X#X#X#X#X#X#X#X#X#X#X#X",
"#X#X#X#X#X#X#X#X#X#X#X#X#X#X#X#X#X#X#X#X#X#X#X#X#X#X#Xm H.`.D i #X#X#X#X#X#X#X#X#X#X#X#X#X#X#X#X#X#X#X#X#X#X#X#X#X#X#X#X",
"#X#X#X#X#X#X#X#X#X#X#X#X#X#X#X#X#X#X#X#X#X#X#X#X#X#X* R.oXoX'.T . #X#X#X#X#X#X#X#X#X#X#X#X#X#X#X#X#X#X#X#X#X#X#X#X#X#X#X",
"#X#X#X#X#X#X#X#X#X#X#X#X#X#X#X#X#X#X#X#X#X#X#X#X#X#X* _.OX+X}.E   #X#X#X#X#X#X#X#X#X#X#X#X#X#X#X#X#X#X#X#X#X#X#X#X#X#X#X",
"#X#X#X#X#X#X#X#X#X#X#X#X#X#X#X#X#X#X#X#X#X#X#X#X#Xv J [.OXOX}.F.g #X#X#X#X#X#X#X#X#X#X#X#X#X#X#X#X#X#X#X#X#X#X#X#X#X#X#X",
"#X#X#X#X#X#X#X#X#X#X#X#X#X#X#X#X#X#X#X#X#X#X#X#X  U oXOXOXOX}.(.F.% #X#X#X#X#X#X#X#X#X#X#X#X#X#X#X#X#X#X#X#X#X#X#X#X#X#X",
"#X#X#X#X#X#X#X#X#X      #X#X#X#X#X#X#X#X#X#X#X    I  X X X X|.`.G.%       #X#X#X#X#X#X#X#X#X#X#X#X      #X#X#X#X#X#X#X#X",
"#X#X#X#X#X#X#X#X#X% n I J #X#X#X#X#X#X#X#X#X#Xl s G I.!.!.~.P.G.5.a f l l #X#X#X#X#X#X#X#X#X#X#Xn J F t   #X#X#X#X#X#X#X",
"#X#X#X#X#X#X#X#X#Xt /.XX_.*     #X#X#X#X    q x.f.&.. O.@.O.7   0 0.j.z.x.q       #X#X#X#X#X    D.OX.XE   #X#X#X#X#X#X#X",
"#X#X#X#X#X#X#X#X#Xr /.oX@XE.R.F.      8 =.<.t.z.l.p.&.>.8.8.:.%.,.j.l.z.z.t.<.<.<.z       D R.R.[.+X}.W   #X#X#X#X#X#X#X",
"#X#X#X#X#X#X#X#X#Xt F._.+XOXOXY.  f z x s.z.z.z.z.k.g.f.f.f.f.g.h.z.z.z.z.z.z.z.z.=.f   Z U.OXOXOX.XU.J #X#X#X#X#X#X#X#X",
"#X#X#X#X#X#X#X#X#X#X  F.}.OXoXT.O t.z.z.z.z.z.z.z.z.z.z.z.z.z.z.z.z.z.z.z.z.z.z.z.z.y.+ W.OXOXOXXX/.y #X#X#X#X#X#X#X#X#X",
"#X#X#X#X#X#X#X#X#X#X  3.`.}.F.G ,.s.z.c.C.Z.C.z.z.z.z.z.z.z.z.z.z.z.z.z.z.z.z.z.z.z.p.O.^.OXOX@X].P.r #X#X#X#X#X#X#X#X#X",
"#X#X#X#X#X#X#X#X#X#X#XF 4.F.G &.f.l.m.V.A.S.A.B.c.c.M.c.z.z.z.z.z.z.z.z.z.z.z.z.z.z.j.>.N.).@X].P.W e #X#X#X#X#X#X#X#X#X",
"#X#X#X#X#X#X#X#X#X#X#X  + + %.h.z.z.V.S.S.S.S.S.M.n.A.m.z.z.z.z.z.z.z.z.z.z.z.z.z.z.l.e.7.6.`.W.R   #X#X#X#X#X#X#X#X#X#X",
"#X#X#X#X#X#X#X#X#X#X#X  9 ,.a.z.z.z.V.S.S.S.S.S.M.z.m.z.z.z.z.z.z.z.z.z.z.z.z.z.z.z.z.l.w.%.m d &   #X#X#X#X#X#X#X#X#X#X",
"#X#X#X#X#X#X#X#X#X#X#X  0 f.x.z.z.z.m.C.S.S.Z.C.m.z.z.z.z.z.z.z.z.z.z.z.z.z.z.z.z.z.z.z.j.2.j j 0   #X#X#X#X#X#X#X#X#X#X",
"#X#X#X#X#X#X#X#X#X#X#X8 z x.z.z.c.m.z.m.C.Z.C.z.z.z.z.z.z.z.z.z.z.z.z.z.z.z.z.z.z.z.z.z.z.j.g.e.&.w #X#X#X#X#X#X#X#X#X#X",
"#X#X#X#X#X#X#X#X#X#X  *.d.z.z.n.Z.Z.B.z.c.c.c.z.z.z.z.z.z.z.z.z.z.z.z.z.z.z.z.z.z.z.z.z.z.z.l.l.s.r.8 #X#X#X#X#X#X#X#X#X",
"#X#X#X#X#X#X#X#X#X#X  *.z.z.z.M.S.S.B.z.z.z.z.z.z.z.z.z.z.z.z.z.z.z.z.z.z.z.z.z.z.z.z.z.z.z.z.z.z.d.8 #X#X#X#X#X#X#X#X#X",
"#X#X#X#X#X#X#X#X#X#X  *.z.z.z.v.Z.Z.V.z.i.y.y.y.y.y.y.i.i.i.y.y.y.y.s.l.z.z.z.z.z.z.z.z.z.z.z.z.z.d.8 #X#X#X#X#X#X#X#X#X",
"#X#X#X#X#X#X#X#X#X#X  *.z.z.z.z.c.c.z.d.f O O O O O O O O O O O O O %.f.z.z.z.z.z.z.z.z.z.z.z.z.z.d.8 #X#X#X#X#X#X#X#X#X",
"#X#X#X#X#X#X#X#X#X8 *.i.z.z.z.z.z.*.x c ~ [ { { { [ ~ [ [ ! ! ! ~ ~ n j x u.j.b.z.z.z.z.z.z.z.z.z.s.&.a #X#X#X#X#X#X#X#X",
"#X#X#X#X#X#X#X#X  w i.z.z.z.z.s.r.M > < (  ....... .)  . .) ) ) [ ` 6 = ; $.q.k.z.z.z.z.z.z.k.z.z.b.e.j   #X#X#X#X#X#X#X",
"#X#X#X#X#X#X#X    w d.z.z.z.z.r.% ..o.} = @ @ @ % % @ @ @ @ @ @ X % ^ ` ` ; h e.l.z.z.z.z.k.w.l.z.l.e.j     #X#X#X#X#X#X",
"#X#X#X#X#X  * H.U w i.z.z.z.=.P X.B N > i y t t r y t t t t r t y t ; - 1 Q d j q.k.z.z.z.l.j.l.k.q.h 5.Y.Y.D     #X#X#X",
"#X#X#X#XF I U [.J.w d.z.s.r.M 6 X.4 e e d p y y m C C C m u t m C C y e & 2 Q > #.q.k.z.l.j.j.z.h.1.a L.OXOXJ.I I #X#X#X",
"#X#X#X  Y.OXOXOXJ.w i.z.t.+ ( ( . u g V b e X   n Y Y Y g     v 5.H C b d % < / # #.f.z.f.w.w.k.h.9.@.~.OXOXOXOXoXZ   #X",
"#X#Xm J..XOXOXOXH.8 d.z.t.+ ( ( . t g g e 4.R.R.K v Y p W E.E.T d Y H H H e < / # #.g.z.f.w.w.l.h.9.;.~.OXOXOXOX+XE.E   ",
"#X#Xm H.'.oXoXoXG.8 i.i.-.4 ^ 6 e p C V % H.OXOXU r L e D.OXOXD.e H 5.H 5.t - Q 1 c ,.h.f.f.f.l.h.8.+.L.oXoXoXoXXXY.T   ",
"#X#X#X  H.].].].F.w d.x : | 5 & b b A G * J.OXOXU r L e D.OXOXD.e H H 5.H V r # / < 0 0.k.z.z.z.h.8.9 F.|.|.].].`.n   #X",
"#X#X#X#Xm n Z P.4.8 a.x , | 5 & b b A H * J.OXOXU t L e D.OXOXD.e H 5.K H H p # / < 0 9.j.z.z.f.e.1.9 4./.(.3.n n #X#X#X",
"#X#X#X#X#X  % R n 8 p.x , ' 3 & b b A H t U J.J.F d 5.u J J.J.I u Y Y Y 5.H d & / < 0 0.f.h.h.e.w.1.h G 3.3.m     #X#X#X",
"#X#X#X#X#X#X#X    9 ,.a = ` - & b b A K V t % % y C H V y + . e V Y Y Y 5.H d # / < 0 9.w.w.w.w.0.9.1.j     #X#X#X#X#X#X",
"#X#X#X#X#X#X#X#X#X#X9 + = ` - & b b A Y H H A A H H 5.H H A A 5.K Y Y Y H 5.V $ / < 0 9.w.w.w.w.&.9 0 9 #X#X#X#X#X#X#X#X",
"#X#X#X#X#X#X#X#X#X#X#X  = 2 $ % r r t p v v v v p g d g g c d p d p d p g c e o < = 9 a #.#.#.#.a     #X#X#X#X#X#X#X#X#X",
"#X#X#X#X#X#X#X#X#X#X#X#X#X                      . .   .         . . . .           . .   . .   X   #X#X#X#X#X#X#X#X#X#X#X"
};
