/* XPM */
static char *result[] = {
/* columns rows colors chars-per-pixel */
"60 38 163 2 ",
"   c #1B192C",
".  c #1E1D30",
"X  c #241E2D",
"o  c #291F2C",
"O  c #1D293E",
"+  c #1D2239",
"@  c #26202E",
"#  c #36242C",
"$  c #252233",
"%  c #29273B",
"&  c #2A283D",
"*  c #262438",
"=  c #302B3C",
"-  c #4B2C2C",
";  c #502F2C",
":  c #5E332C",
">  c #4E3631",
",  c #533B3C",
"<  c #513735",
"1  c #6E392C",
"2  c #65362C",
"3  c #753C2C",
"4  c #763F30",
"5  c #594138",
"6  c #644435",
"7  c #734C34",
"8  c #7C5135",
"9  c #1C2744",
"0  c #1D2D45",
"q  c #1C2C4D",
"w  c #1E334B",
"e  c #1E3047",
"r  c #1E3958",
"t  c #2D2C40",
"y  c #313245",
"u  c #36354A",
"i  c #38384D",
"p  c #3D3E54",
"a  c #3A3E59",
"s  c #1E3E69",
"d  c #403442",
"f  c #20405B",
"g  c #3E4159",
"h  c #1E4172",
"j  c #204864",
"k  c #214F6C",
"l  c #24426E",
"z  c #21516E",
"x  c #204F74",
"c  c #225675",
"v  c #225B7B",
"b  c #205179",
"n  c #534341",
"m  c #404256",
"M  c #46465B",
"N  c #4C4C5D",
"B  c #545A5A",
"V  c #67554B",
"C  c #745545",
"Z  c #7F6756",
"A  c #4D4D63",
"S  c #4F5165",
"D  c #485665",
"F  c #515468",
"G  c #56596E",
"H  c #5A5D72",
"J  c #5E6377",
"K  c #5E6479",
"L  c #756F65",
"P  c #62677B",
"I  c #6E717D",
"U  c #80412B",
"Y  c #8B472E",
"T  c #874F32",
"R  c #8B5936",
"E  c #915D37",
"W  c #985E36",
"Q  c #95492B",
"!  c #A54F2B",
"~  c #B8562B",
"^  c #96613A",
"/  c #AE6234",
"(  c #B26F3A",
")  c #B4713A",
"_  c #C65C2B",
"`  c #936543",
"'  c #916F53",
"]  c #8F7159",
"[  c #97785C",
"{  c #977558",
"}  c #B47947",
"|  c #DD883E",
" . c #B88D62",
".. c #BA9269",
"X. c #B99067",
"o. c #DF934D",
"O. c #E6B278",
"+. c #1F4B84",
"@. c #1F4E8A",
"#. c #294F84",
"$. c #394C92",
"%. c #245D9A",
"&. c #236282",
"*. c #246A8C",
"=. c #356F87",
"-. c #257296",
";. c #25799E",
":. c #257599",
">. c #236A97",
",. c #1E56AC",
"<. c #3959BD",
"1. c #2161A9",
"2. c #2162A5",
"3. c #267EA4",
"4. c #2169BA",
"5. c #2963B9",
"6. c #247AB9",
"7. c #1F65C4",
"8. c #216FC3",
"9. c #2274CC",
"0. c #2379C9",
"q. c #2276D0",
"w. c #237BD1",
"e. c #288EB6",
"r. c #2788B8",
"t. c #2894BE",
"y. c #2786AD",
"u. c #7E828D",
"i. c #278ECB",
"p. c #2997C1",
"a. c #299BC5",
"s. c #299FCA",
"d. c #2792CF",
"f. c #2484D3",
"g. c #258BD4",
"h. c #2794D6",
"j. c #299ED8",
"k. c #289CD7",
"l. c #2AA2CF",
"z. c #2AA5D3",
"x. c #29A4D9",
"c. c #2BADDB",
"v. c #2FB0DC",
"b. c #33B2DE",
"n. c #38B6DF",
"m. c #3CB9E1",
"M. c #39B6E0",
"N. c #42BDE3",
"B. c #4EC5E7",
"V. c #51C7E8",
"C. c #56CBEA",
"Z. c #5CCFEB",
"A. c #5FD1ED",
"S. c #62D3ED",
"D. c #6CDAF1",
"F. c #81808B",
"G. c #848992",
"H. c #B5BCC3",
"J. c #BDC1C7",
"K. c #C9CCD0",
"L. c #D1D7E4",
"P. c #DDE2F4",
"I. c None",
/* pixels */
"I.I.I.I.I.I.I.I.I.I.I.I.I.I.I.I.I.I.I.I.I.I.I.I.I.I.I.I.I.I.I.I.I.I.I.I.I.I.I.I.I.I.I.I.I.I.I.I.I.I.I.I.I.I.I.I.I.I.I.I.",
"I.I.I.I.I.I.I.I.I.I.I.I.I.I.I.I.I.I.I.I.I.I.I.I.I.I.I.I.I.I.I.I.I.I.I.I.I.I.I.I.I.I.I.I.I.I.I.I.I.I.I.I.I.I.I.I.I.I.I.I.",
"I.I.I.I.I.I.I.I.I.I.I.I.I.I.I.I.I.I.I.I.I.I.I.I.I.I.I.I.I.I.I.I.I.I.I.I.I.I.I.I.I.I.I.I.I.I.I.I.I.I.I.I.I.I.I.I.I.I.I.I.",
"I.I.I.I.I.I.I.I.I.I.I.I.I.I.I.I.I.I.I.I.I.I.I.I.I.I.I.I.I.I.I.I.I.I.I.I.I.I.I.I.I.I.I.I.I.I.I.I.I.I.I.I.I.I.I.I.I.I.I.I.",
"I.I.I.I.I.I.I.I.I.I.I.I.I.I.I.I.I.I.I.I.I.I.I.I.I.I.I.I.I.I.I.I.I.I.I.I.I.I.I.I.I.I.I.I.I.I.I.I.I.I.I.I.I.I.I.I.I.I.I.I.",
"I.I.I.I.I.I.I.I.I.I.I.I.I.I.I.I.I.I.I.I.I.I.I.I.I.I.I.I.I.I.I.I.I.I.I.I.I.I.I.I.I.I.I.I.I.I.I.I.I.I.I.I.I.I.I.I.I.I.I.I.",
"I.I.I.I.I.I.I.I.I.I.I.I.I.I.I.I.I.I.I.I.I.I.I.I.I.I.I.I.I.I.I.I.I.I.I.I.I.I.I.I.I.I.I.I.I.I.I.I.I.I.I.I.I.I.I.I.I.I.I.I.",
"I.I.I.I.I.I.I.I.I.I.I.I.I.I.I.I.I.I.I.I.I.I.                          I.I.I.I.I.I.I.I.I.I.I.I.I.I.I.I.I.I.I.I.I.I.I.I.I.",
"I.I.I.I.I.I.I.I.I.I.I.I.I.I.I.I.I.I.I.I.I.f j j j j j j j j j j j j j f I.I.I.I.I.I.I.I.I.I.I.I.I.I.I.I.I.I.I.I.I.I.I.I.",
"I.I.I.I.I.I.I.I.I.I.I.I.I.I.I.I.I.I.I.    *.c.c.c.c.c.c.c.c.c.c.c.c.c.;.        I.I.I.I.I.I.I.I.I.I.I.I.I.I.I.I.I.I.I.I.",
"I.I.I.I.I.I.I.I.I.I.I.I.I.I.I.I.    z 3.y.t.c.c.c.c.c.c.c.c.c.c.c.c.c.a.3.3.3.-.0     I.I.I.I.I.I.I.I.I.I.I.I.I.I.I.I.I.",
"I.I.I.I.I.I.I.I.I.I.I.I.I.I.I.w k z :.c.c.c.c.c.c.c.c.c.c.c.c.c.c.c.c.c.c.c.c.s.v w   I.I.I.I.I.I.I.I.I.I.I.I.I.I.I.I.I.",
"I.I.I.I.I.I.I.I.I.I.I.I.I.I.+ z c.c.c.c.c.c.c.c.c.c.c.c.c.c.c.c.c.c.c.c.c.c.c.c.c.v   I.I.I.I.I.I.I.I.I.I.I.I.I.I.I.I.I.",
"I.I.I.I.I.I.I.I.I.I.I.I.I.  *.t.c.c.N.Z.A.N.c.c.c.c.c.c.c.c.c.c.c.c.c.c.c.c.c.c.c.v   I.I.I.I.I.I.I.I.I.I.I.I.I.I.I.I.I.",
"I.I.I.I.I.I.I.I.I.I.I.I.w c t.c.v.m.C.D.D.C.m.v.n.m.c.c.c.c.c.c.c.c.c.c.c.c.c.c.c.3.z I.I.I.I.I.I.I.I.I.I.I.I.I.I.I.I.I.",
"I.I.I.I.I.I.I.I.I.I.I.O j z.c.c.c.A.D.D.D.D.A.v.V.V.c.c.c.c.c.c.c.c.c.c.c.c.c.c.c.c.e.e I.I.I.I.I.I.I.I.I.I.I.I.I.I.I.I.",
"I.I.I.I.I.I.I.I.I.I.  v t.c.c.c.v.C.D.D.D.D.C.c.b.b.c.c.c.c.c.c.c.c.c.c.c.c.c.c.c.c.z.e.j       I.I.I.I.I.I.I.I.I.I.I.I.",
"I.I.I.I.I.I.I.I.I.I.  *.c.c.c.c.c.B.C.D.D.C.B.c.c.c.c.c.c.c.c.c.c.c.c.c.c.c.c.c.c.c.c.c.;.v v 0 . I.I.I.I.I.I.I.I.I.I.I.",
"I.I.I.I.I.I.I.I.I.I.e :.c.c.b.b.b.c.B.A.S.B.c.c.c.c.c.c.c.c.c.c.c.c.c.c.c.c.c.c.c.c.c.c.c.c.z.k w I.I.I.I.I.I.I.I.I.I.I.",
"I.I.I.I.I.I.I.I.I.w y.l.c.c.V.A.S.n.b.b.b.v.c.c.c.c.c.c.c.c.c.c.c.c.c.c.c.c.c.c.c.c.c.c.c.c.c.l.&.. I.I.I.I.I.I.I.I.I.I.",
"I.I.I.I.I.I.I.I.I.e t.c.c.c.V.D.D.n.c.c.c.c.c.c.c.c.c.c.c.c.c.c.c.c.c.c.c.c.c.c.c.c.c.c.c.c.c.c.*.  I.I.I.I.I.I.I.I.I.I.",
"I.I.I.I.I.I.I.I.I.w t.c.c.c.B.A.Z.n.l.e.e.e.e.e.e.e.e.e.e.e.e.e.t.k.z.c.c.c.c.c.c.c.c.c.c.c.c.c.*.. I.I.I.I.I.I.I.I.I.I.",
"I.I.I.I.I.I.I.I.I.w a.c.c.c.b.b.b.c.-.9 O O O O O O O O O O O O s 0.k.c.c.c.c.c.c.c.c.c.c.c.c.c.*.  I.I.I.I.I.I.I.I.I.I.",
"I.I.I.I.I.I.I.I.j :.z.c.c.c.c.e.c c B ^ { { [ [ ` ` [ ^ E E E E C x h >.h.x.c.c.c.c.c.c.c.c.c.c.r.+.9 I.I.I.I.I.I.I.I.I.",
"I.I.I.I.I.I.I.  v c.c.c.c.c.t.=.n > 8 }  .X.....}  .X.} ( ( ( ( W ; - d 5.i.x.c.c.c.c.c.x.x.c.c.h.4.9 I.I.I.I.I.I.I.I.I.",
"I.I.I.I.I.I.I.  v c.c.c.c.c.z V O.o.R X @ $ @ $ X X @ X X @ @ X - _ _ Y O 1.h.c.c.c.c.c.g.g.c.c.h.4.9 I.I.I.I.I.I.I.I.I.",
"I.I.I.I.I.I.I.  v c.c.c.t.z L ] V 6 , u u u u u y u u u u u u u d : : 1 Y a %.g.x.c.c.c.x.j.c.c.h.4.9 I.I.I.I.I.I.I.I.I.",
"I.I.I.I.I.I.I.  v c.c.t.=.5 ' Z % & u N A S S S A S S S S S S S M & % > Q 2 g 1.h.x.x.j.k.x.c.c.g.5.H N I.I.I.I.I.I.I.I.",
"I.I.I.I.I.I.I.  v c.c.v > | 2 % M M M N J K P P P P P K P P P P H M M u X ! U 9 4.h.z.w.q.g.c.c.0.<.P.F.  I.I.I.I.I.I.I.",
"I.I.I.I.I.I.I.  v c.c.v > o.6 % M M i % y y y y F F y y y y y A P H H M X ! U 9 4.h.x.q.9.g.c.g.7.<.P.K.G.* I.I.I.I.I.I.",
"I.I.I.I.I.I.I.  v z.y.D 7 W , u A S d t .   . & F S % .   . % N P P P S = 4 3 , #.6.h.g.g.h.c.f.,.$.L.J.u.* I.I.I.I.I.I.",
"I.I.I.I.I.I.I.  v t.O R ( X u a A H G g * . % m H H M % . t d G P P P G M * 1 ~ # +.f.c.c.c.x.f.@.i H.I   I.I.I.I.I.I.I.",
"I.I.I.I.I.I.I.  v p.0 R ( @ u m M H K G F F F H K K H F F F H J P P P K G & 1 ~ # @.f.c.c.x.f.w.4.%.D d I.I.I.I.I.I.I.I.",
"I.I.I.I.I.I.I.  b r.t Y / @ i M A H P P P P P P P P P P P P P P P P P P J t 1 ~ # +.w.h.h.g.q.q.q.4.9 I.I.I.I.I.I.I.I.I.",
"I.I.I.I.I.I.I.  h ,.O U ! X u M M H P P P P P P P P P P P P P P P P P P J t 1 ~ # +.w.q.q.q.9.8.8.1.9 I.I.I.I.I.I.I.I.I.",
"I.I.I.I.I.I.I.I.q q . 7 ! X u M N H P P P P P P P P P P P P P P P P P P K & 1 ~ # @.9.w.q.q.9.s q q I.I.I.I.I.I.I.I.I.I.",
"I.I.I.I.I.I.I.I.I.    2 2   % y y p m m m m m m m m m m m m m m m m m m g $ - 1 o r +.+.+.+.+.q   I.I.I.I.I.I.I.I.I.I.I.",
"I.I.I.I.I.I.I.I.I.I.I.                                                                        I.I.I.I.I.I.I.I.I.I.I.I.I."
};
