/* XPM */
static char *result[] = {
/* columns rows colors chars-per-pixel */
"60 38 162 2 ",
"   c #1B192C",
".  c #1B1C31",
"X  c #241E2D",
"o  c #291F2C",
"O  c #1D293E",
"+  c #1D2239",
"@  c #26202E",
"#  c #36242C",
"$  c #252334",
"%  c #262538",
"&  c #29273B",
"*  c #2B293E",
"=  c #302B3C",
"-  c #4B2C2C",
";  c #502F2C",
":  c #5E332C",
">  c #4E3631",
",  c #533B3C",
"<  c #513735",
"1  c #6E392C",
"2  c #65362C",
"3  c #753C2C",
"4  c #763F30",
"5  c #594138",
"6  c #644435",
"7  c #7C5135",
"8  c #734C34",
"9  c #1C2643",
"0  c #1D2E46",
"q  c #1C2C4D",
"w  c #1E334A",
"e  c #1F3E58",
"r  c #1E3857",
"t  c #2D2C40",
"y  c #333145",
"u  c #36354A",
"i  c #38374C",
"p  c #3C3B4C",
"a  c #3D3D52",
"s  c #3A3E59",
"d  c #1E3E6E",
"f  c #1E3B64",
"g  c #403442",
"h  c #403E54",
"j  c #20405B",
"k  c #3E4159",
"l  c #1E4172",
"z  c #204864",
"x  c #214E6B",
"c  c #224569",
"v  c #21516E",
"b  c #204F74",
"n  c #225675",
"m  c #225B7B",
"M  c #205179",
"N  c #534341",
"B  c #414356",
"V  c #46455B",
"C  c #494C5F",
"Z  c #545A5A",
"A  c #67554B",
"S  c #745545",
"D  c #7F6756",
"F  c #4C4D62",
"G  c #4F5165",
"H  c #495B62",
"J  c #525669",
"K  c #56596E",
"L  c #5B5E72",
"P  c #5E6377",
"I  c #5F6478",
"U  c #756F65",
"Y  c #62677B",
"T  c #80412B",
"R  c #8B472E",
"E  c #874F32",
"W  c #8B5936",
"Q  c #915D37",
"!  c #985E36",
"~  c #95492B",
"^  c #A54F2B",
"/  c #B8562B",
"(  c #96613A",
")  c #AE6234",
"_  c #B26F3A",
"`  c #B4713A",
"'  c #C65C2B",
"]  c #936543",
"[  c #916F53",
"{  c #8F7159",
"}  c #97785C",
"|  c #977558",
" . c #B47947",
".. c #DD883E",
"X. c #B88D62",
"o. c #BA9269",
"O. c #B99067",
"+. c #DF934D",
"@. c #E6B278",
"#. c #1F4B84",
"$. c #294F84",
"%. c #205688",
"&. c #215F99",
"*. c #246A8C",
"=. c #236282",
"-. c #356F87",
";. c #25799D",
":. c #257498",
">. c #236A97",
",. c #205EA5",
"<. c #2161A9",
"1. c #2162A5",
"2. c #267EA4",
"3. c #2169B9",
"4. c #247AB9",
"5. c #216FC3",
"6. c #2274CC",
"7. c #2378CA",
"8. c #2276D0",
"9. c #237BD1",
"0. c #2787AE",
"q. c #278AB1",
"w. c #288EB6",
"e. c #2683BA",
"r. c #2894BE",
"t. c #278ECB",
"y. c #2997C1",
"u. c #299BC5",
"i. c #299FCA",
"p. c #2792CF",
"a. c #2484D3",
"s. c #258BD4",
"d. c #2794D6",
"f. c #299ED8",
"g. c #289CD7",
"h. c #2AA2CF",
"j. c #2AA5D3",
"k. c #29A4D9",
"l. c #2BADDB",
"z. c #2FB0DC",
"x. c #33B2DE",
"c. c #38B6DF",
"v. c #3CB9E1",
"b. c #39B6E0",
"n. c #42BDE3",
"m. c #4EC5E7",
"M. c #51C7E8",
"N. c #56CBEA",
"B. c #5CCFEB",
"V. c #5FD1ED",
"C. c #62D3ED",
"Z. c #6CDAF1",
"A. c #82818C",
"S. c #8E8D97",
"D. c #95959E",
"F. c #9F9EA6",
"G. c #A3A2AA",
"H. c #B7B6BC",
"J. c #C6C5CA",
"K. c #DDDDE0",
"L. c white",
"P. c None",
/* pixels */
"P.P.P.P.P.P.P.P.P.P.P.P.P.P.P.P.P.P.P.P.P.P.P.P.P.P.P.P.P.P.P.P.P.P.P.P.P.P.P.P.P.P.P.P.P.P.P.P.P.P.P.P.P.P.P.P.P.P.P.P.",
"P.P.P.P.P.P.P.P.P.P.P.P.P.P.P.P.P.P.P.P.P.P.P.P.P.P.P.P.P.P.P.P.P.P.P.P.P.P.P.P.P.P.P.P.P.P.P.P.P.P.P.P.P.P.P.P.P.P.P.P.",
"P.P.P.P.P.P.P.P.P.P.P.P.P.P.P.P.P.P.P.P.P.P.P.P.P.P.P.P.P.P.P.P.P.P.P.P.P.P.P.P.P.P.P.P.P.P.P.P.P.P.P.P.P.P.P.P.P.P.P.P.",
"P.P.P.P.P.P.P.P.P.P.P.P.P.P.P.P.P.P.P.P.P.P.P.P.P.P.P.P.P.P.P.P.P.P.P.P.P.P.P.P.P.P.P.P.P.P.P.P.P.P.P.P.P.P.P.P.P.P.P.P.",
"P.P.P.P.P.P.P.P.P.P.P.P.P.P.P.P.P.P.P.P.P.P.P.P.P.P.P.P.P.P.P.P.P.P.P.P.P.P.P.P.P.P.P.P.P.P.P.P.P.P.P.P.P.P.P.P.P.P.P.P.",
"P.P.P.P.P.P.P.P.P.P.P.P.P.P.P.P.P.P.P.P.P.P.P.P.P.P.P.P.P.P.P.P.P.P.P.P.P.P.P.P.P.P.P.P.P.P.P.P.P.P.P.P.P.P.P.P.P.P.P.P.",
"P.P.P.P.P.P.P.P.P.P.P.P.P.P.P.P.P.P.P.P.P.P.P.P.P.P.P.P.P.P.P.P.P.P.P.P.P.P.P.P.P.P.P.P.P.P.P.P.P.P.P.P.P.P.P.P.P.P.P.P.",
"P.P.P.P.P.P.P.P.P.P.P.P.P.P.P.P.P.P.P.P.P.P.                          P.P.P.P.P.P.P.P.P.P.P.P.P.P.P.P.P.P.P.P.P.P.P.P.P.",
"P.P.P.P.P.P.P.P.P.P.P.P.P.P.P.P.P.P.P.P.P.e z z z z z z z z z z z z z j P.P.P.P.P.P.P.P.P.P.P.P.P.P.P.P.P.P.P.P.P.P.P.P.",
"P.P.P.P.P.P.P.P.P.P.P.P.P.P.P.P.P.P.P.    *.l.l.l.l.l.l.l.l.l.l.l.l.l.;.        P.P.P.P.P.P.P.P.P.P.P.P.P.P.P.P.P.P.P.P.",
"P.P.P.P.P.P.P.P.P.P.P.P.P.P.P.P.    v 0.2.y.l.l.l.l.l.l.l.l.l.l.l.l.l.u.2.2.0.:.0     P.P.P.P.P.P.P.P.P.P.P.P.P.P.P.P.P.",
"P.P.P.P.P.P.P.P.P.P.P.P.P.P.P.r x x ;.l.l.l.l.l.l.l.l.l.l.l.l.l.l.l.l.l.l.l.j.h.m x z P.P.P.P.P.P.P.P.P.P.P.P.P.P.P.P.P.",
"P.P.P.P.P.P.P.P.P.P.P.P.P.P.+ v l.l.l.z.l.l.l.l.l.l.l.l.l.l.l.l.l.l.l.l.l.l.l.l.l.l.w.O P.P.P.P.P.P.P.P.P.P.P.P.P.P.P.P.",
"P.P.P.P.P.P.P.P.P.P.P.P.P.  *.r.l.l.v.B.B.n.l.l.l.l.l.l.l.l.l.l.l.l.l.l.l.l.l.l.l.l.h.0.z P.P.P.P.P.P.P.P.P.P.P.P.P.P.P.",
"P.P.P.P.P.P.P.P.P.P.P.P.w n w.l.l.n.N.Z.Z.N.n.l.c.v.l.l.l.l.l.l.l.l.l.l.l.l.l.l.l.l.l.l.:.x P.P.P.P.P.P.P.P.P.P.P.P.P.P.",
"P.P.P.P.P.P.P.P.P.P.P.O x j.l.l.z.V.Z.Z.Z.Z.B.z.M.M.l.l.l.l.l.l.l.l.l.l.l.l.l.l.l.l.l.l.j.0.O P.P.P.P.P.P.P.P.P.P.P.P.P.",
"P.P.P.P.P.P.P.P.P.P.. m r.l.l.l.z.N.Z.Z.Z.Z.B.l.z.x.l.l.l.l.l.l.l.l.l.l.l.l.l.l.l.l.l.l.l.j.q.r P.P.P.P.P.P.P.P.P.P.P.P.",
"P.P.P.P.P.P.P.P.P.P.  *.l.l.l.l.l.m.B.Z.Z.N.m.l.l.l.l.l.l.l.l.l.l.l.l.l.l.l.l.l.l.l.l.l.l.l.j.e   P.P.P.P.P.P.P.P.P.P.P.",
"P.P.P.P.P.P.P.P.P.P.0 :.l.l.x.x.x.l.n.C.C.m.l.l.l.l.l.l.l.l.l.l.l.l.l.l.l.l.l.l.l.l.l.l.l.l.j.x 0 P.P.P.P.P.P.P.P.P.P.P.",
"P.P.P.P.P.P.P.P.P.w 0.j.l.l.M.V.C.b.x.x.x.x.l.l.l.l.l.l.l.l.l.l.l.l.l.l.l.l.l.l.l.l.l.l.l.l.l.u.=.  P.P.P.P.P.P.P.P.P.P.",
"P.P.P.P.P.P.P.P.P.w r.l.l.l.M.Z.Z.b.l.l.l.l.l.l.l.l.l.l.l.l.l.l.l.l.l.l.l.l.l.l.l.l.l.l.l.l.l.l.*.  P.P.P.P.P.P.P.P.P.P.",
"P.P.P.P.P.P.P.P.P.w r.l.l.l.m.V.V.b.h.w.w.w.w.w.w.w.w.w.w.w.w.w.y.k.k.l.l.l.l.l.l.l.l.l.l.l.l.l.*.  P.P.P.P.P.P.P.P.P.P.",
"P.P.P.P.P.P.P.P.P.w y.l.l.l.x.x.z.l.:.9 O O O O O O O O O O O O f 6.g.l.l.l.l.l.l.l.l.l.l.l.l.l.*.  P.P.P.P.P.P.P.P.P.P.",
"P.P.P.P.P.P.P.P.x ;.h.l.l.l.l.w.n n Z ( [ } } } ] ] } ( ( W ( W S c M >.d.k.l.l.l.l.l.l.l.l.l.l.e.#.9 P.P.P.P.P.P.P.P.P.",
"P.P.P.P.P.P.P.  m l.l.l.l.l.r.-.N < 7  .X.O.o.o. .X.O. .` _ _ _ ! ; - h ,.t.k.l.l.l.l.l.k.k.l.l.d.3.9 P.P.P.P.P.P.P.P.P.",
"P.P.P.P.P.P.P.  m l.l.l.l.l.v A @.+.W X @ $ @ @ X X @ @ o o X X - ' ' R 9 ,.d.l.l.l.l.l.s.s.l.l.d.3.9 P.P.P.P.P.P.P.P.P.",
"P.P.P.P.P.P.P.  m l.l.l.r.v U { A 6 , i u u u u y u u u u u u u g : : 1 R s &.s.k.z.l.l.k.f.l.l.2.f P.P.P.P.P.P.P.P.P.P.",
"P.P.P.P.P.P.P.  m l.l.r.-.5 [ D & & u B p p a G C G F h i p C G V * & < ~ 2 h <.d.k.k.g.g.k.l.l.*.  P.P.P.P.P.P.P.P.P.P.",
"P.P.P.P.P.P.P.  m l.l.m > ..6 * V V V h $   * P Y Y Y *   % K Y L V V u X ^ 4 9 3.d.j.8.8.s.l.l.*.  P.P.P.P.P.P.P.P.P.P.",
"P.P.P.P.P.P.P.  m l.l.m > ..6 & V V i p G.H.D.u J J u D.H.G.V G Y L L V X ^ T t 3.d.k.8.8.s.l.s.%.  P.P.P.P.P.P.P.P.P.P.",
"P.P.P.P.P.P.P.  m h.2.H 8 ! , u V G p p K.L.J.$ C C % J.L.K.p B Y Y Y G = 3 8 < $.4.d.s.s.d.l.a.%.  P.P.P.P.P.P.P.P.P.P.",
"P.P.P.P.P.P.P.  m y.0 W _ o i V V L B p K.L.J.% C C % J.L.K.p B Y Y Y K V % 1 / # #.a.k.l.l.k.9.#.  P.P.P.P.P.P.P.P.P.P.",
"P.P.P.P.P.P.P.  m y.0 W _ X i V V L V p K.L.J.% F C % J.L.K.p B Y Y Y Y K * 1 / # #.a.l.l.k.a.9.#.  P.P.P.P.P.P.P.P.P.P.",
"P.P.P.P.P.P.P.  M e.0 E ) X i V C L C p S.F.A.y G G y A.F.S.p F Y Y Y Y P t 1 / # #.9.d.d.s.8.8.,.d 9 P.P.P.P.P.P.P.P.P.",
"P.P.P.P.P.P.P.  l ,.9 T ^ X u V V L K B & $ * V L K C * $ & B K Y Y Y Y P t 1 / # #.9.8.8.8.8.5.5.<.9 P.P.P.P.P.P.P.P.P.",
"P.P.P.P.P.P.P.P.q q . T ^ o u V V L Y L K J K L Y P P K J J L P Y Y Y Y P * 1 / # #.9.8.8.8.6.d q q P.P.P.P.P.P.P.P.P.P.",
"P.P.P.P.P.P.P.P.P.    2 2   & y y a B B B k B B k B B B k B B B B B B B B $ - 1 o r #.#.#.#.#.q   P.P.P.P.P.P.P.P.P.P.P.",
"P.P.P.P.P.P.P.P.P.P.P.                                                                        P.P.P.P.P.P.P.P.P.P.P.P.P."
};
