/* XPM */
static char *result[] = {
/* columns rows colors chars-per-pixel */
"60 38 184 2 ",
"   c #1B192C",
".  c #1D1E33",
"X  c #241E2D",
"o  c #291F2C",
"O  c #1D293E",
"+  c #1C223A",
"@  c #26202E",
"#  c #36242C",
"$  c #252334",
"%  c #29273B",
"&  c #2B293E",
"*  c #262538",
"=  c #302B3C",
"-  c #4B2C2C",
";  c #502F2C",
":  c #5E332C",
">  c #4E3631",
",  c #533B3C",
"<  c #513735",
"1  c #6E392C",
"2  c #65362C",
"3  c #753C2C",
"4  c #763F30",
"5  c #594138",
"6  c #644435",
"7  c #784F35",
"8  c #1C2643",
"9  c #1D2E46",
"0  c #1C2C4D",
"q  c #1E344C",
"w  c #1E3047",
"e  c #1E3A57",
"r  c #1C2E52",
"t  c #2D2C40",
"y  c #333245",
"u  c #36354A",
"i  c #38374C",
"p  c #3C3B4C",
"a  c #3D3D52",
"s  c #3A3E59",
"d  c #1E3E69",
"f  c #403442",
"g  c #403E54",
"h  c #20405B",
"j  c #3E4159",
"k  c #1E4172",
"l  c #204964",
"z  c #214F6B",
"x  c #24426E",
"c  c #21516E",
"v  c #254C74",
"b  c #225675",
"n  c #225B7B",
"m  c #205179",
"M  c #384971",
"N  c #414356",
"B  c #46455B",
"V  c #4A4D5E",
"C  c #484856",
"Z  c #4D515F",
"A  c #544F4E",
"S  c #67554B",
"D  c #745545",
"F  c #7F6756",
"G  c #4C4D62",
"H  c #4F5165",
"J  c #495B62",
"K  c #525669",
"L  c #56596E",
"P  c #5C5E6B",
"I  c #5B5E72",
"U  c #5E6377",
"Y  c #5F6478",
"T  c #63626F",
"R  c #62677B",
"E  c #6C6B77",
"W  c #756F65",
"Q  c #80412B",
"!  c #8B472E",
"~  c #8B5936",
"^  c #915D37",
"/  c #985E36",
"(  c #8E4C2F",
")  c #A54F2B",
"_  c #B8562B",
"`  c #96613A",
"'  c #B26F3A",
"]  c #B4713A",
"[  c #AE6234",
"{  c #C65C2B",
"}  c #936543",
"|  c #916F53",
" . c #97785C",
".. c #977558",
"X. c #8F7159",
"o. c #B47947",
"O. c #DD883E",
"+. c #BA9269",
"@. c #B99067",
"#. c #B88D62",
"$. c #DF934D",
"%. c #E6B278",
"&. c #1F4B84",
"*. c #2C5390",
"=. c #246A8C",
"-. c #236282",
";. c #356F87",
":. c #23689B",
">. c #25799D",
",. c #257397",
"<. c #1E56AC",
"1. c #205FA7",
"2. c #3959BD",
"3. c #2161A9",
"4. c #2162A5",
"5. c #267EA4",
"6. c #2169B9",
"7. c #247AB9",
"8. c #767A85",
"9. c #656F81",
"0. c #4977AE",
"q. c #1D5CC2",
"w. c #216FC3",
"e. c #2275CB",
"r. c #2276D0",
"t. c #237BD1",
"y. c #3A7EC7",
"u. c #288EB6",
"i. c #2582BB",
"p. c #2894BE",
"a. c #2786AD",
"s. c #7E848F",
"d. c #278CCC",
"f. c #2997C1",
"g. c #299AC4",
"h. c #289BCC",
"j. c #2484D3",
"k. c #258BD4",
"l. c #2794D6",
"z. c #289BD7",
"x. c #299ED8",
"c. c #3E94D6",
"v. c #2AA4D3",
"b. c #29A3D9",
"n. c #2BADDB",
"m. c #2FB0DC",
"M. c #33B2DE",
"N. c #38B6DF",
"B. c #2AA2CF",
"V. c #3CB9E1",
"C. c #39B6E0",
"Z. c #459BDA",
"A. c #42BDE3",
"S. c #4EC5E7",
"D. c #51C7E8",
"F. c #56CBEA",
"G. c #5CCFEB",
"H. c #5FD1ED",
"J. c #62D3ED",
"K. c #6CDAF1",
"L. c #82818C",
"P. c #8E8D97",
"I. c #95959E",
"U. c #9F9EA6",
"Y. c #969BA6",
"T. c #8A97A9",
"R. c #A5A4AB",
"E. c #B5B6BC",
"W. c #B4B9BF",
"Q. c #A3ACB5",
"!. c #8CB7DD",
"~. c #BBBEC6",
"^. c #BDC3C8",
"/. c #9BC2EA",
"(. c #C6C5CA",
"). c #CFD8DC",
"_. c #D3DBDF",
"`. c #DDDDE1",
"'. c #D1D7E4",
"]. c #C5D8E7",
"[. c #DDE2F4",
"{. c #F1F4F5",
"}. c white",
"|. c None",
/* pixels */
"|.|.|.|.|.|.|.|.|.|.|.|.|.|.|.|.|.|.|.|.|.|.|.|.|.|.|.|.|.|.|.|.|.|.|.|.|.|.|.|.|.|.|.|.|.|.|.|.|.|.|.|.|.|.|.|.|.|.|.|.",
"|.|.|.|.|.|.|.|.|.|.|.|.|.|.|.|.|.|.|.|.|.|.|.|.|.|.|.|.|.|.|.|.|.|.|.|.|.|.|.|.|.|.|.|.|.|.|.|.|.|.|.|.|.|.|.|.|.|.|.|.",
"|.|.|.|.|.|.|.|.|.|.|.|.|.|.|.|.|.|.|.|.|.|.|.|.|.|.|.|.|.|.|.|.|.|.|.|.|.|.|.|.|.|.|.|.|.|.|.|.|.|.|.|.|.|.|.|.|.|.|.|.",
"|.|.|.|.|.|.|.|.|.|.|.|.|.|.|.|.|.|.|.|.|.|.|.|.|.|.|.|.|.|.|.|.|.|.|.|.|.|.|.|.|.|.|.|.|.|.|.|.|.|.|.|.|.|.|.|.|.|.|.|.",
"|.|.|.|.|.|.|.|.|.|.|.|.|.|.|.|.|.|.|.|.|.|.|.|.|.|.|.|.|.|.|.|.|.|.|.|.|.|.|.|.|.|.|.|.|.|.|.|.|.|.|.|.|.|.|.|.|.|.|.|.",
"|.|.|.|.|.|.|.|.|.|.|.|.|.|.|.|.|.|.|.|.|.|.|.|.|.|.|.|.|.|.|.|.|.|.|.|.|.|.|.|.|.|.|.|.|.|.|.|.|.|.|.|.|.|.|.|.|.|.|.|.",
"|.|.|.|.|.|.|.|.|.|.|.|.|.|.|.|.|.|.|.|.|.|.|.|.|.|.|.|.|.|.|.|.|.|.|.|.|.|.|.|.|.|.|.|.|.|.|.|.|.|.|.|.|.|.|.|.|.|.|.|.",
"|.|.|.|.|.|.|.|.|.|.|.|.|.|.|.|.|.|.|.|.|.|.    |.|.|.|.|.|.|.|.      |.|.|.|.|.|.|.|.|.|.|.|.|.|.|.|.|.|.|.|.|.|.|.|.|.",
"|.|.|.|.|.|.|.|.|.|.|.|.|.|.|.|.|.|.|.|.|.e l l q |.|.|.|.|.|.e l l l h |.|.|.|.|.|.|.|.|.|.|.|.|.|.|.|.|.|.|.|.|.|.|.|.",
"|.|.|.|.|.|.|.|.|.|.|.|.|.|.|.|.|.|.|.    =.n.n.c             =.n.n.n.>.        |.|.|.|.|.|.|.|.|.|.|.|.|.|.|.|.|.|.|.|.",
"|.|.|.|.|.|.|.|.|.|.|.|.|.|.|.|.    c 5.a.p.n.n.u.5.5.5.>.a.a.p.n.n.n.h.5.5.5.,.9     |.|.|.|.|.|.|.|.|.|.|.|.|.|.|.|.|.",
"|.|.|.|.|.|.|.|.|.|.|.|.|.|.|.q z c >.n.n.n.n.n.n.n.n.n.n.n.n.n.n.n.n.n.n.n.n.B.n w   |.|.|.|.|.|.|.|.|.|.|.|.|.|.|.|.|.",
"|.|.|.|.|.|.|.|.|.|.|.|.|.|.+ c n.n.n.n.n.n.n.n.n.n.n.n.n.n.n.n.n.n.n.n.n.n.n.n.n.-.. * $ +   |.|.|.|.|.|.|.|.|.|.|.|.|.",
"|.|.|.|.|.|.|.|.|.|.|.|.|.  =.p.n.n.A.G.G.A.n.n.n.n.n.n.n.n.n.n.n.n.n.n.n.n.n.n.n.i.0.~.E.8.  |.|.|.|.|.|.|.|.|.|.|.|.|.",
"|.|.|.|.|.|.|.|.|.|.|.|.q b p.n.n.A.F.K.K.G.V.n.N.N.n.n.n.n.n.n.n.n.n.n.n.n.n.n.n.z.Z./.].Y.  |.|.|.|.|.|.|.|.|.|.|.|.|.",
"|.|.|.|.|.|.|.|.|.|.|.O l v.n.n.m.G.K.K.K.K.G.M.D.F.n.n.n.n.n.n.n.n.n.n.n.n.n.n.n.n.b.t.!.T.+ |.|.|.|.|.|.|.|.|.|.|.|.|.",
"|.|.|.|.|.|.|.|.|.|.  n p.n.n.n.m.F.K.K.K.K.F.n.M.M.n.n.n.n.n.n.n.n.n.n.n.n.n.n.n.n.n.b.c.y.1.r |.|.|.|.|.|.|.|.|.|.|.|.",
"|.|.|.|.|.|.|.|.|.|.  =.n.n.n.n.n.S.G.K.K.F.S.n.n.n.n.n.n.n.n.n.n.n.n.n.n.n.n.n.n.n.n.n.z.l.d.e   |.|.|.|.|.|.|.|.|.|.|.",
"|.|.|.|.|.|.|.|.|.|.w >.n.n.M.M.M.M.A.J.J.S.n.n.n.n.n.n.n.n.n.n.n.n.n.n.n.n.n.n.n.n.n.n.n.n.v.c 9 |.|.|.|.|.|.|.|.|.|.|.",
"|.|.|.|.|.|.|.|.|.w a.B.n.n.D.H.H.M.M.M.N.m.n.n.n.n.n.n.n.n.n.n.n.n.n.n.n.n.n.n.n.n.n.n.n.n.n.g.-.  |.|.|.|.|.|.|.|.|.|.",
"|.|.|.|.|.|.|.|.|.w f.n.n.n.F.K.K.C.m.n.n.n.n.n.n.n.n.n.n.n.n.n.n.n.n.n.n.n.n.n.n.n.n.n.n.n.n.n.=.  |.|.|.|.|.|.|.|.|.|.",
"|.|.|.|.|.|.|.|.|.w f.n.n.n.S.G.G.N.B.u.u.u.u.u.u.u.u.u.u.u.u.u.p.v.b.n.n.n.n.m.n.n.n.n.n.n.n.n.=.  |.|.|.|.|.|.|.|.|.|.",
"|.|.|.|.|.|.|.|.|.w f.n.n.n.m.M.M.n.,.O O O O O O O O O O O O O d e.x.n.n.n.n.n.n.n.n.n.n.n.n.n.=.  |.|.|.|.|.|.|.|.|.|.",
"|.|.|.|.|.|.|.|.l >.v.n.n.n.n.u.b b Z ` .... . .} } ..` ` ~ ` ~ D x c :.l.b.n.n.n.n.n.n.n.n.n.n.i.&.8 |.|.|.|.|.|.|.|.|.",
"|.|.|.|.|.|.|.  b n.n.n.n.n.p.;.5 < 7 o.#.+.+.+.#.] @.o.' ' ' ' / ; - g 1.d.b.n.n.n.n.n.b.b.n.n.l.6.0 |.|.|.|.|.|.|.|.|.",
"|.|.|.|.|.|.|.  n n.n.n.n.n.c S %.$.~ @ @ @ @ @ @ @ $ @ X @ @ X - { { ! + 3.k.n.n.n.n.n.k.k.n.n.l.6.t |.|.|.|.|.|.|.|.|.",
"|.|.|.|.|.|.|.  n n.n.n.p.b W X.S 6 , u i i u u y u u u u u y u y 2 2 1 ! s :.k.b.n.n.n.x.b.n.n.5.M Y.E     |.|.|.|.|.|.",
"|.|.|.|.|.|.|.  n n.n.p.;.5 | F % & u B i i a G H H G a i p G H B & % < ( 1 s 1.l.b.n.z.z.b.n.x.:.M `.R.T T B |.|.|.|.|.",
"|.|.|.|.|.|.|.  n n.n.n ; O.6 & B B B a .   & U R R R &   * L R I B B u X ) Q 8 6.l.x.e.r.k.n.j.q.2.[.}.}.}.E   |.|.|.|.",
"|.|.|.|.|.|.|.  n n.n.n > O.6 & B B i a R.E.I.p H H p I.E.R.N H R I I N X ) Q 8 6.l.b.t.r.k.n.t.q.2.[.}.}.}.(.8.  |.|.|.",
"|.|.|.|.|.|.|.  n v.5.J 7 ` , u B Z i p `.}.(.* Z V $ (.}.`.p N R R R G = 4 3 : *.7.l.k.k.l.n.j.<.*.'.{.{.{.W.8.  |.|.|.",
"|.|.|.|.|.|.|.  n p.9 ~ ] X u B B U N p `.}.(.* V V $ (.}.`.g N R R R I B * 1 _ # &.j.n.n.n.b.j.&.u ^.).).).P   |.|.|.|.",
"|.|.|.|.|.|.|.  n f.9 ~ ] X u B B I N p `.}.(.* V V * (.}.`.p N R R R R L & 1 _ # &.j.n.n.x.j.t.&.y Q.L.V Z p |.|.|.|.|.",
"|.|.|.|.|.|.|.  m i.8 ! [ X u B V I G g P.U.L.y H H y L.U.P.p G R R R R U t 1 _ # &.t.l.l.k.r.r.1.v 9.Z X   |.|.|.|.|.|.",
"|.|.|.|.|.|.|.  k 3.8 Q ) X u B B I L N * $ & B I L B & $ % N L R R R R U & 1 _ # &.t.r.r.r.r.w.w.1.8 |.|.|.|.|.|.|.|.|.",
"|.|.|.|.|.|.|.|.9 0 . 7 ) o u B B I R I L K L I R R U L K L P U R R R R U & 1 _ # &.t.r.r.r.r.d 0 r |.|.|.|.|.|.|.|.|.|.",
"|.|.|.|.|.|.|.|.|.    2 2 X % t y a j N N j N N N j N N N j N N N N N N j $ - 1 o r &.&.&.&.&.0   |.|.|.|.|.|.|.|.|.|.|.",
"|.|.|.|.|.|.|.|.|.|.|.                                                                        |.|.|.|.|.|.|.|.|.|.|.|.|."
};
